<svg width="165" height="306" viewBox="0 0 165 306" fill="none" xmlns="http://www.w3.org/2000/svg">
<path d="M53.2117 134.656C58.2792 144.673 65.0778 153.701 72.673 161.934C76.5079 166.09 80.5486 170.054 84.7052 173.888C89.0044 177.852 93.4948 181.656 97.2749 186.14C101.416 191.054 104.684 196.993 105.058 203.52C105.1 204.252 106.244 204.257 106.202 203.52C105.523 191.665 96.5058 183.064 88.2604 175.584C79.7033 167.821 71.4663 159.656 64.4817 150.422C60.5919 145.28 57.1107 139.833 54.1988 134.077C53.8665 133.42 52.8801 133.998 53.2117 134.654V134.656Z" fill="#263238"/>
<path d="M57.0391 84.3516C45.5237 66.9286 26.952 63.3033 13.0674 72.4832C-0.817135 81.6631 -4.75039 100.168 6.71857 117.593C17.75 134.266 39.966 145.415 54.0084 138.267C53.7477 139.948 54.1204 141.666 55.0527 143.088L61.5144 138.805C60.5737 137.389 59.1369 136.375 57.4866 135.964C69.6248 125.83 68.0698 101.025 57.0391 84.3516Z" fill="#02A66A"/>
<path opacity="0.3" d="M57.0391 84.3516C45.5237 66.9286 26.952 63.3033 13.0674 72.4832C-0.817135 81.6631 -4.75039 100.168 6.71857 117.593C17.75 134.266 39.966 145.415 54.0084 138.267C53.7477 139.948 54.1204 141.666 55.0527 143.088L61.5144 138.805C60.5737 137.389 59.1369 136.375 57.4866 135.964C69.6248 125.83 68.0698 101.025 57.0391 84.3516Z" fill="white"/>
<path d="M54.0756 138.909C53.9361 138.913 53.7997 138.868 53.6884 138.784C53.3987 138.579 53.3301 138.178 53.5351 137.887L53.5367 137.885C53.7417 137.603 55.6039 135.03 57.6193 135.318C57.9745 135.369 58.2231 135.694 58.1788 136.05C58.1285 136.402 57.803 136.646 57.4516 136.595H57.4463C56.3845 136.445 54.9972 138.052 54.5871 138.632C54.4704 138.801 54.2806 138.903 54.0756 138.909Z" fill="#263238"/>
<path d="M100.592 215.144C103.749 209.25 104.045 202.357 103.402 195.832C102.986 191.614 102.11 187.468 101.377 183.3C100.803 180.036 100.271 176.763 99.5683 173.524C97.921 165.929 95.0984 158.656 91.9182 151.584C88.2091 143.333 84.0128 135.237 81.396 126.546C78.5688 117.156 77.5771 106.865 81.2054 97.547C81.473 96.861 80.3677 96.5637 80.1032 97.2429C73.5638 114.035 81.4371 131.65 88.4911 146.845C92.0158 154.439 95.4528 162.116 97.6024 170.232C98.4073 173.272 99.0011 176.359 99.5484 179.455C100.247 183.403 101.02 187.343 101.661 191.3C102.902 198.956 103.387 207.505 99.6041 214.567C99.2565 215.215 100.244 215.793 100.591 215.144H100.592Z" fill="#263238"/>
<path d="M128.583 50.8603C134.293 25.3551 121.437 5.46545 101.109 0.918574C80.7812 -3.62831 60.6843 8.89029 54.933 34.3559C49.4798 58.7741 58.7146 88.4801 77.3488 94.9326C75.6078 96.1568 74.3821 97.9839 73.9095 100.06L83.3805 102.166C83.8402 100.089 83.5063 97.9138 82.4445 96.0692C102.117 98.2142 123.129 75.2785 128.583 50.8595L128.583 50.8603Z" fill="#02A66A"/>
<path d="M76.8286 95.5493C76.7043 95.4266 76.6258 95.265 76.606 95.0919C76.5389 94.6529 76.8415 94.2428 77.2806 94.1757H77.2844C77.7174 94.1155 81.6514 93.5605 83.1431 95.6263C83.4053 95.9906 83.3276 96.4975 82.9686 96.7666C82.608 97.0265 82.1049 96.945 81.8458 96.5844L81.8419 96.5791C81.0553 95.4921 78.4019 95.6369 77.523 95.7703C77.2699 95.8115 77.0123 95.7299 76.8293 95.5493H76.8286Z" fill="#263238"/>
<g opacity="0.3">
<path d="M103.008 8.73009C102.732 8.33447 102.305 8.07531 101.884 7.84053C96.8966 5.05752 93.6852 3.1412 85.9048 5.58653C78.6047 9.03804 72.1102 14.1787 67.0747 20.4902C65.365 22.6337 63.7802 25.0074 63.3336 27.7119C62.8869 30.4171 63.8511 33.5172 66.237 34.8672C68.1 35.9206 70.4058 35.7369 72.4982 35.2865C78.3813 34.0203 83.6996 30.9439 88.7877 27.7302C95.2135 23.6719 101.989 18.5244 103.276 11.0336C103.41 10.2508 103.461 9.38029 103.007 8.72932L103.008 8.73009Z" fill="white"/>
</g>
<path d="M121.698 142.18C121.739 146.286 120.866 150.29 119.922 154.263C118.956 158.325 117.982 162.385 117.012 166.446C115.052 174.649 113.093 182.853 111.133 191.057C110.623 193.195 110.152 195.347 109.583 197.47C109.056 199.434 108.356 201.369 107.006 202.927C106.526 203.48 107.331 204.293 107.815 203.735C110.178 201.009 110.804 197.355 111.617 193.951C112.634 189.695 113.65 185.439 114.667 181.183C116.671 172.795 118.674 164.406 120.678 156.017C121.765 151.469 122.889 146.887 122.842 142.179C122.834 141.444 121.691 141.442 121.698 142.179L121.698 142.18Z" fill="#263238"/>
<path d="M159.468 119.923C163.942 99.5232 153.601 83.6758 137.342 80.113C121.083 76.5502 105.069 86.6235 100.562 106.992C96.2896 126.522 103.773 150.226 118.684 155.318C117.297 156.302 116.324 157.766 115.954 159.426L123.529 161.076C123.89 159.415 123.615 157.678 122.76 156.208C138.486 157.853 155.196 139.453 159.469 119.924L159.468 119.923Z" fill="#02A66A"/>
<path d="M118.27 155.811C118.17 155.713 118.107 155.584 118.09 155.446C118.035 155.095 118.275 154.766 118.626 154.711H118.629C118.974 154.661 122.116 154.204 123.315 155.85C123.526 156.14 123.466 156.545 123.18 156.761C122.893 156.97 122.491 156.906 122.282 156.62L122.279 156.615C121.647 155.749 119.527 155.874 118.825 155.984C118.623 156.017 118.417 155.953 118.27 155.81L118.27 155.811Z" fill="#263238"/>
<path opacity="0.3" d="M159.468 119.923C163.942 99.5232 153.601 83.6758 137.342 80.113C121.083 76.5502 105.069 86.6235 100.562 106.992C96.2896 126.522 103.773 150.226 118.684 155.318C117.297 156.302 116.324 157.766 115.954 159.426L123.529 161.076C123.89 159.415 123.615 157.678 122.76 156.208C138.486 157.853 155.196 139.453 159.469 119.924L159.468 119.923Z" fill="black"/>
<path d="M152.903 85.0835C155.977 87.4983 158.453 90.5694 160.102 94.1185C161.903 97.9954 162.688 102.257 163.331 106.454C163.442 107.179 164.544 106.871 164.433 106.15C163.774 101.842 162.937 97.5182 161.089 93.5407C159.405 89.9162 156.851 86.7406 153.711 84.2739C153.139 83.8242 152.324 84.6284 152.903 85.0827L152.903 85.0835Z" fill="#02A66A"/>
<path d="M81.2347 179.827C81.2347 180.292 81.025 180.667 80.7666 180.667C80.5082 180.667 80.2979 180.291 80.2979 179.827C80.2979 179.364 80.5075 178.987 80.7666 178.987C81.0258 178.987 81.2347 179.363 81.2347 179.827Z" fill="white"/>
<path d="M65.6685 179.067C65.6685 179.531 65.4589 179.907 65.2005 179.907C64.9421 179.907 64.7324 179.531 64.7324 179.067C64.7324 178.603 64.9421 178.227 65.2005 178.227C65.4589 178.227 65.6685 178.604 65.6685 179.067Z" fill="white"/>
<path d="M134.047 276.552C132.146 272.884 129.822 269.439 128.079 265.693C125.406 259.947 124.157 253.545 124.474 247.216L116.419 254.239C116.968 258.195 118.256 262.049 120.197 265.54C123.888 272.177 130.007 277.785 131.17 285.289C131.541 287.683 131.364 290.16 130.657 292.477C129.408 296.573 126.271 300.236 122.139 301.359C118.007 302.483 113.04 300.548 111.376 296.603C110.773 295.176 110.58 293.539 109.612 292.33C108.689 291.178 107.084 290.603 105.649 290.95C104.213 291.297 103.036 292.568 102.845 294.032C102.758 294.694 102.858 295.365 102.988 296.02C103.379 297.981 104.062 299.922 105.298 301.493C107.535 304.335 111.279 305.583 114.882 305.905C120.186 306.379 125.708 305.086 129.994 301.927C134.28 298.768 137.205 293.685 137.343 288.362C137.449 284.232 135.95 280.219 134.048 276.552H134.047Z" fill="#263238"/>
<path d="M101.16 253.769C101.081 249.135 100.103 244.32 97.2029 240.705L82.6354 247.375C80.1359 249.991 78.1594 253.257 77.7417 256.852C77.3232 260.446 78.693 264.364 81.694 266.386C80.2792 267.762 79.0878 274.368 78.5245 276.259C77.9619 278.151 78.0816 280.294 79.1107 281.977C79.6831 282.914 80.6505 283.733 81.7466 283.673C83.0081 283.604 83.8946 282.456 84.6561 281.448C88.6488 276.165 93.9572 267.067 98.1733 261.959C99.2511 260.653 100.275 259.25 100.763 257.628C101.138 256.385 101.182 255.067 101.16 253.769Z" fill="#263238"/>
<path d="M101.163 253.772C101.085 249.139 100.109 244.323 97.2105 240.707L82.6407 247.372C80.1405 249.988 78.1632 253.253 77.7439 256.847C77.3247 260.441 78.6929 264.36 81.6932 266.383C80.2777 267.758 79.0847 274.365 78.5207 276.256C77.9574 278.147 78.0763 280.291 79.1053 281.974C79.6778 282.911 80.6443 283.732 81.7405 283.671C83.002 283.602 83.8885 282.455 84.6508 281.447C88.645 276.165 93.9572 267.069 98.174 261.962C99.2526 260.656 100.276 259.253 100.766 257.632C101.141 256.388 101.185 255.071 101.163 253.772Z" fill="white"/>
<path d="M101.163 253.772C101.085 249.139 100.109 244.323 97.2105 240.707L82.6407 247.372C80.1405 249.988 78.1632 253.253 77.7439 256.847C77.3247 260.441 78.6929 264.36 81.6932 266.383C80.2777 267.758 79.0847 274.365 78.5207 276.256C77.9574 278.147 78.0763 280.291 79.1053 281.974C79.6778 282.911 80.6443 283.732 81.7405 283.671C83.002 283.602 83.8885 282.455 84.6508 281.447C88.645 276.165 93.9572 267.069 98.174 261.962C99.2526 260.656 100.276 259.253 100.766 257.632C101.141 256.388 101.185 255.071 101.163 253.772Z" fill="black"/>
<path d="M134.047 276.552C132.146 272.884 129.822 269.439 128.079 265.693C125.406 259.947 124.157 253.545 124.474 247.216L116.419 254.239C116.968 258.195 118.256 262.049 120.197 265.54C123.888 272.177 130.007 277.785 131.17 285.289C131.541 287.683 131.364 290.16 130.657 292.477C129.408 296.573 126.271 300.236 122.139 301.359C118.007 302.483 113.04 300.548 111.376 296.603C110.773 295.176 110.58 293.539 109.612 292.33C108.689 291.178 107.084 290.603 105.649 290.95C104.213 291.297 103.036 292.568 102.845 294.032C102.758 294.694 102.858 295.365 102.988 296.02C103.379 297.981 104.062 299.922 105.298 301.493C107.535 304.335 111.279 305.583 114.882 305.905C120.186 306.379 125.708 305.086 129.994 301.927C134.28 298.768 137.205 293.685 137.343 288.362C137.449 284.232 135.95 280.219 134.048 276.552H134.047Z" fill="#263238"/>
<path d="M107.582 190.795C107.47 190.539 135.626 249.758 115.851 258.233C96.0998 266.699 78.4916 265.453 77.9633 236.568C77.6028 216.847 70.4345 212.21 68.5228 196.69C67.7902 190.741 82.8799 176.15 94.3184 175.872C98.1312 175.779 107.583 190.795 107.583 190.795H107.582Z" fill="#263238"/>
<path opacity="0.2" d="M80.2573 216.158C80.2573 216.158 79.2938 210.015 81.7933 207.348C84.2927 204.683 89.832 204.934 90.7155 208.182C91.599 211.43 93.8209 217.075 93.8209 217.075C93.8209 217.075 102.809 229.676 102.132 238.007C101.454 246.338 96.0932 253.086 91.9008 252.836C87.7084 252.586 81.4388 249.42 80.0751 242.005C78.7107 234.591 79.4607 222.344 79.5438 222.094C79.6269 221.844 80.2573 216.158 80.2573 216.158Z" fill="white"/>
<path d="M75.002 214.543C75.002 214.543 103.258 222.219 110.125 196.495L115.46 210.306C115.46 210.306 112.99 221.892 99.0078 225.241C78.1005 230.247 76.8596 225.441 76.8596 225.441L75.002 214.543Z" fill="#02A66A"/>
<path d="M70.2439 204.676C67.9008 209.885 63.9744 227.611 61.0862 232.781C57.5561 238.015 58.9008 240.555 63.6855 240.399C68.4702 240.243 71.8439 234.996 71.2372 232.529C70.6304 230.061 80.8851 214.756 79.0419 209.876C77.6432 206.178 73.0117 202.256 70.2439 204.676Z" fill="#263238"/>
<path opacity="0.2" d="M70.2439 204.676C67.9008 209.885 63.9744 227.611 61.0862 232.781C57.5561 238.015 58.9008 240.555 63.6855 240.399C68.4702 240.243 71.8439 234.996 71.2372 232.529C70.6304 230.061 80.8851 214.756 79.0419 209.876C77.6432 206.178 73.0117 202.256 70.2439 204.676Z" fill="white"/>
<path d="M64.0272 240.704C63.9631 240.704 63.9006 240.686 63.8473 240.65C62.9471 239.984 63.3792 237.481 64.0272 236.004C64.0767 235.845 64.2452 235.758 64.4037 235.808C64.5615 235.858 64.6499 236.026 64.5996 236.185C64.5928 236.205 64.5844 236.226 64.5737 236.245C63.8656 237.878 63.7634 239.847 64.2078 240.165C64.3405 240.264 64.3671 240.453 64.268 240.585C64.2116 240.661 64.1225 240.706 64.0279 240.706L64.0272 240.704Z" fill="black"/>
<path d="M60.6055 240.242C60.5186 240.242 60.4363 240.205 60.3776 240.14C59.6695 239.342 60.3113 236.833 61.3198 235.41C61.4158 235.274 61.6041 235.241 61.7398 235.338C61.8755 235.434 61.9082 235.622 61.8114 235.758C60.8571 237.096 60.4127 239.276 60.8266 239.744C60.9425 239.857 60.9448 240.044 60.8312 240.16L60.8266 240.165C60.7671 240.221 60.6863 240.249 60.6048 240.242H60.6055Z" fill="black"/>
<path opacity="0.2" d="M94.2718 205.597C93.2961 211.226 89.6388 226.931 88.1249 232.655C86.0058 238.602 92.1961 243.169 96.7918 241.83C101.387 240.49 103.353 234.57 102.152 232.33C100.952 230.091 104.533 211.893 101.535 207.623C99.2623 204.389 96.3512 202.566 94.2718 205.597Z" fill="black"/>
<path d="M92.1643 203.249C91.1886 208.878 91.7885 227.023 90.2747 232.748C88.1556 238.695 90.0894 240.821 94.6851 239.482C99.2808 238.142 101.246 232.222 100.045 229.982C98.8455 227.743 104.976 210.37 101.978 206.101C99.7053 202.866 94.2445 200.218 92.1643 203.249Z" fill="#263238"/>
<path opacity="0.2" d="M92.1643 203.249C91.1886 208.878 91.7885 227.023 90.2747 232.748C88.1556 238.695 90.0894 240.821 94.6851 239.482C99.2808 238.142 101.246 232.222 100.045 229.982C98.8455 227.743 104.976 210.37 101.978 206.101C99.7053 202.866 94.2445 200.218 92.1643 203.249Z" fill="white"/>
<path d="M95.0915 239.692C95.0298 239.709 94.9642 239.706 94.904 239.685C93.8665 239.263 93.663 236.731 93.9245 235.14C93.9336 234.974 94.0746 234.847 94.2401 234.856C94.4055 234.865 94.5328 235.006 94.5236 235.172C94.5221 235.194 94.519 235.215 94.5129 235.236C94.2324 236.994 94.6227 238.926 95.1319 239.125C95.2851 239.188 95.3575 239.364 95.2943 239.516C95.2584 239.603 95.183 239.669 95.0915 239.692Z" fill="black"/>
<path d="M91.6619 240.095C91.5773 240.116 91.4881 240.1 91.4157 240.053C90.5315 239.456 90.53 236.865 91.1535 235.237C91.2129 235.082 91.3867 235.004 91.543 235.063C91.6985 235.123 91.7762 235.297 91.7168 235.452C91.1245 236.986 91.2358 239.207 91.7534 239.558C91.8936 239.639 91.9424 239.819 91.8609 239.959L91.8578 239.965C91.8144 240.034 91.7427 240.082 91.6619 240.096V240.095Z" fill="black"/>
<g opacity="0.2">
<path d="M124.458 258.192C124.833 256.949 124.876 255.631 124.854 254.332C124.775 249.699 123.798 244.883 120.897 241.268L106.33 247.939C103.83 250.555 101.854 253.821 101.436 257.415C101.436 257.415 100.687 262.561 100.831 262.544C100.975 262.527 124.459 258.192 124.459 258.192H124.458Z" fill="black"/>
</g>
<path d="M125.624 253.769C125.544 249.135 124.567 244.32 121.667 240.705L107.099 247.375C104.6 249.991 102.623 253.257 102.206 256.852C101.787 260.446 103.157 264.364 106.158 266.386C104.743 267.762 103.552 274.368 102.988 276.259C102.426 278.151 102.545 280.294 103.575 281.977C104.147 282.914 105.114 283.733 106.21 283.673C107.472 283.604 108.358 282.456 109.12 281.448C113.113 276.165 118.421 267.067 122.637 261.959C123.715 260.653 124.739 259.25 125.227 257.628C125.602 256.385 125.646 255.067 125.624 253.769Z" fill="#263238"/>
<g opacity="0.2">
<path d="M125.624 253.769C125.544 249.135 124.567 244.32 121.667 240.705L107.099 247.375C104.6 249.991 102.623 253.257 102.206 256.852C101.787 260.446 103.157 264.364 106.158 266.386C104.743 267.762 103.552 274.368 102.988 276.259C102.426 278.151 102.545 280.294 103.575 281.977C104.147 282.914 105.114 283.733 106.21 283.673C107.472 283.604 108.358 282.456 109.12 281.448C113.113 276.165 118.421 267.067 122.637 261.959C123.715 260.653 124.739 259.25 125.227 257.628C125.602 256.385 125.646 255.067 125.624 253.769Z" fill="white"/>
</g>
<path d="M98.9492 173.525C102.531 161.621 95.1905 149.618 95.1905 149.618C89.7122 152.028 84.9877 155.874 81.5171 160.749C78.2112 160.604 74.9007 160.649 71.6001 160.884C69.7738 157.819 64.7794 150.829 56.8054 149.977C56.8054 149.977 53.4995 164.616 58.0632 172.093C56.6842 174.305 55.4433 176.6 54.3479 178.964C52.0329 184.146 55.9273 190.732 58.7644 194.309C61.6016 197.887 69.2486 202.026 76.4664 202.124C87.0046 202.259 97.8973 193.672 99.9028 189.215C100.933 186.864 101.37 179.971 98.9492 173.525Z" fill="#263238"/>
<path opacity="0.2" d="M78.0181 201.949C77.4967 201.998 76.9746 202.047 76.4532 202.095C71.4993 202.027 66.6993 200.359 62.7714 197.34C61.4359 195.355 60.9206 192.93 61.333 190.573L61.6273 191.379C61.3467 190.217 61.6379 188.991 62.4101 188.079L62.574 189.831C62.574 189.831 62.9879 184.182 67.6583 185.383L70.8765 185.608C75.7321 184.438 78.6599 191.104 78.6599 191.104L78.9488 189.528C78.9488 189.528 82.2167 191.655 82.7983 194.788L83.9188 194.137C83.9188 194.137 83.3943 200.094 78.0174 201.948L78.0181 201.949Z" fill="white"/>
<path opacity="0.2" d="M98.9492 173.525C102.531 161.621 95.1905 149.618 95.1905 149.618C89.7122 152.028 84.9877 155.874 81.5171 160.749C78.2112 160.604 74.9007 160.649 71.6001 160.884C69.7738 157.819 64.7794 150.829 56.8054 149.977C56.8054 149.977 53.4995 164.616 58.0632 172.093C56.6842 174.305 55.4433 176.6 54.3479 178.964C52.0329 184.146 55.9273 190.732 58.7644 194.309C61.6016 197.887 69.2486 202.026 76.4664 202.124C87.0046 202.259 97.8973 193.672 99.9028 189.215C100.933 186.864 101.37 179.971 98.9492 173.525Z" fill="white"/>
<path d="M82.6868 179.523C82.6937 181.508 81.6265 183.147 80.3063 183.152C78.9861 183.157 77.8922 181.551 77.8838 179.556C77.8755 177.561 78.9342 175.932 80.2636 175.917C81.593 175.901 82.6784 177.527 82.6868 179.523Z" fill="#263238"/>
<path d="M67.035 178.769C66.7469 180.782 65.4495 182.195 64.1323 182.02C62.8152 181.845 61.9637 180.069 62.2846 178.092C62.6055 176.116 63.88 174.666 65.1873 174.841C66.4946 175.016 67.3262 176.795 67.035 178.769Z" fill="#263238"/>
<path d="M66.3381 185.387C67.4922 184.511 69.0991 184.55 70.2097 185.481C70.9315 185.979 68.4755 188.165 68.4755 188.165C68.4755 188.165 65.8351 186.268 66.3381 185.387Z" fill="#263238"/>
<path d="M74.1299 193.624C71.9643 193.827 68.8954 192.764 68.4076 192.005C67.7673 191.003 67.903 187.147 67.8809 186.384C67.8961 186.169 68.0767 186.004 68.2925 186.008C68.5097 186.019 68.6782 186.203 68.669 186.42C68.5974 188.095 68.6286 190.971 69.0136 191.581C69.3985 192.19 73.1587 193.427 74.9112 192.638C75.1681 192.514 75.9577 192.152 75.5438 190.593C75.4882 190.381 75.6147 190.165 75.8259 190.109C76.037 190.054 76.2535 190.179 76.3092 190.391C76.8184 192.33 75.8267 193.088 75.1978 193.366C74.8578 193.509 74.4973 193.595 74.1299 193.624Z" fill="#263238"/>
<path d="M67.3781 192.778C66.5633 192.826 65.753 192.621 65.0593 192.191C64.3016 191.827 63.733 191.158 63.4967 190.351C63.3968 189.866 63.4921 189.361 63.762 188.946C63.9007 188.782 64.1461 188.759 64.3131 188.895C64.4724 189.036 64.4952 189.277 64.3649 189.446C64.2117 189.677 64.1621 189.963 64.23 190.233C64.435 190.805 64.8611 191.27 65.413 191.522C67.3126 192.615 68.3934 191.54 68.3927 191.531C68.5451 191.374 68.7959 191.371 68.953 191.524C69.11 191.676 69.113 191.927 68.9606 192.084C68.5169 192.473 67.9643 192.716 67.3773 192.778L67.3781 192.778Z" fill="#263238"/>
<path opacity="0.4" d="M100.713 184.303C99.0229 182.803 94.8724 180.362 85.1475 179.157C85.1475 179.157 95.9083 178.804 100.72 182.793C100.73 183.318 100.728 183.825 100.713 184.303Z" fill="black"/>
<path opacity="0.4" d="M70.7787 177.464C70.8016 177.71 70.3305 167.169 74.0778 160.741C74.7768 160.675 75.4727 160.69 76.1564 160.675L76.3333 160.659C73.1996 165.752 71.2978 171.506 70.7779 177.464H70.7787Z" fill="black"/>
<path opacity="0.2" d="M82.8894 164.484C82.8894 164.484 88.2923 154.743 94.6557 151.019C98.6903 157.582 99.7476 165.551 97.5629 172.94C97.5629 172.94 92.9231 172.382 91.3803 170.54C91.3803 170.54 92.1555 167.687 93.9826 166.523C92.7477 167.012 91.6524 167.797 90.791 168.808C90.791 168.808 91.0738 164.194 92.6662 161.9C92.6662 161.9 89.425 164.716 88.8488 168.215C88.7924 168.25 83.9879 167.101 82.8887 164.484H82.8894Z" fill="white"/>
<path opacity="0.2" d="M81.516 160.749C81.1585 161.636 80.8727 162.549 80.66 163.481C79.8642 162.711 79.307 161.73 79.0547 160.652C79.9625 160.696 80.7987 160.717 81.5168 160.749L81.516 160.749Z" fill="black"/>
<path opacity="0.2" d="M58.7585 171.471C58.7585 171.471 61.7664 167.753 63.5356 166.605C63.5356 166.605 61.8289 163.964 61.194 163.765C62.1506 164.021 63.0447 164.472 63.82 165.089C63.82 165.089 63.2483 162.163 61.9105 160.819C63.3291 161.905 64.5212 163.257 65.4214 164.8L68.2075 162.742C65.9344 157.745 62.0553 153.652 57.1883 151.113C57.1883 151.113 54.1956 164.213 58.7578 171.472L58.7585 171.471Z" fill="white"/>
<path opacity="0.2" d="M54.3643 178.942C55.4535 176.585 56.6884 174.296 58.062 172.092C57.6138 171.36 57.2448 170.583 56.9613 169.772C60.55 165.683 66.5848 163.956 66.5848 163.956C61.6751 168.207 57.5398 173.278 54.3643 178.942Z" fill="black"/>
<path opacity="0.4" d="M79.8541 160.706C79.2298 161.542 78.6756 162.427 78.1954 163.354C77.8158 164.068 77.5033 164.815 77.2624 165.586C77.0246 166.333 76.9171 167.198 76.5832 167.984C75.8774 169.478 75.0107 170.891 73.9992 172.197C72.9816 173.455 72.2391 174.911 71.8184 176.473C72.1736 174.885 72.8596 173.39 73.83 172.084C74.7797 170.75 75.5809 169.316 76.2197 167.808C76.4483 167.026 76.6359 166.233 76.7814 165.432C76.9972 164.62 77.2853 163.829 77.642 163.068C78.0369 162.238 78.482 161.434 78.9752 160.659L79.0735 160.65L79.8533 160.706L79.8541 160.706Z" fill="black"/>
<path opacity="0.4" d="M69.5213 171.137C69.7294 172.634 69.795 174.147 69.7164 175.657C69.7142 174.151 69.5739 172.648 69.2957 171.168C69.1707 170.416 69.0998 169.656 69.083 168.894C69.1188 168.119 69.2926 167.356 69.5968 166.642C69.862 165.939 70.0869 165.221 70.2691 164.493C70.513 163.778 70.8164 163.086 71.1769 162.422C71.4475 161.92 71.7242 161.378 72.0322 160.952L72.9279 160.868C72.4972 161.464 72.097 162.068 71.7204 162.709C71.3431 163.341 71.023 164.006 70.7645 164.695C70.5412 165.382 70.2851 166.151 69.9718 166.835C69.6387 167.491 69.4352 168.204 69.3742 168.937C69.3795 169.672 69.4283 170.407 69.5205 171.137H69.5213Z" fill="black"/>
<path opacity="0.4" d="M99.3484 190.189C99.2272 190.379 99.0869 190.581 98.9283 190.795C96.7635 190.08 94.6917 189.106 92.7586 187.897C91.3568 187.08 90.1433 185.976 89.1981 184.656C88.3032 183.322 86.816 182.506 85.21 182.468C86.8519 182.445 88.4038 183.217 89.3757 184.54C90.3499 185.787 91.5802 186.809 92.9827 187.539C94.9897 188.676 97.1271 189.565 99.3476 190.189H99.3484Z" fill="black"/>
<path opacity="0.4" d="M60.0649 176.711C59.1517 176.741 58.2446 176.876 57.3619 177.113C56.4868 177.349 55.6422 177.684 54.8441 178.113L54.7656 178.121C54.8472 177.934 54.9394 177.747 55.04 177.549C55.7741 177.255 56.5341 177.031 57.3108 176.88C58.2194 176.72 59.144 176.663 60.0656 176.711L60.0649 176.711Z" fill="black"/>
<path opacity="0.4" d="M59.5788 180.44C58.5787 180.805 57.6922 181.426 57.007 182.24C56.3133 183.042 55.6928 183.904 55.1531 184.816C54.849 185.282 54.5662 185.755 54.2918 186.217C54.2232 186.015 54.1538 185.803 54.1035 185.589L54.8132 184.579C55.4253 183.694 56.1113 182.862 56.8644 182.093C57.6114 181.317 58.5467 180.747 59.5796 180.438L59.5788 180.44Z" fill="black"/>
<path opacity="0.2" d="M120.198 265.539L125.228 257.628L122.188 268.749L120.198 265.539Z" fill="black"/>
<g opacity="0.4">
<path d="M117.993 217.817C117.249 219.402 116.505 220.986 115.761 222.572C114.858 224.495 113.951 226.427 112.778 228.199C110.987 230.904 108.622 233.173 106.279 235.416C109.103 235.203 111.32 233.009 113.264 230.949C115.751 228.314 118.317 225.548 119.372 222.081L117.993 217.817Z" fill="black"/>
</g>
<g opacity="0.4">
<path d="M120.714 227.695C120.244 228.698 119.774 229.7 119.303 230.702C118.732 231.918 118.158 233.139 117.416 234.26C116.284 235.97 114.789 237.405 113.308 238.824C115.093 238.689 116.495 237.301 117.724 235.999C119.297 234.333 120.92 232.584 121.587 230.392L120.714 227.695Z" fill="black"/>
</g>
<path opacity="0.4" d="M113.844 299.726C112.776 298.911 111.908 297.86 111.376 296.602C110.774 295.175 110.581 293.539 109.612 292.33C108.689 291.178 107.085 290.603 105.65 290.949C104.214 291.296 103.037 292.568 102.845 294.031C102.758 294.694 102.858 295.365 102.988 296.02C103.378 297.98 104.062 299.922 105.298 301.492C106.102 302.513 107.101 303.325 108.217 303.966C109.744 302.791 112.072 301.055 113.844 299.726Z" fill="black"/>
</svg>
