<svg width="159" height="160" viewBox="0 0 159 160" fill="none" xmlns="http://www.w3.org/2000/svg">
<g id="Component 2">
<path id="Vector" fill-rule="evenodd" clip-rule="evenodd" d="M52.2601 74.4178L75.0226 51.2808C75.2515 51.0492 75.5427 50.8916 75.8595 50.8279C76.1764 50.7642 76.5047 50.7973 76.8031 50.9229C77.1015 51.0486 77.3566 51.2612 77.5363 51.5339C77.7161 51.8067 77.8123 52.1275 77.813 52.4558V75.6057C77.8126 76.0464 77.6401 76.469 77.3333 76.7806C77.0265 77.0921 76.6106 77.2671 76.1769 77.2671H53.4049C53.0806 77.2659 52.764 77.1669 52.4951 76.9826C52.2262 76.7983 52.0172 76.537 51.8945 76.2318C51.7719 75.9266 51.7412 75.5913 51.8063 75.2684C51.8714 74.9454 52.0293 74.6494 52.2601 74.4178ZM69.103 133.32C68.6781 133.307 68.2751 133.126 67.9792 132.816C67.6833 132.505 67.5179 132.09 67.5179 131.658C67.5179 131.226 67.6833 130.811 67.9792 130.501C68.2751 130.19 68.6781 130.009 69.103 129.996H89.897C90.3219 130.009 90.725 130.19 91.0208 130.501C91.3167 130.811 91.4821 131.226 91.4821 131.658C91.4821 132.09 91.3167 132.505 91.0208 132.816C90.725 133.126 90.3219 133.307 89.897 133.32H69.103ZM69.3161 31.0497C68.8912 31.0362 68.4881 30.8552 68.1923 30.5449C67.8964 30.2347 67.731 29.8196 67.731 29.3875C67.731 28.9554 67.8964 28.5403 68.1923 28.23C68.4881 27.9197 68.8912 27.7387 69.3161 27.7253H80.4461C80.6651 27.7183 80.8833 27.7562 81.0877 27.8366C81.292 27.917 81.4784 28.0383 81.6358 28.1933C81.7932 28.3484 81.9183 28.534 82.0037 28.7391C82.0892 28.9442 82.1332 29.1647 82.1332 29.3875C82.1332 29.6102 82.0892 29.8307 82.0037 30.0358C81.9183 30.241 81.7932 30.4266 81.6358 30.5816C81.4784 30.7366 81.292 30.858 81.0877 30.9384C80.8833 31.0188 80.6651 31.0566 80.4461 31.0497H69.3161ZM85.3417 31.0497C84.9168 31.0362 84.5137 30.8552 84.2179 30.5449C83.922 30.2347 83.7566 29.8196 83.7566 29.3875C83.7566 28.9554 83.922 28.5403 84.2179 28.23C84.5137 27.9197 84.9168 27.7387 85.3417 27.7253H89.684C90.1089 27.7387 90.5119 27.9197 90.8078 28.23C91.1036 28.5403 91.2691 28.9554 91.2691 29.3875C91.2691 29.8196 91.1036 30.2347 90.8078 30.5449C90.5119 30.8552 90.1089 31.0362 89.684 31.0497H85.3417ZM45.1417 121.87H113.858V39.7463H45.1417V121.87ZM113.858 125.193H45.1417V128.441C45.1518 131.485 46.346 134.401 48.4637 136.553C50.5814 138.705 53.4506 139.918 56.445 139.927H102.555C105.549 139.917 108.417 138.704 110.534 136.552C112.651 134.4 113.845 131.484 113.855 128.441V125.193H113.858ZM45.1417 36.4234H113.858V33.1749C113.849 30.1311 112.655 27.2148 110.537 25.0628C108.419 22.9107 105.55 21.6978 102.555 21.6889H56.445C53.451 21.6987 50.5824 22.912 48.4653 25.0639C46.3482 27.2158 45.1545 30.1317 45.1449 33.1749V36.4234H45.1417ZM56.445 18.3644C52.584 18.3751 48.8841 19.939 46.1541 22.7142C43.4241 25.4895 41.8859 29.2504 41.8759 33.1749V128.441C41.8859 132.366 43.4241 136.127 46.1541 138.902C48.8841 141.677 52.584 143.241 56.445 143.252H102.555C106.416 143.241 110.116 141.677 112.846 138.902C115.576 136.127 117.114 132.366 117.124 128.441V33.1749C117.114 29.2504 115.576 25.4895 112.846 22.7142C110.116 19.939 106.416 18.3751 102.555 18.3644H56.445ZM53.4081 81.3382H76.1785C76.6122 81.3382 77.0281 81.5132 77.3349 81.8247C77.6416 82.1362 77.8142 82.5588 77.8146 82.9996V106.148C77.8146 106.589 77.6423 107.012 77.3354 107.324C77.0286 107.636 76.6124 107.811 76.1785 107.811H53.4049C52.971 107.811 52.5549 107.636 52.248 107.324C51.9412 107.012 51.7688 106.589 51.7688 106.148V82.9996C51.7693 82.5588 51.9418 82.1362 52.2486 81.8247C52.5554 81.5132 52.9713 81.3382 53.4049 81.3382H53.4081ZM74.5551 84.661V104.486H55.0395V84.661H74.5551ZM94.2202 81.3382C96.7957 81.3385 99.3132 82.1151 101.454 83.5697C103.596 85.0243 105.265 87.0917 106.25 89.5103C107.235 91.929 107.493 94.5903 106.99 97.1578C106.488 99.7253 105.247 102.084 103.426 103.935C101.605 105.786 99.2846 107.046 96.7586 107.557C94.2326 108.067 91.6143 107.805 89.2349 106.803C86.8556 105.801 84.8219 104.105 83.3911 101.928C81.9602 99.7514 81.1966 97.1924 81.1966 94.5746C81.2054 91.0665 82.5804 87.7048 85.0209 85.2244C87.4615 82.7439 90.769 81.3467 94.2202 81.3382ZM94.2202 84.661C96.1492 84.661 98.0349 85.2424 99.6387 86.3317C101.243 87.4211 102.493 88.9693 103.231 90.7808C103.969 92.5923 104.162 94.5855 103.786 96.5086C103.41 98.4316 102.481 100.198 101.117 101.584C99.7527 102.971 98.0149 103.915 96.123 104.298C94.2311 104.68 92.27 104.484 90.4879 103.733C88.7058 102.983 87.1825 101.712 86.1109 100.082C85.0392 98.4519 84.4672 96.5353 84.4672 94.5746C84.4756 91.9479 85.5058 89.4313 87.3331 87.574C89.1603 85.7167 91.6361 84.6695 94.2202 84.661ZM82.8215 50.7943H105.595C106.029 50.7943 106.445 50.9693 106.751 51.2809C107.058 51.5924 107.231 52.015 107.231 52.4558V75.604C107.231 76.0451 107.059 76.4681 106.752 76.78C106.445 77.0919 106.029 77.2671 105.595 77.2671H82.8215C82.3876 77.2671 81.9715 77.0919 81.6646 76.78C81.3578 76.4681 81.1854 76.0451 81.1854 75.604V52.4558C81.1858 52.015 81.3584 51.5924 81.6652 51.2809C81.972 50.9693 82.3879 50.7943 82.8215 50.7943ZM103.969 54.1172V73.9426H84.4561V54.1172H103.969ZM74.5535 56.4687L57.3513 73.9426H74.544L74.5535 56.4687Z" fill="#070D0D"/>
</g>
</svg>
