<svg width="582" height="551" viewBox="0 0 582 551" fill="none" xmlns="http://www.w3.org/2000/svg">
<path d="M502.041 26.0806H273.859V342.016H502.041V26.0806Z" stroke="#263238" stroke-linecap="round" stroke-linejoin="round"/>
<path d="M387.95 26.2651V343.124" stroke="#263238" stroke-linecap="round" stroke-linejoin="round"/>
<path d="M502.237 184.701H273.675" stroke="#263238" stroke-linecap="round" stroke-linejoin="round"/>
<path d="M502.237 105.36H273.675" stroke="#263238" stroke-linecap="round" stroke-linejoin="round"/>
<path d="M502.237 264.041H273.675" stroke="#263238" stroke-linecap="round" stroke-linejoin="round"/>
<path d="M460.648 141.979L438.408 163.358" stroke="#263238" stroke-linecap="round" stroke-linejoin="round"/>
<path d="M493.725 110.169L467.155 135.718" stroke="#263238" stroke-linecap="round" stroke-linejoin="round"/>
<path d="M436.797 153.173L429.736 159.963" stroke="#263238" stroke-linecap="round" stroke-linejoin="round"/>
<path d="M467.13 123.996L441.655 148.487" stroke="#263238" stroke-linecap="round" stroke-linejoin="round"/>
<path d="M337.246 69.6382L315.006 91.0171" stroke="#263238" stroke-linecap="round" stroke-linejoin="round"/>
<path d="M370.323 37.8281L343.753 63.3894" stroke="#263238" stroke-linecap="round" stroke-linejoin="round"/>
<path d="M313.395 80.832L306.334 87.6221" stroke="#263238" stroke-linecap="round" stroke-linejoin="round"/>
<path d="M343.728 51.6665L318.253 76.1453" stroke="#263238" stroke-linecap="round" stroke-linejoin="round"/>
<path d="M455.321 226.019L433.094 247.398" stroke="#263238" stroke-linecap="round" stroke-linejoin="round"/>
<path d="M488.411 194.209L461.829 219.77" stroke="#263238" stroke-linecap="round" stroke-linejoin="round"/>
<path d="M431.471 237.213L424.41 244.003" stroke="#263238" stroke-linecap="round" stroke-linejoin="round"/>
<path d="M461.817 208.047L436.342 232.526" stroke="#263238" stroke-linecap="round" stroke-linejoin="round"/>
<path d="M465.359 312.248L464.4 304.031C464.4 304.031 460.033 304.277 458.348 300.476C457.327 298.176 456.294 293.514 457.794 291.214C458.232 290.495 458.869 289.92 459.629 289.558C460.388 289.196 461.236 289.062 462.07 289.175C462.904 289.287 463.687 289.639 464.324 290.19C464.96 290.74 465.423 291.463 465.655 292.272C466.823 295.605 467.401 297.032 467.401 297.032C467.118 292.198 463.477 272.726 474.437 275.69C478.89 276.92 480.108 281.201 480.305 284.596C480.502 287.991 480.047 296.786 480.047 296.786C480.047 296.786 482.987 297.106 483.183 292.223C483.38 287.339 488.104 285.125 490.207 287.438C492.311 289.75 493.258 297.967 490.97 300.538C488.682 303.109 481.437 304.007 481.437 304.007L481.916 312.261L465.359 312.248Z" fill="#02A66A" stroke="#263238" stroke-linecap="round" stroke-linejoin="round"/>
<path d="M471.658 277.043C471.658 277.043 469.85 278.692 470.342 284.301C470.834 289.91 470.834 299.948 470.834 299.948" stroke="#263238" stroke-width="0.5" stroke-linecap="round" stroke-linejoin="round"/>
<path d="M476.442 280.832C476.442 280.832 478.583 280.512 477.919 285.617C477.561 289.89 477.561 294.186 477.919 298.459" stroke="#263238" stroke-width="0.5" stroke-linecap="round" stroke-linejoin="round"/>
<path d="M460.944 291.706C460.944 291.706 458.803 292.198 459.8 295.667C460.796 299.136 461.116 301.756 463.416 302.26C464.445 302.515 465.495 302.68 466.553 302.752L466.885 306.369" stroke="#263238" stroke-width="0.5" stroke-linecap="round" stroke-linejoin="round"/>
<path d="M481.707 302.088C481.707 302.088 488.46 302.26 489.776 299.455C491.093 296.651 490.281 291.878 490.281 291.878" stroke="#263238" stroke-width="0.5" stroke-linecap="round" stroke-linejoin="round"/>
<path d="M463.748 292.616C463.748 292.731 463.714 292.842 463.651 292.937C463.587 293.033 463.497 293.107 463.391 293.15C463.286 293.194 463.169 293.206 463.057 293.183C462.945 293.161 462.842 293.106 462.761 293.025C462.68 292.944 462.625 292.841 462.603 292.729C462.581 292.617 462.592 292.501 462.636 292.395C462.68 292.289 462.754 292.199 462.849 292.136C462.944 292.072 463.056 292.038 463.17 292.038C463.246 292.038 463.321 292.053 463.391 292.082C463.461 292.111 463.525 292.154 463.579 292.207C463.632 292.261 463.675 292.325 463.704 292.395C463.733 292.465 463.748 292.54 463.748 292.616Z" stroke="#263238" stroke-width="0.5" stroke-linecap="round" stroke-linejoin="round"/>
<path d="M465.15 299.861C465.47 299.861 465.729 299.603 465.729 299.283C465.729 298.964 465.47 298.705 465.15 298.705C464.831 298.705 464.572 298.964 464.572 299.283C464.572 299.603 464.831 299.861 465.15 299.861Z" stroke="#263238" stroke-width="0.5" stroke-linecap="round" stroke-linejoin="round"/>
<path d="M462.272 297.143C462.591 297.143 462.85 296.884 462.85 296.565C462.85 296.246 462.591 295.987 462.272 295.987C461.952 295.987 461.693 296.246 461.693 296.565C461.693 296.884 461.952 297.143 462.272 297.143Z" stroke="#263238" stroke-width="0.5" stroke-linecap="round" stroke-linejoin="round"/>
<path d="M473.97 290.316C474.289 290.316 474.548 290.057 474.548 289.738C474.548 289.419 474.289 289.16 473.97 289.16C473.65 289.16 473.392 289.419 473.392 289.738C473.392 290.057 473.65 290.316 473.97 290.316Z" stroke="#263238" stroke-width="0.5" stroke-linecap="round" stroke-linejoin="round"/>
<path d="M468.533 284.707C468.853 284.707 469.111 284.448 469.111 284.128C469.111 283.809 468.853 283.55 468.533 283.55C468.214 283.55 467.955 283.809 467.955 284.128C467.955 284.448 468.214 284.707 468.533 284.707Z" stroke="#263238" stroke-width="0.5" stroke-linecap="round" stroke-linejoin="round"/>
<path d="M476.442 304.228C476.442 304.342 476.408 304.454 476.345 304.549C476.281 304.644 476.191 304.718 476.086 304.762C475.98 304.806 475.864 304.817 475.751 304.795C475.639 304.773 475.536 304.718 475.455 304.637C475.375 304.556 475.32 304.453 475.297 304.341C475.275 304.229 475.286 304.112 475.33 304.007C475.374 303.901 475.448 303.811 475.543 303.747C475.638 303.684 475.75 303.65 475.864 303.65C476.018 303.65 476.165 303.711 476.273 303.819C476.382 303.928 476.442 304.075 476.442 304.228Z" stroke="#263238" stroke-width="0.5" stroke-linecap="round" stroke-linejoin="round"/>
<path d="M470.182 303.404C470.182 303.519 470.148 303.63 470.084 303.726C470.021 303.821 469.93 303.895 469.825 303.938C469.719 303.982 469.603 303.994 469.491 303.971C469.379 303.949 469.276 303.894 469.195 303.813C469.114 303.732 469.059 303.629 469.037 303.517C469.014 303.405 469.026 303.289 469.069 303.183C469.113 303.077 469.187 302.987 469.282 302.924C469.377 302.86 469.489 302.826 469.604 302.826C469.757 302.826 469.904 302.887 470.012 302.996C470.121 303.104 470.182 303.251 470.182 303.404Z" stroke="#263238" stroke-width="0.5" stroke-linecap="round" stroke-linejoin="round"/>
<path d="M474.954 279.442C475.273 279.442 475.532 279.183 475.532 278.864C475.532 278.544 475.273 278.286 474.954 278.286C474.635 278.286 474.376 278.544 474.376 278.864C474.376 279.183 474.635 279.442 474.954 279.442Z" stroke="#263238" stroke-width="0.5" stroke-linecap="round" stroke-linejoin="round"/>
<path d="M487.23 289.812C487.23 289.926 487.197 290.038 487.133 290.133C487.07 290.228 486.979 290.302 486.874 290.346C486.768 290.389 486.652 290.401 486.54 290.379C486.427 290.356 486.324 290.301 486.244 290.22C486.163 290.139 486.108 290.036 486.085 289.924C486.063 289.812 486.074 289.696 486.118 289.59C486.162 289.485 486.236 289.394 486.331 289.331C486.426 289.267 486.538 289.233 486.652 289.233C486.806 289.233 486.953 289.294 487.061 289.403C487.17 289.511 487.23 289.658 487.23 289.812Z" stroke="#263238" stroke-width="0.5" stroke-linecap="round" stroke-linejoin="round"/>
<path d="M485.164 298.226C485.483 298.226 485.742 297.967 485.742 297.647C485.742 297.328 485.483 297.069 485.164 297.069C484.845 297.069 484.586 297.328 484.586 297.647C484.586 297.967 484.845 298.226 485.164 298.226Z" stroke="#263238" stroke-width="0.5" stroke-linecap="round" stroke-linejoin="round"/>
<path d="M474.954 298.053C475.273 298.053 475.532 297.794 475.532 297.475C475.532 297.156 475.273 296.897 474.954 296.897C474.635 296.897 474.376 297.156 474.376 297.475C474.376 297.794 474.635 298.053 474.954 298.053Z" stroke="#263238" stroke-width="0.5" stroke-linecap="round" stroke-linejoin="round"/>
<path d="M488.079 306.922H458.434L461.398 331.229H485.114L488.079 306.922Z" fill="white" stroke="#263238" stroke-linecap="round" stroke-linejoin="round"/>
<path d="M46.7842 262.11L69.4793 479.503" stroke="#263238" stroke-width="2" stroke-miterlimit="10"/>
<path d="M65.8138 437.902L55.5303 427.04" stroke="#263238" stroke-width="2" stroke-miterlimit="10"/>
<path d="M58.6548 430.288C58.639 428.628 58.2687 426.992 57.5685 425.488C56.8684 423.984 55.8547 422.646 54.5955 421.566C51.9631 419.204 38.0631 413.361 36.7469 418.257C35.2708 423.584 49.5029 434.039 58.6548 430.288Z" fill="#02A66A" stroke="#263238" stroke-miterlimit="10"/>
<path d="M58.6551 430.288L45.4316 422.046" stroke="#263238" stroke-width="0.5" stroke-miterlimit="10"/>
<path d="M68.3968 462.627L58.1133 451.765" stroke="#263238" stroke-width="2" stroke-miterlimit="10"/>
<path d="M61.2381 455.013C61.2177 453.351 60.8416 451.712 60.1351 450.208C59.4285 448.704 58.4079 447.368 57.1419 446.291C54.5095 443.93 40.6095 438.087 39.2933 442.982C37.8541 448.309 52.1354 458.814 61.2381 455.013Z" fill="#02A66A" stroke="#263238" stroke-miterlimit="10"/>
<path d="M61.2381 455.012L48.0146 446.771" stroke="#263238" stroke-width="0.5" stroke-miterlimit="10"/>
<path d="M59.516 377.566L49.2324 366.704" stroke="#263238" stroke-width="2" stroke-miterlimit="10"/>
<path d="M52.3569 369.964C52.3375 368.302 51.9631 366.662 51.2587 365.156C50.5544 363.65 49.5365 362.312 48.273 361.231C45.6283 358.881 31.7283 353.026 30.4122 357.946C28.9853 363.248 43.2051 373.704 52.3569 369.964Z" fill="#02A66A" stroke="#263238" stroke-miterlimit="10"/>
<path d="M52.3572 369.964L39.1338 361.723" stroke="#263238" stroke-width="0.5" stroke-miterlimit="10"/>
<path d="M62.099 402.291L51.8154 391.429" stroke="#263238" stroke-width="2" stroke-miterlimit="10"/>
<path d="M54.9396 394.689C54.9195 393.025 54.5435 391.385 53.837 389.879C53.1304 388.372 52.1098 387.035 50.8435 385.955C48.2111 383.606 34.3111 377.763 32.9949 382.646C31.5557 387.973 45.7755 398.428 54.9396 394.689Z" fill="#02A66A" stroke="#263238" stroke-miterlimit="10"/>
<path d="M54.9402 394.689L41.7168 386.447" stroke="#263238" stroke-width="0.5" stroke-miterlimit="10"/>
<path d="M55.3333 337.404L45.0498 326.542" stroke="#263238" stroke-width="2" stroke-miterlimit="10"/>
<path d="M48.1749 329.802C48.1515 328.138 47.7742 326.499 47.0679 324.993C46.3616 323.488 45.3426 322.149 44.0787 321.068C41.434 318.719 27.5463 312.863 26.2178 317.759C24.7909 323.085 39.0107 333.541 48.1749 329.802Z" fill="#02A66A" stroke="#263238" stroke-miterlimit="10"/>
<path d="M48.1742 329.802L34.9385 321.56" stroke="#263238" stroke-width="0.5" stroke-miterlimit="10"/>
<path d="M51.1146 297.069L40.8311 286.208" stroke="#263238" stroke-width="2" stroke-miterlimit="10"/>
<path d="M43.9553 289.455C43.9311 287.791 43.5508 286.152 42.84 284.648C42.1292 283.143 41.1044 281.809 39.8345 280.734C37.1898 278.372 23.2898 272.529 21.9736 277.425C20.5836 282.751 34.8035 293.194 43.9553 289.455Z" fill="#02A66A" stroke="#263238" stroke-miterlimit="10"/>
<path d="M43.9549 289.455L30.7314 281.213" stroke="#263238" stroke-width="0.5" stroke-miterlimit="10"/>
<path d="M64.0918 423.276L71.9152 410.52" stroke="#263238" stroke-width="2" stroke-miterlimit="10"/>
<path d="M69.529 414.346C69.2059 412.717 69.2352 411.037 69.615 409.421C69.9948 407.804 70.7162 406.287 71.7309 404.972C73.822 402.119 86.209 393.533 88.5093 398.047C91.0186 402.955 79.259 416.117 69.529 414.346Z" fill="#02A66A" stroke="#263238" stroke-miterlimit="10"/>
<path d="M69.5293 414.346L81.4366 402.967" stroke="#263238" stroke-width="0.5" stroke-miterlimit="10"/>
<path d="M57.3018 358.205L65.1251 345.461" stroke="#263238" stroke-width="2" stroke-miterlimit="10"/>
<path d="M62.7392 349.336C62.4159 347.705 62.4451 346.023 62.8248 344.405C63.2046 342.786 63.9261 341.267 64.9411 339.95C67.0322 337.096 79.4192 328.51 81.7195 333.025C84.2288 337.896 72.4692 351.058 62.7392 349.336Z" fill="#02A66A" stroke="#263238" stroke-miterlimit="10"/>
<path d="M62.7393 349.286L74.6465 337.896" stroke="#263238" stroke-width="0.5" stroke-miterlimit="10"/>
<path d="M54.3125 329.617L62.1359 316.861" stroke="#263238" stroke-width="2" stroke-miterlimit="10"/>
<path d="M59.7498 320.699C59.4299 319.066 59.4631 317.384 59.8471 315.765C60.2311 314.146 60.9571 312.628 61.9763 311.313C64.0797 308.46 76.4667 299.873 78.767 304.388C81.2395 309.296 69.4798 322.458 59.7498 320.699Z" fill="#02A66A" stroke="#263238" stroke-miterlimit="10"/>
<path d="M59.75 320.699L71.6573 309.309" stroke="#263238" stroke-width="0.5" stroke-miterlimit="10"/>
<path d="M49.9463 287.696L57.7573 274.952" stroke="#263238" stroke-width="2" stroke-miterlimit="10"/>
<path d="M55.3703 278.777C55.0479 277.146 55.0787 275.464 55.4606 273.845C55.8426 272.226 56.5668 270.708 57.5845 269.392C59.6757 266.538 72.0626 257.952 74.3629 262.467C76.86 267.387 65.1126 280.549 55.3703 278.777Z" fill="#02A66A" stroke="#263238" stroke-miterlimit="10"/>
<path d="M55.3701 278.778L67.2897 267.387" stroke="#263238" stroke-width="0.5" stroke-miterlimit="10"/>
<path d="M46.5995 260.904C46.2762 259.273 46.3054 257.592 46.6852 255.973C47.0649 254.355 47.7865 252.836 48.8014 251.519C50.8926 248.665 63.2795 240.079 65.5798 244.593C68.1261 249.502 56.3295 262.663 46.5995 260.904Z" fill="#02A66A" stroke="#263238" stroke-miterlimit="10"/>
<path d="M46.5996 260.904L58.5069 249.514" stroke="#263238" stroke-width="0.5" stroke-miterlimit="10"/>
<path d="M47.2884 261.396C45.6318 261.543 43.9631 261.335 42.3935 260.785C40.8238 260.236 39.3894 259.358 38.1857 258.21C35.5656 255.836 28.345 242.613 33.0563 240.792C38.2103 238.824 50.0684 251.9 47.2884 261.396Z" fill="#02A66A" stroke="#263238" stroke-miterlimit="10"/>
<path d="M47.2893 261.396L37.2148 248.357" stroke="#263238" stroke-width="0.5" stroke-miterlimit="10"/>
<path d="M106.628 292.05L84.0684 509.456" stroke="#263238" stroke-width="2" stroke-miterlimit="10"/>
<path d="M89.0499 467.99L81.2266 455.246" stroke="#263238" stroke-width="2" stroke-miterlimit="10"/>
<path d="M83.6136 459.071C83.936 457.44 83.9052 455.758 83.5233 454.139C83.1414 452.52 82.4172 451.002 81.3994 449.686C79.3083 446.844 66.909 438.258 64.621 442.773C62.1116 447.742 73.8836 460.843 83.6136 459.071Z" fill="#02A66A" stroke="#263238" stroke-miterlimit="10"/>
<path d="M83.6131 459.072L72.3701 448.284" stroke="#263238" stroke-width="0.5" stroke-miterlimit="10"/>
<path d="M95.3116 407.654L87.4883 394.91" stroke="#263238" stroke-width="2" stroke-miterlimit="10"/>
<path d="M89.8743 398.736C90.1967 397.104 90.1659 395.422 89.784 393.803C89.4021 392.184 88.6779 390.666 87.6602 389.35C85.569 386.509 73.1697 377.923 70.8818 382.437C68.3724 387.358 80.1443 400.507 89.8743 398.736Z" fill="#02A66A" stroke="#263238" stroke-miterlimit="10"/>
<path d="M89.8748 398.736L78.6318 387.948" stroke="#263238" stroke-width="0.5" stroke-miterlimit="10"/>
<path d="M92.7526 432.379L84.917 419.635" stroke="#263238" stroke-width="2" stroke-miterlimit="10"/>
<path d="M87.3031 423.461C87.6262 421.831 87.5969 420.152 87.2171 418.535C86.8373 416.919 86.1159 415.402 85.1013 414.087C82.9978 411.233 70.6108 402.647 68.3106 407.162C65.8135 412.07 77.5731 425.232 87.3031 423.461Z" fill="#02A66A" stroke="#263238" stroke-miterlimit="10"/>
<path d="M87.3036 423.461L76.0605 412.673" stroke="#263238" stroke-width="0.5" stroke-miterlimit="10"/>
<path d="M99.4816 367.492L91.6582 354.748" stroke="#263238" stroke-width="2" stroke-miterlimit="10"/>
<path d="M94.0446 358.574C94.3679 356.942 94.3375 355.26 93.9555 353.641C93.5736 352.022 92.8489 350.503 91.8305 349.188C89.7393 346.334 77.34 337.761 75.0398 342.275C72.5427 347.183 84.3146 360.406 94.0446 358.574Z" fill="#02A66A" stroke="#263238" stroke-miterlimit="10"/>
<path d="M94.0448 358.574L82.8018 347.786" stroke="#263238" stroke-width="0.5" stroke-miterlimit="10"/>
<path d="M103.664 327.145L95.8408 314.401" stroke="#263238" stroke-width="2" stroke-miterlimit="10"/>
<path d="M98.227 318.227C98.5501 316.598 98.5207 314.918 98.141 313.302C97.7612 311.685 97.0397 310.168 96.0251 308.853C93.9217 306 81.5224 297.414 79.2344 301.94C76.7373 306.848 88.497 320.01 98.227 318.227Z" fill="#02A66A" stroke="#263238" stroke-miterlimit="10"/>
<path d="M98.2264 318.226L86.9834 307.438" stroke="#263238" stroke-width="0.5" stroke-miterlimit="10"/>
<path d="M90.3789 453.315L100.65 442.453" stroke="#263238" stroke-width="2" stroke-miterlimit="10"/>
<path d="M97.5254 445.713C97.5456 444.049 97.9216 442.409 98.6281 440.903C99.3346 439.396 100.355 438.059 101.622 436.979C104.254 434.618 118.154 428.775 119.47 433.658C120.909 438.985 106.69 449.44 97.5254 445.713Z" fill="#02A66A" stroke="#263238" stroke-miterlimit="10"/>
<path d="M97.5254 445.713L111.536 437.016" stroke="#263238" stroke-width="0.5" stroke-miterlimit="10"/>
<path d="M97.1318 388.255L107.403 377.381" stroke="#263238" stroke-width="2" stroke-miterlimit="10"/>
<path d="M104.279 380.641C104.299 378.979 104.675 377.341 105.381 375.836C106.088 374.332 107.109 372.996 108.375 371.92C111.008 369.558 124.896 363.703 126.224 368.599C127.663 373.937 113.443 384.381 104.279 380.641Z" fill="#02A66A" stroke="#263238" stroke-miterlimit="10"/>
<path d="M104.279 380.641L118.278 371.957" stroke="#263238" stroke-width="0.5" stroke-miterlimit="10"/>
<path d="M100.097 359.656L110.368 348.794" stroke="#263238" stroke-width="2" stroke-miterlimit="10"/>
<path d="M107.256 352.042C107.272 350.38 107.645 348.742 108.35 347.237C109.055 345.732 110.074 344.397 111.34 343.32C113.972 340.958 127.872 335.103 129.188 339.999C130.628 345.325 116.408 355.781 107.256 352.042Z" fill="#02A66A" stroke="#263238" stroke-miterlimit="10"/>
<path d="M107.256 352.042L121.254 343.357" stroke="#263238" stroke-width="0.5" stroke-miterlimit="10"/>
<path d="M104.438 317.735L114.722 306.873" stroke="#263238" stroke-width="2" stroke-miterlimit="10"/>
<path d="M111.598 310.133C111.618 308.469 111.994 306.829 112.7 305.322C113.407 303.816 114.428 302.478 115.694 301.399C118.326 299.037 132.214 293.182 133.542 298.078C134.982 303.404 120.762 313.86 111.598 310.133Z" fill="#02A66A" stroke="#263238" stroke-miterlimit="10"/>
<path d="M111.598 310.133L125.596 301.436" stroke="#263238" stroke-width="0.5" stroke-miterlimit="10"/>
<path d="M106.689 290.82C106.709 289.16 107.084 287.522 107.788 286.018C108.492 284.514 109.51 283.178 110.773 282.099C113.418 279.737 127.306 273.882 128.622 278.778C130.061 284.141 115.854 294.56 106.689 290.82Z" fill="#02A66A" stroke="#263238" stroke-miterlimit="10"/>
<path d="M106.689 290.82L120.688 282.136" stroke="#263238" stroke-width="0.5" stroke-miterlimit="10"/>
<path d="M107.268 291.447C105.617 291.253 104.026 290.709 102.602 289.849C101.179 288.99 99.9552 287.836 99.0142 286.466C96.9476 283.599 92.5808 269.171 97.5873 268.371C103.024 267.498 111.942 282.726 107.268 291.447Z" fill="#02A66A" stroke="#263238" stroke-miterlimit="10"/>
<path d="M107.268 291.448L100.097 276.613" stroke="#263238" stroke-width="0.5" stroke-miterlimit="10"/>
<path d="M80.7715 203.521V478.446" stroke="#263238" stroke-width="2" stroke-miterlimit="10"/>
<path d="M80.9933 437.115L71.8906 425.232" stroke="#263238" stroke-width="2" stroke-miterlimit="10"/>
<path d="M74.6588 428.799C74.8133 427.144 74.6111 425.475 74.0657 423.905C73.5204 422.335 72.6446 420.9 71.4974 419.697C69.1111 417.077 55.8999 409.856 54.0794 414.555C52.1359 419.697 65.1625 431.567 74.6588 428.799Z" fill="#02A66A" stroke="#263238" stroke-miterlimit="10"/>
<path d="M74.6583 428.799L62.3574 419.229" stroke="#263238" stroke-width="0.5" stroke-miterlimit="10"/>
<path d="M80.9933 385.439L71.8906 373.568" stroke="#263238" stroke-width="2" stroke-miterlimit="10"/>
<path d="M74.6588 377.135C74.8133 375.48 74.6111 373.811 74.0657 372.241C73.5204 370.671 72.6446 369.236 71.4974 368.033C69.1111 365.413 55.8999 358.192 54.0794 362.879C52.1359 368.033 65.1625 379.903 74.6588 377.135Z" fill="#02A66A" stroke="#263238" stroke-miterlimit="10"/>
<path d="M74.6583 377.136L62.3574 367.565" stroke="#263238" stroke-width="0.5" stroke-miterlimit="10"/>
<path d="M80.9933 324.783L71.8906 312.913" stroke="#263238" stroke-width="2" stroke-miterlimit="10"/>
<path d="M74.6588 316.468C74.8133 314.813 74.6111 313.144 74.0657 311.573C73.5204 310.003 72.6446 308.568 71.4974 307.365C69.1111 304.745 55.8999 297.524 54.0794 302.223C52.1359 307.365 65.1625 319.235 74.6588 316.468Z" fill="#02A66A" stroke="#263238" stroke-miterlimit="10"/>
<path d="M74.6583 316.468L62.3574 306.897" stroke="#263238" stroke-width="0.5" stroke-miterlimit="10"/>
<path d="M80.9933 284.399L71.8906 272.529" stroke="#263238" stroke-width="2" stroke-miterlimit="10"/>
<path d="M74.6588 276.084C74.8139 274.431 74.612 272.763 74.0665 271.195C73.5211 269.627 72.645 268.194 71.4974 266.994C69.1111 264.374 55.8999 257.153 54.0794 261.84C52.1359 266.994 65.1625 278.864 74.6588 276.084Z" fill="#02A66A" stroke="#263238" stroke-miterlimit="10"/>
<path d="M74.6583 276.084L62.3574 266.514" stroke="#263238" stroke-width="0.5" stroke-miterlimit="10"/>
<path d="M80.9933 243.843L71.8906 231.973" stroke="#263238" stroke-width="2" stroke-miterlimit="10"/>
<path d="M74.6588 235.528C74.8133 233.873 74.6111 232.204 74.0657 230.633C73.5204 229.063 72.6446 227.628 71.4974 226.425C69.1111 223.805 55.8999 216.584 54.0794 221.283C52.1359 226.425 65.1625 238.308 74.6588 235.528Z" fill="#02A66A" stroke="#263238" stroke-miterlimit="10"/>
<path d="M74.6583 235.528L62.3574 225.958" stroke="#263238" stroke-width="0.5" stroke-miterlimit="10"/>
<path d="M80.7969 452.885L89.8995 441.014" stroke="#263238" stroke-width="2" stroke-miterlimit="10"/>
<path d="M87.119 444.569C86.9593 442.911 87.1577 441.238 87.7011 439.663C88.2444 438.088 89.1198 436.649 90.268 435.442C92.6421 432.822 105.853 425.601 107.674 430.288C109.679 435.442 96.6153 447.349 87.119 444.569Z" fill="#02A66A" stroke="#263238" stroke-miterlimit="10"/>
<path d="M87.1191 444.569L100.146 434.495" stroke="#263238" stroke-width="0.5" stroke-miterlimit="10"/>
<path d="M80.7969 370.715L89.8995 358.844" stroke="#263238" stroke-width="2" stroke-miterlimit="10"/>
<path d="M87.1192 362.399C86.9687 360.743 87.174 359.074 87.7213 357.504C88.2687 355.934 89.1454 354.5 90.2928 353.296C92.6669 350.676 105.878 343.455 107.699 348.154C109.679 353.296 96.6154 365.167 87.1192 362.399Z" fill="#02A66A" stroke="#263238" stroke-miterlimit="10"/>
<path d="M87.1191 362.399L100.146 352.312" stroke="#263238" stroke-width="0.5" stroke-miterlimit="10"/>
<path d="M80.7969 330.158L89.8995 318.288" stroke="#263238" stroke-width="2" stroke-miterlimit="10"/>
<path d="M87.1192 321.843C86.9687 320.187 87.174 318.519 87.7213 316.949C88.2687 315.379 89.1454 313.944 90.2928 312.741C92.6669 310.12 105.878 302.9 107.699 307.599C109.679 312.741 96.6154 324.611 87.1192 321.843Z" fill="#02A66A" stroke="#263238" stroke-miterlimit="10"/>
<path d="M87.1191 321.843L100.146 311.756" stroke="#263238" stroke-width="0.5" stroke-miterlimit="10"/>
<path d="M80.7969 276.551L89.8995 264.681" stroke="#263238" stroke-width="2" stroke-miterlimit="10"/>
<path d="M87.1192 268.236C86.9687 266.58 87.174 264.911 87.7213 263.341C88.2687 261.771 89.1454 260.336 90.2928 259.133C92.6669 256.513 105.878 249.292 107.699 253.991C109.679 259.133 96.6154 271.003 87.1192 268.236Z" fill="#02A66A" stroke="#263238" stroke-miterlimit="10"/>
<path d="M87.1191 268.236L100.146 258.149" stroke="#263238" stroke-width="0.5" stroke-miterlimit="10"/>
<path d="M80.7969 234.409L89.8995 222.526" stroke="#263238" stroke-width="2" stroke-miterlimit="10"/>
<path d="M87.1192 226.093C86.9687 224.437 87.174 222.768 87.7213 221.198C88.2687 219.628 89.1454 218.193 90.2928 216.99C92.6669 214.37 105.878 207.149 107.699 211.848C109.679 216.99 96.6154 228.86 87.1192 226.093Z" fill="#02A66A" stroke="#263238" stroke-miterlimit="10"/>
<path d="M87.1191 226.093L100.146 216.006" stroke="#263238" stroke-width="0.5" stroke-miterlimit="10"/>
<path d="M80.2432 207.396C80.0927 205.74 80.298 204.071 80.8454 202.501C81.3927 200.931 82.2695 199.497 83.4168 198.293C85.7909 195.685 99.002 188.452 100.823 193.151C102.803 198.293 89.7395 210.176 80.2432 207.396Z" fill="#02A66A" stroke="#263238" stroke-miterlimit="10"/>
<path d="M80.2432 207.396L93.2698 197.309" stroke="#263238" stroke-width="0.5" stroke-miterlimit="10"/>
<path d="M80.8827 207.961C79.2196 207.941 77.5802 207.564 76.0755 206.855C74.5709 206.146 73.236 205.122 72.1614 203.853C69.8119 201.221 63.9813 187.321 68.8771 186.004C74.191 184.577 84.6345 198.81 80.8827 207.961Z" fill="#02A66A" stroke="#263238" stroke-miterlimit="10"/>
<path d="M80.8825 207.961L72.2227 193.951" stroke="#263238" stroke-width="0.5" stroke-miterlimit="10"/>
<path d="M92.0883 549.754H62.9721L59.3311 476.219H95.7294L92.0883 549.754Z" fill="#263238" stroke="#263238" stroke-miterlimit="10"/>
<path d="M355.168 250.928H444.94L424.029 327.956H334.257L355.168 250.928Z" fill="#7D7D7D" stroke="#263238" stroke-linecap="round" stroke-linejoin="round"/>
<path d="M357.727 253.794H440.82L421.47 325.09H338.378L357.727 253.794Z" fill="white" stroke="#263238" stroke-linecap="round" stroke-linejoin="round"/>
<path d="M377.852 302.85L382.846 284.202H384.925L380.447 300.968H385.773L385.269 302.85H377.852Z" fill="#263238"/>
<path d="M390.472 288.704C391.234 285.85 393.141 284.018 395.982 284.018C398.824 284.018 399.783 285.85 399.021 288.704L396.438 298.348C395.687 301.177 393.768 303.047 390.89 303.047C388.011 303.047 387.126 301.177 387.888 298.348L390.472 288.704ZM389.906 298.459C389.451 300.169 389.906 301.153 391.406 301.153C392.907 301.153 393.867 300.169 394.334 298.459L396.966 288.618C397.422 286.933 396.966 285.924 395.478 285.924C393.99 285.924 393.018 286.933 392.55 288.618L389.906 298.459Z" fill="#263238"/>
<path d="M409.23 288.704L408.861 290.291H406.893L407.348 288.593C407.803 286.908 407.348 285.9 405.884 285.9C404.42 285.9 403.424 286.908 402.981 288.593L400.337 298.434C399.894 300.107 400.337 301.128 401.8 301.128C403.264 301.128 404.261 300.107 404.703 298.434L405.712 294.744H403.793L404.285 292.874H408.185L406.708 298.36C405.958 301.19 404.125 303.059 401.247 303.059C398.368 303.059 397.557 301.19 398.319 298.36L400.902 288.716C401.653 285.9 403.486 284.03 406.339 284.03C409.193 284.03 409.98 285.887 409.23 288.704Z" fill="#263238"/>
<path d="M411.051 288.704C411.813 285.85 413.708 284.018 416.562 284.018C419.415 284.018 420.363 285.85 419.6 288.704L417.017 298.348C416.266 301.177 414.347 303.047 411.469 303.047C408.591 303.047 407.705 301.177 408.468 298.348L411.051 288.704ZM410.485 298.459C410.03 300.169 410.485 301.153 411.986 301.153C413.486 301.153 414.446 300.169 414.913 298.459L417.546 288.618C418.001 286.933 417.546 285.924 416.057 285.924C414.569 285.924 413.597 286.933 413.13 288.618L410.485 298.459Z" fill="#263238"/>
<path d="M380.114 285.223C379.954 280.979 378.97 273.156 374.333 267.104C367.629 258.37 355.476 270.253 360.593 285.112C361.268 287.025 362.248 288.815 363.496 290.414" stroke="#263238" stroke-linecap="round" stroke-linejoin="round"/>
<path d="M368.33 295.101C368.33 295.101 350.592 297.794 354.331 304.302C360.789 315.582 371.553 305.224 376.067 299.947" stroke="#263238" stroke-linecap="round" stroke-linejoin="round"/>
<path d="M376.362 279.565C378.355 284.915 377.937 290.008 375.427 290.943C372.918 291.878 369.277 288.298 367.26 282.947C365.242 277.596 365.697 272.492 368.207 271.557C370.716 270.622 374.419 274.214 376.362 279.565Z" fill="#77B9F3" stroke="#263238" stroke-linecap="round" stroke-linejoin="round"/>
<path d="M358.514 304.609C359.13 306.246 362.279 306.565 365.551 305.323C368.823 304.081 370.963 301.756 370.348 300.12C369.733 298.484 366.572 298.164 363.312 299.406C360.052 300.649 357.887 302.973 358.514 304.609Z" fill="#77B9F3" stroke="#263238" stroke-linecap="round" stroke-linejoin="round"/>
<path d="M385.49 270.142C386.471 273.001 386.72 276.06 386.215 279.04C385.71 282.021 384.467 284.827 382.6 287.203C383.158 282.636 382.635 278.001 381.074 273.672" stroke="#263238" stroke-linecap="round" stroke-linejoin="round"/>
<path d="M424.029 323.873H298.166V327.969H424.029V323.873Z" fill="#7D7D7D" stroke="#263238" stroke-linecap="round" stroke-linejoin="round"/>
<path d="M424.028 323.873H366.189V327.969H424.028V323.873Z" fill="#595959" stroke="#263238" stroke-linecap="round" stroke-linejoin="round"/>
<path d="M264.671 334.488H257.905V549.274H264.671V334.488Z" fill="white" stroke="#263238" stroke-linecap="round" stroke-linejoin="round"/>
<path d="M252.124 549.274H257.905V334.488H252.124L252.124 549.274Z" fill="#A8A8A8" stroke="#263238" stroke-linecap="round" stroke-linejoin="round"/>
<path d="M437.99 446.869H431.225V549.274H437.99V446.869Z" fill="white" stroke="#263238" stroke-linecap="round" stroke-linejoin="round"/>
<path d="M425.443 549.286H431.225V446.881H425.443V549.286Z" fill="#A8A8A8" stroke="#263238" stroke-linecap="round" stroke-linejoin="round"/>
<path d="M510.431 446.869H503.665V549.274H510.431V446.869Z" fill="white" stroke="#263238" stroke-linecap="round" stroke-linejoin="round"/>
<path d="M497.884 549.286H503.665V446.881H497.884V549.286Z" fill="#A8A8A8" stroke="#263238" stroke-linecap="round" stroke-linejoin="round"/>
<path d="M364.16 452.712H430.167V336.567H364.16V452.712Z" fill="#A8A8A8" stroke="#263238" stroke-linecap="round" stroke-linejoin="round"/>
<path d="M517.147 336.58H430.167V452.725H517.147V336.58Z" fill="white" stroke="#263238" stroke-linecap="round" stroke-linejoin="round"/>
<path d="M430.167 336.58H364.173V342.238H430.167H517.147V336.58H430.167Z" fill="#263238" stroke="#263238" stroke-linecap="round" stroke-linejoin="round"/>
<path d="M426.07 343.234H369.794V370.345H426.07V343.234Z" fill="white" stroke="#263238" stroke-linecap="round" stroke-linejoin="round"/>
<path d="M405.356 354.231H390.521V359.349H405.356V354.231Z" fill="#263238"/>
<path d="M426.07 380.58H369.794V407.691H426.07V380.58Z" fill="white" stroke="#263238" stroke-linecap="round" stroke-linejoin="round"/>
<path d="M405.356 391.072H390.521V396.189H405.356V391.072Z" fill="#263238"/>
<path d="M426.07 417.925H369.794V445.036H426.07V417.925Z" fill="white" stroke="#263238" stroke-linecap="round" stroke-linejoin="round"/>
<path d="M405.356 427.901H390.521V433.019H405.356V427.901Z" fill="#263238"/>
<path d="M526.126 331.475H242.8V338.228H526.126V331.475Z" fill="#A8A8A8" stroke="#263238" stroke-linecap="round" stroke-linejoin="round"/>
<path d="M526.126 331.475H440.573V338.228H526.126V331.475Z" fill="white" stroke="#263238" stroke-linecap="round" stroke-linejoin="round"/>
<path d="M266.823 400.212C266.823 400.212 275.262 406.055 287.735 442.17C291.892 454.176 315.276 518.915 316.507 523.356C317.737 527.797 320.197 533.197 323.887 533.197C327.577 533.197 341.108 515.975 339.46 513.933C337.812 511.891 330.037 503.674 330.037 503.674C330.037 503.674 325.388 451.273 324.564 436.512C323.739 421.751 327.098 403.976 319.311 392.081C311.525 380.186 277.07 392.487 277.07 392.487L266.823 400.212Z" fill="white" stroke="#263238" stroke-linecap="round" stroke-linejoin="round"/>
<path d="M333.826 503.736C332.876 504.246 332.096 505.024 331.584 505.973C331.073 506.922 330.851 508.001 330.948 509.075C331.366 512.765 335.056 517.686 335.056 517.686C335.056 517.686 327.258 523.836 323.161 524.242C319.065 524.648 314.551 525.472 314.551 526.702C314.551 527.932 317.835 529.986 319.877 534.489C322.139 539.056 324.746 543.444 327.676 547.614C328.906 549.25 329.718 550.48 334.232 549.25C338.747 548.02 348.587 539.003 353.914 535.313C359.24 531.622 375.231 529.162 378.109 527.108C380.988 525.054 389.992 511.941 385.896 509.481C381.8 507.021 380.57 509.887 375.649 511.117C370.729 512.347 356.374 510.711 348.587 509.075C340.801 507.439 338.328 507.021 338.328 507.021L333.826 503.736Z" fill="#77B9F3" stroke="#263238" stroke-linecap="round" stroke-linejoin="round"/>
<path d="M326.963 546.679C327.234 547.072 327.455 547.392 327.627 547.614C328.857 549.25 329.669 550.48 334.184 549.25C338.698 548.019 348.539 539.003 353.865 535.313C359.191 531.622 375.182 529.162 378.061 527.108C380.939 525.054 389.943 511.941 385.847 509.481C385.271 509.12 384.646 508.846 383.99 508.669C384.064 508.94 384.137 509.186 384.211 509.481C385.441 514.401 381.333 519.322 377.643 523.012C373.952 526.702 361.651 525.878 348.12 532.852C340.644 536.777 333.559 541.406 326.963 546.679Z" fill="white" stroke="#263238" stroke-linecap="round" stroke-linejoin="round"/>
<path d="M326.569 462.713C325.683 451.925 324.908 441.801 324.613 436.573C323.789 421.812 327.147 404.037 319.36 392.142C311.574 380.247 277.119 392.548 277.119 392.548L266.823 400.212C266.823 400.212 275.262 406.055 287.735 442.17C289.322 446.758 293.725 459.072 298.633 472.762L326.569 462.713Z" fill="#263238" stroke="#263238" stroke-linecap="round" stroke-linejoin="round"/>
<path d="M306.494 189.892C307.558 192.741 308.063 195.769 307.982 198.81C307.613 202.906 303.886 204.763 303.517 203.656C303.198 201.813 303.074 199.941 303.148 198.072V196.583C302.229 198.098 301.103 199.477 299.802 200.679C297.194 203.275 295.706 202.537 294.587 202.537C293.467 202.537 293.098 198.847 294.968 196.214C296.838 193.582 302.779 187.653 306.494 189.892Z" fill="white" stroke="#263238" stroke-linecap="round" stroke-linejoin="round"/>
<path d="M315.055 199.56C311.365 197.321 305.756 205.145 297.194 203.25C296.1 203.017 295.706 201.393 297.563 197.678C299.421 193.963 305.375 190.974 308.351 188.748C311.328 186.521 313.567 184.651 313.567 182.044C313.567 179.436 306.863 183.532 304.956 185.02C302.704 186.424 300.362 187.677 297.945 188.772L296.333 188.858C293.024 189.067 287.92 189.658 285.988 191.318C283.454 193.52 282.003 201.085 281.4 204.001C279.752 206.387 278.276 208.589 277.427 209.917C274.819 214.001 222.368 252.331 222.368 252.331L226.058 285.064L285.582 217.409C287.231 216.061 289.129 215.049 291.167 214.432C295.263 212.943 300.835 211.824 305.682 209.216C309.268 207.3 312.746 205.19 316.101 202.894C318.696 201.282 317.073 200.766 315.055 199.56Z" fill="white" stroke="#263238" stroke-linecap="round" stroke-linejoin="round"/>
<path d="M252.493 230.017C237.879 241.088 222.417 252.392 222.417 252.392L226.107 285.125L262.702 243.548L252.493 230.017Z" fill="#02A66A" stroke="#263238" stroke-linecap="round" stroke-linejoin="round"/>
<path d="M234.189 353.85C234.189 353.85 260.427 352.62 298.56 358.77C336.692 364.921 350.961 371.477 349.817 378.858C345.168 408.798 275.262 507.365 275.262 507.365L276.492 521.302C276.492 521.302 274.032 524.586 265.421 524.992C256.81 525.398 246.146 513.109 246.146 513.109C246.146 513.109 255.777 503.146 259.467 491.263C263.158 479.38 292.827 402.635 292.827 402.635C292.827 402.635 253.871 411.246 210.817 403.459C167.764 395.673 234.189 353.85 234.189 353.85Z" fill="white" stroke="#263238" stroke-linecap="round" stroke-linejoin="round"/>
<path d="M298.56 358.77C260.427 352.62 234.189 353.85 234.189 353.85C234.189 353.85 167.764 395.673 210.817 403.459C253.871 411.246 292.827 402.635 292.827 402.635C292.827 402.635 280.527 434.617 270.686 460.449L299.605 471.52C320.295 440.227 347.001 396.977 349.817 378.858C350.961 371.477 336.692 364.921 298.56 358.77Z" fill="#263238" stroke="#263238" stroke-linecap="round" stroke-linejoin="round"/>
<path d="M275.262 507.365C274.434 507.707 273.682 508.208 273.048 508.842C272.415 509.475 271.913 510.227 271.572 511.055C270.781 512.931 270.095 514.849 269.518 516.8C265.03 515.834 260.641 514.459 256.405 512.691C253.284 511.265 250.267 509.621 247.376 507.771C247.376 507.771 243.686 508.189 243.686 510.65C243.665 514.432 242.974 518.18 241.644 521.72C240.586 524.353 238.335 530.22 236.871 534.021C236.701 534.47 236.629 534.95 236.661 535.428C236.692 535.907 236.826 536.373 237.054 536.796C237.281 537.218 237.597 537.586 237.979 537.876C238.361 538.166 238.802 538.37 239.27 538.474C245.765 539.913 259.456 543.075 271.166 546.679C287.157 551.599 304.784 549.139 306.839 548.733C308.893 548.327 317.085 543.395 313.395 540.122C309.705 536.85 287.969 528.228 283.467 522.483C278.965 516.739 275.262 507.365 275.262 507.365Z" fill="#77B9F3" stroke="#263238" stroke-linecap="round" stroke-linejoin="round"/>
<path d="M311.746 539.015C311.746 543.087 309.655 547.134 303.136 547.134C296.616 547.134 285.09 546.322 268.693 539.753C258.799 535.875 248.631 532.734 238.273 530.355C237.769 531.672 237.277 532.951 236.858 534.046C236.688 534.494 236.616 534.974 236.648 535.453C236.679 535.931 236.813 536.398 237.041 536.82C237.268 537.242 237.584 537.611 237.966 537.9C238.349 538.19 238.789 538.394 239.257 538.499C245.752 539.938 259.443 543.099 271.153 546.703C287.144 551.624 304.772 549.164 306.826 548.758C308.88 548.352 317.073 543.419 313.382 540.147C312.871 539.723 312.324 539.344 311.746 539.015Z" fill="white" stroke="#263238" stroke-linecap="round" stroke-linejoin="round"/>
<path d="M151.355 258.309C151.355 258.309 146.89 293.662 147.271 300.353C147.652 307.045 152.474 364.712 153.594 377.369C154.713 390.027 159.916 401.171 169.216 403.41C178.515 405.649 202.699 408.982 213.118 406.387C223.537 403.791 234.694 380.346 238.408 371.415C242.123 362.485 244.743 356.9 243.624 355.043C242.505 353.186 237.67 349.089 237.67 349.089C237.67 349.089 228.371 281.434 226.132 263.893C223.893 246.352 225.025 244.925 216.833 238.221C208.64 231.518 166.239 225.97 151.355 258.309Z" fill="#02A66A" stroke="#263238" stroke-linecap="round" stroke-linejoin="round"/>
<path d="M210.892 381.699C209.551 382.72 208.149 383.692 206.722 384.602" stroke="#263238" stroke-linecap="round" stroke-linejoin="round"/>
<path d="M235.419 351.796C235.419 351.796 227.522 367.295 214.446 378.784" stroke="#263238" stroke-linecap="round" stroke-linejoin="round"/>
<path d="M229.675 352.62C229.675 352.62 216.969 364.503 204.262 371.883" stroke="#263238" stroke-linecap="round" stroke-linejoin="round"/>
<path d="M239.896 147.097C241.943 151.394 243.566 155.881 244.743 160.492C245.85 166.077 246.231 171.28 248.827 172.4C251.422 173.519 256.207 173.888 255.531 176.865C254.854 179.842 249.946 184.676 249.946 184.676C249.946 184.676 251.066 202.537 250.684 205.883C250.303 209.228 230.597 209.228 229.49 209.228C228.383 209.228 217.189 235.651 217.189 235.651L185.945 220.016L191.898 200.679C191.898 200.679 182.23 182.068 181.48 173.888C180.729 165.708 199.746 150.824 210.51 147.478C221.273 144.132 239.896 147.097 239.896 147.097Z" fill="white" stroke="#263238" stroke-linecap="round" stroke-linejoin="round"/>
<path d="M229.49 209.229L219.563 206.399L223.278 220.927L229.49 209.229Z" fill="#263238" stroke="#263238" stroke-linecap="round" stroke-linejoin="round"/>
<path d="M243.587 168.143C244.079 170.247 243.845 172.104 243.046 172.289C242.246 172.473 241.188 170.936 240.684 168.845C240.18 166.753 240.426 164.884 241.225 164.699C242.025 164.515 243.083 166.052 243.587 168.143Z" fill="#263238"/>
<path d="M237.302 188.021C237.302 188.021 241.767 191.38 245.851 189.891" stroke="#263238" stroke-linecap="round" stroke-linejoin="round"/>
<path d="M238.04 140.036C238.04 140.036 243.255 149.335 239.528 155.289C235.801 161.243 226.883 163.838 222.049 169.423C217.215 175.007 214.668 184.676 212.749 185.414C210.83 186.152 205.369 174.995 201.949 175.733C198.529 176.471 193.031 184.344 197.865 192.475C199.197 194.803 201.163 196.705 203.535 197.957C205.908 199.21 208.587 199.761 211.261 199.548C211.261 199.548 197.865 206.621 195.27 206.621C192.674 206.621 184.851 202.155 181.136 198.01C177.421 193.865 164.075 181.699 163.263 171.662C162.451 161.624 175.908 148.966 175.908 148.966C175.908 148.966 159.917 147.847 164.013 141.893C168.109 135.94 182.612 132.225 182.612 132.225C182.612 132.225 180.004 122.925 183.732 121.056C187.459 119.186 210.142 126.69 210.142 126.69C210.142 126.69 203.819 118.509 212.749 118.079C221.68 117.648 236.921 128.867 238.04 140.036Z" fill="#263238" stroke="#263238" stroke-linecap="round" stroke-linejoin="round"/>
<path d="M208.432 180.432L255.901 161.243" stroke="#263238" stroke-linecap="round" stroke-linejoin="round"/>
<path d="M243.525 158.549C245.5 157.692 247.729 157.629 249.75 158.372C251.77 159.116 253.427 160.608 254.376 162.54C255.325 164.472 255.495 166.695 254.848 168.749C254.202 170.802 252.791 172.528 250.906 173.568" stroke="#263238" stroke-linecap="round" stroke-linejoin="round"/>
<path d="M226.132 246.008C226.132 246.008 225.763 235.22 222.786 232.243C219.81 229.266 197.865 216.99 187.815 214.395C177.765 211.799 167.359 215.502 160.655 217.74C153.951 219.979 149.498 226.327 146.853 240.116C144.208 253.905 143.876 262.43 149.461 263.18C155.045 263.93 162.857 247.189 180.336 243.831C197.816 240.473 213.819 243.462 217.546 245.319C221.273 247.177 226.132 246.008 226.132 246.008Z" fill="#02A66A" stroke="#263238" stroke-linecap="round" stroke-linejoin="round"/>
<path d="M169.634 234.642C166.276 235.872 164.013 236.758 164.013 236.758" stroke="#263238" stroke-linecap="round" stroke-linejoin="round"/>
<path d="M226.133 246.008C226.133 246.008 202.761 232.994 194.15 230.386C189.685 229.033 181.665 230.816 175.022 232.846" stroke="#263238" stroke-linecap="round" stroke-linejoin="round"/>
<path d="M336.607 306.529C336.607 306.529 335.376 314.266 333.962 315.139C332.547 316.013 332.633 307.955 332.633 307.955C332.633 307.955 330.862 312.593 329.767 313.7C328.673 314.807 329.324 308.952 329.324 308.952L330.555 303.429L336.607 306.529Z" fill="white" stroke="#263238" stroke-linecap="round" stroke-linejoin="round"/>
<path d="M320.861 298.902L332.276 299.086C332.276 299.086 335.29 299.517 335.72 301.239C336.331 303.144 337.05 305.013 337.873 306.836L320.209 301.67L320.861 298.902Z" fill="white" stroke="#263238" stroke-linecap="round" stroke-linejoin="round"/>
<path d="M324.945 302.506C324.945 302.506 340.936 300.354 341.318 301.645C341.637 302.617 342.867 311.375 343.138 314.204C343.144 314.301 343.118 314.397 343.065 314.478C343.013 314.559 342.935 314.621 342.845 314.656C342.754 314.69 342.655 314.695 342.562 314.669C342.469 314.643 342.386 314.588 342.326 314.512L337.873 306.811L325.806 307.673C325.806 307.673 322.362 304.659 324.945 302.506Z" fill="white" stroke="#263238" stroke-linecap="round" stroke-linejoin="round"/>
<path d="M192.748 254.274C192.748 254.274 182.833 261.593 186.278 279.688C189.722 297.783 213.844 347.343 215.997 351.599C218.149 355.855 227.621 356.335 231.926 355.043C236.232 353.752 312.915 323.184 312.915 323.184C312.915 323.184 321.095 321.019 322.387 319.297C323.679 317.575 331.871 308.534 331.871 308.534C331.871 308.534 344.787 310.256 347.801 309.395C350.814 308.534 344.787 307.672 341.773 306.811C339.448 306.147 326.631 301.141 320.862 298.877C320.031 298.542 319.118 298.463 318.242 298.649C317.365 298.835 316.564 299.279 315.941 299.923C311.907 304.056 303.308 312.827 301.672 314.13C299.52 315.853 238.802 326.198 238.802 326.198C238.802 326.198 224.583 259.441 218.986 253.844C213.389 248.247 203.487 249.538 203.487 249.538" fill="#02A66A"/>
<path d="M192.748 254.274C192.748 254.274 182.833 261.593 186.278 279.688C189.722 297.783 213.844 347.343 215.997 351.599C218.149 355.855 227.621 356.335 231.926 355.043C236.232 353.752 312.915 323.184 312.915 323.184C312.915 323.184 321.095 321.019 322.387 319.297C323.679 317.575 331.871 308.534 331.871 308.534C331.871 308.534 344.787 310.256 347.801 309.395C350.814 308.534 344.787 307.672 341.773 306.811C339.448 306.147 326.631 301.141 320.862 298.877C320.031 298.542 319.118 298.463 318.242 298.649C317.365 298.835 316.564 299.279 315.941 299.923C311.907 304.056 303.308 312.827 301.672 314.13C299.52 315.853 238.802 326.198 238.802 326.198C238.802 326.198 224.583 259.441 218.986 253.844C213.389 248.247 203.487 249.538 203.487 249.538" stroke="#263238" stroke-linecap="round" stroke-linejoin="round"/>
<path d="M272.838 339.101C292.95 331.13 312.915 323.184 312.915 323.184C312.915 323.184 321.095 321.019 322.386 319.297C323.678 317.574 331.858 308.533 331.858 308.533C331.858 308.533 344.786 310.255 347.849 309.394C350.912 308.533 344.835 307.672 341.822 306.811C339.497 306.147 326.679 301.14 320.91 298.877C320.079 298.542 319.167 298.462 318.29 298.649C317.414 298.835 316.613 299.278 315.99 299.923C311.955 304.056 303.357 312.826 301.721 314.13C300.601 315.028 283.638 318.251 267.61 321.142L272.838 339.101Z" fill="white" stroke="#263238" stroke-linecap="round" stroke-linejoin="round"/>
<path d="M138.243 423.854L119.484 548.512C119.417 548.774 119.457 549.053 119.595 549.286C119.734 549.519 119.959 549.687 120.222 549.754C120.484 549.821 120.763 549.781 120.996 549.642C121.229 549.504 121.397 549.279 121.464 549.016L149.756 425.909L138.243 423.854Z" fill="#9C9C9C" stroke="#263238" stroke-linecap="round" stroke-linejoin="round"/>
<path d="M166.239 424.678L174.395 548.278C174.395 548.549 174.502 548.808 174.694 549C174.885 549.191 175.145 549.299 175.416 549.299C175.687 549.299 175.946 549.191 176.138 549C176.329 548.808 176.437 548.549 176.437 548.278L177.851 423.682L166.239 424.678Z" fill="#9C9C9C" stroke="#263238" stroke-linecap="round" stroke-linejoin="round"/>
<path d="M193.756 426.536L216.143 547.995C216.209 548.238 216.363 548.448 216.575 548.585C216.786 548.722 217.041 548.776 217.29 548.736C217.539 548.696 217.764 548.566 217.922 548.37C218.081 548.174 218.162 547.927 218.149 547.675L205.11 423.891L193.756 426.536Z" fill="#9C9C9C" stroke="#263238" stroke-linecap="round" stroke-linejoin="round"/>
<path d="M237.031 425.515L255.347 547.786C255.402 548.032 255.547 548.249 255.752 548.395C255.958 548.541 256.211 548.606 256.461 548.577C256.712 548.548 256.943 548.427 257.11 548.238C257.277 548.049 257.367 547.804 257.365 547.552L248.483 423.313L237.031 425.515Z" fill="#9C9C9C" stroke="#263238" stroke-linecap="round" stroke-linejoin="round"/>
<path d="M219.527 400.63C219.527 400.63 197.988 393.446 187.938 367.615C177.888 341.783 161.393 297.278 149.904 291.521C138.415 285.764 116.175 296.54 114.735 338.166C113.296 379.792 116.667 410.741 125.942 420.976C134.146 429.992 148.083 441.481 196.462 442.293C239.675 443.031 257.315 426.56 263.305 420.976C269.296 415.391 279.088 403.459 271.203 403.459C263.318 403.459 229.576 403.459 219.527 400.63Z" fill="white" stroke="#263238" stroke-linecap="round" stroke-linejoin="round"/>
<path d="M318.979 145.141C318.979 145.141 310.578 135.3 298.904 133.467C287.231 131.634 286.443 148.659 301.364 156.125C305.549 158.051 310.187 158.775 314.76 158.217C314.76 158.217 302.84 172.301 310.553 174.552C327.774 179.62 324.084 153.075 324.084 153.075L318.979 145.141Z" fill="white" stroke="#263238" stroke-linecap="round" stroke-linejoin="round"/>
<path d="M321.809 144.464C321.809 144.464 316.888 132.52 320.578 121.277C324.269 110.034 338.894 117.673 338.747 134.365C338.69 138.684 337.535 142.918 335.389 146.666C335.389 146.666 354.16 142.668 351.847 150.356C346.595 167.836 326.557 152.632 326.557 152.632L321.809 144.464Z" fill="white" stroke="#263238" stroke-linecap="round" stroke-linejoin="round"/>
<path d="M328.328 159.385C328.114 159.385 327.904 159.329 327.719 159.224C327.533 159.118 327.379 158.966 327.27 158.782L315.596 139.175C315.429 138.896 315.379 138.561 315.457 138.246C315.536 137.93 315.736 137.658 316.014 137.489C316.154 137.405 316.309 137.349 316.47 137.325C316.631 137.301 316.795 137.31 316.953 137.35C317.111 137.39 317.259 137.461 317.39 137.559C317.52 137.657 317.629 137.779 317.712 137.92L329.373 157.528C329.54 157.807 329.59 158.141 329.512 158.457C329.434 158.772 329.233 159.044 328.955 159.213C328.764 159.322 328.548 159.382 328.328 159.385Z" fill="#263238"/>
<path d="M317.59 140.885C317.59 140.885 313.383 132.016 305.916 131.044" stroke="#263238" stroke-linecap="round" stroke-linejoin="round"/>
<path d="M317.712 137.92C317.712 137.92 315.252 130.613 317.121 125.939" stroke="#263238" stroke-linecap="round" stroke-linejoin="round"/>
<path d="M310.27 146.211C309.828 148.376 306.58 149.557 303.062 148.844C299.544 148.13 296.998 145.781 297.441 143.616C297.884 141.451 301.131 140.258 304.649 140.983C308.167 141.709 310.713 144.034 310.27 146.211Z" fill="#02A66A" stroke="#263238" stroke-linecap="round" stroke-linejoin="round"/>
<path d="M319.065 161.464C320.295 162.288 320.295 164.601 318.905 166.655C317.515 168.71 315.375 169.743 314.145 168.857C312.915 167.971 312.915 165.72 314.305 163.666C315.695 161.612 317.749 160.64 319.065 161.464Z" fill="#02A66A" stroke="#263238" stroke-linecap="round" stroke-linejoin="round"/>
<path d="M344.639 151.168C344.639 152.669 342.696 153.911 340.248 153.948C337.8 153.985 335.807 152.792 335.782 151.291C335.758 149.79 337.726 148.548 340.174 148.511C342.622 148.474 344.615 149.68 344.639 151.168Z" fill="#02A66A" stroke="#263238" stroke-linecap="round" stroke-linejoin="round"/>
<path d="M329.484 138.326C327.282 138.572 325.167 135.866 324.773 132.262C324.379 128.658 325.843 125.57 328.045 125.324C330.247 125.078 332.35 127.784 332.744 131.388C333.138 134.993 331.686 138.08 329.484 138.326Z" fill="#02A66A" stroke="#263238" stroke-linecap="round" stroke-linejoin="round"/>
<path d="M8.03711 549.754H581" stroke="#263238" stroke-linecap="round" stroke-linejoin="round"/>
</svg>
