<svg width="226" height="422" viewBox="0 0 226 422" fill="none" xmlns="http://www.w3.org/2000/svg">
<path d="M120.969 208.883C120.42 213.073 120.031 217.293 119.852 221.513L118.854 242.234L114.993 320.518H119.044L121.398 242.323L122.016 221.592C122.106 217.672 122.396 213.771 122.815 209.88L123.114 210.03C123.114 210.03 130.895 212.723 135.085 211.227C139.276 209.731 147.346 200.463 151.836 186.705C156.325 172.948 160.814 122.717 158.39 122.467C155.966 122.218 121.637 143.947 112.659 155.31C103.68 166.673 99.7991 188.232 103.091 194.786C105.625 199.914 116.36 206.309 120.969 208.883Z" fill="#263238"/>
<path d="M98.8712 224.685C98.8712 224.685 99.2104 224.406 99.7291 223.917C100.335 225.567 100.838 227.253 101.236 228.965C101.582 230.485 101.815 232.029 101.934 233.584C102.044 235.1 102.034 236.756 102.084 238.353L102.213 247.99C102.423 272.152 102.343 296.345 102.213 320.518H106.204C105.785 296.325 105.336 272.133 104.578 247.94L104.228 238.283C104.149 236.657 104.119 235.09 103.979 233.404C103.816 231.754 103.536 230.117 103.141 228.506C102.621 226.449 101.954 224.432 101.146 222.47C103.444 220.194 105.322 217.529 106.693 214.599C108.897 209.291 100.008 202.557 92.5362 192.392C85.0639 182.226 54.0175 164.877 42.6444 162.183C31.2714 159.49 26.802 155.01 30.9821 163.68C35.1622 172.349 60.6019 204.652 60.6019 204.652C60.6019 204.652 86.6202 227.678 93.1946 227.678C99.769 227.678 98.8712 224.685 98.8712 224.685Z" fill="#263238"/>
<path d="M110.613 133.601C110.121 142.58 109.642 151.559 109.177 160.537C108.269 178.545 107.391 196.552 106.752 214.589C106.623 219.099 106.463 223.568 106.383 228.127C106.323 230.382 106.3 232.646 106.313 234.921C106.313 236.058 106.313 237.176 106.313 238.333L106.433 241.795C106.982 250.684 107.002 259.702 107.022 268.731C107.022 285.99 106.732 303.269 106.373 320.538H111.142C111.192 303.249 111.142 285.98 110.863 268.661C110.683 259.682 110.513 250.614 109.785 241.525L109.616 238.233C109.556 237.136 109.616 235.999 109.546 234.891C109.499 232.656 109.499 230.412 109.546 228.157C109.546 223.668 109.616 219.178 109.675 214.659C109.985 196.652 110.543 178.635 111.132 160.617C111.431 151.718 111.747 142.816 112.08 133.911C118.375 135.088 124.051 133.352 127.324 129.92C135.394 121.251 139.584 104.8 140.482 93.7358C141.38 82.672 139.285 45.2906 139.285 45.2906C139.285 45.2906 134.497 16.2894 130.915 15.3616C128.728 14.8042 126.687 13.7835 124.929 12.3687C124.929 12.3687 126.126 10.8722 124.031 6.09355C121.936 1.31488 117.756 1.6042 115.661 4.5971C115.661 4.5971 120.151 -2.58587 112.369 1.00562C104.587 4.5971 94.4116 18.963 94.1322 22.2353C93.8529 25.5075 88.4457 18.3545 86.6599 23.4325C84.8742 28.5104 77.0826 73.0748 86.3606 104.77C91.5982 122.837 101.505 131.277 110.613 133.601Z" fill="#263238"/>
<path d="M73.8803 169.806C73.8803 169.806 65.121 169.526 59.4744 165.815C53.8278 162.104 40.5194 145.763 29.5454 131.347C18.5714 116.931 7.22828 96.5991 4.96364 90.3839C2.69901 84.1686 2.69901 81.056 4.11566 81.3453C5.5323 81.6346 1.29235 75.6887 1.01301 72.3067C0.733672 68.9248 5.00355 67.7775 8.92426 69.4735C12.845 71.1694 19.6588 77.3847 19.6588 77.3847C19.6588 77.3847 6.38029 65.5228 22.7615 73.7134C39.1426 81.904 63.1657 101.966 65.141 104.231C67.1163 106.496 96.786 137.283 94.242 150.282C91.698 163.281 83.2082 172.908 73.8803 169.806Z" fill="#02A66A" stroke="#263238" stroke-miterlimit="10"/>
<path d="M26.1338 84.707C26.3643 87.0274 26.4177 89.362 26.2934 91.6905" stroke="#263238" stroke-miterlimit="10"/>
<path d="M25.5244 77.3047C25.5244 77.3047 25.704 79.1603 25.8935 81.5546" stroke="#263238" stroke-miterlimit="10"/>
<path d="M34.6036 82.7515C35.1443 86.2147 35.0802 89.7454 34.4141 93.1867" stroke="#263238" stroke-miterlimit="10"/>
<path d="M42.694 98.2549C42.5712 100.802 42.1254 103.323 41.3672 105.757" stroke="#263238" stroke-miterlimit="10"/>
<path d="M43.1037 90.6729C43.1037 90.6729 43.1037 93.0971 42.8643 96.08" stroke="#263238" stroke-miterlimit="10"/>
<path d="M50.7355 107.034C50.4447 108.567 50.0242 110.072 49.4785 111.534" stroke="#263238" stroke-miterlimit="10"/>
<path d="M52.1817 97.2573C52.1817 97.2573 51.8625 100.609 51.2539 104.241" stroke="#263238" stroke-miterlimit="10"/>
<path d="M63.1852 108.83C63.1852 108.83 59.9029 122.737 59.1348 124.862" stroke="#263238" stroke-miterlimit="10"/>
<path d="M75.167 126.987C75.167 126.987 71.3062 134.13 68.1836 136.065" stroke="#263238" stroke-miterlimit="10"/>
<path d="M81.1124 147.269C79.3763 148 77.5806 148.58 75.7451 149.004" stroke="#263238" stroke-miterlimit="10"/>
<path d="M86.5405 144.755C86.5405 144.755 85.1438 145.493 83.1885 146.381" stroke="#263238" stroke-miterlimit="10"/>
<path d="M86.1607 155.809C83.1678 156.158 78.7683 156.617 75.5459 156.726" stroke="#263238" stroke-miterlimit="10"/>
<path d="M89.6528 155.38L88.1064 155.579" stroke="#263238" stroke-miterlimit="10"/>
<path d="M17.5342 95.4517C18.8458 95.5377 20.1627 95.4909 21.4649 95.312" stroke="#263238" stroke-miterlimit="10"/>
<path d="M9.30371 94.145C11.2115 94.6339 13.1471 95.007 15.1 95.2624" stroke="#263238" stroke-miterlimit="10"/>
<path d="M6.01172 85.4551L13.7434 86.6123" stroke="#263238" stroke-miterlimit="10"/>
<path d="M28.0488 105.638C29.4624 105.715 30.8798 105.685 32.2888 105.548" stroke="#263238" stroke-miterlimit="10"/>
<path d="M16.6357 104.58C16.6357 104.58 20.736 105.139 24.9361 105.458" stroke="#263238" stroke-miterlimit="10"/>
<path d="M22.6318 115.215C27.7809 115.76 32.9815 115.566 38.0752 114.636" stroke="#263238" stroke-miterlimit="10"/>
<path d="M42.3047 125.531C44.0756 125.42 45.8305 125.13 47.5423 124.663" stroke="#263238" stroke-miterlimit="10"/>
<path d="M30.1641 125.44C30.1641 125.44 34.1546 125.77 38.6539 125.7" stroke="#263238" stroke-miterlimit="10"/>
<path d="M51.5537 134.599C52.8174 134.426 54.0629 134.138 55.2749 133.741" stroke="#263238" stroke-miterlimit="10"/>
<path d="M37.1172 134.519C40.8955 134.99 44.7082 135.123 48.5102 134.918" stroke="#263238" stroke-miterlimit="10"/>
<path d="M51.4141 145.702C54.795 145.769 58.1699 145.386 61.4503 144.565" stroke="#263238" stroke-miterlimit="10"/>
<path d="M43.4922 144.944C44.8319 145.2 46.1838 145.386 47.5426 145.503" stroke="#263238" stroke-miterlimit="10"/>
<path d="M60.6016 155.589C61.8697 155.312 63.068 154.779 64.1232 154.023" stroke="#263238" stroke-miterlimit="10"/>
<path d="M53.1494 156.118C54.6337 156.233 56.1246 156.233 57.6088 156.118" stroke="#263238" stroke-miterlimit="10"/>
<path d="M67.8247 159.43C66.0859 160.817 64.0286 161.75 61.8389 162.143" stroke="#263238" stroke-miterlimit="10"/>
<path d="M73.5711 183.623L74.1597 185.618C74.5288 186.875 74.868 188.232 75.2172 189.539L77.2124 197.52C82.4201 218.789 87.4183 240.109 92.576 261.368L94.5713 269.349L95.0801 271.345C95.2497 272.023 95.3894 272.582 95.519 273.24C95.7784 274.497 95.958 275.824 96.1376 277.151C96.806 282.468 97.1352 287.915 97.3447 293.352C97.7039 302.331 97.8136 311.43 97.7737 320.468H102.363C102.273 311.36 102.054 302.261 101.575 293.143C101.255 287.646 100.896 282.169 100.128 276.612C99.9186 275.215 99.7191 273.829 99.3998 272.422C99.2602 271.734 99.0607 270.965 98.8911 270.317L98.3523 268.322L96.2872 260.391C90.8002 239.271 85.5427 217.971 79.9659 196.801L77.8609 188.82C77.4818 187.483 77.1426 186.186 76.7136 184.83L76.125 182.904C75.9454 182.306 75.8158 181.647 75.6761 180.999C74.6784 175.701 73.8404 170.204 72.5834 164.837C70.1492 154.083 66.3282 143.488 60.2427 134.17C57.1709 129.59 53.84 125.19 50.2663 120.991C46.7447 116.761 43.0833 112.671 39.3522 108.65C31.8965 100.623 24.1848 92.8344 16.217 85.2856L15.5586 85.984C23.3867 93.6126 30.9754 101.491 38.3246 109.618C41.976 113.678 45.5675 117.799 48.9993 122.049C52.4466 126.254 55.6541 130.651 58.6065 135.217C64.3928 144.376 67.9843 154.771 70.229 165.366C71.3962 170.693 72.1045 176.05 73.0723 181.527C73.2419 182.216 73.3815 182.904 73.5711 183.623Z" fill="#02A66A" stroke="#263238" stroke-miterlimit="10"/>
<path d="M102.692 141.203C102.692 141.203 98.2023 143.448 89.7224 141.882C81.2425 140.315 67.5151 136.495 62.3473 119.445C57.1796 102.395 56.5211 70.082 56.97 67.8373C57.419 65.5926 58.5363 60.2154 58.5363 60.2154H61.8984L60.0727 54.3593L63.4347 45.8394C63.4347 45.8394 67.4253 38.856 67.6946 38.2075C67.964 37.5591 71.0567 42.0185 71.0567 42.0185C71.0567 42.0185 71.5056 37.3097 71.5056 36.6413C71.5056 35.9728 77.1223 33.0498 82.0506 33.9476C86.9789 34.8455 105.615 47.4257 113.476 60.2154C121.337 73.0051 131.434 99.7018 133.429 115.624C135.424 131.546 127.593 136.046 118.624 139.408C109.655 142.77 102.692 141.203 102.692 141.203Z" fill="#02A66A" stroke="#263238" stroke-miterlimit="10"/>
<path d="M116.748 126.877C119.508 125.048 122.087 122.961 124.45 120.642" stroke="#263238" stroke-miterlimit="10"/>
<path d="M106.941 132.514C109.189 131.44 111.38 130.251 113.506 128.952" stroke="#263238" stroke-miterlimit="10"/>
<path d="M127.842 108.78C127.842 108.78 116.868 118.387 109.476 120.642" stroke="#263238" stroke-miterlimit="10"/>
<path d="M104.767 108.95C104.103 109.331 103.413 109.664 102.702 109.947" stroke="#263238" stroke-miterlimit="10"/>
<path d="M121.069 95.7808C117.064 99.7445 112.776 103.412 108.239 106.755" stroke="#263238" stroke-miterlimit="10"/>
<path d="M114.972 89.1367C112.558 91.332 109.857 93.188 106.941 94.6536" stroke="#263238" stroke-miterlimit="10"/>
<path d="M119.652 83.9189C118.692 85.2904 117.61 86.5726 116.42 87.7499" stroke="#263238" stroke-miterlimit="10"/>
<path d="M105.495 73.6633C107.706 71.7371 109.712 69.5874 111.481 67.2485" stroke="#263238" stroke-miterlimit="10"/>
<path d="M93.374 83.3502C93.374 83.3502 97.9532 80.1079 102.682 76.1074" stroke="#263238" stroke-miterlimit="10"/>
<path d="M109.197 61.5923C109.197 61.5923 100.727 68.9449 97.335 71.1995" stroke="#263238" stroke-miterlimit="10"/>
<path d="M80.7441 80.228C82.3063 80.4564 83.8845 80.5565 85.463 80.5273" stroke="#263238" stroke-miterlimit="10"/>
<path d="M61.7295 73.1846C66.6546 76.0679 71.9656 78.2346 77.5021 79.6193" stroke="#263238" stroke-miterlimit="10"/>
<path d="M66.249 89.5659C66.249 89.5659 78.6895 93.5565 87.7281 92.9579" stroke="#263238" stroke-miterlimit="10"/>
<path d="M86.0615 112.451C88.3167 112.545 90.5758 112.452 92.8155 112.172" stroke="#263238" stroke-miterlimit="10"/>
<path d="M63.7148 106.236C69.467 109.266 75.7078 111.258 82.1511 112.122" stroke="#263238" stroke-miterlimit="10"/>
<path d="M87.668 122.398C89.5941 122.273 91.5045 121.969 93.3745 121.49" stroke="#263238" stroke-miterlimit="10"/>
<path d="M71.626 120.931C75.7063 121.888 79.8763 122.409 84.0665 122.487" stroke="#263238" stroke-miterlimit="10"/>
<path d="M84.3359 134.489C88.5448 135.095 92.7938 135.379 97.0458 135.337" stroke="#263238" stroke-miterlimit="10"/>
<path d="M72.7334 69.5928C76.0555 71.6579 80.086 73.6432 83.7672 74.0223" stroke="#263238" stroke-miterlimit="10"/>
<path d="M65.6895 64.4253C65.6895 64.4253 67.4652 65.9916 70.1389 67.8771" stroke="#263238" stroke-miterlimit="10"/>
<path d="M99.3097 53.9302C96.1393 56.7659 92.7353 59.329 89.1338 61.592" stroke="#263238" stroke-miterlimit="10"/>
<path d="M102.134 51.4258L100.937 52.5132" stroke="#263238" stroke-miterlimit="10"/>
<path d="M66.5879 51.4258C66.5879 51.4258 73.0825 58.7684 80.4251 59.8957" stroke="#263238" stroke-miterlimit="10"/>
<path d="M93.0942 43.7944C93.0942 43.7944 88.5749 48.8824 84.6143 50.5783" stroke="#263238" stroke-miterlimit="10"/>
<path d="M67.9443 46.3779C70.3754 48.0823 73.04 49.4263 75.8556 50.3685" stroke="#263238" stroke-miterlimit="10"/>
<path d="M101.974 144.226C103.8 156.198 105.127 168.299 106.214 180.4C108.389 204.603 109.506 228.885 110.494 253.228C110.623 256.27 110.753 259.303 110.923 262.366C111.092 265.429 111.242 268.352 111.342 271.435C111.541 277.49 111.631 283.566 111.701 289.641C111.814 299.937 111.841 310.246 111.781 320.568H116.41C116.31 310.243 116.17 299.927 115.931 289.641C115.781 283.546 115.612 277.45 115.332 271.345C115.193 268.352 115.003 265.199 114.794 262.196C114.584 259.194 114.424 256.141 114.255 253.108C112.958 228.816 111.511 204.473 109.027 180.221C107.78 168.099 106.294 155.988 104.298 143.947C102.303 131.905 99.7792 120.003 97.0257 108.112C91.4689 84.3879 85.0541 60.8936 77.9909 37.5889L77.083 37.8582C83.827 61.2228 89.9425 84.7471 95.1801 108.531C97.774 120.313 100.138 132.234 101.974 144.226Z" fill="#02A66A" stroke="#263238" stroke-miterlimit="10"/>
<path d="M145.041 181.707C141.75 174.327 139.52 166.518 138.417 158.512C137.04 146.541 149.441 130.269 158.37 122.468C167.298 114.666 187.301 102.944 193.736 101.108C200.171 99.2726 209.808 95.6013 211.873 95.6013C213.938 95.6013 211.643 95.3718 213.938 95.6013C216.232 95.8307 221.979 93.9851 223.126 95.1424C224.273 96.2996 227.027 100.42 223.126 109.109C219.225 117.799 212.551 125.191 210.486 127.745C208.421 130.299 208.65 132.105 208.65 132.105C208.65 132.105 209.798 132.793 207.733 135.317C205.668 137.841 204.52 139.687 200.38 144.735C196.24 149.783 192.12 150.721 192.12 150.721L192.808 153.933L187.75 160.358C185.226 163.58 175.349 181.947 168.925 185.159C162.5 188.371 148.254 190.666 145.041 181.707Z" fill="#02A66A" stroke="#263238" stroke-miterlimit="10"/>
<path d="M212.322 98.1255C212.322 98.1255 210.257 105.698 210.027 107.763" stroke="#263238" stroke-miterlimit="10"/>
<path d="M199.702 109.229C199.379 110.306 199.221 111.426 199.233 112.551" stroke="#263238" stroke-miterlimit="10"/>
<path d="M203.833 99.5024C202.633 101.715 201.573 104.001 200.66 106.346" stroke="#263238" stroke-miterlimit="10"/>
<path d="M195.332 102.944C195.332 102.944 191.661 115.574 191.432 119.475" stroke="#263238" stroke-miterlimit="10"/>
<path d="M184.248 112.222C182.991 116.003 181.784 120.652 182.014 124.104" stroke="#263238" stroke-miterlimit="10"/>
<path d="M186.833 105.468C186.833 105.468 186.114 107.064 185.227 109.458" stroke="#263238" stroke-miterlimit="10"/>
<path d="M173.035 127.885C172.784 129.895 172.784 131.93 173.035 133.94" stroke="#263238" stroke-miterlimit="10"/>
<path d="M176.038 113.738C174.799 117.862 173.859 122.07 173.225 126.328" stroke="#263238" stroke-miterlimit="10"/>
<path d="M166.351 135.068C166.357 136.775 166.541 138.477 166.899 140.146" stroke="#263238" stroke-miterlimit="10"/>
<path d="M167.089 123.196C166.669 126.317 166.412 129.457 166.321 132.604" stroke="#263238" stroke-miterlimit="10"/>
<path d="M158.22 140.924C158.403 142.618 158.758 144.289 159.277 145.912" stroke="#263238" stroke-miterlimit="10"/>
<path d="M157.442 127.745C157.442 127.745 157.442 133.601 157.991 138.988" stroke="#263238" stroke-miterlimit="10"/>
<path d="M153.542 149.953C153.863 151.067 154.246 152.163 154.689 153.235" stroke="#263238" stroke-miterlimit="10"/>
<path d="M151.706 138.769C151.82 141.114 152.101 143.447 152.544 145.752" stroke="#263238" stroke-miterlimit="10"/>
<path d="M147.485 157.874C148.154 158.948 148.955 159.933 149.87 160.807" stroke="#263238" stroke-miterlimit="10"/>
<path d="M144.124 147.947C144.38 150.157 144.924 152.323 145.74 154.392" stroke="#263238" stroke-miterlimit="10"/>
<path d="M142.059 163.57C142.059 163.57 144.812 167.93 147.795 169.556" stroke="#263238" stroke-miterlimit="10"/>
<path d="M215.993 117.41C213.908 117.256 211.838 116.949 209.798 116.492" stroke="#263238" stroke-miterlimit="10"/>
<path d="M212.551 122.697C212.551 122.697 205.897 123.386 203.134 122.468" stroke="#263238" stroke-miterlimit="10"/>
<path d="M198.585 129.341C200.918 129.802 203.29 130.036 205.668 130.04" stroke="#263238" stroke-miterlimit="10"/>
<path d="M194.873 128.663L196.589 128.992" stroke="#263238" stroke-miterlimit="10"/>
<path d="M196.6 136.993C198.466 137.364 200.381 137.421 202.266 137.163" stroke="#263238" stroke-miterlimit="10"/>
<path d="M187.062 135.088C187.062 135.088 189.875 135.796 193.137 136.415" stroke="#263238" stroke-miterlimit="10"/>
<path d="M189.686 145.753C191.874 146.081 194.106 145.969 196.25 145.423" stroke="#263238" stroke-miterlimit="10"/>
<path d="M176.966 142.44C180.12 143.656 183.37 144.607 186.683 145.283" stroke="#263238" stroke-miterlimit="10"/>
<path d="M182.363 153.973C184.343 154.603 186.377 155.047 188.439 155.3" stroke="#263238" stroke-miterlimit="10"/>
<path d="M171.219 150.022C171.219 150.022 175.11 151.619 179.469 153.065" stroke="#263238" stroke-miterlimit="10"/>
<path d="M177.155 161.785C178.837 162.1 180.536 162.309 182.243 162.413" stroke="#263238" stroke-miterlimit="10"/>
<path d="M164.565 158.971C164.565 158.971 169.893 160.378 175.1 161.405" stroke="#263238" stroke-miterlimit="10"/>
<path d="M168.596 171.751C170.871 172.381 173.218 172.716 175.579 172.748" stroke="#263238" stroke-miterlimit="10"/>
<path d="M157.901 167.241C159.986 168.458 162.164 169.505 164.416 170.374" stroke="#263238" stroke-miterlimit="10"/>
<path d="M163.438 179.542C164.616 179.812 165.913 180.071 167.319 180.33" stroke="#263238" stroke-miterlimit="10"/>
<path d="M154 176.659C155.94 177.479 157.942 178.146 159.986 178.654" stroke="#263238" stroke-miterlimit="10"/>
<path d="M123.771 320.518C124.111 302.222 124.579 283.915 125.467 265.648C125.717 260.75 125.986 255.842 126.375 250.963C126.669 246.122 127.286 241.306 128.221 236.547C130.383 227.015 133.145 217.628 136.491 208.444C139.823 199.226 143.475 190.107 147.695 181.268C149.81 176.849 152.054 172.499 154.498 168.299C156.966 164.102 159.751 160.1 162.829 156.328C169.145 148.82 175.925 141.717 183.131 135.058C190.304 128.344 197.706 121.849 205.328 115.654L204.739 114.906C196.978 121.001 189.476 127.386 182.163 134.01C174.796 140.585 167.849 147.616 161.362 155.061C158.162 158.873 155.254 162.922 152.663 167.172C150.109 171.422 147.764 175.791 145.55 180.221C141.16 189.09 137.319 198.178 133.808 207.456C130.255 216.719 127.299 226.199 124.959 235.839C124.679 237.056 124.45 238.293 124.2 239.52C123.951 240.747 123.821 242.004 123.632 243.251C123.442 244.499 123.342 245.716 123.193 246.953C123.043 248.19 122.913 249.427 122.814 250.654C122.335 255.582 121.986 260.511 121.656 265.429C120.469 283.795 119.661 302.142 119.062 320.518H123.771Z" fill="#02A66A" stroke="#263238" stroke-miterlimit="10"/>
<path d="M85.9119 270.367C87.2139 270.734 88.552 270.958 89.9024 271.035C97.0555 271.265 97.9833 263.264 97.684 261.468L89.6031 238.443C89.6031 238.443 56.1125 219.607 39.3622 218.709C22.6119 217.812 12.1567 218.709 14.551 223.189C16.9454 227.668 27.6799 241.436 45.6374 251.601C60.8812 260.241 77.013 268.072 85.9019 270.367" fill="#02A66A"/>
<path d="M85.9119 270.367C87.2139 270.734 88.552 270.958 89.9024 271.035C97.0555 271.265 97.9833 263.264 97.684 261.468L89.6031 238.443C89.6031 238.443 56.1125 219.607 39.3622 218.709C22.6119 217.812 12.1567 218.709 14.551 223.189C16.9454 227.668 27.6799 241.436 45.6374 251.601C60.8812 260.241 77.013 268.072 85.9019 270.367" stroke="#263238" stroke-miterlimit="10"/>
<path d="M48.6299 237.365C49.799 237.058 50.9848 236.818 52.1815 236.647" stroke="#263238" stroke-miterlimit="10"/>
<path d="M37.876 241.436C40.3925 240.216 42.9851 239.16 45.6376 238.273" stroke="#263238" stroke-miterlimit="10"/>
<path d="M47.1436 248.31C47.1436 248.31 55.813 243.531 58.5066 242.633" stroke="#263238" stroke-miterlimit="10"/>
<path d="M59.5244 250.584C62.2278 248.877 65.2306 247.699 68.3734 247.112" stroke="#263238" stroke-miterlimit="10"/>
<path d="M56.7109 252.799C57.175 252.328 57.6754 251.894 58.2074 251.502" stroke="#263238" stroke-miterlimit="10"/>
<path d="M73.9205 254.884C72.314 255.559 70.7601 256.352 69.2715 257.258" stroke="#263238" stroke-miterlimit="10"/>
<path d="M79.7365 252.5C79.7365 252.5 78.25 253.068 76.3545 253.866" stroke="#263238" stroke-miterlimit="10"/>
<path d="M82.3606 261.937C81.0486 262.238 79.7739 262.683 78.5596 263.264" stroke="#263238" stroke-miterlimit="10"/>
<path d="M87.2093 260.87C87.2093 260.87 86.082 261.079 84.6055 261.408" stroke="#263238" stroke-miterlimit="10"/>
<path d="M47.4424 222.59C47.4424 222.59 51.6225 230.073 51.6225 231.27" stroke="#263238" stroke-miterlimit="10"/>
<path d="M60.6714 233.764L60.6016 236.049" stroke="#263238" stroke-miterlimit="10"/>
<path d="M60.9008 227.08L60.7412 231.769" stroke="#263238" stroke-miterlimit="10"/>
<path d="M71.0669 232.467L70.7676 239.939" stroke="#263238" stroke-miterlimit="10"/>
<path d="M80.0356 235.749C80.0356 235.749 79.437 242.034 79.1377 244.428" stroke="#263238" stroke-miterlimit="10"/>
<path d="M88.7056 241.136C88.1192 243.982 87.3222 246.779 86.3213 249.507" stroke="#263238" stroke-miterlimit="10"/>
<path d="M40.21 227.399C40.6324 228.46 40.9661 229.555 41.2076 230.671" stroke="#263238" stroke-miterlimit="10"/>
<path d="M37.5762 221.104C37.5762 221.104 38.474 222.99 39.3819 225.234" stroke="#263238" stroke-miterlimit="10"/>
<path d="M29.4961 219.906C29.4961 219.906 32.489 227.678 33.0876 229.175" stroke="#263238" stroke-miterlimit="10"/>
<path d="M90.5309 259.004C94.4316 263.075 97.5143 267.983 98.4022 273.51C99.2598 279.151 99.6569 284.853 99.5894 290.559C99.5894 300.536 99.0906 310.562 98.2825 320.488H102.273C102.712 310.512 102.862 300.486 102.473 290.46C102.322 284.609 101.695 278.78 100.597 273.031C100.268 271.569 99.8444 270.129 99.33 268.721C98.7687 267.319 98.1017 265.962 97.3347 264.661C95.8112 262.119 93.9818 259.774 91.8876 257.677C87.6861 253.577 82.9473 250.067 77.801 247.242C72.7253 244.398 67.4507 241.924 62.0184 239.84C56.6113 237.725 51.1043 235.849 45.5375 234.303C39.9707 232.756 34.3441 231.31 28.6376 230.232L28.458 231.17C34.0946 232.327 39.6814 233.804 45.1983 235.45C50.7152 237.096 56.1723 239.002 61.4897 241.166C66.8194 243.304 71.9902 245.817 76.963 248.689C81.9317 251.497 86.496 254.967 90.5309 259.004Z" fill="#02A66A" stroke="#263238" stroke-miterlimit="10"/>
<path d="M129.379 268.052C129.379 268.052 134.756 251.901 140.143 240.238C145.531 228.576 155.108 218.41 170.072 220.206C185.037 222.002 206.845 236.647 208.98 241.156C211.115 245.666 208.082 247.431 186.254 248.628C164.426 249.826 137.749 260.869 133.569 264.461L129.379 268.052Z" fill="#02A66A" stroke="#263238" stroke-miterlimit="10"/>
<path d="M163.357 244.688C165.502 246.564 167.907 248.339 169.842 248.908" stroke="#263238" stroke-miterlimit="10"/>
<path d="M157.842 239.221C157.842 239.221 159.458 241.047 161.663 243.142" stroke="#263238" stroke-miterlimit="10"/>
<path d="M151.058 241.156C151.058 241.156 155.128 247.93 157.253 249.487" stroke="#263238" stroke-miterlimit="10"/>
<path d="M147.257 249.746C147.871 250.91 148.628 251.992 149.511 252.968" stroke="#263238" stroke-miterlimit="10"/>
<path d="M144.862 244.059C145.244 245.275 145.697 246.468 146.219 247.631" stroke="#263238" stroke-miterlimit="10"/>
<path d="M138.856 251.232C139.736 252.926 140.843 254.49 142.149 255.881" stroke="#263238" stroke-miterlimit="10"/>
<path d="M149.281 233.135C151.277 230.053 153.751 226.731 156.484 224.875" stroke="#263238" stroke-miterlimit="10"/>
<path d="M145.4 240.189C145.4 240.189 146.398 237.984 148.014 235.2" stroke="#263238" stroke-miterlimit="10"/>
<path d="M163.618 226.301C160.136 229.115 155.637 233.045 154.35 235.34" stroke="#263238" stroke-miterlimit="10"/>
<path d="M167.918 222.959C167.918 222.959 167.05 223.608 165.753 224.616" stroke="#263238" stroke-miterlimit="10"/>
<path d="M167.438 231.719C166.389 232.333 165.388 233.026 164.445 233.794" stroke="#263238" stroke-miterlimit="10"/>
<path d="M177.794 225.853C177.794 225.853 173.694 228.038 169.982 230.202" stroke="#263238" stroke-miterlimit="10"/>
<path d="M181.764 232.497C180.212 233.104 178.693 233.793 177.215 234.562" stroke="#263238" stroke-miterlimit="10"/>
<path d="M189.416 229.534C189.416 229.534 186.733 230.531 183.81 231.679" stroke="#263238" stroke-miterlimit="10"/>
<path d="M173.334 243.501C174.324 244.637 175.427 245.67 176.626 246.583" stroke="#263238" stroke-miterlimit="10"/>
<path d="M169.854 239.41C169.854 239.41 170.851 240.608 172.048 242.044" stroke="#263238" stroke-miterlimit="10"/>
<path d="M183.021 241.735C183.977 242.904 185.014 244.004 186.124 245.027" stroke="#263238" stroke-miterlimit="10"/>
<path d="M196.39 232.626L186.703 237.475" stroke="#263238" stroke-miterlimit="10"/>
<path d="M128.791 320.518C128.9 307.868 129.06 295.198 129.509 282.608C129.639 279.356 129.768 276.084 130.048 272.871C130.048 272.053 130.217 271.305 130.307 270.517C130.439 269.751 130.608 268.991 130.816 268.242C131.232 266.707 131.749 265.201 132.362 263.733C134.956 257.826 137.956 252.106 141.341 246.613C143.092 244.775 145.11 243.211 147.327 241.974C149.596 240.702 152.025 239.739 154.55 239.111C159.538 237.784 164.945 238.253 170.252 238.652C175.56 239.051 180.857 239.81 186.155 240.568L194.136 241.715L198.126 242.274C198.795 242.353 199.453 242.443 200.122 242.503L201.119 242.603H202.177V241.605H201.229L200.231 241.496C199.573 241.426 198.914 241.316 198.236 241.226L194.246 240.618L186.314 239.351C181.027 238.513 175.719 237.734 170.352 237.186C167.679 236.896 164.995 236.727 162.281 236.637C159.538 236.558 156.795 236.829 154.121 237.445C151.435 238.073 148.845 239.056 146.419 240.368C143.958 241.679 141.713 243.362 139.765 245.356V245.406L139.705 245.506C136.172 251.067 133.032 256.867 130.307 262.865C129.639 264.407 129.069 265.99 128.601 267.604C128.342 268.412 128.182 269.27 128.003 270.108C127.823 270.946 127.743 271.804 127.683 272.622C127.354 275.924 127.175 279.196 126.995 282.468C126.356 295.158 125.997 307.838 125.708 320.528L128.791 320.518Z" fill="#02A66A" stroke="#263238" stroke-miterlimit="10"/>
<path d="M68.9717 318.054C68.9717 318.054 71.5456 315.011 72.4834 314.772C73.4211 314.532 76.9428 315.71 77.4017 316.647C77.6983 317.314 77.8577 318.033 77.8706 318.762L68.9717 318.054Z" fill="white" stroke="#263238" stroke-miterlimit="10"/>
<path d="M82.3301 318.054C82.3301 318.054 84.904 315.011 85.8418 314.772C86.7795 314.532 90.2912 315.71 90.7601 316.647C91.0567 317.314 91.2161 318.033 91.229 318.762L82.3301 318.054Z" fill="white" stroke="#263238" stroke-miterlimit="10"/>
<path d="M91.9277 317.116C91.9277 317.116 94.5116 314.074 95.4494 313.834C96.3872 313.595 99.8988 314.772 100.368 315.71C100.664 316.376 100.824 317.095 100.837 317.825L91.9277 317.116Z" fill="white" stroke="#263238" stroke-miterlimit="10"/>
<path d="M136.212 317.825C136.212 317.825 138.786 314.772 139.724 314.542C140.661 314.313 144.173 315.48 144.642 316.418C144.938 317.081 145.097 317.797 145.111 318.523L136.212 317.825Z" fill="white" stroke="#263238" stroke-miterlimit="10"/>
<path d="M148.633 317.825C148.633 317.825 151.207 314.772 152.144 314.542C153.082 314.313 156.594 315.48 157.063 316.418C157.359 317.081 157.518 317.797 157.532 318.523L148.633 317.825Z" fill="white" stroke="#263238" stroke-miterlimit="10"/>
<path d="M152.843 317.825C152.843 317.825 150.269 314.772 149.332 314.542C148.394 314.313 144.882 315.48 144.413 316.418C144.117 317.081 143.958 317.797 143.944 318.523L152.843 317.825Z" fill="white" stroke="#263238" stroke-miterlimit="10"/>
<path d="M110.205 318.523C110.205 318.523 107.631 315.48 106.693 315.241C105.755 315.001 102.243 316.178 101.775 317.116C101.478 317.783 101.319 318.502 101.306 319.231L110.205 318.523Z" fill="white" stroke="#263238" stroke-miterlimit="10"/>
<path d="M119.812 318.523C119.812 318.523 117.238 315.48 116.3 315.241C115.363 315.001 111.851 316.178 111.382 317.116C111.085 317.783 110.926 318.502 110.913 319.231L119.812 318.523Z" fill="white" stroke="#263238" stroke-miterlimit="10"/>
<path d="M137.419 318.523C137.419 318.523 134.846 315.48 133.908 315.241C132.97 315.001 129.458 316.178 128.989 317.116C128.693 317.783 128.533 318.502 128.521 319.231L137.419 318.523Z" fill="white" stroke="#263238" stroke-miterlimit="10"/>
<path d="M87.0093 318.054C87.0093 318.054 84.4354 315.011 83.4976 314.772C82.5598 314.532 79.0481 315.71 78.5792 316.647C78.2827 317.314 78.1232 318.033 78.1104 318.762L87.0093 318.054Z" fill="white" stroke="#263238" stroke-miterlimit="10"/>
<path d="M121.218 318.054C121.218 318.054 123.792 315.011 124.729 314.772C125.667 314.532 129.179 315.71 129.648 316.647C129.944 317.314 130.104 318.033 130.117 318.762L121.218 318.054Z" fill="white" stroke="#263238" stroke-miterlimit="10"/>
<path d="M95.6782 318.054C95.6782 318.054 93.1043 315.011 92.1665 314.772C91.2288 314.532 87.7171 315.71 87.2482 316.647C86.9516 317.314 86.7921 318.033 86.7793 318.762L95.6782 318.054Z" fill="white" stroke="#263238" stroke-miterlimit="10"/>
<path d="M104.588 318.732C104.588 318.732 102.004 315.68 101.066 315.45C100.128 315.221 96.6165 316.388 96.1476 317.326C95.8515 317.989 95.6921 318.705 95.6787 319.431L104.588 318.732Z" fill="white" stroke="#263238" stroke-miterlimit="10"/>
<path d="M160.645 317.735H65.4602C65.4602 317.735 62.597 346.347 66.5875 367.976C70.5781 389.604 82.849 403.531 86.8994 408.44C90.9498 413.348 94.4315 417.508 97.8734 421H128.162C131.633 417.508 135.145 413.318 139.136 408.44C143.126 403.561 155.367 389.604 159.417 367.976C163.468 346.347 160.645 317.735 160.645 317.735Z" fill="#77B9F3" stroke="black" stroke-miterlimit="10"/>
</svg>
