<svg width="159" height="160" viewBox="0 0 159 160" fill="none" xmlns="http://www.w3.org/2000/svg">
<g id="Component 2">
<path id="Vector" d="M129.995 68.4521C124.705 68.4521 120.408 72.2319 120.408 76.8747C120.408 79.3797 121.543 80.8479 122.452 82.0235C123.22 83.0156 123.83 83.7992 123.869 85.1534C123.92 86.7308 124.061 91.5274 129.984 91.577H129.996H130.007C135.93 91.5274 136.071 86.7308 136.122 85.1534C136.161 83.8042 136.771 83.0204 137.539 82.0235C138.448 80.8429 139.583 79.3797 139.583 76.8747C139.583 72.2319 135.28 68.4521 129.995 68.4521ZM129.995 88.993C128.177 88.9781 127.308 88.3829 126.975 86.7112H133.011C132.683 88.3779 131.814 88.9731 129.995 88.993ZM135.105 80.5704C134.377 81.5129 133.564 82.5644 133.282 84.1171H131.469V81.7015C131.469 80.9872 130.809 80.4069 129.996 80.4069C129.183 80.4069 128.522 80.9872 128.522 81.7015V84.1171H126.71C126.427 82.5644 125.62 81.5129 124.886 80.5704C124.061 79.504 123.35 78.5863 123.35 76.8749C123.35 73.6556 126.331 71.0366 129.996 71.0366C133.66 71.0366 136.642 73.6556 136.642 76.8749C136.642 78.5863 135.93 79.5039 135.105 80.5704ZM129.995 60.8041C130.809 60.8041 131.469 61.3844 131.469 62.0987V63.4429C131.469 64.1572 130.808 64.7375 129.995 64.7375C129.182 64.7375 128.522 64.1572 128.522 63.4429V62.0987C128.522 61.3844 129.182 60.8041 129.995 60.8041ZM120.956 66.1959C121.532 66.7019 121.532 67.5204 120.956 68.0263C120.668 68.2793 120.289 68.4082 119.911 68.4082C119.533 68.4082 119.155 68.2793 118.867 68.0263L117.783 67.0739C117.207 66.568 117.207 65.7495 117.783 65.2436C118.358 64.7376 119.29 64.7376 119.866 65.2436L120.956 66.1959ZM115.739 74.6731C116.552 74.6731 117.212 75.2535 117.212 75.9677C117.212 76.682 116.552 77.2624 115.739 77.2624L114.208 77.2574C113.395 77.2574 112.735 76.677 112.735 75.9628C112.735 75.2485 113.395 74.6682 114.208 74.6682L115.739 74.6731ZM147.257 75.9677C147.257 76.682 146.596 77.2624 145.783 77.2624H144.247C143.434 77.2624 142.774 76.682 142.774 75.9677C142.774 75.2535 143.434 74.6731 144.247 74.6731H145.783C146.596 74.6731 147.257 75.2535 147.257 75.9677ZM142.203 65.2436C142.779 65.7495 142.779 66.568 142.203 67.0739L141.119 68.0263C140.831 68.2793 140.453 68.4082 140.075 68.4082C139.696 68.4082 139.318 68.2793 139.03 68.0263C138.454 67.5203 138.454 66.7018 139.03 66.1959L140.114 65.2436C140.696 64.7376 141.627 64.7376 142.203 65.2436ZM92.3061 62.1881C92.3061 56.1811 86.7444 51.2952 79.9069 51.2952C73.0693 51.2952 67.5076 56.1812 67.5076 62.1881C67.5076 68.195 73.0693 73.0809 79.9069 73.0809C86.7444 73.0809 92.3061 68.1949 92.3061 62.1881ZM70.4552 62.1881C70.4552 57.6096 74.6956 53.8844 79.9071 53.8844C85.1187 53.8844 89.3591 57.6096 89.3591 62.1881C89.3591 66.7665 85.1187 70.4917 79.9071 70.4917C74.6956 70.4917 70.4552 66.7665 70.4552 62.1881ZM92.7701 98.4979H103.713C102.945 87.5406 92.5554 78.8408 79.9074 78.8408C67.2766 78.8408 56.8698 87.5561 56.1022 98.4979H67.0448C67.8578 98.4979 68.5184 99.0783 68.5184 99.7925C68.5184 100.507 67.8578 101.087 67.0448 101.087H54.5834C53.7703 101.087 53.1097 100.507 53.1097 99.7925V99.6635C53.1888 86.7569 65.2098 76.2502 79.907 76.2502C94.6665 76.2502 106.687 86.7959 106.704 99.7626V99.7775C106.71 100.125 106.552 100.457 106.281 100.7C106.004 100.948 105.626 101.082 105.236 101.082H92.7748C91.9617 101.082 91.3012 100.502 91.3012 99.7874C91.2955 99.0781 91.9571 98.4979 92.7701 98.4979ZM128.945 98.0564C124.417 105.884 117.534 112.491 109.047 117.159C100.324 121.96 90.2449 124.495 79.9012 124.495C60.9918 124.495 43.6853 116.087 33.6134 102.283L33.6078 102.824C33.6021 103.533 32.9415 104.108 32.1341 104.108H32.1228C31.3098 104.103 30.6548 103.523 30.6605 102.809L30.6944 97.4664C30.7 97.0151 30.971 96.5934 31.4114 96.3603C31.8518 96.1272 32.4052 96.1172 32.8569 96.3305L38.2208 98.8455C38.9379 99.1827 39.2089 99.9665 38.825 100.596C38.441 101.226 37.5489 101.464 36.8318 101.127L35.9679 100.72C45.4819 113.88 61.924 121.906 79.891 121.906C99.5853 121.906 117.372 112.318 126.303 96.8817C126.67 96.2418 127.557 95.9938 128.285 96.3162C129.025 96.6387 129.318 97.4165 128.945 98.0564ZM30.8685 54.3256C35.3968 46.4982 42.2796 39.8914 50.7666 35.2234C59.4902 30.4219 69.5691 27.8872 79.9128 27.8872C90.2342 27.8872 100.297 30.4169 109.008 35.1987C115.976 39.023 121.865 44.157 126.264 50.1942L126.275 49.5444C126.292 48.8301 126.97 48.2597 127.777 48.2746C128.591 48.2894 129.24 48.8797 129.223 49.5941L129.116 54.9363C129.104 55.3877 128.828 55.8043 128.382 56.0325C127.936 56.2607 127.388 56.2656 126.931 56.0474L121.6 53.473C120.889 53.1308 120.629 52.3421 121.019 51.7171C121.414 51.0921 122.306 50.8639 123.018 51.2062L123.769 51.5683C114.243 38.4585 97.8631 30.4775 79.9077 30.4775C60.2134 30.4775 42.427 40.0658 33.4956 55.5023C33.2358 55.9537 32.7164 56.2116 32.18 56.2116C31.9541 56.2116 31.7283 56.167 31.5137 56.0727C30.791 55.7453 30.4974 54.9666 30.87 54.3267L30.8685 54.3256ZM33.1892 90.3282L33.6127 87.2032C34.0192 87.0743 34.4201 86.9304 34.8153 86.7667L37.6328 88.7111C38.22 89.1178 39.0557 89.0732 39.5865 88.6069L43.2566 85.3777C43.7817 84.9164 43.8326 84.1773 43.3752 83.6614L41.1619 81.1862C41.3483 80.839 41.512 80.4868 41.6588 80.1297L45.2159 79.7577C45.9556 79.6783 46.5146 79.1277 46.5146 78.473V73.9094C46.5146 73.2547 45.9556 72.7041 45.2159 72.6247L41.6588 72.2527C41.512 71.8955 41.3483 71.5434 41.1619 71.1961L43.3752 68.721C43.8382 68.2051 43.7874 67.471 43.2566 67.0046L39.5865 63.7804C39.0614 63.3191 38.2201 63.2744 37.6328 63.6762L34.8153 65.6206C34.4201 65.4569 34.0192 65.3131 33.6127 65.1841L33.1892 62.0591C33.0988 61.4093 32.4721 60.9183 31.7268 60.9183H26.5321C25.7868 60.9183 25.1601 61.4093 25.0698 62.0591L24.6463 65.1841C24.2398 65.3131 23.8389 65.4569 23.4436 65.6206L20.6262 63.6762C20.0389 63.2695 19.2033 63.3141 18.6725 63.7804L15.0023 67.0046C14.4772 67.466 14.4264 68.205 14.8838 68.721L17.097 71.1961C16.9107 71.5434 16.747 71.8955 16.6002 72.2527L13.043 72.6247C12.3034 72.7041 11.7444 73.2547 11.7444 73.9094V78.473C11.7444 79.1277 12.3034 79.6783 13.043 79.7577L16.6002 80.1297C16.747 80.4868 16.9107 80.839 17.097 81.1862L14.8838 83.6614C14.4208 84.1773 14.4716 84.9114 15.0023 85.3777L18.6781 88.602C19.2032 89.0633 20.0445 89.1079 20.6318 88.7062L23.4493 86.7618C23.8445 86.9255 24.2454 87.0693 24.6519 87.1983L25.0754 90.3232C25.1658 90.973 25.7925 91.4641 26.5378 91.4641H31.7325C32.4721 91.4641 33.1045 90.978 33.1892 90.3282ZM30.8065 86.0623L30.4225 88.8747H27.8421L27.4582 86.0623C27.3848 85.5414 26.9613 85.1049 26.3854 84.966C25.561 84.7676 24.7592 84.475 24.0083 84.103C23.4889 83.8401 22.8396 83.8847 22.3709 84.2121L19.8357 85.9631L18.0064 84.3609L19.9995 82.1337C20.3722 81.722 20.4173 81.1516 20.1237 80.6953C19.7003 80.0355 19.3671 79.3361 19.1413 78.607C18.9832 78.101 18.4919 77.729 17.8934 77.6645L14.692 77.3272V75.0603L17.8934 74.723C18.4863 74.6585 18.9832 74.2865 19.1413 73.7806C19.3671 73.0514 19.7003 72.352 20.1237 71.6923C20.423 71.2359 20.3722 70.6655 19.9995 70.2538L18.0064 68.0217L19.8301 66.4195L22.3653 68.1705C22.8339 68.4979 23.4833 68.5376 24.0027 68.2797C24.7537 67.9027 25.5498 67.615 26.3797 67.4166C26.9557 67.2777 27.3791 66.8461 27.4525 66.3203L27.8365 63.5079H30.4169L30.8009 66.3203C30.8743 66.8412 31.2977 67.2777 31.8737 67.4166C32.7037 67.615 33.4998 67.9076 34.2507 68.2797C34.7702 68.5425 35.4195 68.4979 35.8881 68.1705L38.4233 66.4195L40.247 68.0217L38.2539 70.2489C37.8812 70.6606 37.8361 71.231 38.1297 71.6874C38.5531 72.3471 38.8863 73.0465 39.1121 73.7756C39.2702 74.2816 39.7615 74.6536 40.36 74.7181L43.5614 75.0554V77.3223L40.36 77.6596C39.7671 77.7241 39.2702 78.0961 39.1121 78.602C38.8863 79.3312 38.5531 80.0306 38.1297 80.6903C37.8304 81.1466 37.8812 81.7171 38.2539 82.1288L40.247 84.3559L38.4233 85.9581L35.8881 84.2071C35.4195 83.8797 34.7701 83.8401 34.2507 84.098C33.4998 84.47 32.7036 84.7627 31.8737 84.9611C31.2977 85.1099 30.8799 85.5414 30.8065 86.0623ZM36.4754 76.3004C36.5093 74.5791 35.7753 72.9423 34.4089 71.7071C33.0424 70.467 31.2131 69.7726 29.2481 69.7428H29.1239C25.132 69.7428 21.8458 72.5702 21.7781 76.092C21.7443 77.8133 22.4783 79.4501 23.8447 80.6853C25.2111 81.9253 27.0405 82.6197 29.0054 82.6496H29.1296C31.0437 82.6496 32.8561 82.0047 34.2338 80.8341C35.651 79.6287 36.4471 78.0216 36.4754 76.3004ZM32.1899 78.9691C31.343 79.6883 30.2363 80.0752 29.0562 80.0554C27.8818 80.0405 26.7808 79.6189 25.9677 78.8798C25.149 78.1357 24.7086 77.1585 24.7311 76.1268C24.7707 74.0186 26.7356 72.3222 29.1297 72.3222H29.2031C30.3775 72.3371 31.4785 72.7587 32.2916 73.4978C33.1103 74.2418 33.5507 75.2191 33.5281 76.2508C33.5112 77.2875 33.0369 78.2498 32.1899 78.9691ZM90.6514 96.2262C90.3916 95.5169 89.6463 95.0457 88.7994 95.0457H88.7938L83.4128 95.0506L81.7585 90.5516C81.4987 89.8422 80.7534 89.3661 79.9008 89.3661C79.0538 89.3661 78.3085 89.8422 78.0489 90.5516L76.3945 95.0506L71.0135 95.0407H71.0079C70.1609 95.0407 69.4156 95.5169 69.156 96.2262C68.8964 96.9355 69.1786 97.7044 69.8674 98.1409L74.2263 100.914L72.5551 105.408C72.2897 106.117 72.572 106.886 73.2609 107.327C73.9497 107.764 74.8701 107.764 75.5532 107.322L79.9009 104.535L84.2485 107.322C84.5929 107.541 84.9938 107.65 85.3947 107.65C85.7956 107.65 86.1965 107.541 86.5409 107.322C87.2298 106.886 87.5121 106.112 87.2467 105.403L85.5811 100.914L89.94 98.1458C90.6289 97.7093 90.9167 96.9355 90.6514 96.2262ZM82.9836 99.3711C82.4642 99.6985 82.2496 100.289 82.4473 100.824L83.4918 103.637L80.7703 101.896C80.5106 101.732 80.2057 101.648 79.9008 101.648C79.5959 101.648 79.291 101.732 79.0313 101.896L76.3098 103.637L77.3543 100.824C77.552 100.289 77.3374 99.7034 76.8179 99.3711L74.0908 97.635L77.456 97.6399H77.4616C78.0996 97.6399 78.6699 97.2778 78.8619 96.7421L79.8952 93.9297L80.9284 96.7421C81.1261 97.2778 81.6907 97.6399 82.3287 97.6399H82.3344L85.6995 97.635L82.9836 99.3711Z" fill="#070D0D"/>
</g>
</svg>
