<svg width="41" height="45" viewBox="0 0 41 45" fill="none" xmlns="http://www.w3.org/2000/svg">
<path fill-rule="evenodd" clip-rule="evenodd" d="M30.3904 24.4008C30.1803 24.4008 30.0115 24.2214 30.0115 23.9981V10.6073C30.0115 10.3856 30.1803 10.2046 30.3904 10.2046C30.5991 10.2046 30.7694 10.3856 30.7694 10.6073V23.9981C30.7694 24.2198 30.5991 24.4008 30.3904 24.4008ZM19.828 31.6596H6.7129C6.50427 31.6596 6.33398 31.4786 6.33398 31.2569V10.6073C6.33398 10.3856 6.50274 10.2046 6.7129 10.2046C6.92154 10.2046 7.09182 10.3856 7.09182 10.6073V30.8541H19.828C20.0366 30.8541 20.2069 31.0351 20.2069 31.2568C20.2069 31.4786 20.0382 31.6596 19.828 31.6596Z" fill="black"/>
<path fill-rule="evenodd" clip-rule="evenodd" d="M5.02098 10.2046H32.0807V8.18776H5.02098V10.2046ZM32.4597 11.0084H4.64357C4.43493 11.0084 4.26465 10.8274 4.26465 10.6057V7.78504C4.26465 7.5633 4.4334 7.38232 4.64357 7.38232H32.4597C32.6683 7.38232 32.8386 7.5633 32.8386 7.78504V10.6057C32.8386 10.8274 32.6683 11.0084 32.4597 11.0084Z" fill="black"/>
<path fill-rule="evenodd" clip-rule="evenodd" d="M22.3465 15.8608H24.798C25.0067 15.8608 25.1769 16.0417 25.1769 16.2635V18.8689C26.3659 18.6749 27.2787 17.5809 27.2787 16.2635C27.2787 14.8091 26.1665 13.6287 24.7996 13.6287C23.5616 13.6287 22.5307 14.5988 22.3481 15.8624L22.3465 15.8608ZM24.798 19.7037C24.5894 19.7037 24.4191 19.5243 24.4191 19.301V16.6662H21.9385C21.7299 16.6662 21.5596 16.4868 21.5596 16.2635C21.5596 14.3656 23.0108 12.8232 24.7965 12.8232C26.5822 12.8232 28.0334 14.3673 28.0334 16.2635C28.0334 18.1597 26.5822 19.7037 24.7965 19.7037L24.798 19.7037Z" fill="black"/>
<path fill-rule="evenodd" clip-rule="evenodd" d="M21.0013 18.0945C21.1654 19.226 22.0092 20.1228 23.0738 20.2972V18.0945H21.0013ZM23.4528 21.132C21.6671 21.132 20.2158 19.5896 20.2158 17.6918C20.2158 17.47 20.3846 17.2891 20.5947 17.2891H23.4527C23.6614 17.2891 23.8317 17.47 23.8317 17.6918V20.7293C23.8317 20.951 23.6614 21.132 23.4528 21.132Z" fill="black"/>
<path fill-rule="evenodd" clip-rule="evenodd" d="M17.2849 21.3274H9.44728C9.23864 21.3274 9.06836 21.1464 9.06836 20.9247V13.0302C9.06836 12.8084 9.23711 12.6274 9.44728 12.6274C9.65591 12.6274 9.8262 12.8084 9.8262 13.0302V20.5219H17.2849C17.495 20.5219 17.6638 20.7029 17.6638 20.9246C17.6638 21.1464 17.4951 21.3274 17.2849 21.3274Z" fill="black"/>
<path fill-rule="evenodd" clip-rule="evenodd" d="M11.1787 21.3278C10.9701 21.3278 10.7998 21.1468 10.7998 20.9251V18.3392C10.7998 18.1159 10.9686 17.9365 11.1787 17.9365C11.3874 17.9365 11.5576 18.1159 11.5576 18.3392V20.9251C11.5576 21.1468 11.3874 21.3278 11.1787 21.3278Z" fill="black"/>
<path fill-rule="evenodd" clip-rule="evenodd" d="M12.8281 21.3277C12.6195 21.3277 12.4492 21.1467 12.4492 20.925V17.2011C12.4492 16.9793 12.618 16.7983 12.8281 16.7983C13.0368 16.7983 13.2071 16.9777 13.2071 17.2011V20.925C13.2071 21.1467 13.0368 21.3277 12.8281 21.3277Z" fill="black"/>
<path fill-rule="evenodd" clip-rule="evenodd" d="M14.4766 21.3278C14.2679 21.3278 14.0977 21.1468 14.0977 20.9251V15.5658C14.0977 15.3441 14.2664 15.1631 14.4766 15.1631C14.6852 15.1631 14.8555 15.3441 14.8555 15.5658V20.9251C14.8555 21.1468 14.6852 21.3278 14.4766 21.3278Z" fill="black"/>
<path fill-rule="evenodd" clip-rule="evenodd" d="M16.126 21.3276C15.9174 21.3276 15.7471 21.1466 15.7471 20.9249V13.2098C15.7471 12.9881 15.9158 12.8071 16.126 12.8071C16.3346 12.8071 16.5049 12.9881 16.5049 13.2098V20.9249C16.5049 21.1466 16.3346 21.3276 16.126 21.3276Z" fill="black"/>
<path fill-rule="evenodd" clip-rule="evenodd" d="M10.6761 23.4353H9.44728C9.23864 23.4353 9.06836 23.256 9.06836 23.0326C9.06836 22.8109 9.23864 22.6299 9.44728 22.6299H10.6761C10.8847 22.6299 11.055 22.8109 11.055 23.0326C11.055 23.2543 10.8847 23.4353 10.6761 23.4353Z" fill="black"/>
<path fill-rule="evenodd" clip-rule="evenodd" d="M10.6761 25.3674H9.44728C9.23864 25.3674 9.06836 25.1881 9.06836 24.9647C9.06836 24.743 9.23864 24.562 9.44728 24.562H10.6761C10.8847 24.562 11.055 24.743 11.055 24.9647C11.055 25.1865 10.8847 25.3674 10.6761 25.3674Z" fill="black"/>
<path fill-rule="evenodd" clip-rule="evenodd" d="M10.6761 27.3015H9.44728C9.23864 27.3015 9.06836 27.1222 9.06836 26.8988C9.06836 26.6771 9.23864 26.4961 9.44728 26.4961H10.6761C10.8847 26.4961 11.055 26.6771 11.055 26.8988C11.055 27.1205 10.8847 27.3015 10.6761 27.3015Z" fill="black"/>
<path fill-rule="evenodd" clip-rule="evenodd" d="M10.6761 29.2351H9.44728C9.23864 29.2351 9.06836 29.0558 9.06836 28.8324C9.06836 28.609 9.23864 28.4297 9.44728 28.4297H10.6761C10.8847 28.4297 11.055 28.609 11.055 28.8324C11.055 29.0541 10.8847 29.2351 10.6761 29.2351Z" fill="black"/>
<path fill-rule="evenodd" clip-rule="evenodd" d="M23.8502 23.4353H12.6221C12.4134 23.4353 12.2432 23.256 12.2432 23.0326C12.2432 22.8109 12.4119 22.6299 12.6221 22.6299H23.8502C24.0588 22.6299 24.2291 22.8109 24.2291 23.0326C24.2291 23.2543 24.0588 23.4353 23.8502 23.4353Z" fill="black"/>
<path fill-rule="evenodd" clip-rule="evenodd" d="M21.3606 25.3674H12.624C12.4154 25.3674 12.2451 25.1881 12.2451 24.9647C12.2451 24.743 12.4139 24.562 12.624 24.562H21.3606C21.5693 24.562 21.7396 24.743 21.7396 24.9647C21.7396 25.1865 21.5693 25.3674 21.3606 25.3674Z" fill="black"/>
<path fill-rule="evenodd" clip-rule="evenodd" d="M19.1272 27.3015H12.624C12.4154 27.3015 12.2451 27.1222 12.2451 26.8988C12.2451 26.6771 12.4139 26.4961 12.624 26.4961H19.1272C19.3358 26.4961 19.5061 26.6771 19.5061 26.8988C19.5061 27.1205 19.3358 27.3015 19.1272 27.3015Z" fill="black"/>
<path fill-rule="evenodd" clip-rule="evenodd" d="M17.8921 29.2351H12.624C12.4154 29.2351 12.2451 29.0558 12.2451 28.8324C12.2451 28.609 12.4139 28.4297 12.624 28.4297H17.8921C18.1007 28.4297 18.271 28.609 18.271 28.8324C18.271 29.0541 18.1022 29.2351 17.8921 29.2351Z" fill="black"/>
<path fill-rule="evenodd" clip-rule="evenodd" d="M28.3925 24.1564C23.7901 24.1564 20.0455 28.1363 20.0455 33.0277C20.0455 37.919 23.7886 41.8989 28.3925 41.8989C32.9949 41.8989 36.7395 37.9207 36.7395 33.0277C36.7395 28.1363 32.9948 24.1564 28.3925 24.1564ZM28.3925 42.7028C23.373 42.7028 19.2891 38.3628 19.2891 33.0277C19.2891 27.6913 23.3726 23.3525 28.3925 23.3525C33.4135 23.3525 37.4959 27.6926 37.4959 33.0277C37.4959 38.3628 33.4123 42.7028 28.3925 42.7028Z" fill="black"/>
<path fill-rule="evenodd" clip-rule="evenodd" d="M28.3925 26.7519C25.1371 26.7519 22.4878 29.5676 22.4878 33.0273C22.4878 36.4871 25.1357 39.3028 28.3925 39.3028C31.6493 39.3028 34.2971 36.4887 34.2971 33.0273C34.2971 29.5659 31.6493 26.7519 28.3925 26.7519ZM28.3925 40.1067C24.7199 40.1067 21.7314 36.9306 21.7314 33.0273C21.7314 29.1224 24.7199 25.9463 28.3925 25.9463C32.0667 25.9463 35.0551 29.1224 35.0551 33.0273C35.0551 36.9306 32.0667 40.1067 28.3925 40.1067Z" fill="black"/>
<path fill-rule="evenodd" clip-rule="evenodd" d="M28.3926 29.1652C26.3891 29.1652 24.7599 30.8967 24.7599 33.0277C24.7599 35.1571 26.3891 36.8902 28.3926 36.8902C30.3977 36.8902 32.0269 35.1571 32.0269 33.0277C32.0269 30.8967 30.3977 29.1652 28.3926 29.1652ZM28.3926 37.6942C25.9718 37.6942 24.002 35.6007 24.002 33.0278C24.002 30.4549 25.9717 28.3613 28.3926 28.3613C30.8136 28.3613 32.7833 30.4548 32.7833 33.0278C32.7833 35.6006 30.8136 37.6942 28.3926 37.6942Z" fill="black"/>
<path fill-rule="evenodd" clip-rule="evenodd" d="M28.393 31.6838C27.6965 31.6838 27.1289 32.2871 27.1289 33.0273C27.1289 33.7675 27.6965 34.3708 28.393 34.3708C29.091 34.3708 29.6571 33.7676 29.6571 33.0273C29.6571 32.2855 29.0895 31.6838 28.393 31.6838ZM28.393 35.1762C27.2793 35.1762 26.3711 34.211 26.3711 33.0273C26.3711 31.842 27.2793 30.8784 28.393 30.8784C29.5083 30.8784 30.4149 31.842 30.4149 33.0273C30.4149 34.211 29.5083 35.1762 28.393 35.1762Z" fill="black"/>
<path fill-rule="evenodd" clip-rule="evenodd" d="M28.3932 33.4302C28.2965 33.4302 28.1999 33.3911 28.1263 33.3129C27.9774 33.1563 27.9774 32.902 28.1263 32.7438L36.8476 23.4748C36.9948 23.3183 37.2341 23.3183 37.383 23.4748C37.5302 23.633 37.5302 23.8873 37.383 24.0438L28.6617 33.3129C28.588 33.3911 28.4898 33.4302 28.3932 33.4302Z" fill="black"/>
<path fill-rule="evenodd" clip-rule="evenodd" d="M38.5574 24.4659C38.5328 24.4659 38.5083 24.4626 38.4837 24.4577L37.0417 24.1545C36.8913 24.1219 36.7732 23.9979 36.7441 23.8382L36.4587 22.3055C36.4173 22.0871 36.5508 21.8751 36.7563 21.8327C36.9619 21.7887 37.1613 21.9305 37.2012 22.149L37.439 23.4175L38.6325 23.6702C38.8381 23.7126 38.97 23.9246 38.9301 24.1431C38.8949 24.3354 38.7368 24.4675 38.5589 24.4675L38.5574 24.4659Z" fill="black"/>
<path fill-rule="evenodd" clip-rule="evenodd" d="M37.2504 25.8553C37.2259 25.8553 37.2013 25.852 37.1768 25.8471L35.7332 25.5423C35.5829 25.5096 35.4663 25.3857 35.4356 25.226L35.1487 23.6917C35.1088 23.4732 35.2408 23.2629 35.4463 23.2189C35.6504 23.1749 35.8498 23.3183 35.8912 23.5352L36.1275 24.8037L37.321 25.0548C37.5266 25.0988 37.6585 25.3091 37.6186 25.5276C37.5818 25.72 37.4253 25.852 37.2474 25.852L37.2504 25.8553Z" fill="black"/>
</svg>
