<svg width="187" height="184" viewBox="0 0 187 184" fill="none" xmlns="http://www.w3.org/2000/svg">
<path d="M38.6105 174.994L46.0495 150.227C46.0495 150.227 26.2104 143.298 21.2492 133.27C16.2881 123.242 20.3823 71.6299 25.3435 56.6498C30.3046 41.6697 50.6415 22.4853 78.0427 15.802C105.444 9.11873 133.717 22.2229 144.255 35.4666C154.793 48.7103 172.836 92.5675 173.955 105.069C175.074 117.57 154.983 132.399 154.983 132.399L167.942 175L38.6105 174.994Z" fill="#02A66A"/>
<g opacity="0.1">
<path d="M45.8711 149.94C48.9066 150.292 51.8249 151.123 54.799 151.77C56.5678 152.127 58.3701 152.328 60.1669 152.725C55.251 153.573 50.2681 152.105 45.8767 149.935L45.8711 149.94Z" fill="black"/>
<path d="M142.197 139.706C144.669 137.926 147.375 136.576 150.009 135.058C151.572 134.132 153.006 133.094 154.562 132.118C151.622 136.135 146.879 138.334 142.214 139.706H142.197Z" fill="black"/>
</g>
<path opacity="0.45" d="M140.63 174.693C140.63 174.693 130.798 154.086 123.561 149.94C116.324 145.794 82.1913 147.937 75.1271 157.674C69.4133 165.547 66.1992 174.693 66.1992 174.693H140.63Z" fill="white"/>
<path opacity="0.45" d="M99.1426 146.341C71.4494 149.801 56.8355 126.605 58.5932 113.062C60.7192 96.6909 84.0768 89.8834 81.7834 71.4919C80.3996 60.4325 71.8623 58.1949 71.109 52.1686C69.9484 42.8892 78.681 26.6013 84.1047 25.9429C89.5284 25.2845 101.994 38.9107 103.155 48.1901C103.908 54.2164 96.1797 58.4851 97.5746 69.5445C99.8736 87.9304 124.191 88.7897 130.279 104.14C135.312 116.807 126.841 142.882 99.1426 146.341Z" fill="white"/>
<path d="M59.8707 80.7095C48.376 82.1435 50.5913 100.005 62.1027 98.5653C73.6141 97.1256 71.3765 79.2698 59.8707 80.7095Z" fill="#263238"/>
<path d="M50.1455 72.9759C50.4691 68.406 56.5624 65.4933 60.1559 68.512C58.4819 68.8245 56.9307 68.9807 55.4074 69.628C53.4488 70.4148 51.9143 71.6312 50.1455 72.9425V72.9759Z" fill="#263238"/>
<path d="M128.616 63.1497C126.579 62.3183 124.788 61.5148 122.701 61.2302C121.06 60.9679 119.498 61.1967 117.818 61.3027C120.58 57.4693 127.154 58.7973 128.616 63.1497Z" fill="#263238"/>
<path d="M120.899 73.0874C109.41 74.5214 111.619 92.3828 123.131 90.9432C134.642 89.5036 132.405 71.6478 120.899 73.0874Z" fill="#263238"/>
<path d="M102.641 110.847C102.139 114.312 101.296 119.312 95.7668 120.004C90.237 120.696 88.1892 116.053 86.8389 112.822C86.8389 112.822 89.707 113.838 91.4256 112.376C93.1442 110.914 93.3562 100.775 93.3562 100.775C93.3562 100.775 96.0513 110.551 98.0768 111.55C100.102 112.549 102.641 110.847 102.641 110.847Z" fill="#01402F"/>
<path d="M95.3373 116.533C93.9378 111.523 93.2891 106.333 93.4122 101.132C94.8096 106.143 95.4583 111.333 95.3373 116.533Z" fill="#263238"/>
<path d="M105.141 92.2544C105.308 93.6048 104.086 95.1783 103.567 95.8758C102.479 97.3043 100.141 98.0464 99.3599 97.3098C98.4504 96.4617 100.883 95.6805 100.565 94.7933C100.331 94.1293 99.4492 93.1193 98.2439 93.4987C97.0387 93.8782 97.9259 97.2205 97.5074 98.3421C97.1883 99.1581 96.6588 99.8751 95.9727 100.42C95.2867 100.965 94.4685 101.318 93.6014 101.445H93.4787C92.6061 101.537 91.7246 101.397 90.9238 101.038C90.123 100.68 89.4316 100.115 88.9199 99.4023C88.2391 98.4202 88.2893 94.9384 87.0171 94.8881C85.7449 94.8379 85.1478 96.0041 85.0809 96.7128C84.9916 97.6502 87.5416 97.8288 86.872 98.8555C86.314 99.7594 83.8421 99.6143 82.4416 98.4984C81.7664 97.9404 80.2096 96.7239 80.0255 95.3792C79.7967 93.5769 83.1837 89.3529 91.8326 88.2759H91.9553C100.599 87.1934 104.918 90.4521 105.141 92.2544Z" fill="#263238"/>
<path d="M78.6865 104.865C79.3595 105.836 80.1217 106.742 80.9631 107.572C82.559 109.19 84.2497 110.786 86.3478 111.667C87.7539 112.225 89.3498 112.783 90.6722 112.036C91.6487 111.137 91.8607 109.128 92.2011 107.761C92.6364 105.479 92.96 103.141 93.3618 100.792C93.7523 103.883 94.1374 110.936 91.8217 113.252C90.0082 114.641 87.4582 113.949 85.6838 113.046C83.4518 111.93 81.7778 110.032 80.3772 108.024C79.668 107.06 79.104 105.998 78.7033 104.871L78.6865 104.865Z" fill="#263238"/>
<path d="M108.595 101.132C108.478 102.328 108.185 103.499 107.725 104.609C106.865 106.874 105.688 109.145 103.819 110.747C102.334 112.058 100.03 113.358 97.9374 112.454C95.1475 110.78 93.7581 103.85 93.373 100.736C94.344 102.918 95.2312 105.1 96.2132 107.203C96.8772 108.448 97.5803 110.345 98.7521 110.97C100.208 111.349 101.626 110.44 102.848 109.553C104.672 108.18 105.911 106.205 107.061 104.257C107.675 103.256 108.193 102.199 108.606 101.099L108.595 101.132Z" fill="#263238"/>
<path d="M107.97 126.476C105.18 127.877 102.189 129.015 99.271 129.266C99.0367 129.266 98.953 129.691 99.1539 129.824C99.7119 130.221 101.246 131.331 101.486 131.498C101.308 131.532 101.129 131.565 100.928 131.588C100.327 131.669 99.7215 131.718 99.1148 131.733C97.9004 131.762 96.686 131.676 95.4878 131.476C94.2879 131.276 93.1117 130.952 91.9781 130.511C90.823 130.07 89.7461 129.467 88.6301 128.909C88.5799 128.909 88.5352 128.993 88.5799 129.032C89.564 129.909 90.6713 130.636 91.8665 131.192C92.9752 131.736 94.1386 132.16 95.3372 132.458C96.5388 132.756 97.7709 132.913 99.0088 132.927C99.6534 132.93 100.298 132.901 100.939 132.838C101.583 132.822 102.217 132.676 102.803 132.408C103.194 132.196 103.032 131.521 102.719 131.392C102.53 131.314 100.348 129.953 100.03 129.746C101.305 129.603 102.561 129.319 103.774 128.898C105.285 128.353 106.719 127.616 108.043 126.705C108.154 126.649 108.076 126.415 107.97 126.476Z" fill="#263238"/>
<path opacity="0.1" d="M38.4501 174.693L45.8714 149.94C45.8714 149.94 26.0794 143.015 21.13 132.994C17.1906 125.014 18.9762 90.7091 22.3632 69.4941C22.246 77.864 21.8777 119.753 28.9252 129.713C35.9726 139.673 49.8946 145.895 68.0796 149.94C68.0796 149.94 60.1561 158.042 60.1561 164.537C60.1561 168.917 66.4223 174.693 92.5811 174.693H38.4501Z" fill="black"/>
<path opacity="0.1" d="M155.137 134.06C155.137 134.06 157.698 158.846 156.711 164.783C155.723 170.72 134.692 174.693 134.692 174.693H167.474L155.137 134.06Z" fill="black"/>
<path d="M62.6002 20.837C60.2846 21.5345 56.6967 19.8661 55.0283 18.0749C53.3599 16.2838 50.3244 9.96729 50.3244 9.96729C50.3244 9.96729 49.3981 15.7816 49.8947 18.5046C50.1473 20.0572 50.7378 21.5353 51.6245 22.8346C49.2955 21.6026 47.268 19.8705 45.6875 17.7625C43.4555 14.5484 42.0996 12.4448 38.9915 11.8868C35.8835 11.3288 26.8663 24.2575 19.7575 28.5875C12.6487 32.9176 5.24967 35.1439 2.56014 39.3512C-0.129384 43.5585 0.0882338 63.3449 4.41826 75.2246C8.74829 87.1043 20.3713 99.2183 25.5662 97.3658C30.7611 95.5133 27.6364 81.9205 35.5543 64.8515C41.6364 51.7387 50.0621 45.9076 50.0621 45.9076L62.6002 20.837Z" fill="#02A66A"/>
<path opacity="0.1" d="M48.46 47.1968C45.7202 49.5627 40.012 55.2542 35.5647 64.8517C27.6524 81.9207 30.7772 95.5134 25.5822 97.366C20.3873 99.2185 8.75874 87.0989 4.42871 75.208C6.96758 80.788 18.8863 91.7804 22.491 89.063C25.2809 86.965 27.3232 72.485 31.709 64.3216C35.9888 56.4316 47.7067 47.7325 48.46 47.1968Z" fill="black"/>
<path d="M62.5997 20.8368C59.8097 21.5454 56.4338 19.9049 54.5701 17.7957C53.6777 16.6002 52.8704 15.3435 52.154 14.0348C51.423 12.7403 50.7256 11.429 50.0504 10.101L50.6084 10.0173C50.1229 14.1855 49.3752 18.9452 51.981 22.5498L53.1584 24.1792L51.3951 23.2585C49.7212 22.3827 48.1837 21.2681 46.8308 19.9496C44.2082 17.4442 42.8299 13.0583 38.8291 12.5004C37.4565 12.7347 36.3851 13.9679 35.3305 14.8718C31.4246 18.6606 27.8367 22.9627 23.6852 26.5897C18.2001 31.5447 10.5947 33.3693 4.92546 37.9114C3.60845 38.9535 2.7239 40.4462 2.44239 42.1019C1.78966 45.6413 1.51841 49.2405 1.6333 52.8377C1.79511 60.0526 2.61537 67.3957 4.86408 74.2646C6.04951 77.6734 7.65394 80.9216 9.6405 83.9347C12.2687 88.0973 20.008 98.0575 25.3703 96.908C26.0176 96.696 26.531 95.9706 26.9104 95.2061C28.0264 92.7621 28.5063 90.0391 29.0698 87.3942C31.2628 76.7924 33.0483 65.253 40.1906 56.6544C35.6318 62.4519 33.4947 69.6612 31.9156 76.7421C31.1456 80.3189 30.5653 83.9291 29.9068 87.5393C29.3488 90.2567 28.9359 93.0467 27.7809 95.6135C26.3301 99.1735 22.6864 98.2193 20.0527 96.6346C15.2595 93.6828 11.5823 89.2858 8.45198 84.6935C2.09085 75.4029 0.327591 63.8804 0.015115 52.8489C-0.0239445 51.0019 0.0151171 49.1494 0.104396 47.2689C0.344333 44.4176 0.444772 41.4993 1.87882 38.86C3.49142 36.4048 6.14746 34.8982 8.57474 33.5534C12.6425 31.3829 16.8219 29.6475 20.5772 27.0863C22.738 25.4524 24.7662 23.6501 26.6426 21.6961C29.2261 19.1237 31.6645 16.3784 34.3875 13.8563C35.47 12.9077 36.5414 11.881 37.9642 11.3509C38.3961 11.1944 38.8657 11.1749 39.309 11.2951L39.6717 11.3788C43.5777 12.3553 45.0005 16.5402 47.545 19.1907C48.798 20.4582 50.2283 21.5371 51.7913 22.3936L51.2054 23.1022C50.5567 22.1347 50.0652 21.0707 49.7491 19.9496C48.7447 16.3394 49.6375 12.5394 50.1397 8.9292C51.5346 11.8698 52.9296 14.9053 54.7933 17.5669C56.5566 19.6538 59.7539 21.4059 62.555 20.8145L62.5997 20.8368Z" fill="#263238"/>
<path d="M102.546 14.5037C104.956 14.6934 108.126 12.2717 109.353 10.1848C110.581 8.0979 112.21 1.2569 112.21 1.2569C112.21 1.2569 114.359 6.74197 114.442 9.50404C114.527 11.0741 114.266 12.6436 113.678 14.1019C115.687 12.3994 117.297 10.2752 118.393 7.88028C119.883 4.26448 120.759 1.91533 123.66 0.710067C126.562 -0.495199 138.168 10.196 146.025 12.9134C153.881 15.6308 161.649 16.2111 165.125 19.7488C168.601 23.2865 172.697 42.6712 171.023 55.1981C169.349 67.7251 160.538 82.0488 155.07 81.3457C149.601 80.6426 149.747 66.6984 138.364 51.7162C129.62 40.2048 120.139 36.31 120.139 36.31L102.546 14.5037Z" fill="#02A66A"/>
<path opacity="0.1" d="M171.024 55.1929C169.35 67.7198 160.567 82.0491 155.093 81.3516C150.132 80.7155 149.797 69.1706 141.266 55.8401C141.264 55.8272 141.264 55.8141 141.266 55.8011C145.964 60.0083 151.901 74.9737 156.108 75.4703C160.316 75.967 166.811 64.3607 168.663 56.4986C169.779 51.7612 170.309 36.1709 170.337 35.8193C171.336 42.2865 171.771 49.4455 171.024 55.1929Z" fill="black"/>
<path d="M102.546 14.5038C105.397 14.5038 108.165 12.0877 109.437 9.67157C110.698 6.66957 111.396 3.41088 112.132 0.241479C113.393 3.6564 115.078 7.18292 114.866 10.9215C114.803 12.0837 114.551 13.2277 114.119 14.3085L113.399 13.7505C114.74 12.5774 115.907 11.219 116.864 9.71621C118.784 6.59145 119.252 2.19446 122.879 0.403302C123.379 0.09272 123.967 -0.0445494 124.553 0.0127086C126.054 0.224746 127.343 1.00036 128.587 1.68669C131.802 3.56713 134.753 5.73214 137.828 7.69069C140.078 9.20126 142.446 10.528 144.909 11.658C149.122 13.332 153.574 14.1578 158.01 15.4133C160.7 16.2001 163.59 17.0873 165.716 19.163C167.68 21.4285 168.4 24.2575 169.248 26.9749C169.751 28.7661 170.164 30.574 170.521 32.3875C172.574 43.2293 173.311 54.8635 169.087 65.3091C167.016 70.465 164.36 75.5483 160.315 79.4542C158.083 81.5355 154.735 83.3044 152.542 80.1127C150.868 77.8472 149.853 75.2191 148.742 72.6802C147.325 69.2932 145.991 65.8894 144.468 62.5638C141.432 55.9627 137.772 49.3784 132.086 44.708C140.908 51.5825 145.11 62.4466 149.523 72.3621C150.639 74.6666 152.682 80.347 155.176 80.8604C160.644 80.8604 166.118 69.3824 167.764 64.8236C169.061 61.4555 169.934 57.9392 170.364 54.3557C171.09 47.1632 170.325 39.8144 168.936 32.7334C168.28 29.1937 167.246 25.7347 165.85 22.4161C165.221 20.8603 164.038 19.5922 162.53 18.8561C156.018 15.6309 148.201 15.4747 141.784 11.8087C136.952 9.1638 132.532 5.72656 127.901 2.88079C126.679 2.21678 125.373 1.24588 123.995 1.31283C120.206 2.7134 119.799 7.28894 117.768 10.2965C116.73 11.8743 115.467 13.2917 114.018 14.5038L112.495 15.7872L113.293 13.9346C115.067 9.85013 113.321 5.37502 111.959 1.40211L112.517 1.36305C112.149 2.80267 111.742 4.23114 111.306 5.65402C110.886 7.08565 110.366 8.48595 109.75 9.84455C108.383 12.2941 105.447 14.6321 102.557 14.5317L102.546 14.5038Z" fill="#263238"/>
<path d="M11.4371 172.037C10.84 175.982 15.0529 180.663 17.8372 181.132C20.6216 181.601 22.7532 179.553 22.7532 179.553C22.7532 179.553 25.2586 183.459 30.0071 183.911C31.3362 184.072 32.6847 183.902 33.932 183.415C35.1792 182.928 36.2865 182.14 37.155 181.121C37.155 181.121 39.9449 183.252 44.8553 183.252C49.7656 183.252 52.1706 178.437 52.1706 178.437C52.1706 178.437 55.5185 179.369 57.9235 177.421C60.3284 175.474 60.892 170.647 59.2236 166.937C57.5552 163.226 47.7066 151.653 35.7879 151.503C23.8691 151.352 12.3466 165.916 11.4371 172.037Z" fill="#02A66A"/>
<path d="M23.7134 169.001C22.8206 172.539 22.2905 176.048 22.9099 179.675C20.7337 176.517 21.3475 171.863 23.7134 169.001Z" fill="#263238"/>
<path d="M49.9834 167.215C52.8626 169.905 54.2521 174.787 52.0703 178.286C52.6283 174.38 51.4788 170.759 49.9834 167.215Z" fill="#263238"/>
<path d="M36.9099 169.509C37.6241 173.359 37.5013 177.204 37.2056 181.104C35.9613 177.393 36.0896 173.292 36.9099 169.509Z" fill="#263238"/>
<path opacity="0.1" d="M51.6798 179.218C50.7647 180.579 48.4881 183.263 44.8165 183.263C39.9006 183.263 37.1162 181.132 37.1162 181.132C36.2486 182.15 35.1423 182.938 33.896 183.425C32.6496 183.912 31.3022 184.082 29.9739 183.922C25.2421 183.458 22.7199 179.558 22.7199 179.558C22.7199 179.558 20.5884 181.6 17.804 181.137C15.0196 180.674 10.8012 175.993 11.4038 172.048C11.9618 168.259 16.5987 161.245 22.8594 156.479C16.7885 162.316 15.0029 167.567 15.6836 170.837C16.3644 174.107 19.1488 177.086 22.3796 175.786C22.3796 175.786 26.3413 180.356 30.2975 181.132C31.4925 181.336 32.7186 181.262 33.8801 180.914C35.0416 180.567 36.1071 179.956 36.9934 179.128C36.9934 179.128 41.6024 182.147 45.3242 182.036C49.0461 181.924 51.6798 179.218 51.6798 179.218Z" fill="black"/>
<path d="M133 175H182.278C182.278 175 180.019 138.862 180.113 137.806C180.208 136.751 187.74 133.785 186.941 126.291C186.386 121.091 182.855 121.549 182.189 120.304C181.523 119.058 181.34 109.989 176.744 108.788C172.148 107.587 172.165 110.357 170.378 110.045C168.59 109.732 168.946 106.515 164.577 107.063C159.415 107.705 157.955 112.932 156.806 113.988C155.658 115.043 153.115 113.25 149.235 117.612C145.533 121.778 150.434 130.055 149.791 131.864C149.402 132.953 133 175 133 175Z" fill="#02A66A"/>
<path opacity="0.2" d="M164.226 166.161C163.021 163.142 162.1 159.99 162.067 156.954C162.067 156.714 161.66 156.597 161.509 156.792C161.057 157.322 159.774 158.818 159.589 159.052C159.589 158.862 159.55 158.678 159.545 158.494C159.511 157.866 159.511 157.236 159.545 156.608C159.613 155.356 159.8 154.114 160.103 152.897C160.412 151.678 160.844 150.493 161.392 149.36C161.95 148.21 162.664 147.128 163.328 146.012C163.361 145.962 163.255 145.906 163.211 145.95C162.224 146.888 161.38 147.965 160.705 149.148C160.05 150.245 159.513 151.408 159.104 152.618C158.694 153.831 158.426 155.088 158.306 156.363C158.245 157.025 158.222 157.69 158.239 158.355C158.2 159.02 158.295 159.686 158.518 160.313C158.702 160.732 159.411 160.626 159.573 160.313C159.668 160.129 161.247 157.992 161.503 157.685C161.541 159.004 161.728 160.314 162.061 161.591C162.493 163.195 163.129 164.736 163.953 166.178C164.031 166.345 164.277 166.284 164.226 166.161Z" fill="black"/>
<path d="M170.097 119.513C170.153 118.921 170.286 118.335 170.381 117.744C170.709 116.332 171.213 114.967 171.882 113.682C172.082 113.334 172.316 113.007 172.58 112.705C172.911 112.274 173.397 111.989 173.935 111.912C174.473 111.835 175.02 111.971 175.459 112.292C176.228 112.783 176.878 113.438 177.362 114.212C178.478 115.886 179.22 117.677 179.08 119.702C179.043 120.685 178.774 121.644 178.295 122.502C177.816 123.361 177.141 124.093 176.324 124.641C175.898 124.955 175.41 125.174 174.891 125.282C174.373 125.39 173.837 125.384 173.322 125.266C172.806 125.147 172.322 124.918 171.903 124.594C171.484 124.27 171.14 123.86 170.895 123.391C170.212 122.22 169.932 120.858 170.097 119.513Z" fill="#01402F"/>
<path d="M159.791 121.008C159.225 120.045 158.927 118.948 158.927 117.83C158.927 116.713 159.225 115.616 159.791 114.653C160.877 112.704 162.631 111.214 164.729 110.457C165.106 110.321 165.501 110.239 165.901 110.211C166.381 110.134 166.872 110.235 167.283 110.495C167.694 110.755 167.996 111.156 168.133 111.623C168.471 112.653 168.57 113.746 168.423 114.82C168.356 115.629 168.233 116.438 168.133 117.247C167.938 118.725 167.337 120.12 166.397 121.276C165.782 122.03 164.954 122.581 164.02 122.855C163.21 123.088 162.345 123.031 161.572 122.694C160.8 122.357 160.17 121.761 159.791 121.008Z" fill="#01402F"/>
<path d="M153.597 128.702C152.735 128.092 152.056 127.257 151.634 126.288C151.212 125.319 151.063 124.254 151.204 123.206C151.24 122.956 151.29 122.708 151.354 122.464C151.644 120.945 152.376 119.546 153.458 118.441C153.565 118.335 153.678 118.236 153.798 118.145C154.976 117.247 156.097 117.358 157.068 118.486C157.748 119.328 158.254 120.298 158.558 121.337C159.079 122.654 159.298 124.07 159.2 125.483C159.113 126.355 158.801 127.189 158.296 127.905C158.052 128.28 157.733 128.602 157.359 128.848C156.985 129.094 156.563 129.26 156.122 129.335C155.68 129.41 155.228 129.393 154.793 129.284C154.359 129.175 153.952 128.977 153.597 128.702Z" fill="#01402F"/>
<path d="M176.603 138.099C176.603 138.317 176.542 138.534 176.503 138.819C175.978 140.889 174.556 142.1 172.463 142.552C170.334 142.985 168.119 142.586 166.275 141.436C165.055 140.707 163.629 140.401 162.218 140.566C160.103 140.864 157.952 140.363 156.186 139.159C155.437 138.698 154.825 138.045 154.412 137.269C153.999 136.492 153.801 135.619 153.837 134.74C153.872 134.025 154.053 133.326 154.369 132.684C154.685 132.042 155.128 131.471 155.673 131.007C156.28 130.463 156.948 129.993 157.665 129.607C159.227 128.771 160.64 127.686 161.85 126.393C162.422 125.764 163.117 125.26 163.892 124.911C164.666 124.562 165.504 124.375 166.354 124.362C167.203 124.349 168.046 124.51 168.831 124.835C169.616 125.16 170.326 125.643 170.917 126.253C171.69 127.034 172.236 128.009 172.497 129.076C172.844 130.487 173.545 131.785 174.533 132.848C175.792 134.121 176.535 135.815 176.62 137.603C176.625 137.768 176.62 137.934 176.603 138.099Z" fill="#01402F"/>
<path d="M183.651 129.138C183.093 131.615 181.771 133.189 179.583 133.953C179.103 134.152 178.582 134.236 178.064 134.199C177.545 134.162 177.042 134.005 176.595 133.739C176.147 133.474 175.768 133.108 175.487 132.671C175.206 132.233 175.03 131.736 174.974 131.219C174.853 130.423 174.928 129.609 175.192 128.848C175.8 127.029 177.044 125.667 178.423 124.423C178.927 123.976 179.49 123.6 180.097 123.307C180.351 123.157 180.634 123.062 180.927 123.03C181.221 122.998 181.518 123.028 181.799 123.12C182.079 123.211 182.338 123.361 182.556 123.56C182.774 123.758 182.948 124.001 183.065 124.272C183.611 125.316 183.864 126.489 183.796 127.665C183.763 128.217 183.679 128.775 183.651 129.138Z" fill="#01402F"/>
<path opacity="0.1" d="M173.216 108.576C172.692 108.855 171.576 110.066 170.616 110.021C169.656 109.977 168.155 107.89 167.552 107.566C166.95 107.242 164.718 106.813 162.291 108.308C159.863 109.804 158.747 112.945 157.341 114.267C155.935 115.59 155.176 115.01 153.848 115.383C152.52 115.757 150.288 117.364 149.797 120.645C149.306 123.926 152.453 131.403 152.33 132.146C152.208 132.888 142.716 161.864 144.479 167.154C146.438 173.041 168.445 174.609 168.445 174.609L168.289 174.72H132.974C132.974 174.72 149.462 132.72 149.859 131.621C150.506 129.813 145.579 121.544 149.301 117.381C153.206 113.023 155.757 114.814 156.906 113.76C158.055 112.705 159.523 107.482 164.718 106.841C169.109 106.283 168.752 109.508 170.549 109.82C171.615 109.977 172.067 109.084 173.216 108.576Z" fill="black"/>
</svg>
