<svg xmlns="http://www.w3.org/2000/svg" width="212" height="107" viewBox="0 0 212 107" fill="none">
  <path d="M136.675 101.17C136.921 100.361 137.415 99.6103 138.114 98.9796C138.814 98.3489 139.699 97.8571 140.695 97.5454C140.931 98.3195 140.84 99.1315 140.436 99.8628C140.031 100.594 139.334 101.206 138.447 101.609C139.27 101.965 139.948 102.49 140.406 103.127C140.865 103.763 141.085 104.486 141.042 105.213C139.993 105.161 138.99 104.86 138.169 104.352C137.349 103.844 136.751 103.153 136.457 102.373" fill="#E0E0E0"/>
  <path d="M128.738 105.618C128.904 105.923 129.15 106.199 129.461 106.427C129.773 106.655 130.142 106.83 130.547 106.941C130.744 107.011 130.969 107.019 131.175 106.964C131.223 106.948 131.267 106.925 131.303 106.895C131.339 106.865 131.365 106.83 131.381 106.791C131.398 106.752 131.402 106.712 131.396 106.671C131.389 106.631 131.371 106.592 131.343 106.558C131.656 106.739 132.045 106.824 132.434 106.795C132.529 106.784 132.62 106.759 132.701 106.721C132.783 106.682 132.854 106.631 132.91 106.571C132.966 106.511 133.005 106.443 133.026 106.371C133.047 106.299 133.049 106.224 133.032 106.152C133.479 106.246 134.044 106.313 134.318 106.026C134.4 105.923 134.441 105.803 134.434 105.682C134.428 105.561 134.375 105.445 134.282 105.347C134.094 105.154 133.857 104.993 133.585 104.875" fill="#E0E0E0"/>
  <path d="M127.01 98.6541C128.282 97.1131 130.157 95.9258 132.362 95.2646C132.488 95.2105 132.63 95.1821 132.775 95.1821C132.92 95.1821 133.062 95.2105 133.188 95.2646C133.269 95.3244 133.326 95.4003 133.353 95.4838C133.381 95.5673 133.377 95.655 133.344 95.7372C133.272 95.8996 133.159 96.0497 133.013 96.1791C133.196 96.1011 133.401 96.0579 133.61 96.0531C133.82 96.0482 134.027 96.0817 134.216 96.151C134.573 96.3195 134.669 96.7895 134.309 96.953C134.383 96.9106 134.468 96.8813 134.558 96.8674C134.649 96.8534 134.742 96.855 134.831 96.8721C134.921 96.8891 135.004 96.9213 135.075 96.9662C135.147 97.0111 135.205 97.0676 135.244 97.1318C135.312 97.2677 135.329 97.4153 135.294 97.5583C135.258 97.7012 135.173 97.8339 135.046 97.9415C134.789 98.155 134.482 98.3284 134.14 98.4523" fill="#E0E0E0"/>
  <path d="M122.857 101.974C122.857 101.974 125.968 97.7778 130.953 97.7778C135.938 97.7778 137.138 101.719 137.138 101.719C137.138 101.719 135.36 105.114 130.963 105.686C126.567 106.258 122.857 101.974 122.857 101.974Z" fill="#F5F5F5"/>
  <path d="M128.259 101.593C128.941 102.194 129.699 102.741 130.52 103.228C130.881 103.488 131.349 103.642 131.842 103.664C132.058 103.648 132.265 103.593 132.448 103.504C132.632 103.416 132.786 103.296 132.9 103.154C133.126 102.869 133.254 102.545 133.274 102.211C133.327 101.66 133.207 101.107 132.923 100.599C132.862 100.455 132.76 100.323 132.626 100.212C132.492 100.1 132.328 100.013 132.146 99.9557C131.713 99.8612 131.277 100.063 130.903 100.257L128.259 101.629" fill="#E0E0E0"/>
  <path d="M126.53 99.8984C126.53 99.8984 126.603 99.9419 126.705 100.041C126.845 100.183 126.967 100.334 127.069 100.494C127.413 101.023 127.565 101.616 127.507 102.207C127.448 102.798 127.183 103.366 126.738 103.85C126.605 103.995 126.454 104.13 126.289 104.253C126.232 104.302 126.165 104.342 126.09 104.373C126.067 104.356 126.332 104.167 126.636 103.796C127.04 103.317 127.282 102.767 127.34 102.197C127.398 101.626 127.269 101.054 126.966 100.532C126.728 100.131 126.507 99.9112 126.53 99.8984Z" fill="#E0E0E0"/>
  <path d="M125.852 100.788C125.967 100.802 126.073 100.847 126.151 100.914C126.228 100.981 126.273 101.067 126.279 101.157C126.284 101.247 126.249 101.335 126.179 101.408C126.109 101.48 126.009 101.531 125.896 101.553C125.783 101.575 125.663 101.566 125.558 101.528C125.452 101.489 125.367 101.424 125.317 101.343C125.267 101.261 125.254 101.169 125.282 101.081C125.31 100.994 125.376 100.916 125.469 100.862" fill="#E0E0E0"/>
  <path d="M55.2372 95.8236C56.2714 96.4693 57.4011 97.018 58.6024 97.4583C59.8223 97.8619 61.2206 98.033 62.4867 97.7137C62.8173 97.6345 63.1744 97.4787 63.2206 97.2156C63.2801 96.9015 62.8702 96.6665 62.5066 96.5183C60.8807 95.8636 59.1202 95.4315 57.3033 95.2412C58.2926 95.0804 59.2194 94.7424 60.0088 94.2545C60.7983 93.7665 61.4285 93.1421 61.8487 92.4316C62.0405 92.1021 62.1793 91.6653 61.8487 91.4099C61.737 91.3301 61.6037 91.2704 61.4585 91.2351C61.3134 91.1997 61.1599 91.1897 61.0091 91.2056C60.1727 91.249 59.452 91.6628 58.8206 92.0868C57.2614 93.1298 55.8944 94.333 54.7578 95.6627" fill="#E0E0E0"/>
  <path d="M40.4771 92.5766L43.8258 91.085C44.023 90.9795 44.2495 90.9113 44.487 90.8857C44.6081 90.8755 44.7302 90.8975 44.833 90.9482C44.9358 90.9988 45.0131 91.075 45.0523 91.1642C45.0886 91.3046 44.9961 91.4502 45.0126 91.5933C45.0457 91.8793 45.4952 92.03 45.8655 92.007C46.2357 91.9841 46.5895 91.8487 46.963 91.8334C47.168 91.8334 47.4192 91.8819 47.4688 92.0377C47.5184 92.1935 47.3961 92.2931 47.3531 92.4081C47.2209 92.7631 47.6837 93.113 48.1498 93.1564C48.6285 93.1651 49.101 93.0714 49.5151 92.8857C49.9302 92.7003 50.4096 92.619 50.887 92.6533C51.3531 92.7248 51.763 93.1207 51.5647 93.4553C52.0261 93.326 52.5273 93.3074 53.0027 93.4016C53.4589 93.5345 53.8886 94.1679 53.6043 94.4846C49.3233 93.4119 44.7316 92.6482 40.2324 92.5869" fill="#E0E0E0"/>
  <path d="M39.6162 97.4442C39.8921 97.8661 40.2918 98.2323 40.7833 98.5138C41.2749 98.7952 41.8447 98.984 42.4474 99.0651C43.0501 99.1462 43.669 99.1174 44.2547 98.981C44.8405 98.8446 45.3769 98.6044 45.8212 98.2794C45.9425 98.1656 46.0996 98.0776 46.2774 98.024C46.608 97.9576 46.9187 98.167 47.2195 98.305C47.4651 98.4148 47.7399 98.4798 48.023 98.4948C48.3061 98.5099 48.5899 98.4747 48.8526 98.3918C49.1404 98.2591 49.4596 98.1723 49.7914 98.1364C50.0631 98.1673 50.3233 98.2422 50.5551 98.356C51.0783 98.5538 51.6638 98.6317 52.2425 98.5806C52.8212 98.5294 53.3688 98.3514 53.8207 98.0675C54.2726 97.7836 54.61 97.4057 54.7928 96.9784C54.9756 96.5511 54.9964 96.0923 54.8526 95.6562" fill="#E0E0E0"/>
  <path d="M31.4131 95.3629C33.9883 93.391 37.7503 92.5532 41.3767 92.5532C45.0032 92.5532 48.5635 93.2684 52.0544 94.0347C53.4594 94.3412 54.9867 94.7269 55.7569 95.6847C51.6677 97.0614 47.1619 97.6106 42.7156 97.6719C40.7299 97.7283 38.7425 97.6032 36.7949 97.299C34.8417 96.9923 33.0067 96.3411 31.4329 95.3961" fill="#EBEBEB"/>
  <path d="M36.1324 94.1738C36.3062 94.1909 36.4661 94.2558 36.5829 94.3567C36.6997 94.4576 36.7654 94.5877 36.7679 94.723C36.7705 94.8583 36.7098 94.9899 36.5969 95.0934C36.4841 95.1969 36.3266 95.2654 36.1536 95.2864C35.9805 95.3074 35.8035 95.2794 35.655 95.2076C35.5065 95.1358 35.3965 95.025 35.3453 94.8956C35.294 94.7662 35.305 94.6268 35.3761 94.5031C35.4472 94.3794 35.5737 94.2797 35.7324 94.2224" fill="#E0E0E0"/>
  <path d="M37.4725 96.7616C37.4494 96.7462 37.651 96.5904 37.8791 96.2916C38.1758 95.9076 38.3406 95.4714 38.358 95.0244C38.3753 94.5774 38.2447 94.1344 37.9783 93.7374C37.7733 93.4283 37.5849 93.2648 37.6081 93.2495C37.8093 93.366 37.9724 93.5173 38.0841 93.6914C38.3978 94.0962 38.5549 94.5621 38.5368 95.0337C38.5186 95.5054 38.326 95.9632 37.9816 96.3529C37.8525 96.5161 37.6787 96.6556 37.4725 96.7616Z" fill="#E0E0E0"/>
  <path d="M38.7484 95.1442C39.8458 95.7693 41.1002 96.2104 42.4311 96.4392C42.9393 96.5396 43.4675 96.5656 43.9881 96.5158C44.5119 96.4624 44.9871 96.2512 45.3104 95.9283C45.6293 96.05 45.9973 96.0701 46.3352 95.9845C46.7683 95.8185 46.8377 95.3434 46.6658 94.9986C46.3352 94.383 45.4393 94.0408 44.5765 94.0024C43.7114 94.0072 42.8549 94.1362 42.0509 94.383C40.9104 94.6717 39.8955 94.8556 38.7451 95.1493" fill="#E0E0E0"/>
  <path d="M206.625 81.1603C207.221 81.5337 207.873 81.8509 208.566 82.1054C209.267 82.3597 210.062 82.414 210.811 82.2587C210.999 82.2101 211.207 82.1233 211.237 81.97C211.267 81.8168 211.032 81.6533 210.824 81.5665C209.884 81.1875 208.866 80.9369 207.816 80.8257C208.391 80.7345 208.93 80.5399 209.389 80.2577C209.849 79.9755 210.216 79.6135 210.46 79.2013C210.532 79.1123 210.569 79.0097 210.569 78.905C210.569 78.8003 210.532 78.6976 210.46 78.6087C210.395 78.5631 210.318 78.529 210.234 78.5087C210.15 78.4885 210.061 78.4825 209.974 78.4912C209.493 78.554 209.05 78.7329 208.708 79.002C207.811 79.6056 207.022 80.2998 206.364 81.0658" fill="#E0E0E0"/>
  <path d="M198.097 79.2786L200.031 78.4179C200.147 78.356 200.281 78.3158 200.421 78.3004C200.491 78.2968 200.561 78.3107 200.621 78.3401C200.68 78.3695 200.726 78.4129 200.751 78.4638C200.774 78.543 200.718 78.6273 200.728 78.7193C200.748 78.8853 201.006 78.9747 201.221 78.9593C201.436 78.944 201.641 78.8674 201.855 78.8597C201.974 78.8597 202.117 78.8878 202.146 78.9772C202.176 79.0666 202.107 79.1203 202.08 79.1918C202.004 79.3961 202.269 79.5979 202.54 79.6234C202.816 79.6274 203.089 79.5736 203.33 79.4676C203.568 79.3598 203.845 79.3125 204.12 79.3323C204.391 79.3731 204.626 79.603 204.513 79.7971C204.779 79.7222 205.069 79.7115 205.343 79.7665C205.607 79.8431 205.855 80.2135 205.69 80.3923C203.199 79.7366 200.598 79.3666 197.968 79.294" fill="#E0E0E0"/>
  <path d="M197.601 82.0968C197.761 82.3398 197.993 82.5504 198.277 82.712C198.562 82.8735 198.891 82.9816 199.239 83.0274C199.587 83.0733 199.944 83.0558 200.282 82.9763C200.619 82.8967 200.928 82.7574 201.184 82.5693C201.255 82.5048 201.346 82.4555 201.449 82.4263C201.644 82.388 201.819 82.508 201.991 82.5872C202.133 82.6507 202.292 82.6882 202.456 82.6971C202.62 82.7059 202.784 82.6858 202.936 82.6383C203.102 82.5605 203.286 82.5093 203.478 82.4876C203.635 82.5052 203.785 82.5487 203.918 82.6153C204.22 82.7288 204.558 82.7731 204.892 82.7432C205.226 82.7132 205.542 82.6103 205.803 82.4463C206.064 82.2824 206.259 82.0644 206.364 81.8178C206.47 81.5713 206.483 81.3065 206.401 81.0547" fill="#E0E0E0"/>
  <path d="M192.86 80.8937C194.348 79.752 196.52 79.2718 198.616 79.2666C200.712 79.2615 202.768 79.6804 204.784 80.1223C205.598 80.3011 206.477 80.5233 206.923 81.075C204.534 81.8365 201.974 82.2271 199.389 82.2244C198.243 82.2568 197.096 82.1847 195.971 82.0099C194.842 81.8336 193.782 81.4567 192.874 80.909" fill="#EBEBEB"/>
  <path d="M195.587 80.2065C195.687 80.2164 195.78 80.2539 195.847 80.3122C195.915 80.3704 195.952 80.4455 195.954 80.5236C195.955 80.6017 195.92 80.6776 195.855 80.7373C195.79 80.7971 195.699 80.8366 195.599 80.8488C195.499 80.8609 195.397 80.8448 195.311 80.8034C195.226 80.7619 195.162 80.698 195.133 80.6233C195.103 80.5486 195.109 80.4682 195.15 80.3968C195.191 80.3254 195.264 80.2678 195.356 80.2346" fill="#E0E0E0"/>
  <path d="M196.361 81.6947C196.341 81.6794 196.45 81.5849 196.572 81.4112C196.735 81.1893 196.827 80.9406 196.84 80.6858C196.845 80.4315 196.774 80.1796 196.632 79.9502C196.519 79.7714 196.42 79.6744 196.44 79.659C196.46 79.6437 196.592 79.7254 196.738 79.9145C196.927 80.1499 197.022 80.4233 197.012 80.7004C197.001 80.9775 196.885 81.2461 196.678 81.4725C196.516 81.6334 196.374 81.705 196.361 81.6947Z" fill="#E0E0E0"/>
  <path d="M197.099 80.764C197.732 81.1244 198.456 81.3785 199.224 81.5098C199.519 81.5683 199.825 81.5839 200.127 81.5558C200.277 81.541 200.422 81.5034 200.554 81.4451C200.686 81.3868 200.801 81.309 200.894 81.2161C201.078 81.2861 201.29 81.298 201.485 81.2493C201.6 81.1872 201.681 81.0954 201.714 80.9907C201.748 80.8861 201.731 80.7756 201.667 80.6797C201.554 80.5075 201.381 80.3629 201.168 80.2615C200.955 80.1601 200.711 80.106 200.461 80.105C199.961 80.107 199.467 80.1815 199.003 80.3246C198.342 80.4907 197.76 80.5954 197.099 80.764Z" fill="#E0E0E0"/>
  <path d="M27.2568 15.6426H58.2453C58.2453 15.6426 55.5048 11.7908 47.5279 12.3502C39.9246 12.8866 39.5213 10.455 35.6502 10.1561C31.7792 9.85727 28.5461 12.1382 27.2568 15.6426Z" fill="white"/>
  <path d="M160.279 9.74953H194.438C194.438 9.74953 191.417 5.50187 182.623 6.11999C174.226 6.70746 173.8 4.03065 169.536 3.70115C165.271 3.37166 161.704 5.90033 160.279 9.74953Z" fill="white"/>
  <path d="M184.004 24.5581C184.004 24.5939 148.14 24.6245 103.905 24.6245C59.6703 24.6245 23.7959 24.5939 23.7959 24.5581C23.7959 24.5224 59.6571 24.4917 103.905 24.4917C148.153 24.4917 184.004 24.5224 184.004 24.5581Z" fill="#E0E0E0"/>
  <path d="M95.8788 26.4819C95.8788 26.5177 90.8507 26.5483 84.6391 26.5483C78.4275 26.5483 73.3994 26.5177 73.3994 26.4819C73.3994 26.4462 78.4242 26.4155 84.6391 26.4155C90.854 26.4155 95.8788 26.4462 95.8788 26.4819Z" fill="#E0E0E0"/>
  <path d="M90.6951 28.2324C90.6951 28.2707 87.9877 28.3014 84.6488 28.3014C81.31 28.3014 78.6025 28.2707 78.6025 28.2324C78.6025 28.1941 81.31 28.166 84.6488 28.166C87.9877 28.166 90.6951 28.1967 90.6951 28.2324Z" fill="#E0E0E0"/>
  <path d="M51.5338 36.0654L52.3536 45.0052C52.4172 45.7092 52.8242 46.3684 53.4924 46.8496C54.1606 47.3307 55.0402 47.5981 55.9536 47.5977C56.4473 47.5975 56.9356 47.519 57.3884 47.3672C57.8413 47.2153 58.249 46.9933 58.5864 46.7149C58.9238 46.4365 59.1837 46.1076 59.3501 45.7485C59.5165 45.3894 59.5857 45.0078 59.5536 44.6271C59.4809 43.7766 59.4148 43.0793 59.4148 43.0793C59.4148 43.0793 62.2181 42.7421 62.2512 40.5787C62.271 39.3272 61.9933 36.492 61.7553 34.3183C61.6774 33.6094 61.2576 32.949 60.5792 32.4678C59.9009 31.9867 59.0133 31.7201 58.0925 31.7207H56.3999C55.7078 31.7518 55.0308 31.8899 54.409 32.1266C53.7871 32.3634 53.233 32.694 52.7793 33.0991C52.3257 33.5041 51.9817 33.9753 51.7678 34.4848C51.5539 34.9943 51.4743 35.5318 51.5338 36.0654Z" fill="#FFBE9D"/>
  <path d="M59.4215 43.0432C58.1336 43.0588 56.8684 42.7797 55.7852 42.2412C55.7852 42.2412 56.648 43.7993 59.4447 43.6026L59.4215 43.0432Z" fill="#EB996E"/>
  <path d="M61.0213 36.9168C61.0231 36.9972 60.9839 37.0749 60.9122 37.1332C60.8404 37.1915 60.7419 37.2257 60.6378 37.2284C60.5868 37.2319 60.5355 37.2273 60.4868 37.2151C60.4381 37.2029 60.3931 37.1832 60.3545 37.1572C60.3159 37.1312 60.2845 37.0994 60.2622 37.0638C60.2399 37.0282 60.2271 36.9895 60.2246 36.95C60.2237 36.8697 60.2632 36.7923 60.3347 36.7342C60.4063 36.676 60.5043 36.6417 60.6081 36.6383C60.6591 36.6349 60.7105 36.6394 60.7592 36.6516C60.8079 36.6638 60.8529 36.6836 60.8915 36.7096C60.93 36.7356 60.9614 36.7673 60.9838 36.8029C61.0061 36.8385 61.0189 36.8772 61.0213 36.9168Z" fill="#263238"/>
  <path d="M61.2691 36.4899C61.2195 36.5308 60.9187 36.3571 60.4856 36.3597C60.0526 36.3622 59.7418 36.5257 59.6956 36.4848C59.6493 36.444 59.722 36.3954 59.8608 36.3162C60.0474 36.2169 60.269 36.1643 60.4956 36.1655C60.7186 36.1664 60.9358 36.2208 61.117 36.3214C61.2493 36.4005 61.2956 36.4721 61.2691 36.4899Z" fill="#263238"/>
  <path d="M56.968 37.0015C56.9689 37.0822 56.929 37.1599 56.8567 37.2181C56.7844 37.2764 56.6856 37.3105 56.5812 37.3131C56.5302 37.3166 56.4788 37.3121 56.4301 37.2999C56.3814 37.2876 56.3364 37.2679 56.2978 37.2419C56.2593 37.2159 56.2279 37.1842 56.2055 37.1486C56.1832 37.113 56.1705 37.0742 56.168 37.0347C56.1671 36.954 56.207 36.8763 56.2793 36.8181C56.3515 36.7598 56.4504 36.7258 56.5548 36.7231C56.6057 36.72 56.6569 36.7247 56.7054 36.7371C56.7539 36.7495 56.7987 36.7692 56.8372 36.7951C56.8757 36.8211 56.9071 36.8527 56.9295 36.8881C56.952 36.9236 56.9651 36.9621 56.968 37.0015Z" fill="#263238"/>
  <path d="M57.038 36.5565C56.9884 36.5948 56.6843 36.4236 56.2545 36.4236C55.8248 36.4236 55.5107 36.5897 55.4612 36.5513C55.4116 36.513 55.4909 36.4594 55.6264 36.3828C55.8121 36.2817 56.0341 36.2281 56.2612 36.2295C56.4854 36.2298 56.7038 36.2843 56.886 36.3853C57.0182 36.4645 57.0645 36.5386 57.038 36.5565Z" fill="#263238"/>
  <path d="M58.602 39.0137C58.8277 38.9565 59.0623 38.923 59.2996 38.9141C59.412 38.9141 59.5144 38.8886 59.5343 38.8324C59.5446 38.7435 59.5192 38.6543 59.4615 38.577C59.3558 38.3726 59.25 38.1555 59.131 37.9307C58.8311 37.3817 58.5868 36.8155 58.4004 36.2373C58.7587 36.766 59.0616 37.3161 59.3062 37.8822C59.4153 38.107 59.5177 38.3241 59.6169 38.531C59.6866 38.6338 59.7065 38.7524 59.6731 38.8656C59.6584 38.8956 59.6344 38.9225 59.6033 38.9438C59.5723 38.9652 59.535 38.9804 59.4946 38.9882C59.4333 39.0017 59.3699 39.0085 59.3062 39.0086C59.0726 39.0319 58.8362 39.0336 58.602 39.0137Z" fill="#263238"/>
  <path d="M57.3355 39.2515C57.405 39.2515 57.405 39.6091 57.805 39.8645C58.205 40.1199 58.7041 40.0816 58.7074 40.1327C58.7108 40.1838 58.5951 40.2017 58.3769 40.2068C58.1039 40.2092 57.8385 40.1378 57.6265 40.005C57.4229 39.8784 57.2922 39.6948 57.2628 39.4942C57.2496 39.3384 57.3025 39.249 57.3355 39.2515Z" fill="#263238"/>
  <path d="M57.1368 35.2438C57.0938 35.3357 56.6641 35.2923 56.145 35.3383C55.626 35.3843 55.2326 35.4915 55.1533 35.4124C55.1202 35.3715 55.193 35.2872 55.3583 35.2004C55.5779 35.0931 55.8263 35.0258 56.0847 35.0037C56.343 34.9815 56.6044 35.0051 56.8492 35.0727C57.074 35.1314 57.1665 35.2029 57.1368 35.2438Z" fill="#263238"/>
  <path d="M61.1049 35.5252C61.0289 35.6019 60.7314 35.5252 60.3744 35.5252C60.0173 35.5252 59.7132 35.5763 59.6471 35.4971C59.6173 35.4588 59.6471 35.3822 59.7958 35.3107C59.9733 35.2256 60.1794 35.1829 60.3881 35.1879C60.5969 35.1929 60.7991 35.2454 60.9694 35.3388C61.1049 35.4128 61.1479 35.4895 61.1049 35.5252Z" fill="#263238"/>
  <path d="M52.4791 37.6884C52.4329 37.673 50.5552 37.249 50.6147 38.7279C50.6742 40.2068 52.5981 39.8569 52.5981 39.8135C52.5981 39.7701 52.4791 37.6884 52.4791 37.6884Z" fill="#FFBE9D"/>
  <path d="M51.9804 39.2686C51.9804 39.2686 51.9474 39.2891 51.8945 39.3095C51.8137 39.3337 51.724 39.3337 51.6432 39.3095C51.5176 39.2517 51.4138 39.1693 51.3425 39.0706C51.2711 38.972 51.2346 38.8606 51.2366 38.7476C51.2276 38.6203 51.2547 38.493 51.316 38.3747C51.3322 38.3278 51.363 38.2847 51.4056 38.2491C51.4482 38.2135 51.5014 38.1865 51.5606 38.1703C51.5985 38.1622 51.6389 38.1643 51.675 38.1764C51.7111 38.1885 51.7407 38.2098 51.7589 38.2367C51.7854 38.2776 51.7755 38.3082 51.7854 38.3108C51.7953 38.3134 51.8251 38.2827 51.8085 38.224C51.7962 38.1873 51.7683 38.1549 51.7292 38.132C51.7027 38.1173 51.6727 38.1069 51.6409 38.1012C51.6091 38.0955 51.5762 38.0947 51.5441 38.0988C51.4677 38.114 51.3974 38.1436 51.3397 38.1851C51.282 38.2266 51.2386 38.2786 51.2135 38.3363C51.1374 38.4669 51.1034 38.6098 51.1143 38.7527C51.1037 38.8874 51.1459 39.0214 51.2356 39.1371C51.3253 39.2529 51.4582 39.3451 51.6168 39.4014C51.6687 39.4121 51.723 39.4135 51.7757 39.4056C51.8284 39.3976 51.8781 39.3805 51.9209 39.3555C51.9804 39.3044 51.987 39.2712 51.9804 39.2686Z" fill="#EB996E"/>
  <path d="M51.4151 37.6449C51.5975 37.6341 51.7801 37.6626 51.9429 37.727C52.1057 37.7915 52.2422 37.8895 52.3374 38.0101C52.4597 38.2196 52.4895 38.4597 52.6118 38.6717C52.6622 38.7811 52.7578 38.8747 52.8839 38.9379C53.0099 39.0012 53.1594 39.0306 53.3093 39.0216C53.4087 38.997 53.4979 38.9527 53.5681 38.8931C53.6383 38.8335 53.687 38.7606 53.7093 38.6819C53.749 38.5242 53.749 38.362 53.7093 38.2043C53.5969 37.5146 53.4085 36.8301 53.3787 36.1328C53.3062 35.4335 53.5029 34.7332 53.944 34.1201C54.1701 33.8173 54.4975 33.5672 54.8919 33.3959C55.2863 33.2247 55.7331 33.1387 56.1853 33.1469C56.7804 33.1852 57.3258 33.4253 57.9176 33.4892C58.2705 33.5238 58.629 33.4957 58.9659 33.4072C59.3027 33.3187 59.6089 33.172 59.8614 32.9783C59.9242 32.9298 60.225 32.7766 60.225 32.7766C60.2153 32.6125 60.1454 32.4539 60.0234 32.3193C58.8498 31.4816 56.7341 31.2466 55.187 31.5531C54.3984 31.7025 53.6615 31.9831 53.0277 32.3753C52.3939 32.7675 51.8786 33.2618 51.5176 33.8238C50.8564 34.9451 51.0482 36.5057 51.4151 37.6551" fill="#263238"/>
  <path d="M60.8794 33.4028C59.9307 31.7196 58.7902 30.039 55.9836 29.3646C54.9918 29.1245 53.0546 28.8921 52.172 29.3263C51.6067 29.6047 51.2199 30.0517 50.7075 30.3889C50.1092 30.7848 49.3522 31.0147 48.7241 31.3927C48.5443 31.4904 48.3988 31.6212 48.3009 31.7733C48.2542 31.8505 48.2368 31.9364 48.2508 32.021C48.2649 32.1056 48.3098 32.1853 48.3803 32.2509C48.5171 32.3385 48.6857 32.3911 48.8629 32.4016C49.5918 32.5008 50.3311 32.5478 51.0712 32.5421C50.8956 32.6061 50.7556 32.7167 50.6767 32.8537C50.5978 32.9908 50.5853 33.1452 50.6413 33.2888C50.6974 33.4324 50.8184 33.5557 50.9822 33.6362C51.1461 33.7166 51.3419 33.749 51.534 33.7272C51.3257 34.4501 51.0745 34.5139 51.3786 35.2163C51.3786 35.2163 54.1026 33.3722 56.3836 33.0759C57.8948 32.9172 59.4331 33.0291 60.8794 33.4028Z" fill="#02A66A"/>
  <path d="M61.4939 32.3632C61.4585 32.158 61.3455 31.9654 61.1691 31.8096C60.9927 31.6537 60.7607 31.5416 60.5022 31.4871C58.7236 31.127 56.7798 31.3722 55.2955 31.7247C51.8046 32.5471 50.7236 34.2022 50.7236 34.6416C50.7236 35.3006 51.2625 37.0732 51.2625 37.0732C54.4426 32.1589 61.7914 33.9877 61.7914 33.9877L61.4939 32.3632Z" fill="#02A66A"/>
  <path d="M60.569 31.4428C60.569 31.4683 59.974 31.3662 59.012 31.3049C57.7615 31.2219 56.5018 31.3084 55.2897 31.5603C54.6303 31.7119 53.9983 31.9273 53.4087 32.2014L53.0219 32.3981C52.8963 32.4619 52.7872 32.536 52.6748 32.6024C52.4691 32.7273 52.2736 32.8621 52.0897 33.006C51.8208 33.2135 51.5712 33.4355 51.3426 33.6701C51.2665 33.7623 51.1778 33.8479 51.0781 33.9255C51.1356 33.8263 51.2065 33.7321 51.2897 33.6445C51.4975 33.3937 51.7355 33.1585 52.0004 32.9421C52.183 32.7917 52.3785 32.6509 52.5856 32.5207C52.698 32.4517 52.8071 32.3725 52.9327 32.3036L53.3261 32.0992C53.9241 31.813 54.5689 31.5896 55.2434 31.4351C56.4742 31.1755 57.7583 31.1018 59.0252 31.218C59.4068 31.2467 59.7856 31.2945 60.1591 31.3611C60.2995 31.3756 60.4371 31.4031 60.569 31.4428Z" fill="#263238"/>
  <path d="M54.1889 31.311C53.6797 31.5327 53.1555 31.733 52.6186 31.9113C51.7558 32.2408 51.1079 32.5805 51.0781 32.5498C51.5025 32.2283 51.9986 31.9687 52.5426 31.7836C53.06 31.5673 53.6142 31.4082 54.1889 31.311Z" fill="#263238"/>
  <path d="M55.4843 34.111C55.6145 34.2737 55.7919 34.4108 56.0025 34.5114C56.2131 34.612 56.4511 34.6734 56.6976 34.6908C56.9442 34.7081 57.1926 34.6809 57.4232 34.6113C57.6539 34.5417 57.8604 34.4316 58.0265 34.2898C58.1008 34.4298 58.2297 34.5485 58.3951 34.6295C58.5606 34.7105 58.7546 34.7498 58.9502 34.742C59.1458 34.7341 59.3335 34.6795 59.4872 34.5857C59.6409 34.4919 59.7531 34.3635 59.8083 34.2183C60.0092 34.3886 60.2534 34.5251 60.5257 34.6193C60.6627 34.6645 60.8144 34.6763 60.9603 34.653C61.1063 34.6297 61.2395 34.5725 61.3422 34.489C61.4242 34.3902 61.4633 34.2738 61.4537 34.1566C61.4442 34.0395 61.3866 33.9278 61.2893 33.8377C61.0904 33.6595 60.8337 33.5254 60.5455 33.4494C59.6745 33.1534 58.7173 33.0415 57.7719 33.1251C56.8215 33.2122 55.9505 33.5779 55.3389 34.1467" fill="#263238"/>
  <g opacity="0.2">
    <path d="M51.0781 32.5449C51.455 32.149 51.5905 31.8016 52.0302 31.4492C52.4583 31.0831 52.9981 30.8057 53.6004 30.642C53.687 30.6173 53.7794 30.6069 53.8715 30.6114C53.9178 30.6151 53.9619 30.6285 53.9992 30.6501C54.0364 30.6717 54.0654 30.7007 54.0831 30.734C54.0895 30.751 54.0911 30.7688 54.0879 30.7863C54.0848 30.8038 54.0768 30.8206 54.0646 30.8355C54.0525 30.8505 54.0363 30.8633 54.0173 30.8731C53.9982 30.8829 53.9767 30.8894 53.9542 30.8923C54.2406 30.8157 54.5444 30.7853 54.8467 30.8029C54.9205 30.8024 54.9921 30.8223 55.0484 30.8591C55.0759 30.8892 55.0893 30.9256 55.0863 30.9623C55.0832 30.999 55.064 31.0338 55.0319 31.0609C54.9672 31.1149 54.8867 31.156 54.7971 31.181C53.5112 31.628 52.3641 32.0954 51.0781 32.5449Z" fill="black"/>
  </g>
  <path d="M52.4161 35.7467C52.4161 35.7467 52.3797 35.7262 52.3235 35.6828C52.2439 35.6202 52.171 35.5527 52.1054 35.481C51.8809 35.2489 51.7067 34.9901 51.5896 34.7148C51.4713 34.4396 51.411 34.1516 51.4111 33.8616C51.4111 33.7763 51.4178 33.691 51.431 33.6062C51.4333 33.5738 51.4422 33.5419 51.4574 33.5117C51.4574 33.5117 51.4574 33.6471 51.4574 33.8668C51.472 34.1525 51.5376 34.4353 51.6525 34.7071C51.7675 34.9792 51.9322 35.2372 52.1417 35.4734C52.3037 35.6394 52.4227 35.7415 52.4161 35.7467Z" fill="#263238"/>
  <path d="M54.0136 34.5483C54.0136 34.5483 53.9904 34.4206 53.9376 34.2188C53.8741 33.9528 53.7629 33.6948 53.607 33.4526C53.4454 33.2133 53.2418 32.9924 53.002 32.7961C52.8202 32.6454 52.688 32.5663 52.6946 32.5586C52.7305 32.5709 52.7639 32.5873 52.7937 32.6071C52.8798 32.6575 52.9615 32.7121 53.0384 32.7706C53.5479 33.1572 53.8848 33.6591 54.0004 34.2035C54.0206 34.2878 54.0317 34.3732 54.0334 34.4589C54.0202 34.5151 54.0202 34.5483 54.0136 34.5483Z" fill="#263238"/>
  <path d="M56.2581 33.8442C56.2581 33.8442 56.2349 33.7063 56.1853 33.4841C56.1199 33.1947 56.0192 32.9107 55.8845 32.6361C55.7462 32.3631 55.5734 32.1013 55.3688 31.8545C55.2134 31.6655 55.101 31.5531 55.111 31.548C55.1209 31.5429 55.144 31.5709 55.2002 31.6195C55.2564 31.668 55.3258 31.7395 55.4118 31.834C55.6301 32.0784 55.811 32.3415 55.9506 32.6182C56.0894 32.8953 56.1849 33.1843 56.2349 33.4789C56.2491 33.5637 56.258 33.6489 56.2614 33.7344C56.2647 33.8084 56.2647 33.8442 56.2581 33.8442Z" fill="#263238"/>
  <path d="M58.7014 33.444C58.7014 33.444 58.7014 33.3163 58.7014 33.1094C58.7059 32.8422 58.686 32.575 58.6419 32.31C58.5949 32.0458 58.523 31.7845 58.427 31.5284C58.3787 31.4229 58.3378 31.3155 58.3047 31.2065C58.3265 31.2321 58.3442 31.2595 58.3576 31.2883C58.3906 31.3394 58.427 31.4185 58.4733 31.5156C58.5837 31.7725 58.6634 32.0367 58.7113 32.3049C58.7577 32.5723 58.7699 32.8427 58.7477 33.112C58.7477 33.2142 58.7278 33.2984 58.7179 33.3546C58.708 33.4108 58.708 33.444 58.7014 33.444Z" fill="#263238"/>
  <path d="M60.5648 33.8355C60.5648 33.8355 60.6044 33.7052 60.6573 33.4932C60.7922 32.9402 60.7628 32.3708 60.5714 31.8279C60.4953 31.6184 60.4325 31.4958 60.4424 31.4907C60.4651 31.5172 60.4839 31.5454 60.4986 31.575C60.5451 31.6582 60.5848 31.7435 60.6176 31.8304C60.8398 32.3756 60.8695 32.9567 60.7036 33.5137C60.6797 33.6002 60.6488 33.6855 60.611 33.7691C60.5979 33.7921 60.5824 33.8143 60.5648 33.8355Z" fill="#263238"/>
  <path d="M54.8626 31.5888C54.7719 31.5382 54.6744 31.4954 54.5717 31.4611C54.2909 31.369 53.975 31.3636 53.6891 31.4458H53.656V31.4203C53.6212 31.2889 53.5345 31.1692 53.4077 31.0777C53.281 30.9862 53.1205 30.9274 52.9486 30.9094C52.5307 30.8836 52.1107 30.9299 51.7188 31.0448L49.2758 31.5556L48.542 31.7319L48.3403 31.7702H48.2676C48.2889 31.7601 48.3124 31.7532 48.337 31.7498L48.5353 31.7012L49.2725 31.5327L51.7122 30.9963C52.1133 30.8815 52.5424 30.8371 52.9684 30.866C53.1509 30.8858 53.3209 30.9487 53.4553 31.0461C53.5897 31.1435 53.6817 31.2706 53.7188 31.4101L53.6825 31.3922C53.9803 31.3096 54.3084 31.3215 54.5949 31.4254C54.6982 31.4645 54.7895 31.5202 54.8626 31.5888Z" fill="#263238"/>
  <path d="M57.5237 31.1817C57.4813 31.1642 57.4405 31.1446 57.4014 31.123C57.322 31.0846 57.2063 31.0284 57.051 30.9671C56.615 30.7919 56.141 30.6802 55.6526 30.6377H55.6295V30.6198C55.5927 30.437 55.4868 30.2667 55.325 30.1304C55.1632 29.994 54.9529 29.8977 54.7204 29.8535C54.173 29.7545 53.6008 29.7749 53.0675 29.9123C52.4261 30.07 51.8122 30.2879 51.2394 30.561C50.7039 30.8011 50.2245 31.0259 49.8014 31.1919C49.4704 31.3227 49.128 31.4354 48.7766 31.5291C48.651 31.5597 48.5485 31.5776 48.4824 31.5904L48.3799 31.6083C48.412 31.5969 48.4451 31.5875 48.4791 31.5802L48.7667 31.5086C49.113 31.4086 49.4509 31.2917 49.7782 31.1587C50.1948 30.9901 50.6708 30.7603 51.2096 30.5176C51.7849 30.241 52.4023 30.0205 53.0477 29.8612C53.5981 29.7187 54.1894 29.6992 54.7534 29.805C54.9968 29.8523 55.2165 29.9546 55.3843 30.0988C55.5521 30.2431 55.6605 30.4226 55.6956 30.6147L55.6725 30.5942C56.1656 30.6414 56.6425 30.761 57.0774 30.9467C57.2357 31.0136 57.3852 31.0923 57.5237 31.1817Z" fill="#263238"/>
  <path d="M59.4281 44.3867L52.1785 43.1812C50.4497 43.2734 48.756 43.6029 47.1768 44.1543C44.6148 45.0611 39.7785 49.5003 38.5057 55.1068C37.8446 58.0773 37.3322 62.4706 37.1008 64.6468C37.1008 64.6468 35.0942 66.4347 36.9124 66.9047L36.9851 67.2699L53.5471 64.2049L55.5901 56.721L58.1719 52.0341L63.1074 57.4209C63.6165 57.9743 64.2897 58.4254 65.0708 58.7365C65.8518 59.0476 66.718 59.2095 67.5967 59.2088H67.8975C68.8493 59.2166 69.7781 58.9834 70.5421 58.5447L79.6727 52.3891L78.1025 50.4019L67.7686 54.2179L62.3273 46.8771C61.832 46.2125 61.2026 45.6132 60.4628 45.1019L59.4281 44.3867Z" fill="#02A66A"/>
  <path d="M51.8478 42.7144C47.8139 42.8099 43.8016 43.2086 39.8676 43.9046C39.4342 43.9427 39.0324 44.0984 38.7337 44.3439C38.3535 44.7424 38.5949 45.2992 38.8494 45.7513C39.3882 46.6989 40.099 47.7359 41.3883 48.0246C42.38 48.2442 43.4312 47.9454 44.3635 47.6082C47.3149 46.5333 49.9688 45.0266 52.1784 43.1716" fill="#02A66A"/>
  <path d="M60.0099 48.4064C60.0561 48.4192 59.3917 49.7882 58.5289 51.4714C57.6661 53.1547 56.9289 54.4956 56.876 54.4803C56.8231 54.465 57.4942 53.0985 58.357 51.4152C59.2198 49.732 59.9669 48.3911 60.0099 48.4064Z" fill="#263238"/>
  <path d="M51.9834 43.6205V42.2412L59.6991 43.4749L59.8512 45.1862L51.9834 43.6205Z" fill="#02A66A"/>
  <path d="M49.2859 43.6572C49.2859 43.6802 48.7339 43.7926 47.8843 44.0787C47.3867 44.2461 46.9041 44.439 46.4396 44.6559C45.3023 45.1881 44.2869 45.8622 43.4347 46.6508C43.0864 46.9747 42.7662 47.316 42.476 47.6725C41.9834 48.2804 41.7553 48.6941 41.7256 48.6941C41.7582 48.5923 41.8059 48.4938 41.8677 48.4004C41.928 48.286 41.9965 48.1743 42.0727 48.0658C42.1586 47.9381 42.2479 47.7899 42.3735 47.6367C42.6532 47.2713 42.967 46.9221 43.3124 46.592C43.7426 46.1924 44.2123 45.8192 44.7173 45.4758C45.2356 45.1403 45.7884 44.8379 46.3702 44.5716C46.8431 44.3557 47.3372 44.1686 47.8479 44.0123C48.0595 43.9407 48.2644 43.8922 48.4396 43.8462C48.5891 43.8048 48.7414 43.7698 48.8958 43.7415C49.0207 43.7008 49.1518 43.6724 49.2859 43.6572Z" fill="#263238"/>
  <path d="M53.2294 43.1327C53.1831 43.1327 53.1269 42.9871 53.1038 42.8032C53.0807 42.6193 53.1038 42.4635 53.1501 42.461C53.1964 42.4584 53.2559 42.604 53.2757 42.7905C53.2955 42.9769 53.2757 43.1302 53.2294 43.1327Z" fill="#263238"/>
  <path d="M54.8233 43.4227C54.777 43.4227 54.7373 43.272 54.7373 43.0881C54.7373 42.9042 54.777 42.751 54.8233 42.751C54.8695 42.751 54.9092 42.9017 54.9092 43.0881C54.9092 43.2746 54.8662 43.4227 54.8233 43.4227Z" fill="#263238"/>
  <path d="M56.6348 43.7856C56.5852 43.7856 56.5323 43.6119 56.5125 43.3922C56.4926 43.1726 56.5125 42.9938 56.5621 42.9912C56.6117 42.9887 56.6646 43.1649 56.6844 43.3846C56.7042 43.6042 56.6811 43.783 56.6348 43.7856Z" fill="#263238"/>
  <path d="M58.4062 44.0706C58.36 44.0706 58.3038 43.8943 58.2806 43.6696C58.2575 43.4448 58.2806 43.2609 58.3236 43.2583C58.3666 43.2558 58.4294 43.4346 58.4525 43.6593C58.4757 43.8841 58.4591 44.068 58.4062 44.0706Z" fill="#263238"/>
  <g opacity="0.3">
    <path d="M58.1846 52.0401L60.4986 54.5483C60.4986 54.5483 59.7846 48.878 59.7548 48.9291C59.7251 48.9801 58.1846 52.0401 58.1846 52.0401Z" fill="black"/>
  </g>
  <g opacity="0.3">
    <path d="M39.375 46.591C40.5353 46.7927 41.7453 46.4658 42.7899 46.0239C43.8345 45.582 44.8064 45.0252 45.9238 44.7085C44.6973 45.4364 43.4345 46.1976 42.6973 47.2499C42.5023 47.5309 42.4461 47.9575 42.0791 48.1056C41.5376 48.1195 41.0053 47.9947 40.5651 47.7506C40.2345 47.5539 39.4775 47.0405 39.375 46.591Z" fill="black"/>
  </g>
  <path d="M50.238 60.9966C50.0998 61.0911 49.9516 61.1766 49.795 61.252C49.5041 61.4104 49.0711 61.6198 48.5256 61.8676C45.6696 63.1512 42.5317 64.0171 39.2694 64.4218C38.6446 64.4984 38.1388 64.5469 37.7851 64.5674C37.6033 64.587 37.4198 64.5947 37.2363 64.5904C37.4138 64.5533 37.5953 64.5285 37.7785 64.5163C38.1091 64.4805 38.6314 64.4167 39.2496 64.3298C40.862 64.1006 42.4482 63.7726 43.9934 63.349C45.5362 62.9195 47.0328 62.3969 48.4694 61.7858C49.0215 61.5508 49.4611 61.3516 49.762 61.2086C49.9126 61.1277 50.0719 61.0567 50.238 60.9966Z" fill="#263238"/>
  <path d="M52.2186 64.0346L69.769 58.9262C71.3351 58.832 72.8957 59.1549 74.1912 59.8413C75.4867 60.5277 76.439 61.5361 76.8897 62.6988L79.693 69.94L71.164 70.6756L69.964 66.4203C69.964 66.4203 55.6797 71.6564 55.326 71.4853C55.1938 71.4214 49.6268 70.4099 49.6367 69.0562C49.6566 66.8545 52.2186 64.0346 52.2186 64.0346Z" fill="#263238"/>
  <path d="M36.9258 66.9004L63.1043 59.7333C64.6704 59.6391 66.231 59.9621 67.5265 60.6484C68.8221 61.3348 69.7743 62.3432 70.225 63.5059L73.025 70.7445L64.4961 71.4827L62.3969 67.5186L48.0927 72.1161C46.9574 72.4803 45.7295 72.6395 44.5024 72.5818C43.2754 72.524 42.0816 72.2508 41.0119 71.7828C39.9421 71.3149 39.0246 70.6646 38.3291 69.8814C37.6337 69.0982 37.1786 68.2027 36.9985 67.2631L36.9258 66.9004Z" fill="#263238"/>
  <path d="M72.8701 71.194C72.8455 71.1551 72.8277 71.1139 72.8172 71.0714C72.7875 70.9769 72.7478 70.8594 72.7015 70.7189C72.5957 70.3945 72.4536 69.9526 72.2817 69.4214C71.9181 68.3256 71.3858 66.8212 70.7048 65.1788C70.4046 64.4055 70.0323 63.6501 69.5908 62.9183C69.2266 62.3231 68.7546 61.771 68.1891 61.2785C67.8063 60.9478 67.3696 60.6567 66.89 60.4126C66.5594 60.2415 66.3412 60.1572 66.3478 60.1572C66.4024 60.1649 66.4549 60.1796 66.5032 60.2007C66.6487 60.2499 66.79 60.3062 66.9263 60.3692C67.4273 60.5994 67.8826 60.8841 68.2784 61.2147C68.8655 61.7055 69.3556 62.2607 69.7329 62.8621C70.1855 63.5976 70.5656 64.3583 70.8701 65.1379C71.5511 66.7829 72.0668 68.2975 72.3974 69.3984C72.566 69.9501 72.6883 70.3971 72.7676 70.7087C72.8007 70.8517 72.8305 70.9641 72.8536 71.0663C72.8672 71.108 72.8728 71.151 72.8701 71.194Z" fill="#455A64"/>
  <path d="M64.4263 73.0626C64.3569 72.8966 62.9453 68.557 62.9453 68.557L72.3437 66.1611L73.3354 72.7587L64.4263 73.0626Z" fill="#02A66A"/>
  <path d="M71.0214 72.107C70.9487 71.9384 69.5371 67.6014 69.5371 67.6014L78.9189 65.1953L79.947 71.8005L71.0214 72.107Z" fill="#02A66A"/>
  <path d="M73.5304 72.7623C73.4841 72.7623 73.1998 71.3141 72.8858 69.5185C72.5717 67.7229 72.3635 66.2644 72.4097 66.2593C72.456 66.2542 72.7403 67.705 73.0709 69.5006C73.4015 71.2962 73.58 72.7572 73.5304 72.7623Z" fill="#263238"/>
  <path d="M65.5898 66.4315C65.6096 66.4673 62.6311 67.4532 58.9385 68.6103C55.246 69.7673 52.2377 70.7022 52.2179 70.669C52.198 70.6358 55.1931 69.6473 58.8724 68.4877C62.5518 67.3281 65.5733 66.3983 65.5898 66.4315Z" fill="#455A64"/>
  <path d="M64.8992 67.4663C64.4486 67.5744 63.9793 67.6287 63.5075 67.6272C63.039 67.6673 62.5654 67.6526 62.1025 67.5838C62.5629 67.5202 63.03 67.4902 63.4976 67.4944C63.9628 67.4528 64.4319 67.4434 64.8992 67.4663Z" fill="#455A64"/>
  <path d="M63.2395 68.6606C63.0304 68.5085 62.8619 68.3263 62.7436 68.1242C62.576 67.9445 62.4579 67.7402 62.3965 67.5239C62.6056 67.6759 62.7741 67.8582 62.8924 68.0603C63.06 68.2399 63.1781 68.4442 63.2395 68.6606Z" fill="#455A64"/>
  <g opacity="0.3">
    <path d="M72.4092 66.8652L74.7364 69.3019L72.8687 69.4194L72.4092 66.8652Z" fill="black"/>
  </g>
  <path d="M79.0508 52.308L80.2244 52.5354C81.312 52.6707 81.9136 52.778 82.2839 52.6196C82.7798 52.4076 82.3302 52.0092 82.3302 52.0092C82.3302 52.0092 83.1698 51.9607 83.2194 51.5852C83.2211 51.5058 83.19 51.428 83.1305 51.3633C83.0711 51.2985 82.9864 51.2501 82.8888 51.225C82.8888 51.225 83.636 51.1586 83.8442 50.9696C84.1285 50.7142 83.7054 50.4588 83.7054 50.4588C84.7798 50.2034 84.8426 49.7513 84.6442 49.6644C84.4459 49.5776 83.636 49.69 83.636 49.69C82.9748 49.69 81.1864 49.7564 82.0426 49.1791C82.8988 48.6019 83.2723 47.902 83.2029 47.6466C83.1777 47.5928 83.1317 47.5463 83.071 47.5134C83.0104 47.4805 82.9381 47.4629 82.8641 47.4629C82.79 47.4629 82.7177 47.4805 82.6571 47.5134C82.5965 47.5463 82.5504 47.5928 82.5252 47.6466C82.3351 47.9048 82.0992 48.1412 81.8244 48.349C81.612 48.524 81.3627 48.67 81.0872 48.7807C80.7566 48.9058 80.4855 49.0029 80.2442 49.0821L78.2607 50.5916L79.0508 52.308Z" fill="#FFBE9D"/>
  <path d="M169.534 30.8828C150.691 28.2571 131.97 30.3082 114.073 35.5188C96.077 40.7817 80.2486 49.6931 68.2511 61.3163L67.4775 60.361C79.4529 48.7206 95.2876 39.8055 113.298 34.564C131.308 29.3226 150.82 27.9507 169.759 30.5942L169.534 30.8828Z" fill="#263238"/>
  <path d="M79.4381 56.6961C80.9772 56.6961 82.2249 55.732 82.2249 54.5428C82.2249 53.3537 80.9772 52.3896 79.4381 52.3896C77.899 52.3896 76.6514 53.3537 76.6514 54.5428C76.6514 55.732 77.899 56.6961 79.4381 56.6961Z" fill="#263238"/>
  <path d="M78.7174 56.6961C80.2565 56.6961 81.5042 55.732 81.5042 54.5428C81.5042 53.3537 80.2565 52.3896 78.7174 52.3896C77.1783 52.3896 75.9307 53.3537 75.9307 54.5428C75.9307 55.732 77.1783 56.6961 78.7174 56.6961Z" fill="#455A64"/>
  <path d="M78.8768 54.4313L74.2861 56.0718L74.4249 56.3036L79.0156 54.6632L78.8768 54.4313Z" fill="#E0E0E0"/>
  <path d="M167.955 91.2453C167.955 91.2453 167.955 91.1406 167.955 90.9414C167.955 90.7422 167.955 90.4306 167.955 90.05C167.955 89.2658 167.981 88.1088 168.001 86.6146C168.047 83.6185 168.114 79.2738 168.196 73.8588C168.378 63.0264 168.633 47.9157 168.917 30.805L169.042 30.8637C167.142 31.607 165.158 32.3707 162.98 32.782C161.883 32.9835 160.761 33.0923 159.634 33.1063C158.494 33.1338 157.353 33.0705 156.229 32.9173C154.522 32.6464 152.862 32.2176 151.287 31.6402C149.714 31.0962 148.196 30.4883 146.659 29.9468H146.742C143.284 31.7729 139.416 33.086 135.337 33.819C133.373 34.1611 131.361 34.3079 129.35 34.2557C127.397 34.202 125.467 33.9071 123.634 33.3822L123.73 33.3592C122.3 35.0543 120.463 36.5221 118.318 37.6835C116.298 38.7851 114.056 39.6221 111.684 40.1611C107.396 41.1667 102.808 41.1042 98.5697 39.9823L98.6523 39.9414C98.4079 41.5516 97.8215 43.1196 96.9168 44.5824C96.1167 45.8867 95.078 47.0953 93.8325 48.1711C92.7411 49.1032 91.5079 49.93 90.1597 50.6334C89.0529 51.2479 87.8582 51.7621 86.5994 52.1659C85.5821 52.4756 84.5075 52.6584 83.4159 52.7074C82.6183 52.7365 81.8189 52.7151 81.0258 52.6435C80.3845 52.5848 79.8986 52.5235 79.5746 52.4749C79.2506 52.4264 79.082 52.4009 79.082 52.4009C79.082 52.4009 79.2506 52.4188 79.5746 52.4622C79.8986 52.5056 80.3911 52.5618 81.0324 52.618C81.824 52.6836 82.621 52.6998 83.4159 52.6665C84.4992 52.6134 85.5647 52.428 86.573 52.1174C87.8259 51.7067 89.0138 51.1865 90.1135 50.5669C91.4469 49.8636 92.6675 49.0405 93.7498 48.1149C94.9845 47.0411 96.0152 45.8371 96.811 44.539C97.7041 43.0832 98.2814 41.524 98.5201 39.9235V39.8648L98.5928 39.8827C102.808 40.9927 107.368 41.0499 111.628 40.0461C113.982 39.5108 116.207 38.6798 118.213 37.5864C120.341 36.4323 122.163 34.974 123.581 33.2902L123.614 33.2468L123.674 33.2647C125.491 33.7842 127.404 34.0748 129.34 34.1255C131.339 34.1776 133.339 34.0317 135.29 33.6913C139.348 32.959 143.195 31.6513 146.636 29.8344L146.676 29.814L146.718 29.8293C148.262 30.3733 149.78 30.9787 151.347 31.5227C152.909 32.0979 154.555 32.5267 156.249 32.7998C157.362 32.951 158.492 33.0135 159.621 32.9863C160.735 32.9727 161.843 32.8657 162.927 32.667C165.079 32.2583 167.052 31.4997 168.95 30.759L169.076 30.7105V30.8178C168.765 47.931 168.494 63.0392 168.295 73.8716C168.193 79.2865 168.107 83.6312 168.047 86.6273C168.018 88.1216 167.991 89.2786 167.975 90.0627C167.975 90.4535 167.955 90.7524 167.952 90.9542C167.948 91.1559 167.955 91.2453 167.955 91.2453Z" fill="#E0E0E0"/>
  <path d="M84.6277 49.7068C83.636 49.689 82.7004 49.643 81.7153 49.666C81.5555 49.6635 81.3965 49.6834 81.2459 49.7247C81.1704 49.7463 81.1034 49.7826 81.0513 49.83C80.9992 49.8774 80.9637 49.9344 80.9483 49.9955C80.9463 50.0719 80.9752 50.1469 81.0308 50.2101C81.0865 50.2732 81.1663 50.3214 81.2591 50.3479C81.4471 50.3931 81.6445 50.4105 81.8409 50.399C82.5979 50.399 83.7483 50.4884 83.7483 50.4884" fill="#FFBE9D"/>
  <path d="M83.9145 50.4393C82.9228 50.4214 81.9905 50.3728 81.0054 50.3984C80.8447 50.3948 80.6845 50.4138 80.5327 50.4546C80.4453 50.4741 80.3684 50.5151 80.3137 50.5713C80.2591 50.6275 80.2295 50.6959 80.2295 50.7662C80.2295 50.8365 80.2591 50.9049 80.3137 50.9611C80.3684 51.0173 80.4453 51.0583 80.5327 51.0778C80.7218 51.1231 80.9203 51.1405 81.1178 51.1289C81.8715 51.1442 83.0219 51.2183 83.0219 51.2183" fill="#FFBE9D"/>
  <path d="M82.9557 51.1528C82.1226 51.1375 81.3358 51.0992 80.5094 51.1196C80.3744 51.1164 80.2398 51.1329 80.1127 51.1682C80.0378 51.1834 79.9716 51.2174 79.9244 51.2647C79.8772 51.3121 79.8516 51.3702 79.8516 51.43C79.8516 51.4898 79.8772 51.5479 79.9244 51.5952C79.9716 51.6426 80.0378 51.6765 80.1127 51.6918C80.2709 51.7294 80.4368 51.7441 80.6019 51.7352C81.2366 51.7352 82.2052 51.8093 82.2052 51.8093" fill="#FFBE9D"/>
  <path d="M83.8444 50.4877C83.4264 50.5307 83.0029 50.5307 82.5849 50.4877C82.1618 50.4888 81.7403 50.4458 81.332 50.36C81.7511 50.3169 82.1758 50.3169 82.5948 50.36C83.0171 50.3572 83.4377 50.4002 83.8444 50.4877Z" fill="#EB996E"/>
  <path d="M83.0547 51.3223C82.6594 51.3715 82.2557 51.3628 81.8646 51.2968C81.4691 51.2729 81.0774 51.2207 80.6943 51.141C81.0904 51.0902 81.4954 51.098 81.8877 51.164C82.2826 51.1862 82.6736 51.2393 83.0547 51.3223Z" fill="#EB996E"/>
  <path d="M82.5547 52.0301C82.1597 52.0809 81.7558 52.0731 81.3646 52.0071C80.9686 51.985 80.5765 51.9319 80.1943 51.8487C80.5896 51.7996 80.9933 51.8083 81.3844 51.8743C81.7799 51.8982 82.1717 51.9503 82.5547 52.0301Z" fill="#EB996E"/>
  <path d="M70.9355 55.4035L74.0364 54.152C74.5214 53.9664 75.0792 53.929 75.5983 54.0474C76.1174 54.1658 76.5595 54.4312 76.8364 54.7905L76.9455 54.9284L76.3769 57.7917L72.0132 58.5886L70.9355 55.4035Z" fill="#FFBE9D"/>
  <path d="M47.5504 51.1484C48.6149 53.5954 50.1058 57.0231 51.1008 59.3066C51.4283 60.0588 51.9842 60.7393 52.7222 61.2913C53.4601 61.8432 54.3586 62.2505 55.3422 62.4789C56.513 62.7495 57.7591 62.7574 58.9356 62.5019L72.0959 58.7804L70.9356 55.3552L57.6959 56.9286L55.438 49.4218C55.3078 48.9883 55.0608 48.5808 54.7133 48.2259C54.3657 47.871 53.9253 47.5766 53.4207 47.3619C52.9162 47.1472 52.3588 47.0171 51.7848 46.9798C51.2108 46.9426 50.6331 46.9992 50.0893 47.146C49.0694 47.4206 48.2309 47.9949 47.7556 48.7442C47.2803 49.4935 47.2065 50.3574 47.5504 51.1484Z" fill="#02A66A"/>
  <path d="M60.0228 62.1754C59.958 62.2141 59.8882 62.2474 59.8145 62.275C59.7279 62.3131 59.6385 62.3472 59.5467 62.3771C59.4245 62.4218 59.2986 62.4602 59.1699 62.4921C58.3465 62.7085 57.4684 62.7707 56.6079 62.6734C55.3263 62.5332 54.1232 62.1132 53.1401 61.4627C51.9504 60.6639 51.0014 59.6735 50.3599 58.5611C49.7297 57.4525 49.2318 56.3017 48.8723 55.1232C48.5153 54.0479 48.2277 53.0798 47.9732 52.2548C47.7186 51.4298 47.5302 50.7887 47.388 50.3161C47.3252 50.099 47.2756 49.9228 47.236 49.79C47.214 49.7291 47.2007 49.6666 47.1963 49.6035C47.2267 49.6615 47.251 49.7213 47.269 49.7823L47.4508 50.3059L48.0922 52.2318C48.3599 53.0466 48.6608 54.0198 49.0244 55.0925C49.3908 56.2596 49.8885 57.3998 50.512 58.4998C51.1427 59.5982 52.0743 60.5777 53.2426 61.3708C54.2006 62.0119 55.3723 62.4323 56.6244 62.584C57.4689 62.6871 58.3327 62.6399 59.15 62.4461C59.7252 62.3005 60.0128 62.16 60.0228 62.1754Z" fill="#263238"/>
  <path d="M50.7275 46.02C50.7625 46.0087 50.7991 46.0009 50.8366 45.997L51.1672 45.9433C51.2399 45.9433 51.3226 45.9152 51.4118 45.9076H51.7094C51.8249 45.9 51.941 45.9 52.0565 45.9076L52.4499 45.9561C53.1121 46.087 53.6957 46.39 54.1028 46.8143C54.6211 47.3706 54.961 48.014 55.0945 48.6917C55.7127 50.592 56.4796 52.9572 57.3094 55.5191C57.4614 55.9942 57.6135 56.4616 57.7556 56.906L57.6598 56.8575L67.2267 55.703L70.073 55.3735L70.8433 55.2892L71.111 55.2688C71.0249 55.2903 70.9364 55.3057 70.8466 55.3147L70.0829 55.422L67.2433 55.7898L57.6862 56.9878H57.6102L57.5904 56.929C57.4482 56.4846 57.2961 56.0171 57.1408 55.5395C56.3242 52.9853 55.5672 50.6099 54.959 48.707C54.8295 48.045 54.5024 47.4154 54.0036 46.868C53.6168 46.4526 53.0582 46.1517 52.4201 46.0148L52.0399 45.9612C51.9299 45.9542 51.8194 45.9542 51.7094 45.9612H51.4151C51.3259 45.9612 51.2465 45.9791 51.1738 45.9868L50.8432 46.0251C50.8046 46.027 50.7657 46.0253 50.7275 46.02Z" fill="#263238"/>
  <g opacity="0.3">
    <path d="M47.4183 50.302C47.3158 50.302 47.7191 53.4973 47.5571 55.1295C47.3951 56.7616 47.3323 58.4499 48.1191 59.9825C48.9059 61.515 50.258 62.7104 52.377 62.672L54.3142 62.1612C54.3142 62.1612 53.2497 61.4971 52.8828 61.2289C51.0216 59.8675 50.2613 58.1358 49.4381 56.261C48.5646 54.3167 47.8893 52.3226 47.4183 50.2969" fill="black"/>
  </g>
  <path d="M15.7782 73.5405L12.5518 65.6685H28.2311L27.0476 74.1408L15.7782 73.5405Z" fill="#EBEBEB"/>
  <path d="M0 68.1855C0 68.1855 11.3554 82.6117 22.8661 85.1353L97.8514 84.5325C97.8514 84.5325 116.033 73.6797 119.541 60.5791H116.972L116.046 62.9366C116.046 62.9366 105.015 67.8254 69.0778 69.6287C33.1405 71.432 5.44463 70.2289 5.44463 70.2289L3.11075 67.8254L0 68.1855Z" fill="#02A66A"/>
  <g opacity="0.4">
    <path d="M0 68.1851C0 68.1851 11.3554 82.6113 22.8661 85.1348L97.8514 84.532C97.8514 84.532 116.033 73.6792 119.541 60.5786H116.972L116.046 62.9361C116.046 62.9361 105.015 67.8249 69.0778 69.6282C33.1405 71.4315 5.44463 70.2284 5.44463 70.2284L3.11075 67.8249L0 68.1851Z" fill="black"/>
  </g>
  <path d="M27.055 84.646C26.6743 84.6721 26.2908 84.6593 25.9145 84.6077C24.8863 84.4654 23.9024 84.1733 23.0153 83.747C21.712 83.1146 20.4672 82.4131 19.2897 81.6474C17.941 80.8045 16.4963 79.839 15.0385 78.7765C12.5518 76.9625 10.2321 75.0166 8.09631 72.9528C7.27978 72.1585 6.64176 71.5021 6.21532 71.0423L5.72937 70.5085C5.66892 70.448 5.61475 70.384 5.56738 70.3169C5.63629 70.3716 5.6993 70.4305 5.75581 70.4931L6.26821 71.004C6.71449 71.4535 7.36243 72.1023 8.18887 72.8864C10.3482 74.9303 12.6747 76.8653 15.1542 78.6794C16.6054 79.7394 18.0434 80.7049 19.3856 81.5503C20.558 82.3184 21.7949 83.0258 23.0881 83.6678C23.9601 84.0936 24.9242 84.3947 25.9344 84.5566C26.2104 84.597 26.49 84.6218 26.7707 84.6307L27.055 84.646Z" fill="#263238"/>
  <path d="M117.091 60.8511C117.086 60.8765 117.077 60.9013 117.064 60.9251L116.968 61.1346C116.876 61.3262 116.75 61.5944 116.585 61.9366C116.502 62.1103 116.41 62.3044 116.307 62.5139C116.205 62.7233 116.076 62.9506 115.944 63.1933C115.679 63.6811 115.395 64.2405 115.028 64.8408L114.469 65.7884C114.271 66.1153 114.046 66.4499 113.825 66.8101C113.385 67.5125 112.863 68.243 112.324 69.0143C111.21 70.5469 109.904 72.1943 108.41 73.8673C106.916 75.5404 105.349 77.0422 103.874 78.3781C103.121 79.0345 102.413 79.668 101.709 80.2273C101.359 80.5083 101.031 80.7893 100.701 81.0447L99.742 81.7777C99.1403 82.2503 98.5585 82.6487 98.0593 83.0089L97.3585 83.5044L96.7502 83.908L95.9073 84.4622L95.6858 84.6027L95.6064 84.6487L95.6759 84.5925L95.8874 84.4418L96.7073 83.839L97.3023 83.4278L97.9932 82.9169C98.4858 82.5517 99.061 82.1507 99.6461 81.673L100.595 80.9349C100.925 80.6794 101.256 80.3959 101.587 80.1124C102.284 79.5505 102.985 78.9196 103.732 78.2606C105.2 76.9222 106.744 75.4101 108.248 73.755C109.752 72.0998 111.044 70.4498 112.165 68.9275C112.707 68.1612 113.233 67.4307 113.676 66.7309C113.901 66.3835 114.129 66.0489 114.337 65.722L114.909 64.7795C115.283 64.1843 115.57 63.6275 115.844 63.1448L116.221 62.4704C116.327 62.261 116.426 62.0694 116.516 61.8957C116.691 61.5586 116.826 61.293 116.925 61.1039L117.038 60.8996C117.054 60.8823 117.071 60.8661 117.091 60.8511Z" fill="#263238"/>
  <path d="M101.041 80.6841L100.829 80.702L100.208 80.7403C99.6623 80.7735 98.8557 80.8118 97.8176 80.8603C95.7416 80.9523 92.7333 81.0494 89.0176 81.0953C85.3019 81.1413 80.8689 81.1285 75.9564 81.1311H59.963L30.9051 81.0979L22.0985 81.0724L19.7051 81.0596H19.0836H18.8721C18.8721 81.0596 18.9415 81.0596 19.0836 81.0596H19.7051L22.0985 81.0468L30.9051 81.0289H59.963L75.9564 81.0417C80.8722 81.0417 85.2986 81.0698 89.0143 81.0417C92.73 81.0136 95.7383 80.9242 97.8143 80.8501L100.204 80.7531L100.829 80.7275C100.968 80.6816 101.041 80.6841 101.041 80.6841Z" fill="#263238"/>
  <path d="M108.578 73.5366L108.33 73.5724L107.606 73.6618L104.81 74.0015C104.205 74.0832 103.524 74.1343 102.78 74.2007L100.363 74.4102C99.9303 74.4434 99.4807 74.4919 99.0179 74.52L97.5799 74.6094L94.4559 74.801C85.689 75.2709 73.5468 75.4293 60.1418 75.3808L41.2459 75.3118C35.4377 75.2888 30.2079 75.3118 25.8145 75.3322C23.6195 75.3322 21.6327 75.3782 19.8872 75.3961C18.1418 75.414 16.6409 75.4472 15.4145 75.4753L12.588 75.534H11.8509L12.5847 75.5085L15.4112 75.4267C16.6409 75.3884 18.1418 75.3476 19.8872 75.3246C21.6327 75.3016 23.6162 75.2505 25.8145 75.2403C30.2046 75.1969 35.4377 75.1764 41.2459 75.1917L60.1418 75.2505C73.5435 75.299 85.6824 75.156 94.4493 74.709L97.5733 74.5276L99.008 74.4434C99.4741 74.4153 99.9204 74.3718 100.353 74.3386L102.773 74.1394C103.514 74.0781 104.195 74.0296 104.8 73.953L107.6 73.6388L108.327 73.5596L108.578 73.5366Z" fill="#263238"/>
  <path d="M55.2958 81.0678C55.2332 80.7921 55.2033 80.5125 55.2066 80.2326C55.1834 79.7217 55.1867 79.0015 55.2066 78.2148C55.2264 77.4281 55.2462 76.7537 55.2628 76.1995C55.2506 75.9209 55.2605 75.6419 55.2925 75.3643C55.3596 75.6396 55.3906 75.9194 55.3851 76.1995C55.4082 76.7103 55.4049 77.4306 55.3851 78.2173C55.3652 79.004 55.3487 79.6783 55.3322 80.2326C55.3436 80.5113 55.3314 80.7903 55.2958 81.0678Z" fill="#263238"/>
  <path d="M77.5638 84.5511C77.533 83.502 77.617 82.4527 77.8151 81.4146C77.8462 82.4637 77.7621 83.513 77.5638 84.5511Z" fill="#263238"/>
  <path d="M83.6731 68.4204C83.7194 68.4204 83.726 69.9018 83.6731 71.7256C83.6202 73.5493 83.5607 75.0282 83.5111 75.0256C83.4615 75.023 83.4582 73.5467 83.5111 71.723C83.564 69.8993 83.6268 68.4204 83.6731 68.4204Z" fill="#263238"/>
  <path d="M36.2079 70.3267C36.232 71.1694 36.2011 72.0125 36.1153 72.8528C36.0834 73.6944 35.9951 74.5341 35.8509 75.3687C35.8228 74.5268 35.8537 73.6844 35.9434 72.8451C35.9717 72.0025 36.06 71.1618 36.2079 70.3267Z" fill="#263238"/>
  <path d="M168.999 92.0617C168.956 92.0803 168.911 92.0941 168.863 92.1026C168.774 92.123 168.645 92.1562 168.473 92.1894C167.986 92.2854 167.491 92.3562 166.992 92.4014C165.341 92.5552 163.667 92.4597 162.063 92.1205C161.606 92.0318 161.163 91.906 160.741 91.745C160.324 91.5932 159.989 91.334 159.792 91.0119C159.638 90.7108 159.638 90.3757 159.792 90.0746C159.919 89.8174 160.121 89.5859 160.381 89.3977C160.761 89.1382 161.196 88.9309 161.666 88.7847C161.828 88.731 161.957 88.6927 162.043 88.6672C162.129 88.6416 162.179 88.6314 162.182 88.6365C162.025 88.7104 161.862 88.7761 161.693 88.8332C161.244 88.9929 160.83 89.2058 160.466 89.4641C160.225 89.6457 160.041 89.8676 159.928 90.1129C159.789 90.3871 159.789 90.6917 159.928 90.966C160.114 91.2595 160.426 91.4941 160.81 91.6301C161.228 91.7863 161.665 91.9079 162.116 91.9928C163.701 92.3268 165.351 92.4333 166.985 92.3069C167.481 92.2706 167.975 92.2143 168.463 92.1384C168.639 92.1035 168.818 92.0779 168.999 92.0617Z" fill="#263238"/>
  <path d="M167.816 94.0206C167.72 94.0421 167.623 94.0575 167.525 94.0666C167.333 94.0896 167.052 94.1305 166.685 94.1637C165.653 94.271 164.615 94.3332 163.574 94.3501C162.028 94.3784 160.481 94.3161 158.946 94.1637C158.083 94.0743 157.181 93.9542 156.252 93.7959C155.286 93.6521 154.342 93.4312 153.435 93.1369C152.526 92.8125 151.65 92.3502 151.221 91.6554C151.018 91.3164 150.946 90.9397 151.012 90.5699C151.087 90.2196 151.261 89.8864 151.521 89.5942C152.007 89.0707 152.607 88.6161 153.293 88.2507C153.872 87.9187 154.48 87.6175 155.111 87.349C156.024 86.9586 156.985 86.6411 157.981 86.4014C158.331 86.3146 158.609 86.2584 158.797 86.2252C158.892 86.2026 158.99 86.1872 159.088 86.1792C158.997 86.2082 158.903 86.2321 158.807 86.2507C158.622 86.2941 158.348 86.358 158.001 86.4499C157.02 86.7074 156.072 87.0358 155.171 87.4308C154.548 87.7018 153.95 88.0047 153.379 88.3375C152.711 88.6996 152.127 89.147 151.654 89.6606C151.409 89.9394 151.246 90.2557 151.174 90.5878C151.113 90.936 151.182 91.2905 151.373 91.6095C151.773 92.2557 152.616 92.7078 153.508 93.0245C154.404 93.315 155.335 93.5341 156.288 93.6784C157.211 93.8367 158.11 93.9568 158.969 94.0487C160.493 94.2065 162.03 94.2782 163.568 94.2633C164.89 94.2633 165.941 94.1815 166.672 94.1202C167.039 94.0947 167.333 94.0641 167.511 94.0462C167.612 94.0316 167.713 94.0231 167.816 94.0206Z" fill="#263238"/>
  <path d="M172.863 90.6735C172.991 90.6126 173.126 90.5613 173.267 90.5202C173.638 90.3946 173.999 90.2513 174.348 90.0911C174.863 89.8609 175.287 89.5262 175.574 89.1231C175.74 88.8876 175.829 88.6247 175.835 88.3568C175.837 88.0731 175.721 87.7965 175.505 87.5676C175.036 87.1384 174.384 86.8537 173.667 86.7655C173.073 86.6964 172.472 86.6699 171.872 86.6864C171.462 86.6934 171.053 86.6815 170.645 86.6506C170.494 86.645 170.345 86.6236 170.202 86.5867C170.351 86.583 170.5 86.5873 170.648 86.5995C170.936 86.5995 171.353 86.5995 171.868 86.5995C172.478 86.5699 173.091 86.5879 173.696 86.6531C174.056 86.6988 174.404 86.7849 174.731 86.9086C175.089 87.0442 175.401 87.2417 175.643 87.4858C175.885 87.737 176.016 88.0414 176.017 88.3543C176.008 88.6423 175.91 88.9245 175.729 89.1767C175.419 89.5962 174.96 89.939 174.407 90.1652C174.048 90.3217 173.674 90.455 173.286 90.5636C173.151 90.6124 173.009 90.6493 172.863 90.6735Z" fill="#263238"/>
  <path d="M176.373 92.4801C176.443 92.4491 176.516 92.4234 176.592 92.4035L177.23 92.2042C178.013 91.9712 178.771 91.6884 179.494 91.3588C179.985 91.1269 180.437 90.8489 180.84 90.5312C181.297 90.1629 181.658 89.7291 181.901 89.2541C182.177 88.7354 182.237 88.1631 182.073 87.6169C181.874 87.0341 181.445 86.5137 180.846 86.1277C180.246 85.7373 179.567 85.4258 178.836 85.2057C178.154 84.9986 177.449 84.838 176.73 84.7255C175.513 84.5239 174.269 84.4322 173.025 84.4522C172.186 84.4628 171.349 84.5235 170.522 84.6335C170.228 84.6718 170 84.705 169.861 84.7306L169.623 84.7587C169.696 84.7339 169.773 84.715 169.851 84.7025C170.003 84.6693 170.228 84.6284 170.512 84.5825C171.34 84.4526 172.18 84.3774 173.025 84.3577C174.281 84.3269 175.537 84.4126 176.767 84.6131C178.139 84.8379 179.696 85.1955 180.962 86.0332C181.588 86.4382 182.035 86.9836 182.241 87.5939C182.407 88.1666 182.342 88.7649 182.053 89.3077C181.797 89.7939 181.422 90.2371 180.949 90.6129C180.534 90.935 180.067 91.2148 179.56 91.4456C178.823 91.7716 178.049 92.0435 177.246 92.2579C176.965 92.337 176.747 92.3958 176.585 92.4341C176.517 92.4551 176.446 92.4705 176.373 92.4801Z" fill="#263238"/>
  <path d="M90.1509 12.5325C93.137 10.2253 93.137 6.48464 90.1509 4.17747C87.1648 1.87029 82.3235 1.87029 79.3374 4.17747C76.3513 6.48464 76.3513 10.2253 79.3374 12.5325C82.3235 14.8397 87.1648 14.8397 90.1509 12.5325Z" fill="#02A66A"/>
  <g opacity="0.4">
    <path d="M90.1509 12.5325C93.137 10.2253 93.137 6.48464 90.1509 4.17747C87.1648 1.87029 82.3235 1.87029 79.3374 4.17747C76.3513 6.48464 76.3513 10.2253 79.3374 12.5325C82.3235 14.8397 87.1648 14.8397 90.1509 12.5325Z" fill="white"/>
  </g>
  <path d="M137.137 3.30854C137.056 3.33259 136.972 3.35138 136.886 3.36474C136.721 3.40305 136.473 3.44136 136.162 3.51288C132.314 4.3376 128.869 6.02665 126.264 8.36589L126.195 8.42974L126.129 8.36334L125.703 7.92912C124.603 6.86085 123.279 5.94302 121.785 5.21399C119.739 4.21286 117.429 3.57756 115.025 3.35452C114.694 3.31876 114.413 3.3111 114.235 3.29577C114.142 3.29148 114.049 3.28295 113.957 3.27023C114.049 3.26409 114.142 3.26409 114.235 3.27023C114.417 3.27023 114.688 3.27023 115.031 3.30599C116.006 3.37518 116.969 3.51805 117.907 3.73254C119.305 4.05058 120.64 4.51554 121.874 5.11437C123.39 5.84366 124.732 6.76902 125.841 7.84994L126.271 8.28926H126.139C128.134 6.47473 130.657 5.05071 133.501 4.13355C134.359 3.85856 135.243 3.63483 136.145 3.46435C136.476 3.39794 136.711 3.36729 136.879 3.33919C136.964 3.32341 137.05 3.31316 137.137 3.30854Z" fill="#263238"/>
  <path d="M147.385 12.3843C147.385 12.3843 147.2 12.3102 146.856 12.1979C146.37 12.0407 145.85 11.9541 145.322 11.9424C144.543 11.9253 143.775 12.0871 143.114 12.4073C142.303 12.7993 141.694 13.3971 141.392 14.0982L141.329 14.2463L141.233 14.1084L141.18 14.0318C140.718 13.373 139.985 12.8518 139.098 12.5503C138.37 12.3067 137.568 12.2253 136.784 12.3153C136.255 12.3759 135.743 12.5072 135.273 12.7036C134.942 12.8441 134.774 12.9462 134.764 12.936C134.796 12.9048 134.834 12.8773 134.876 12.8543C134.992 12.7827 135.113 12.717 135.24 12.6576C135.708 12.4398 136.225 12.2925 136.764 12.2234C137.572 12.1161 138.402 12.1906 139.157 12.4379C140.085 12.7436 140.851 13.284 141.329 13.9705L141.382 14.0471H141.223C141.539 13.3162 142.178 12.6948 143.028 12.2924C143.717 11.9656 144.518 11.8071 145.326 11.8377C145.864 11.8558 146.391 11.9556 146.879 12.1314C147.012 12.1778 147.139 12.2325 147.26 12.2949C147.307 12.3195 147.35 12.3497 147.385 12.3843Z" fill="#263238"/>
  <path d="M127.445 53.449C129.979 53.4651 132.467 52.9248 134.619 51.8909C134.155 52.0163 133.66 52.0591 133.171 52.0161C133.832 51.8652 134.401 51.5362 134.774 51.0889C132.535 51.3882 130.262 51.5097 127.991 51.4516" fill="#263238"/>
  <path d="M117.243 55.896V60.1411L114.337 60.9074C114.337 60.9074 115.329 61.1092 115.17 61.4948C115.17 61.4948 116.053 61.3288 116.264 61.9188L117.742 60.5753V55.896H117.243Z" fill="#263238"/>
  <path d="M118.163 57.8598C118.2 57.9612 118.197 58.0691 118.152 58.1688C118.107 58.2685 118.024 58.3551 117.913 58.4166C117.802 58.4781 117.669 58.5115 117.532 58.5122C117.395 58.513 117.262 58.481 117.15 58.4207C117.038 58.3605 116.952 58.2749 116.906 58.1757C116.859 58.0765 116.854 57.9685 116.89 57.8667C116.926 57.7649 117.002 57.6742 117.107 57.6071C117.212 57.54 117.342 57.4998 117.478 57.492C117.632 57.4725 117.789 57.5 117.917 57.5686C118.045 57.6373 118.133 57.7417 118.163 57.8598Z" fill="#263238"/>
  <path d="M119.977 55.896V60.1411L117.068 60.9074C117.068 60.9074 118.06 61.1092 117.901 61.4948C117.901 61.4948 118.784 61.3288 118.999 61.9188L120.477 60.5753V55.896H119.977Z" fill="#263238"/>
  <path d="M120.893 57.8597C120.931 57.9612 120.927 58.0693 120.882 58.1691C120.838 58.2689 120.754 58.3555 120.643 58.417C120.531 58.4785 120.398 58.5118 120.261 58.5124C120.125 58.5129 119.991 58.4808 119.879 58.4202C119.767 58.3597 119.682 58.2738 119.636 58.1744C119.589 58.075 119.584 57.9669 119.621 57.8651C119.657 57.7633 119.734 57.6727 119.84 57.6059C119.945 57.5391 120.076 57.4992 120.212 57.4919C120.365 57.4725 120.522 57.5001 120.649 57.5688C120.777 57.6375 120.864 57.7419 120.893 57.8597Z" fill="#263238"/>
  <path d="M110.083 45.1914C110.083 45.1914 111.187 44.936 111.557 44.6218C111.928 44.3076 113.131 43.2246 114.708 43.5133C116.285 43.8019 117.392 44.7291 117.353 45.6588C117.313 46.5885 117.353 47.7328 117.353 47.7328L130.222 51.4901C130.222 51.4901 126.146 55.7122 121.194 55.8552C121.194 55.8552 120.731 56.3916 120.202 56.3661C119.673 56.3405 119.065 55.8552 119.065 55.8552C119.065 55.8552 115.501 56.2128 113.138 55.0328C110.774 53.8527 108.741 52.4556 108.88 50.0955C109.019 47.7354 111.683 46.1594 111.683 46.1594L110.083 45.1914Z" fill="#FAFAFA"/>
  <path d="M110.083 45.1897L111.716 46.1399L111.745 46.1577L111.716 46.1756C110.882 46.7105 110.187 47.3632 109.669 48.0989C109.33 48.5813 109.1 49.1047 108.988 49.6468C108.867 50.2672 108.92 50.9005 109.144 51.5037C109.4 52.1704 109.853 52.7823 110.466 53.2917C111.146 53.8494 111.911 54.3416 112.744 54.7578C113.17 54.9897 113.626 55.1866 114.106 55.3453C114.609 55.498 115.131 55.6127 115.663 55.6875C116.776 55.8415 117.913 55.8724 119.038 55.7795H119.078L119.107 55.7999C119.386 56.0251 119.738 56.189 120.126 56.275C120.509 56.3286 120.869 56.063 121.117 55.8101L121.144 55.782H121.187C123.111 55.7054 125.005 55.0413 126.635 54.0911C127.951 53.3316 129.132 52.442 130.149 51.445L130.188 51.5446L117.322 47.7771H117.279V47.7414C117.256 47.0262 117.253 46.3416 117.279 45.698C117.295 45.39 117.199 45.0847 117.002 44.8168C116.813 44.5641 116.565 44.3406 116.271 44.1578C115.74 43.8258 115.105 43.6073 114.43 43.5243C113.849 43.4804 113.267 43.5893 112.777 43.8334C112.383 44.0224 112.025 44.2538 111.716 44.5205C111.491 44.727 111.204 44.8868 110.879 44.9854C110.621 45.0722 110.416 45.1233 110.281 45.159C110.212 45.1768 110.141 45.1913 110.069 45.2025L110.274 45.1437C110.41 45.1054 110.605 45.0467 110.859 44.9573C111.175 44.8557 111.454 44.6951 111.669 44.4898C111.98 44.2158 112.339 43.9776 112.737 43.7823C113.237 43.5281 113.833 43.4111 114.43 43.4503C115.125 43.5314 115.781 43.7525 116.33 44.0914C116.637 44.2799 116.895 44.5112 117.091 44.7734C117.303 45.0542 117.407 45.3757 117.392 45.7005C117.365 46.3468 117.375 47.0287 117.392 47.7439L117.349 47.6954L130.241 51.4399L130.35 51.4705L130.281 51.5395C129.257 52.5473 128.065 53.4464 126.737 54.2137C125.084 55.1716 123.167 55.851 121.193 55.9276L121.259 55.8995C121.128 56.0463 120.966 56.1749 120.78 56.2801C120.687 56.3362 120.581 56.3774 120.468 56.4016C120.354 56.4257 120.236 56.4321 120.119 56.4206C119.698 56.3297 119.317 56.1533 119.015 55.9097L119.084 55.9276C117.941 56.0207 116.787 55.9872 115.656 55.828C115.115 55.7506 114.585 55.6334 114.073 55.4781C113.583 55.3136 113.117 55.1108 112.681 54.8727C111.842 54.4491 111.071 53.9492 110.387 53.3836C109.757 52.8555 109.296 52.2215 109.038 51.5318C108.814 50.9145 108.765 50.2674 108.892 49.634C109.012 49.083 109.253 48.5518 109.603 48.0632C110.131 47.3225 110.842 46.669 111.696 46.1399V46.1756C111.169 45.8538 110.769 45.6069 110.496 45.4349L110.195 45.251L110.083 45.1897Z" fill="#263238"/>
  <path d="M129.444 50.8253C127.998 49.4386 126.052 48.4139 123.853 47.8802C121.654 47.3466 119.3 47.3279 117.087 47.8266L117.186 47.7985C115.973 47.9246 114.814 48.2646 113.798 48.7921C113.368 49.0169 112.928 49.3336 112.945 49.7321C112.961 50.1305 113.338 50.3783 113.705 50.6005C115.913 51.948 118.612 52.7278 121.423 52.8304C124.233 52.933 127.015 52.3533 129.378 51.1726C129.455 51.1434 129.514 51.0921 129.543 51.0296C129.547 50.992 129.54 50.9542 129.523 50.9188C129.506 50.8835 129.479 50.8516 129.444 50.8253Z" fill="#EBEBEB"/>
  <path d="M113.997 45.0319C113.987 45.1113 113.94 45.1852 113.864 45.239C113.788 45.2928 113.688 45.3226 113.585 45.3226C113.482 45.3226 113.382 45.2928 113.306 45.239C113.23 45.1852 113.183 45.1113 113.174 45.0319C113.168 44.9877 113.175 44.9432 113.194 44.9012C113.212 44.8592 113.241 44.8206 113.28 44.7879C113.319 44.7552 113.366 44.7291 113.418 44.7112C113.471 44.6933 113.528 44.6841 113.585 44.6841C113.642 44.6841 113.699 44.6933 113.752 44.7112C113.804 44.7291 113.851 44.7552 113.89 44.7879C113.929 44.8206 113.958 44.8592 113.977 44.9012C113.995 44.9432 114.002 44.9877 113.997 45.0319Z" fill="#263238"/>
  <path d="M124.218 50.0221C124.218 50.0221 124.175 50.0553 124.079 50.1013C123.939 50.1641 123.791 50.2155 123.637 50.2546C123.083 50.3944 122.487 50.3944 121.934 50.2546L121.98 50.1422C122.06 50.1665 122.13 50.2056 122.186 50.256C122.241 50.3064 122.28 50.3665 122.298 50.4311C122.316 50.4956 122.314 50.5627 122.291 50.6263C122.268 50.69 122.225 50.7482 122.165 50.796C122.037 50.8884 121.876 50.9496 121.702 50.9723C121.529 50.995 121.351 50.9781 121.19 50.9238C121.015 50.8718 120.845 50.8077 120.684 50.7322L120.797 50.6377C120.865 50.7304 120.902 50.8345 120.906 50.941C120.909 51.0475 120.878 51.1529 120.817 51.2481C120.711 51.4219 120.524 51.5586 120.294 51.6313C119.916 51.739 119.498 51.7298 119.127 51.6057C118.894 51.5283 118.672 51.4306 118.466 51.3146C118.321 51.2354 118.245 51.1868 118.251 51.1792C118.339 51.2016 118.423 51.2334 118.499 51.2737C118.714 51.375 118.941 51.4606 119.177 51.5291C119.521 51.6317 119.901 51.6317 120.245 51.5291C120.438 51.4658 120.593 51.348 120.678 51.1996C120.728 51.1247 120.755 51.0414 120.755 50.957C120.755 50.8725 120.728 50.7893 120.678 50.7143L120.499 50.4946L120.79 50.6224C120.944 50.6925 121.104 50.7531 121.27 50.8037C121.4 50.8491 121.544 50.8649 121.685 50.849C121.826 50.8332 121.958 50.7864 122.066 50.7143C122.106 50.682 122.136 50.6428 122.153 50.5998C122.17 50.5569 122.173 50.5115 122.163 50.4674C122.152 50.4233 122.129 50.3817 122.094 50.346C122.058 50.3103 122.013 50.2816 121.96 50.2622L122.007 50.1473C122.533 50.2817 123.098 50.2941 123.633 50.183C124 50.1039 124.205 50.0068 124.218 50.0221Z" fill="#263238"/>
  <path d="M128.969 51.2833C128.969 51.2833 128.953 51.3038 128.913 51.3319C128.873 51.36 128.814 51.4059 128.731 51.4596C128.489 51.6118 128.227 51.7452 127.951 51.858C126.947 52.2692 125.796 52.4129 124.675 52.2667L124.711 52.1594C125.027 52.2442 125.303 52.3987 125.505 52.6039L125.578 52.6754L125.459 52.6984C124.471 52.8745 123.442 52.8604 122.464 52.6575L121.968 52.5553L122.483 52.5298C122.548 52.5291 122.612 52.5449 122.664 52.575C122.716 52.605 122.753 52.6475 122.771 52.6958C122.811 52.7781 122.811 52.8689 122.771 52.9512C122.713 53.0285 122.626 53.0905 122.522 53.1292C122.417 53.1679 122.3 53.1815 122.186 53.1683C119.922 52.8596 117.732 52.2851 115.693 51.4647C114.916 51.1505 114.308 50.867 113.898 50.6575C113.69 50.5554 113.538 50.4685 113.429 50.4021C113.374 50.374 113.322 50.3424 113.273 50.3076C113.336 50.3247 113.395 50.3488 113.449 50.3791L113.935 50.6039C114.351 50.798 114.969 51.0688 115.749 51.3702C116.666 51.7228 117.61 52.0308 118.576 52.2922C119.752 52.6163 120.962 52.8615 122.192 53.0253C122.368 53.0253 122.566 52.987 122.612 52.8899C122.659 52.7929 122.612 52.6345 122.497 52.6345L122.516 52.5068C123.47 52.7044 124.472 52.7211 125.435 52.5553L125.389 52.6498C125.206 52.4624 124.957 52.3197 124.672 52.2386L124.711 52.1313C125.803 52.2784 126.927 52.1541 127.921 51.7763C128.288 51.6345 128.638 51.4696 128.969 51.2833Z" fill="#263238"/>
  <path d="M114.142 44.5091C114.079 44.5313 114.012 44.5427 113.943 44.5423C113.884 44.5476 113.824 44.5476 113.765 44.5423C113.706 44.5314 113.649 44.5142 113.596 44.4913C113.532 44.4716 113.475 44.44 113.431 44.3993C113.408 44.3715 113.4 44.3382 113.408 44.306C113.416 44.2738 113.44 44.2451 113.474 44.2256C113.527 44.1896 113.591 44.1641 113.66 44.1512C113.729 44.1383 113.801 44.1384 113.87 44.1515C113.942 44.1599 114.009 44.1817 114.067 44.2152C114.125 44.2486 114.171 44.2926 114.201 44.3431C114.219 44.3716 114.223 44.4042 114.212 44.4348C114.201 44.4654 114.176 44.4918 114.142 44.5091Z" fill="#263238"/>
  <path d="M110.083 45.1924C110.083 45.1924 106.853 45.034 106.351 47.2613L106.827 47.0621C107.073 46.9576 107.346 46.8949 107.627 46.8782L111.022 46.5998L111.709 46.1604L110.083 45.1924Z" fill="#02A66A"/>
  <path d="M109.95 45.4144C109.95 45.4501 109.765 45.491 109.534 45.5191C109.302 45.5472 109.104 45.5548 109.094 45.5191C109.084 45.4833 109.263 45.4169 109.504 45.3888C109.745 45.3607 109.947 45.3786 109.95 45.4144Z" fill="#263238"/>
  <path d="M111.352 46.4081C111.105 46.4622 110.851 46.4956 110.594 46.5077C110.125 46.5511 109.474 46.6048 108.753 46.6533C108.393 46.6814 108.046 46.6942 107.745 46.7299C107.476 46.7539 107.215 46.8126 106.971 46.9036C106.754 46.9988 106.558 47.1214 106.393 47.2663C106.373 47.2663 106.482 47.0109 106.912 46.8219C107.162 46.7146 107.435 46.642 107.718 46.6073C108.033 46.5665 108.38 46.5486 108.737 46.5205C109.457 46.472 110.109 46.4336 110.585 46.4132C110.839 46.3875 111.097 46.3858 111.352 46.4081Z" fill="#263238"/>
</svg>