<svg xmlns="http://www.w3.org/2000/svg" width="44" height="48" viewBox="0 0 44 48" fill="none">
  <path d="M41.1032 23.0322C40.7473 22.5871 32.2806 12.119 21.6003 12.119C10.9201 12.119 2.45332 22.5869 2.09751 23.0322C1.91802 23.2563 1.91802 23.5733 2.09751 23.7974C2.45342 24.2425 10.9201 34.7106 21.6003 34.7106C32.2806 34.7106 40.7474 24.2427 41.1032 23.7974C41.2827 23.5733 41.2827 23.2563 41.1032 23.0322ZM21.6003 33.479C12.6414 33.479 5.02765 25.2991 3.3939 23.415C5.02772 21.5309 12.6414 13.351 21.6003 13.351C30.5592 13.351 38.173 21.5309 39.8068 23.415C38.173 25.2992 30.5592 33.479 21.6003 33.479ZM21.6003 15.4045C17.1562 15.4045 13.5388 18.9975 13.5388 23.415C13.5388 27.831 17.1547 31.4256 21.6003 31.4256C26.0444 31.4256 29.6619 27.8326 29.6619 23.415C29.6619 18.999 26.046 15.4045 21.6003 15.4045ZM21.6003 30.1928C17.8388 30.1928 14.7799 27.1516 14.7799 23.4154C14.7799 19.6776 17.8404 16.638 21.6003 16.638C25.3619 16.638 28.4208 19.6792 28.4208 23.4154C28.4208 27.1532 25.3603 30.1928 21.6003 30.1928ZM24.3157 20.8332C24.1485 20.8118 23.9843 20.8591 23.8539 20.9597C23.6913 21.0862 23.4781 21.1563 23.2541 21.1563C22.6834 21.1563 22.2201 20.696 22.2201 20.1289C22.2201 19.789 21.9425 19.5131 21.6004 19.5131C19.4343 19.5131 17.6731 21.2631 17.6731 23.4155C17.6731 25.5679 19.4343 27.3179 21.6004 27.3179C23.7665 27.3179 25.5277 25.5679 25.5277 23.4155C25.5277 22.5603 25.2531 21.7509 24.7315 21.071C24.6302 20.9399 24.4814 20.8545 24.3157 20.8332ZM21.6003 26.0862C20.1184 26.0862 18.9126 24.8881 18.9126 23.4155C18.9126 22.1198 19.8469 21.0359 21.0803 20.7951C21.3671 21.7158 22.2324 22.3881 23.2525 22.3881C23.5164 22.3881 23.7756 22.3423 24.0165 22.257C24.1929 22.6152 24.2849 23.0085 24.2849 23.4155C24.2849 24.8881 23.0792 26.0863 21.5972 26.0863L21.6003 26.0862ZM20.9806 8.6275V6.98423C20.9806 6.64429 21.2583 6.36838 21.6003 6.36838C21.9424 6.36838 22.2201 6.6443 22.2201 6.98423V8.6275C22.2201 8.96744 21.9424 9.24335 21.6003 9.24335C21.2583 9.24335 20.9806 8.96743 20.9806 8.6275ZM26.6492 9.49182L27.2736 7.97049C27.4024 7.65494 27.7645 7.50251 28.082 7.63207C28.3996 7.76012 28.5515 8.11988 28.4226 8.43543L27.7982 9.95676C27.7001 10.1961 27.4684 10.3409 27.2245 10.3409C27.1463 10.3409 27.068 10.3272 26.9913 10.2952C26.6738 10.1671 26.5219 9.80737 26.6508 9.49182H26.6492ZM14.7782 8.43543C14.6494 8.11988 14.8013 7.76011 15.1188 7.63207C15.4364 7.50097 15.7969 7.65493 15.9273 7.97048L16.5516 9.49181C16.6805 9.80736 16.5286 10.1671 16.2111 10.2952C16.1344 10.3272 16.0546 10.3409 15.9779 10.3409C15.734 10.3409 15.5008 10.1961 15.4041 9.95675L14.7798 8.43543H14.7782ZM22.22 38.2036V39.8469C22.22 40.1868 21.9424 40.4627 21.6003 40.4627C21.2582 40.4627 20.9805 40.1868 20.9805 39.8469V38.2036C20.9805 37.8637 21.2582 37.5878 21.6003 37.5878C21.9424 37.5878 22.22 37.8637 22.22 38.2036ZM28.4224 38.3957C28.5512 38.7112 28.3994 39.071 28.0818 39.1991C28.0051 39.2311 27.9253 39.2448 27.8486 39.2448C27.6047 39.2448 27.3715 39.1 27.2749 38.8606L26.6505 37.3393C26.5217 37.0238 26.6735 36.664 26.9911 36.536C27.3087 36.4079 27.6707 36.5588 27.7996 36.8744L28.4239 38.3957H28.4224ZM3.61771 10.2708V6.16272C3.61771 5.82278 3.89538 5.54688 4.23748 5.54688H8.37172C8.71382 5.54688 8.99148 5.82279 8.99148 6.16272C8.99148 6.50266 8.71381 6.77856 8.37172 6.77856H4.85712V10.2709C4.85712 10.6109 4.57945 10.8868 4.23736 10.8868C3.89526 10.8868 3.61771 10.6107 3.61771 10.2708ZM34.2092 6.16272C34.2092 5.82278 34.4869 5.54688 34.829 5.54688H38.9632C39.3053 5.54688 39.583 5.82279 39.583 6.16272V10.2708C39.583 10.6108 39.3053 10.8867 38.9632 10.8867C38.6211 10.8867 38.3434 10.6107 38.3434 10.2708V6.77845H34.8289C34.4868 6.77845 34.2092 6.50265 34.2092 6.16272ZM8.9918 40.6689C8.9918 41.0088 8.71413 41.2847 8.37203 41.2847H4.23779C3.89569 41.2847 3.61803 41.0088 3.61803 40.6689V36.5608C3.61803 36.2208 3.8957 35.9449 4.23779 35.9449C4.57989 35.9449 4.85755 36.2208 4.85755 36.5608V40.0531H8.37215C8.71425 40.0531 8.9918 40.3289 8.9918 40.6689ZM39.5833 36.5608V40.6689C39.5833 41.0088 39.3056 41.2847 38.9635 41.2847H34.8293C34.4872 41.2847 34.2095 41.0088 34.2095 40.6689C34.2095 40.3289 34.4872 40.053 34.8293 40.053H38.3439V36.5607C38.3439 36.2207 38.6215 35.9448 38.9636 35.9448C39.3057 35.9448 39.5833 36.2208 39.5833 36.5608ZM16.5518 37.3397L15.9274 38.8611C15.8293 39.1004 15.5976 39.2452 15.3537 39.2452C15.2755 39.2452 15.1972 39.2315 15.1205 39.1995C14.803 39.0714 14.6511 38.7117 14.78 38.3961L15.4043 36.8748C15.5332 36.5592 15.8952 36.4083 16.2128 36.5364C16.5303 36.6644 16.6822 37.0242 16.5533 37.3397H16.5518Z" fill="#070D0D"/>
</svg>