<svg width="44" height="49" viewBox="0 0 44 49" fill="none" xmlns="http://www.w3.org/2000/svg">
<path d="M40.4027 28.2882L38.4988 26.7513C37.8032 26.1897 36.7757 26.2931 36.2088 26.9817L35.7133 27.5834L32.3852 24.881C32.509 24.6232 32.5888 24.3404 32.6126 24.0458C32.6633 23.4253 32.4707 22.8066 32.085 22.348C31.8853 22.1106 31.6402 21.919 31.3682 21.7811C31.7993 21.0856 31.8707 20.2133 31.5732 19.5989C31.1694 18.7645 30.5055 18.456 29.9787 18.3221C30.5293 17.5475 31.0411 16.43 30.0255 15.2221C29.6301 14.7517 29.1015 14.4738 28.5518 14.4C28.7916 13.7097 28.7427 12.9557 28.2234 12.3116C27.869 11.8722 27.3065 11.5837 26.6792 11.5205C26.0524 11.4576 25.4573 11.6256 24.9993 11.9922L22.141 11.0549C21.3581 10.7987 20.6559 10.8341 20.0524 11.1613C19.4944 11.4642 19.0522 12.0035 18.7326 12.7693L17.8127 12C17.3542 11.6165 16.7701 11.4323 16.1693 11.4834C15.568 11.5336 15.0236 11.8111 14.6361 12.2649C14.2491 12.7187 14.0635 13.2965 14.1142 13.8912C14.1283 14.0566 14.1618 14.2172 14.2103 14.3717C13.6725 14.4537 13.1885 14.719 12.8358 15.1344C12.2597 15.8125 12.1636 16.7346 12.5083 17.4952C12.0644 17.6108 11.6681 17.8565 11.3675 18.2117C10.6578 19.0499 10.6776 20.263 11.3578 21.0812C10.9968 21.213 10.6745 21.4346 10.421 21.7353C9.81757 22.4509 9.74307 23.4402 10.1548 24.2243L6.9095 26.8992C6.32983 26.2909 5.36665 26.2146 4.70278 26.7509L2.79845 28.2877C2.10328 28.8489 1.99837 29.8656 2.5657 30.5542L10.5744 40.2773C10.8482 40.6098 11.2379 40.8175 11.6712 40.8607C11.7276 40.8664 11.784 40.8694 11.84 40.8694C12.2134 40.8694 12.5722 40.7437 12.864 40.5081L14.7684 38.9712C15.4635 38.4101 15.5689 37.3929 15.0016 36.7048L13.9943 35.4816L19.4525 31.1546C19.7328 31.1848 20.0075 31.2175 20.2764 31.2498C21.1598 31.3554 22.022 31.4566 22.8666 31.4265L28.6686 36.1379L28.2018 36.7048C27.6349 37.3929 27.7394 38.4101 28.4346 38.9712L30.3389 40.5081C30.6311 40.7442 30.99 40.8698 31.3633 40.8698C31.4193 40.8698 31.4758 40.8672 31.5322 40.8611C31.9655 40.8175 32.3552 40.6102 32.6289 40.2777L40.6377 30.5542C41.2028 29.8661 41.0979 28.8493 40.4027 28.2882ZM20.6167 12.1829C20.9266 12.0149 21.3039 12.0074 21.7707 12.1606L23.9325 12.8697L21.3736 14.9786L19.6883 13.5696C19.9153 12.8675 20.2327 12.391 20.6167 12.1829ZM15.5336 13.0163C15.7465 12.7667 16.0512 12.638 16.358 12.638C16.6039 12.638 16.8512 12.7205 17.0527 12.8898L20.8243 16.0434C21.043 16.2262 21.1765 16.4841 21.2008 16.769C21.2255 17.0544 21.1368 17.3306 20.9521 17.5475C20.7674 17.764 20.5074 17.8962 20.2191 17.9202C19.9308 17.9433 19.6517 17.8569 19.4331 17.6736L15.6615 14.52C15.4433 14.3372 15.3088 14.0797 15.2846 13.7944C15.2603 13.509 15.3494 13.2328 15.5336 13.0163ZM13.7347 15.8845C13.9189 15.6681 14.1781 15.5359 14.4647 15.5119C14.7494 15.4888 15.0293 15.576 15.2471 15.7584L18.3588 18.3722C18.8129 18.7536 18.8706 19.4317 18.4867 19.8829C18.3033 20.0994 18.0436 20.2316 17.7571 20.2556C17.4679 20.2805 17.1924 20.1919 16.9747 20.009L16.823 19.8816L14.5356 17.9498C14.4898 17.911 14.4413 17.8757 14.3932 17.8408L13.8625 17.3952C13.4089 17.0134 13.3512 16.3357 13.7347 15.8845ZM12.2681 18.96C12.451 18.7436 12.7093 18.6114 12.9945 18.5878C13.0249 18.5852 13.0554 18.5843 13.0853 18.5843C13.3049 18.5843 13.5138 18.6541 13.6928 18.7789L16.0736 20.7788L16.2557 20.9324C16.7102 21.316 16.7675 21.9971 16.384 22.4505C16.201 22.6669 15.9427 22.7992 15.6575 22.8227C15.3776 22.8463 15.106 22.7603 14.8909 22.5836L13.5865 21.4757C13.5544 21.4482 13.52 21.4242 13.486 21.3984L12.3968 20.4781C11.9419 20.0941 11.8841 19.4134 12.2681 18.96ZM11.323 22.4819C11.5055 22.2655 11.762 22.1337 12.0463 22.1101C12.3091 22.0883 12.5621 22.1664 12.7697 22.3226L14.116 23.4598C14.1243 23.4668 14.1332 23.4729 14.1415 23.4794L14.808 24.0454C15.2621 24.4312 15.3194 25.1154 14.9354 25.5701C14.7529 25.7865 14.4964 25.9183 14.2125 25.9418C13.9295 25.9645 13.6536 25.8768 13.4376 25.6936L11.4508 24.0061C10.9963 23.6208 10.939 22.9366 11.323 22.4819ZM14.0238 38.0697L12.1195 39.6066C12.0269 39.6812 11.9079 39.7161 11.7889 39.7034C11.6681 39.6912 11.5597 39.6341 11.4843 39.5424L3.47598 29.8194C3.31861 29.6282 3.34771 29.3459 3.54078 29.1901L5.44511 27.6533C5.52843 27.5856 5.62981 27.5529 5.72988 27.5529C5.8608 27.5529 5.99128 27.6092 6.08033 27.7174L6.38537 28.0879C6.38537 28.0879 6.38537 28.0883 6.38581 28.0883C6.38581 28.0883 6.38581 28.0883 6.38625 28.0888L12.7027 35.7578C12.7032 35.7583 12.7032 35.7587 12.7036 35.7592C12.704 35.7596 12.7045 35.76 12.7049 35.7605L14.0891 37.4409C14.246 37.6316 14.2169 37.9139 14.0238 38.0697ZM20.4161 30.0947C20.0639 30.0528 19.7029 30.0096 19.3308 29.9725C19.1779 29.9564 19.0245 30.0022 18.9046 30.0973L13.2498 34.5801L7.66109 27.7946L10.9315 25.0992L12.6723 26.5776C13.0805 26.9245 13.5892 27.1104 14.1213 27.1104C14.1839 27.1104 14.2469 27.1078 14.3099 27.1026C14.9099 27.0533 15.4525 26.7744 15.8387 26.3171C16.4206 25.6272 16.51 24.6834 16.1472 23.9141C16.5903 23.798 16.9857 23.5528 17.2859 23.198C17.7188 22.6861 17.8788 22.0351 17.7849 21.4189C17.8087 21.4176 17.8325 21.4181 17.8563 21.4159C18.4571 21.3657 19.0011 21.0877 19.3872 20.6326C19.7716 20.1805 19.9414 19.6189 19.9109 19.07C19.9824 19.0765 20.0524 19.0883 20.1247 19.0883C20.1891 19.0883 20.2539 19.0857 20.3187 19.0805C20.92 19.0303 21.4644 18.7528 21.8514 18.2989C22.2384 17.8451 22.4245 17.2674 22.3738 16.6722C22.3491 16.3842 22.2697 16.1101 22.1437 15.8597L25.7284 12.905C25.9413 12.7301 26.245 12.648 26.5602 12.6799C26.8701 12.7113 27.1483 12.8453 27.3048 13.039C27.7561 13.5984 27.4022 14.4009 26.8194 14.904C26.577 15.1135 26.5496 15.4774 26.7586 15.72C26.9671 15.9626 27.3343 15.9936 27.582 15.7898C28.0418 15.4106 28.7189 15.4883 29.1218 15.9683C29.7094 16.6669 29.4198 17.1788 28.6682 18.103L28.6175 18.1654C28.3592 18.484 28.4125 18.7628 28.4672 18.9002C28.6188 19.2816 29.0085 19.3379 29.2933 19.3789C29.8042 19.4522 30.249 19.5574 30.513 20.1033C30.6695 20.4262 30.5575 21.2618 29.9144 21.6048C29.6702 21.7349 29.5516 22.0159 29.6287 22.2794C29.7059 22.543 29.9563 22.7184 30.2349 22.6979C30.595 22.6717 30.9516 22.8205 31.1817 23.0941C31.3726 23.3206 31.4669 23.6339 31.4409 23.9533C31.4154 24.2706 31.2725 24.5577 31.0495 24.7418L25.5455 29.2761C24.0286 30.5267 22.4342 30.336 20.4161 30.0947ZM24.4209 31.1848C25.0566 30.9945 25.6821 30.6777 26.2979 30.1702L31.6314 25.7747L34.9697 28.4854L29.4101 35.236L24.4209 31.1848ZM39.7243 29.8194L31.716 39.5429C31.6406 39.6345 31.5326 39.6917 31.4114 39.7039C31.2915 39.7165 31.1729 39.6816 31.0803 39.607L29.176 38.0701C28.9829 37.9144 28.9543 37.632 29.1117 37.4409L37.1195 27.7178C37.2778 27.5263 37.5625 27.4979 37.7556 27.6537L39.6595 29.1906C39.8526 29.3459 39.8817 29.6282 39.7243 29.8194ZM20.5916 6.37268V3.47566C20.5916 3.15406 20.8547 2.89355 21.1796 2.89355C21.5045 2.89355 21.7677 3.15406 21.7677 3.47566V6.37268C21.7677 6.69428 21.5045 6.95479 21.1796 6.95479C20.8547 6.95479 20.5916 6.69385 20.5916 6.37268ZM11.2436 6.66068C11.0814 6.38228 11.1779 6.02621 11.4587 5.86563C11.7404 5.70417 12.0992 5.80017 12.2619 6.07857L13.725 8.58766C13.8872 8.86606 13.7906 9.22214 13.5098 9.38272C13.4173 9.43552 13.3159 9.46083 13.2167 9.46083C13.0135 9.46083 12.816 9.35654 12.7067 9.16977L11.2436 6.66068ZM4.54144 13.2511C4.70366 12.9727 5.06248 12.8767 5.3446 13.0381L7.8793 14.4864C8.16054 14.647 8.25664 15.0031 8.09442 15.2815C7.98509 15.4682 7.78805 15.5725 7.58439 15.5725C7.48477 15.5725 7.38382 15.5472 7.29125 15.4944L4.75656 14.0461C4.47576 13.8851 4.37966 13.5295 4.54144 13.2511ZM35.0067 14.0086C34.8445 13.7302 34.941 13.3746 35.2218 13.2136L37.7565 11.7648C38.0382 11.6038 38.397 11.6994 38.5597 11.9778C38.7219 12.2562 38.6254 12.6118 38.3446 12.7728L35.8099 14.2216C35.7173 14.2744 35.6159 14.2997 35.5167 14.2997C35.3135 14.2997 35.116 14.1954 35.0067 14.0086ZM28.8326 7.85283L30.2957 5.34374C30.4579 5.06534 30.8167 4.96934 31.0989 5.13079C31.3801 5.29137 31.4762 5.64745 31.314 5.92585L29.8509 8.43494C29.742 8.6217 29.5445 8.72599 29.3409 8.72599C29.2413 8.72599 29.1403 8.70068 29.0477 8.64788C28.7669 8.4873 28.6704 8.13123 28.8326 7.85283Z" fill="black"/>
</svg>
