<svg width="582" height="551" viewBox="0 0 582 551" fill="none" xmlns="http://www.w3.org/2000/svg">
<path d="M502.041 26.0806H273.859V342.016H502.041V26.0806Z" stroke="#263238" stroke-linecap="round" stroke-linejoin="round"/>
<path d="M387.95 26.2651V343.124" stroke="#263238" stroke-linecap="round" stroke-linejoin="round"/>
<path d="M502.237 184.7H273.675" stroke="#263238" stroke-linecap="round" stroke-linejoin="round"/>
<path d="M502.237 105.36H273.675" stroke="#263238" stroke-linecap="round" stroke-linejoin="round"/>
<path d="M502.237 264.041H273.675" stroke="#263238" stroke-linecap="round" stroke-linejoin="round"/>
<path d="M460.648 141.979L438.408 163.358" stroke="#263238" stroke-linecap="round" stroke-linejoin="round"/>
<path d="M493.725 110.169L467.155 135.718" stroke="#263238" stroke-linecap="round" stroke-linejoin="round"/>
<path d="M436.797 153.173L429.736 159.963" stroke="#263238" stroke-linecap="round" stroke-linejoin="round"/>
<path d="M467.131 123.996L441.656 148.487" stroke="#263238" stroke-linecap="round" stroke-linejoin="round"/>
<path d="M337.246 69.6381L315.006 91.017" stroke="#263238" stroke-linecap="round" stroke-linejoin="round"/>
<path d="M370.323 37.8279L343.753 63.3891" stroke="#263238" stroke-linecap="round" stroke-linejoin="round"/>
<path d="M313.394 80.8318L306.334 87.6219" stroke="#263238" stroke-linecap="round" stroke-linejoin="round"/>
<path d="M343.728 51.6664L318.253 76.1451" stroke="#263238" stroke-linecap="round" stroke-linejoin="round"/>
<path d="M455.322 226.019L433.094 247.398" stroke="#263238" stroke-linecap="round" stroke-linejoin="round"/>
<path d="M488.411 194.209L461.829 219.77" stroke="#263238" stroke-linecap="round" stroke-linejoin="round"/>
<path d="M431.47 237.213L424.41 244.003" stroke="#263238" stroke-linecap="round" stroke-linejoin="round"/>
<path d="M461.817 208.047L436.342 232.526" stroke="#263238" stroke-linecap="round" stroke-linejoin="round"/>
<path d="M465.359 312.248L464.4 304.031C464.4 304.031 460.033 304.277 458.348 300.476C457.327 298.176 456.294 293.514 457.794 291.214C458.232 290.495 458.869 289.92 459.629 289.558C460.388 289.195 461.236 289.062 462.07 289.174C462.904 289.287 463.687 289.639 464.323 290.189C464.96 290.739 465.423 291.463 465.655 292.272C466.823 295.605 467.401 297.032 467.401 297.032C467.118 292.198 463.477 272.726 474.437 275.69C478.89 276.92 480.108 281.201 480.305 284.596C480.502 287.991 480.047 296.786 480.047 296.786C480.047 296.786 482.987 297.106 483.183 292.222C483.38 287.339 488.104 285.125 490.207 287.437C492.311 289.75 493.258 297.967 490.97 300.538C488.682 303.109 481.437 304.007 481.437 304.007L481.916 312.261L465.359 312.248Z" fill="#65B47B" stroke="#263238" stroke-linecap="round" stroke-linejoin="round"/>
<path d="M471.657 277.043C471.657 277.043 469.849 278.692 470.341 284.301C470.833 289.91 470.833 299.947 470.833 299.947" stroke="#263238" stroke-width="0.5" stroke-linecap="round" stroke-linejoin="round"/>
<path d="M476.443 280.832C476.443 280.832 478.583 280.512 477.919 285.617C477.561 289.89 477.561 294.186 477.919 298.459" stroke="#263238" stroke-width="0.5" stroke-linecap="round" stroke-linejoin="round"/>
<path d="M460.943 291.706C460.943 291.706 458.803 292.198 459.799 295.667C460.796 299.136 461.116 301.756 463.416 302.26C464.445 302.515 465.495 302.68 466.553 302.752L466.885 306.368" stroke="#263238" stroke-width="0.5" stroke-linecap="round" stroke-linejoin="round"/>
<path d="M481.707 302.088C481.707 302.088 488.46 302.26 489.777 299.455C491.093 296.651 490.281 291.878 490.281 291.878" stroke="#263238" stroke-width="0.5" stroke-linecap="round" stroke-linejoin="round"/>
<path d="M463.748 292.616C463.748 292.73 463.714 292.842 463.651 292.937C463.587 293.032 463.497 293.106 463.391 293.15C463.285 293.194 463.169 293.205 463.057 293.183C462.945 293.161 462.842 293.106 462.761 293.025C462.68 292.944 462.625 292.841 462.603 292.729C462.58 292.617 462.592 292.501 462.636 292.395C462.679 292.289 462.754 292.199 462.849 292.135C462.944 292.072 463.055 292.038 463.17 292.038C463.246 292.038 463.321 292.053 463.391 292.082C463.461 292.111 463.525 292.154 463.579 292.207C463.632 292.261 463.675 292.325 463.704 292.395C463.733 292.465 463.748 292.54 463.748 292.616Z" stroke="#263238" stroke-width="0.5" stroke-linecap="round" stroke-linejoin="round"/>
<path d="M465.15 299.861C465.47 299.861 465.728 299.603 465.728 299.283C465.728 298.964 465.47 298.705 465.15 298.705C464.831 298.705 464.572 298.964 464.572 299.283C464.572 299.603 464.831 299.861 465.15 299.861Z" stroke="#263238" stroke-width="0.5" stroke-linecap="round" stroke-linejoin="round"/>
<path d="M462.272 297.143C462.591 297.143 462.85 296.884 462.85 296.565C462.85 296.245 462.591 295.987 462.272 295.987C461.953 295.987 461.694 296.245 461.694 296.565C461.694 296.884 461.953 297.143 462.272 297.143Z" stroke="#263238" stroke-width="0.5" stroke-linecap="round" stroke-linejoin="round"/>
<path d="M473.97 290.316C474.289 290.316 474.548 290.057 474.548 289.738C474.548 289.418 474.289 289.16 473.97 289.16C473.651 289.16 473.392 289.418 473.392 289.738C473.392 290.057 473.651 290.316 473.97 290.316Z" stroke="#263238" stroke-width="0.5" stroke-linecap="round" stroke-linejoin="round"/>
<path d="M468.533 284.707C468.852 284.707 469.111 284.448 469.111 284.129C469.111 283.809 468.852 283.55 468.533 283.55C468.214 283.55 467.955 283.809 467.955 284.129C467.955 284.448 468.214 284.707 468.533 284.707Z" stroke="#263238" stroke-width="0.5" stroke-linecap="round" stroke-linejoin="round"/>
<path d="M476.442 304.228C476.442 304.343 476.409 304.454 476.345 304.549C476.282 304.644 476.191 304.719 476.086 304.762C475.98 304.806 475.864 304.818 475.752 304.795C475.639 304.773 475.536 304.718 475.456 304.637C475.375 304.556 475.32 304.453 475.297 304.341C475.275 304.229 475.286 304.113 475.33 304.007C475.374 303.901 475.448 303.811 475.543 303.747C475.638 303.684 475.75 303.65 475.864 303.65C476.018 303.65 476.165 303.711 476.273 303.819C476.382 303.928 476.442 304.075 476.442 304.228Z" stroke="#263238" stroke-width="0.5" stroke-linecap="round" stroke-linejoin="round"/>
<path d="M470.181 303.404C470.181 303.518 470.147 303.63 470.084 303.725C470.02 303.82 469.93 303.894 469.824 303.938C469.719 303.982 469.603 303.993 469.49 303.971C469.378 303.949 469.275 303.894 469.194 303.813C469.114 303.732 469.059 303.629 469.036 303.517C469.014 303.405 469.025 303.288 469.069 303.183C469.113 303.077 469.187 302.987 469.282 302.923C469.377 302.86 469.489 302.826 469.603 302.826C469.757 302.826 469.904 302.887 470.012 302.995C470.12 303.104 470.181 303.251 470.181 303.404Z" stroke="#263238" stroke-width="0.5" stroke-linecap="round" stroke-linejoin="round"/>
<path d="M474.954 279.442C475.273 279.442 475.532 279.183 475.532 278.864C475.532 278.544 475.273 278.286 474.954 278.286C474.635 278.286 474.376 278.544 474.376 278.864C474.376 279.183 474.635 279.442 474.954 279.442Z" stroke="#263238" stroke-width="0.5" stroke-linecap="round" stroke-linejoin="round"/>
<path d="M487.23 289.812C487.23 289.926 487.196 290.038 487.133 290.133C487.069 290.228 486.979 290.302 486.873 290.346C486.768 290.389 486.652 290.401 486.539 290.379C486.427 290.356 486.324 290.301 486.243 290.22C486.163 290.139 486.107 290.036 486.085 289.924C486.063 289.812 486.074 289.696 486.118 289.59C486.162 289.485 486.236 289.394 486.331 289.331C486.426 289.267 486.538 289.233 486.652 289.233C486.806 289.233 486.953 289.294 487.061 289.403C487.169 289.511 487.23 289.658 487.23 289.812Z" stroke="#263238" stroke-width="0.5" stroke-linecap="round" stroke-linejoin="round"/>
<path d="M485.164 298.225C485.483 298.225 485.742 297.967 485.742 297.647C485.742 297.328 485.483 297.069 485.164 297.069C484.845 297.069 484.586 297.328 484.586 297.647C484.586 297.967 484.845 298.225 485.164 298.225Z" stroke="#263238" stroke-width="0.5" stroke-linecap="round" stroke-linejoin="round"/>
<path d="M474.954 298.053C475.273 298.053 475.532 297.794 475.532 297.475C475.532 297.156 475.273 296.897 474.954 296.897C474.635 296.897 474.376 297.156 474.376 297.475C474.376 297.794 474.635 298.053 474.954 298.053Z" stroke="#263238" stroke-width="0.5" stroke-linecap="round" stroke-linejoin="round"/>
<path d="M488.079 306.922H458.434L461.399 331.229H485.115L488.079 306.922Z" fill="white" stroke="#263238" stroke-linecap="round" stroke-linejoin="round"/>
<path d="M46.7849 262.11L69.4801 479.503" stroke="#263238" stroke-width="2" stroke-miterlimit="10"/>
<path d="M65.8144 437.902L55.5309 427.04" stroke="#263238" stroke-width="2" stroke-miterlimit="10"/>
<path d="M58.6553 430.288C58.6395 428.629 58.2691 426.992 57.569 425.488C56.8689 423.984 55.8552 422.647 54.596 421.566C51.9636 419.205 38.0636 413.362 36.7474 418.257C35.2713 423.584 49.5034 434.039 58.6553 430.288Z" fill="#65B47B" stroke="#263238" stroke-miterlimit="10"/>
<path d="M58.6553 430.288L45.4318 422.046" stroke="#263238" stroke-width="0.5" stroke-miterlimit="10"/>
<path d="M68.3976 462.627L58.114 451.765" stroke="#263238" stroke-width="2" stroke-miterlimit="10"/>
<path d="M61.2385 455.012C61.2181 453.35 60.842 451.712 60.1354 450.208C59.4289 448.703 58.4083 447.368 57.1423 446.291C54.5099 443.929 40.6099 438.086 39.2937 442.982C37.8545 448.308 52.1358 458.813 61.2385 455.012Z" fill="#65B47B" stroke="#263238" stroke-miterlimit="10"/>
<path d="M61.2384 455.012L48.015 446.771" stroke="#263238" stroke-width="0.5" stroke-miterlimit="10"/>
<path d="M59.5163 377.566L49.2328 366.704" stroke="#263238" stroke-width="2" stroke-miterlimit="10"/>
<path d="M52.3572 369.964C52.3378 368.301 51.9633 366.662 51.259 365.156C50.5547 363.65 49.5368 362.311 48.2733 361.23C45.6286 358.881 31.7286 353.026 30.4124 357.946C28.9855 363.248 43.2054 373.704 52.3572 369.964Z" fill="#65B47B" stroke="#263238" stroke-miterlimit="10"/>
<path d="M52.3572 369.964L39.1338 361.722" stroke="#263238" stroke-width="0.5" stroke-miterlimit="10"/>
<path d="M62.0995 402.291L51.816 391.429" stroke="#263238" stroke-width="2" stroke-miterlimit="10"/>
<path d="M54.9404 394.689C54.9202 393.025 54.5442 391.385 53.8377 389.879C53.1312 388.372 52.1105 387.035 50.8442 385.955C48.2118 383.606 34.3118 377.763 32.9956 382.646C31.5564 387.973 45.7762 398.428 54.9404 394.689Z" fill="#65B47B" stroke="#263238" stroke-miterlimit="10"/>
<path d="M54.9404 394.689L41.7169 386.447" stroke="#263238" stroke-width="0.5" stroke-miterlimit="10"/>
<path d="M55.334 337.404L45.0505 326.542" stroke="#263238" stroke-width="2" stroke-miterlimit="10"/>
<path d="M48.1749 329.802C48.1516 328.138 47.7742 326.499 47.0679 324.993C46.3616 323.488 45.3426 322.149 44.0787 321.068C41.434 318.719 27.5463 312.863 26.2178 317.759C24.7909 323.085 39.0108 333.541 48.1749 329.802Z" fill="#65B47B" stroke="#263238" stroke-miterlimit="10"/>
<path d="M48.1749 329.802L34.9392 321.56" stroke="#263238" stroke-width="0.5" stroke-miterlimit="10"/>
<path d="M51.1148 297.069L40.8313 286.207" stroke="#263238" stroke-width="2" stroke-miterlimit="10"/>
<path d="M43.9557 289.455C43.9316 287.791 43.5513 286.152 42.8405 284.648C42.1296 283.143 41.1048 281.809 39.8349 280.733C37.1903 278.372 23.2903 272.529 21.9741 277.424C20.5841 282.751 34.8039 293.194 43.9557 289.455Z" fill="#65B47B" stroke="#263238" stroke-miterlimit="10"/>
<path d="M43.9557 289.455L30.7323 281.213" stroke="#263238" stroke-width="0.5" stroke-miterlimit="10"/>
<path d="M64.0923 423.276L71.9156 410.52" stroke="#263238" stroke-width="2" stroke-miterlimit="10"/>
<path d="M69.5293 414.346C69.2062 412.717 69.2355 411.037 69.6153 409.421C69.9951 407.804 70.7165 406.287 71.7311 404.972C73.8223 402.119 86.2093 393.533 88.5095 398.047C91.0189 402.955 79.2593 416.117 69.5293 414.346Z" fill="#65B47B" stroke="#263238" stroke-miterlimit="10"/>
<path d="M69.5293 414.346L81.4365 402.967" stroke="#263238" stroke-width="0.5" stroke-miterlimit="10"/>
<path d="M57.3022 358.204L65.1255 345.461" stroke="#263238" stroke-width="2" stroke-miterlimit="10"/>
<path d="M62.7392 349.335C62.4158 347.705 62.445 346.023 62.8248 344.405C63.2046 342.786 63.9261 341.267 64.941 339.95C67.0322 337.096 79.4192 328.51 81.7194 333.025C84.2288 337.896 72.4692 351.058 62.7392 349.335Z" fill="#65B47B" stroke="#263238" stroke-miterlimit="10"/>
<path d="M62.7392 349.286L74.6464 337.896" stroke="#263238" stroke-width="0.5" stroke-miterlimit="10"/>
<path d="M54.3131 329.617L62.1364 316.861" stroke="#263238" stroke-width="2" stroke-miterlimit="10"/>
<path d="M59.7501 320.699C59.4302 319.066 59.4634 317.384 59.8474 315.765C60.2314 314.146 60.9574 312.628 61.9765 311.313C64.08 308.46 76.467 299.874 78.7673 304.388C81.2397 309.296 69.4801 322.458 59.7501 320.699Z" fill="#65B47B" stroke="#263238" stroke-miterlimit="10"/>
<path d="M59.7501 320.699L71.6573 309.308" stroke="#263238" stroke-width="0.5" stroke-miterlimit="10"/>
<path d="M49.9463 287.696L57.7573 274.952" stroke="#263238" stroke-width="2" stroke-miterlimit="10"/>
<path d="M55.371 278.778C55.0485 277.146 55.0793 275.464 55.4612 273.845C55.8432 272.226 56.5674 270.708 57.5851 269.392C59.6763 266.538 72.0633 257.952 74.3635 262.467C76.8606 267.387 65.1133 280.549 55.371 278.778Z" fill="#65B47B" stroke="#263238" stroke-miterlimit="10"/>
<path d="M55.3709 278.778L67.2905 267.387" stroke="#263238" stroke-width="0.5" stroke-miterlimit="10"/>
<path d="M46.6004 260.904C46.2771 259.273 46.3063 257.592 46.6861 255.973C47.0658 254.355 47.7874 252.836 48.8023 251.519C50.8934 248.665 63.2804 240.079 65.5807 244.593C68.127 249.502 56.3304 262.663 46.6004 260.904Z" fill="#65B47B" stroke="#263238" stroke-miterlimit="10"/>
<path d="M46.6004 260.904L58.5076 249.514" stroke="#263238" stroke-width="0.5" stroke-miterlimit="10"/>
<path d="M47.2893 261.396C45.6327 261.543 43.964 261.335 42.3943 260.785C40.8247 260.236 39.3902 259.358 38.1866 258.21C35.5665 255.836 28.3459 242.613 33.0571 240.792C38.2112 238.824 50.0693 251.9 47.2893 261.396Z" fill="#65B47B" stroke="#263238" stroke-miterlimit="10"/>
<path d="M47.2893 261.396L37.2148 248.358" stroke="#263238" stroke-width="0.5" stroke-miterlimit="10"/>
<path d="M106.629 292.05L84.0689 509.456" stroke="#263238" stroke-width="2" stroke-miterlimit="10"/>
<path d="M89.0507 467.99L81.2274 455.246" stroke="#263238" stroke-width="2" stroke-miterlimit="10"/>
<path d="M83.6138 459.072C83.9362 457.44 83.9054 455.758 83.5235 454.139C83.1415 452.52 82.4174 451.002 81.3996 449.686C79.3084 446.845 66.9092 438.259 64.6212 442.773C62.1118 447.743 73.8838 460.843 83.6138 459.072Z" fill="#65B47B" stroke="#263238" stroke-miterlimit="10"/>
<path d="M83.6138 459.072L72.3708 448.284" stroke="#263238" stroke-width="0.5" stroke-miterlimit="10"/>
<path d="M95.3119 407.654L87.4886 394.91" stroke="#263238" stroke-width="2" stroke-miterlimit="10"/>
<path d="M89.8749 398.736C90.1973 397.104 90.1666 395.422 89.7846 393.803C89.4027 392.184 88.6785 390.666 87.6608 389.35C85.5696 386.509 73.1703 377.923 70.8824 382.437C68.373 387.358 80.1449 400.507 89.8749 398.736Z" fill="#65B47B" stroke="#263238" stroke-miterlimit="10"/>
<path d="M89.8749 398.736L78.6319 387.948" stroke="#263238" stroke-width="0.5" stroke-miterlimit="10"/>
<path d="M92.7533 432.379L84.9177 419.635" stroke="#263238" stroke-width="2" stroke-miterlimit="10"/>
<path d="M87.304 423.461C87.6271 421.832 87.5978 420.152 87.218 418.536C86.8382 416.919 86.1168 415.402 85.1022 414.087C82.9987 411.234 70.6117 402.648 68.3115 407.162C65.8144 412.07 77.574 425.232 87.304 423.461Z" fill="#65B47B" stroke="#263238" stroke-miterlimit="10"/>
<path d="M87.304 423.461L76.061 412.673" stroke="#263238" stroke-width="0.5" stroke-miterlimit="10"/>
<path d="M99.4819 367.492L91.6585 354.748" stroke="#263238" stroke-width="2" stroke-miterlimit="10"/>
<path d="M94.0449 358.573C94.3681 356.942 94.3378 355.26 93.9558 353.641C93.5739 352.021 92.8492 350.503 91.8307 349.188C89.7396 346.334 77.3403 337.76 75.0401 342.275C72.543 347.183 84.3149 360.406 94.0449 358.573Z" fill="#65B47B" stroke="#263238" stroke-miterlimit="10"/>
<path d="M94.0449 358.573L82.8019 347.786" stroke="#263238" stroke-width="0.5" stroke-miterlimit="10"/>
<path d="M103.664 327.145L95.8409 314.401" stroke="#263238" stroke-width="2" stroke-miterlimit="10"/>
<path d="M98.2272 318.227C98.5503 316.598 98.521 314.918 98.1412 313.302C97.7614 311.685 97.04 310.168 96.0254 308.853C93.9219 306 81.5226 297.413 79.2347 301.94C76.7376 306.848 88.4972 320.01 98.2272 318.227Z" fill="#65B47B" stroke="#263238" stroke-miterlimit="10"/>
<path d="M98.2272 318.227L86.9842 307.439" stroke="#263238" stroke-width="0.5" stroke-miterlimit="10"/>
<path d="M90.3793 453.315L100.651 442.453" stroke="#263238" stroke-width="2" stroke-miterlimit="10"/>
<path d="M97.5261 445.713C97.5462 444.049 97.9222 442.409 98.6287 440.903C99.3353 439.396 100.356 438.059 101.622 436.979C104.255 434.617 118.155 428.775 119.471 433.658C120.91 438.984 106.69 449.44 97.5261 445.713Z" fill="#65B47B" stroke="#263238" stroke-miterlimit="10"/>
<path d="M97.5261 445.713L111.537 437.016" stroke="#263238" stroke-width="0.5" stroke-miterlimit="10"/>
<path d="M97.1324 388.255L107.404 377.381" stroke="#263238" stroke-width="2" stroke-miterlimit="10"/>
<path d="M104.279 380.641C104.299 378.979 104.675 377.341 105.381 375.836C106.088 374.332 107.109 372.996 108.375 371.92C111.008 369.558 124.896 363.703 126.224 368.599C127.663 373.937 113.443 384.381 104.279 380.641Z" fill="#65B47B" stroke="#263238" stroke-miterlimit="10"/>
<path d="M104.279 380.641L118.278 371.957" stroke="#263238" stroke-width="0.5" stroke-miterlimit="10"/>
<path d="M100.097 359.656L110.368 348.794" stroke="#263238" stroke-width="2" stroke-miterlimit="10"/>
<path d="M107.256 352.042C107.272 350.38 107.646 348.742 108.35 347.237C109.055 345.732 110.074 344.397 111.34 343.32C113.972 340.958 127.872 335.103 129.189 339.999C130.628 345.325 116.408 355.781 107.256 352.042Z" fill="#65B47B" stroke="#263238" stroke-miterlimit="10"/>
<path d="M107.256 352.042L121.254 343.357" stroke="#263238" stroke-width="0.5" stroke-miterlimit="10"/>
<path d="M104.439 317.734L114.723 306.873" stroke="#263238" stroke-width="2" stroke-miterlimit="10"/>
<path d="M111.598 310.133C111.618 308.469 111.994 306.829 112.701 305.322C113.407 303.816 114.428 302.478 115.694 301.399C118.327 299.037 132.215 293.182 133.543 298.078C134.982 303.404 120.762 313.86 111.598 310.133Z" fill="#65B47B" stroke="#263238" stroke-miterlimit="10"/>
<path d="M111.598 310.133L125.597 301.436" stroke="#263238" stroke-width="0.5" stroke-miterlimit="10"/>
<path d="M106.69 290.82C106.71 289.159 107.084 287.522 107.789 286.018C108.493 284.514 109.511 283.177 110.774 282.099C113.419 279.737 127.307 273.882 128.623 278.778C130.062 284.141 115.854 294.56 106.69 290.82Z" fill="#65B47B" stroke="#263238" stroke-miterlimit="10"/>
<path d="M106.69 290.82L120.689 282.136" stroke="#263238" stroke-width="0.5" stroke-miterlimit="10"/>
<path d="M107.268 291.448C105.617 291.254 104.026 290.709 102.602 289.85C101.179 288.99 99.9555 287.837 99.0145 286.466C96.9479 283.6 92.5811 269.171 97.5876 268.371C103.025 267.498 111.943 282.726 107.268 291.448Z" fill="#65B47B" stroke="#263238" stroke-miterlimit="10"/>
<path d="M107.268 291.448L100.097 276.613" stroke="#263238" stroke-width="0.5" stroke-miterlimit="10"/>
<path d="M80.7723 203.521V478.446" stroke="#263238" stroke-width="2" stroke-miterlimit="10"/>
<path d="M80.9937 437.115L71.891 425.232" stroke="#263238" stroke-width="2" stroke-miterlimit="10"/>
<path d="M74.6587 428.799C74.8133 427.144 74.611 425.475 74.0657 423.905C73.5203 422.335 72.6445 420.9 71.4974 419.697C69.111 417.077 55.8999 409.856 54.0794 414.555C52.1358 419.697 65.1624 431.567 74.6587 428.799Z" fill="#65B47B" stroke="#263238" stroke-miterlimit="10"/>
<path d="M74.6587 428.799L62.3578 419.229" stroke="#263238" stroke-width="0.5" stroke-miterlimit="10"/>
<path d="M80.9937 385.439L71.891 373.568" stroke="#263238" stroke-width="2" stroke-miterlimit="10"/>
<path d="M74.6587 377.136C74.8133 375.48 74.611 373.811 74.0657 372.241C73.5203 370.671 72.6445 369.236 71.4974 368.033C69.111 365.413 55.8999 358.192 54.0794 362.879C52.1358 368.033 65.1624 379.903 74.6587 377.136Z" fill="#65B47B" stroke="#263238" stroke-miterlimit="10"/>
<path d="M74.6587 377.136L62.3578 367.565" stroke="#263238" stroke-width="0.5" stroke-miterlimit="10"/>
<path d="M80.9937 324.783L71.891 312.913" stroke="#263238" stroke-width="2" stroke-miterlimit="10"/>
<path d="M74.6587 316.467C74.8133 314.812 74.611 313.143 74.0657 311.573C73.5203 310.003 72.6445 308.568 71.4974 307.365C69.111 304.745 55.8999 297.524 54.0794 302.223C52.1358 307.365 65.1624 319.235 74.6587 316.467Z" fill="#65B47B" stroke="#263238" stroke-miterlimit="10"/>
<path d="M74.6587 316.468L62.3578 306.897" stroke="#263238" stroke-width="0.5" stroke-miterlimit="10"/>
<path d="M80.9937 284.399L71.891 272.529" stroke="#263238" stroke-width="2" stroke-miterlimit="10"/>
<path d="M74.6587 276.084C74.8139 274.43 74.6119 272.763 74.0665 271.195C73.5211 269.626 72.6449 268.194 71.4974 266.993C69.111 264.373 55.8999 257.153 54.0794 261.839C52.1358 266.993 65.1624 278.864 74.6587 276.084Z" fill="#65B47B" stroke="#263238" stroke-miterlimit="10"/>
<path d="M74.6587 276.084L62.3578 266.514" stroke="#263238" stroke-width="0.5" stroke-miterlimit="10"/>
<path d="M80.9937 243.843L71.891 231.973" stroke="#263238" stroke-width="2" stroke-miterlimit="10"/>
<path d="M74.6587 235.528C74.8133 233.873 74.611 232.204 74.0657 230.633C73.5203 229.063 72.6445 227.628 71.4974 226.425C69.111 223.805 55.8999 216.584 54.0794 221.283C52.1358 226.425 65.1624 238.308 74.6587 235.528Z" fill="#65B47B" stroke="#263238" stroke-miterlimit="10"/>
<path d="M74.6587 235.528L62.3578 225.958" stroke="#263238" stroke-width="0.5" stroke-miterlimit="10"/>
<path d="M80.7969 452.884L89.8995 441.014" stroke="#263238" stroke-width="2" stroke-miterlimit="10"/>
<path d="M87.1195 444.569C86.9598 442.911 87.1583 441.238 87.7016 439.663C88.2449 438.088 89.1203 436.649 90.2686 435.442C92.6426 432.822 105.854 425.601 107.674 430.288C109.679 435.442 96.6158 447.349 87.1195 444.569Z" fill="#65B47B" stroke="#263238" stroke-miterlimit="10"/>
<path d="M87.1195 444.569L100.146 434.495" stroke="#263238" stroke-width="0.5" stroke-miterlimit="10"/>
<path d="M80.7969 370.714L89.8995 358.844" stroke="#263238" stroke-width="2" stroke-miterlimit="10"/>
<path d="M87.1195 362.399C86.969 360.743 87.1743 359.074 87.7217 357.504C88.2691 355.934 89.1458 354.5 90.2932 353.296C92.6672 350.676 105.878 343.456 107.699 348.155C109.679 353.296 96.6158 365.167 87.1195 362.399Z" fill="#65B47B" stroke="#263238" stroke-miterlimit="10"/>
<path d="M87.1195 362.399L100.146 352.312" stroke="#263238" stroke-width="0.5" stroke-miterlimit="10"/>
<path d="M80.7969 330.158L89.8995 318.288" stroke="#263238" stroke-width="2" stroke-miterlimit="10"/>
<path d="M87.1195 321.843C86.969 320.187 87.1743 318.518 87.7217 316.948C88.2691 315.378 89.1458 313.944 90.2932 312.74C92.6672 310.12 105.878 302.9 107.699 307.599C109.679 312.74 96.6158 324.611 87.1195 321.843Z" fill="#65B47B" stroke="#263238" stroke-miterlimit="10"/>
<path d="M87.1195 321.843L100.146 311.756" stroke="#263238" stroke-width="0.5" stroke-miterlimit="10"/>
<path d="M80.7969 276.551L89.8995 264.681" stroke="#263238" stroke-width="2" stroke-miterlimit="10"/>
<path d="M87.1195 268.236C86.969 266.58 87.1743 264.911 87.7217 263.341C88.2691 261.771 89.1458 260.336 90.2932 259.133C92.6672 256.513 105.878 249.292 107.699 253.991C109.679 259.133 96.6158 271.003 87.1195 268.236Z" fill="#65B47B" stroke="#263238" stroke-miterlimit="10"/>
<path d="M87.1195 268.236L100.146 258.149" stroke="#263238" stroke-width="0.5" stroke-miterlimit="10"/>
<path d="M80.7969 234.408L89.8995 222.526" stroke="#263238" stroke-width="2" stroke-miterlimit="10"/>
<path d="M87.1195 226.093C86.969 224.437 87.1743 222.768 87.7217 221.198C88.2691 219.628 89.1458 218.194 90.2932 216.99C92.6672 214.37 105.878 207.15 107.699 211.849C109.679 216.99 96.6158 228.861 87.1195 226.093Z" fill="#65B47B" stroke="#263238" stroke-miterlimit="10"/>
<path d="M87.1195 226.093L100.146 216.006" stroke="#263238" stroke-width="0.5" stroke-miterlimit="10"/>
<path d="M80.2433 207.396C80.0928 205.74 80.2982 204.071 80.8455 202.501C81.3929 200.931 82.2696 199.496 83.417 198.293C85.791 195.685 99.0022 188.452 100.823 193.151C102.803 198.293 89.7396 210.176 80.2433 207.396Z" fill="#65B47B" stroke="#263238" stroke-miterlimit="10"/>
<path d="M80.2433 207.396L93.27 197.309" stroke="#263238" stroke-width="0.5" stroke-miterlimit="10"/>
<path d="M80.883 207.961C79.2198 207.941 77.5804 207.564 76.0758 206.855C74.5711 206.146 73.2363 205.122 72.1616 203.853C69.8122 201.221 63.9816 187.321 68.8773 186.004C74.1913 184.577 84.6347 198.81 80.883 207.961Z" fill="#65B47B" stroke="#263238" stroke-miterlimit="10"/>
<path d="M80.883 207.961L72.2231 193.951" stroke="#263238" stroke-width="0.5" stroke-miterlimit="10"/>
<path d="M92.0891 549.754H62.9729L59.3318 476.219H95.7302L92.0891 549.754Z" fill="#263238" stroke="#263238" stroke-miterlimit="10"/>
<path d="M355.168 250.928H444.94L424.028 327.957H334.257L355.168 250.928Z" fill="#7D7D7D" stroke="#263238" stroke-linecap="round" stroke-linejoin="round"/>
<path d="M357.727 253.795H440.819L421.47 325.09H338.377L357.727 253.795Z" fill="white" stroke="#263238" stroke-linecap="round" stroke-linejoin="round"/>
<path d="M377.851 302.851L382.845 284.202H384.924L380.446 300.968H385.773L385.268 302.851H377.851Z" fill="#263238"/>
<path d="M390.472 288.704C391.234 285.851 393.141 284.018 395.982 284.018C398.824 284.018 399.783 285.851 399.021 288.704L396.437 298.348C395.687 301.178 393.768 303.047 390.89 303.047C388.011 303.047 387.126 301.178 387.888 298.348L390.472 288.704ZM389.906 298.459C389.451 300.169 389.906 301.153 391.406 301.153C392.907 301.153 393.867 300.169 394.334 298.459L396.966 288.618C397.422 286.933 396.966 285.924 395.478 285.924C393.99 285.924 393.018 286.933 392.55 288.618L389.906 298.459Z" fill="#263238"/>
<path d="M409.23 288.704L408.861 290.291H406.893L407.348 288.594C407.803 286.909 407.348 285.9 405.885 285.9C404.421 285.9 403.424 286.909 402.982 288.594L400.337 298.434C399.894 300.107 400.337 301.128 401.801 301.128C403.264 301.128 404.261 300.107 404.704 298.434L405.712 294.744H403.793L404.285 292.874H408.185L406.709 298.361C405.958 301.19 404.126 303.06 401.247 303.06C398.369 303.06 397.557 301.19 398.32 298.361L400.903 288.717C401.653 285.9 403.486 284.03 406.34 284.03C409.194 284.03 409.981 285.888 409.23 288.704Z" fill="#263238"/>
<path d="M411.051 288.704C411.814 285.851 413.708 284.018 416.562 284.018C419.416 284.018 420.363 285.851 419.6 288.704L417.017 298.348C416.267 301.178 414.348 303.047 411.469 303.047C408.591 303.047 407.705 301.178 408.468 298.348L411.051 288.704ZM410.485 298.459C410.03 300.169 410.485 301.153 411.986 301.153C413.487 301.153 414.446 300.169 414.913 298.459L417.546 288.618C418.001 286.933 417.546 285.924 416.057 285.924C414.569 285.924 413.597 286.933 413.13 288.618L410.485 298.459Z" fill="#263238"/>
<path d="M380.114 285.223C379.954 280.979 378.97 273.156 374.333 267.104C367.629 258.37 355.476 270.253 360.593 285.113C361.268 287.025 362.248 288.815 363.496 290.414" stroke="#263238" stroke-linecap="round" stroke-linejoin="round"/>
<path d="M368.33 295.101C368.33 295.101 350.592 297.795 354.332 304.302C360.79 315.582 371.553 305.225 376.067 299.948" stroke="#263238" stroke-linecap="round" stroke-linejoin="round"/>
<path d="M376.362 279.565C378.355 284.916 377.937 290.008 375.428 290.943C372.918 291.878 369.277 288.299 367.26 282.948C365.242 277.597 365.698 272.492 368.207 271.557C370.716 270.622 374.419 274.214 376.362 279.565Z" fill="#65B47B" stroke="#263238" stroke-linecap="round" stroke-linejoin="round"/>
<path d="M358.514 304.609C359.129 306.246 362.278 306.565 365.55 305.323C368.822 304.081 370.962 301.756 370.347 300.12C369.732 298.484 366.571 298.164 363.311 299.406C360.051 300.649 357.886 302.973 358.514 304.609Z" fill="#65B47B" stroke="#263238" stroke-linecap="round" stroke-linejoin="round"/>
<path d="M385.49 270.142C386.47 273.002 386.719 276.061 386.214 279.041C385.709 282.021 384.467 284.827 382.599 287.204C383.157 282.636 382.635 278.001 381.074 273.673" stroke="#263238" stroke-linecap="round" stroke-linejoin="round"/>
<path d="M424.028 323.873H298.166V327.969H424.028V323.873Z" fill="#7D7D7D" stroke="#263238" stroke-linecap="round" stroke-linejoin="round"/>
<path d="M424.028 323.873H366.19V327.969H424.028V323.873Z" fill="#595959" stroke="#263238" stroke-linecap="round" stroke-linejoin="round"/>
<path d="M264.67 334.488H257.905V549.274H264.67V334.488Z" fill="white" stroke="#263238" stroke-linecap="round" stroke-linejoin="round"/>
<path d="M252.124 549.274H257.905V334.488H252.124L252.124 549.274Z" fill="#A8A8A8" stroke="#263238" stroke-linecap="round" stroke-linejoin="round"/>
<path d="M437.99 446.869H431.224V549.274H437.99V446.869Z" fill="white" stroke="#263238" stroke-linecap="round" stroke-linejoin="round"/>
<path d="M425.443 549.286H431.224V446.881H425.443V549.286Z" fill="#A8A8A8" stroke="#263238" stroke-linecap="round" stroke-linejoin="round"/>
<path d="M510.43 446.869H503.664V549.274H510.43V446.869Z" fill="white" stroke="#263238" stroke-linecap="round" stroke-linejoin="round"/>
<path d="M497.883 549.286H503.664V446.881H497.883V549.286Z" fill="#A8A8A8" stroke="#263238" stroke-linecap="round" stroke-linejoin="round"/>
<path d="M364.16 452.712H430.167V336.567H364.16V452.712Z" fill="#A8A8A8" stroke="#263238" stroke-linecap="round" stroke-linejoin="round"/>
<path d="M517.146 336.579H430.167V452.724H517.146V336.579Z" fill="white" stroke="#263238" stroke-linecap="round" stroke-linejoin="round"/>
<path d="M430.167 336.579H364.172V342.238H430.167H517.146V336.579H430.167Z" fill="#263238" stroke="#263238" stroke-linecap="round" stroke-linejoin="round"/>
<path d="M426.07 343.234H369.794V370.345H426.07V343.234Z" fill="white" stroke="#263238" stroke-linecap="round" stroke-linejoin="round"/>
<path d="M405.356 354.231H390.521V359.348H405.356V354.231Z" fill="#263238"/>
<path d="M426.07 380.58H369.794V407.691H426.07V380.58Z" fill="white" stroke="#263238" stroke-linecap="round" stroke-linejoin="round"/>
<path d="M405.356 391.072H390.521V396.19H405.356V391.072Z" fill="#263238"/>
<path d="M426.07 417.925H369.794V445.036H426.07V417.925Z" fill="white" stroke="#263238" stroke-linecap="round" stroke-linejoin="round"/>
<path d="M405.356 427.901H390.521V433.018H405.356V427.901Z" fill="#263238"/>
<path d="M526.126 331.475H242.799V338.228H526.126V331.475Z" fill="#A8A8A8" stroke="#263238" stroke-linecap="round" stroke-linejoin="round"/>
<path d="M526.126 331.475H440.573V338.228H526.126V331.475Z" fill="white" stroke="#263238" stroke-linecap="round" stroke-linejoin="round"/>
<path d="M266.823 400.212C266.823 400.212 275.262 406.055 287.735 442.17C291.892 454.176 315.276 518.916 316.506 523.356C317.736 527.797 320.197 533.197 323.887 533.197C327.577 533.197 341.108 515.976 339.46 513.934C337.812 511.892 330.037 503.675 330.037 503.675C330.037 503.675 325.388 451.273 324.563 436.512C323.739 421.751 327.097 403.976 319.311 392.081C311.525 380.186 277.07 392.487 277.07 392.487L266.823 400.212Z" fill="white" stroke="#263238" stroke-linecap="round" stroke-linejoin="round"/>
<path d="M333.826 503.736C332.876 504.246 332.096 505.024 331.584 505.973C331.072 506.922 330.851 508.001 330.948 509.075C331.366 512.765 335.056 517.685 335.056 517.685C335.056 517.685 327.257 523.836 323.161 524.242C319.065 524.648 314.551 525.472 314.551 526.702C314.551 527.932 317.835 529.986 319.877 534.488C322.138 539.056 324.746 543.443 327.676 547.613C328.906 549.249 329.718 550.48 334.232 549.249C338.746 548.019 348.587 539.003 353.913 535.313C359.24 531.622 375.231 529.162 378.109 527.108C380.988 525.054 389.992 511.941 385.896 509.481C381.799 507.021 380.569 509.887 375.649 511.117C370.729 512.347 356.374 510.711 348.587 509.075C340.801 507.439 338.328 507.021 338.328 507.021L333.826 503.736Z" fill="#65B47B" stroke="#263238" stroke-linecap="round" stroke-linejoin="round"/>
<path d="M326.962 546.679C327.233 547.072 327.454 547.392 327.626 547.613C328.856 549.249 329.668 550.48 334.183 549.249C338.697 548.019 348.538 539.003 353.864 535.313C359.19 531.622 375.182 529.162 378.06 527.108C380.938 525.054 389.943 511.941 385.846 509.481C385.271 509.12 384.645 508.846 383.989 508.669C384.063 508.939 384.137 509.185 384.21 509.481C385.441 514.401 381.332 519.321 377.642 523.012C373.952 526.702 361.651 525.878 348.12 532.852C340.643 536.777 333.558 541.406 326.962 546.679Z" fill="white" stroke="#263238" stroke-linecap="round" stroke-linejoin="round"/>
<path d="M326.569 462.713C325.683 451.925 324.908 441.801 324.613 436.573C323.789 421.812 327.147 404.038 319.36 392.143C311.574 380.248 277.119 392.549 277.119 392.549L266.823 400.212C266.823 400.212 275.262 406.055 287.735 442.17C289.321 446.759 293.725 459.072 298.633 472.763L326.569 462.713Z" fill="#263238" stroke="#263238" stroke-linecap="round" stroke-linejoin="round"/>
<path d="M306.493 189.891C307.557 192.741 308.063 195.769 307.982 198.81C307.613 202.906 303.886 204.763 303.517 203.656C303.198 201.813 303.074 199.941 303.148 198.072V196.583C302.229 198.098 301.102 199.476 299.802 200.679C297.194 203.275 295.706 202.537 294.586 202.537C293.467 202.537 293.098 198.846 294.968 196.214C296.837 193.582 302.779 187.653 306.493 189.891Z" fill="white" stroke="#263238" stroke-linecap="round" stroke-linejoin="round"/>
<path d="M315.055 199.56C311.365 197.321 305.755 205.145 297.194 203.25C296.099 203.017 295.706 201.393 297.563 197.678C299.42 193.963 305.374 190.974 308.351 188.747C311.328 186.521 313.566 184.651 313.566 182.043C313.566 179.436 306.863 183.532 304.956 185.02C302.704 186.424 300.361 187.677 297.944 188.772L296.333 188.858C293.024 189.067 287.919 189.658 285.988 191.318C283.454 193.52 282.002 201.085 281.4 204.001C279.751 206.387 278.275 208.589 277.426 209.917C274.819 214.001 222.368 252.331 222.368 252.331L226.058 285.063L285.582 217.409C287.231 216.06 289.128 215.049 291.167 214.432C295.263 212.943 300.835 211.824 305.682 209.216C309.267 207.3 312.745 205.189 316.1 202.893C318.696 201.282 317.072 200.765 315.055 199.56Z" fill="white" stroke="#263238" stroke-linecap="round" stroke-linejoin="round"/>
<path d="M252.493 230.017C237.879 241.088 222.417 252.392 222.417 252.392L226.107 285.125L262.702 243.548L252.493 230.017Z" fill="#65B47B" stroke="#263238" stroke-linecap="round" stroke-linejoin="round"/>
<path d="M234.189 353.85C234.189 353.85 260.427 352.62 298.559 358.77C336.692 364.921 350.961 371.477 349.817 378.858C345.167 408.798 275.262 507.365 275.262 507.365L276.492 521.302C276.492 521.302 274.031 524.586 265.421 524.992C256.81 525.398 246.145 513.109 246.145 513.109C246.145 513.109 255.777 503.146 259.467 491.263C263.157 479.38 292.827 402.635 292.827 402.635C292.827 402.635 253.87 411.246 210.817 403.459C167.764 395.673 234.189 353.85 234.189 353.85Z" fill="white" stroke="#263238" stroke-linecap="round" stroke-linejoin="round"/>
<path d="M298.559 358.77C260.427 352.62 234.189 353.85 234.189 353.85C234.189 353.85 167.764 395.673 210.817 403.459C253.87 411.246 292.827 402.635 292.827 402.635C292.827 402.635 280.526 434.617 270.686 460.449L299.605 471.52C320.295 440.227 347 396.977 349.817 378.858C350.961 371.477 336.692 364.921 298.559 358.77Z" fill="#263238" stroke="#263238" stroke-linecap="round" stroke-linejoin="round"/>
<path d="M275.261 507.365C274.433 507.706 273.681 508.208 273.048 508.841C272.414 509.475 271.913 510.227 271.571 511.055C270.78 512.931 270.095 514.848 269.517 516.8C265.03 515.834 260.64 514.458 256.404 512.691C253.283 511.265 250.266 509.621 247.375 507.771C247.375 507.771 243.685 508.189 243.685 510.649C243.664 514.431 242.973 518.18 241.643 521.72C240.585 524.353 238.334 530.22 236.87 534.021C236.7 534.469 236.628 534.949 236.66 535.428C236.691 535.907 236.825 536.373 237.053 536.795C237.28 537.218 237.596 537.586 237.978 537.876C238.361 538.165 238.801 538.369 239.269 538.474C245.764 539.913 259.455 543.074 271.165 546.679C287.156 551.599 304.784 549.139 306.838 548.733C308.892 548.327 317.085 543.394 313.394 540.122C309.704 536.85 287.968 528.227 283.466 522.483C278.964 516.738 275.261 507.365 275.261 507.365Z" fill="#65B47B" stroke="#263238" stroke-linecap="round" stroke-linejoin="round"/>
<path d="M311.746 539.015C311.746 543.087 309.655 547.134 303.135 547.134C296.616 547.134 285.09 546.322 268.693 539.753C258.798 535.875 248.631 532.734 238.273 530.355C237.768 531.672 237.276 532.951 236.858 534.046C236.688 534.494 236.616 534.974 236.648 535.453C236.679 535.931 236.813 536.398 237.041 536.82C237.268 537.242 237.584 537.611 237.966 537.9C238.348 538.19 238.789 538.394 239.257 538.499C245.752 539.938 259.443 543.099 271.153 546.703C287.144 551.624 304.771 549.163 306.826 548.757C308.88 548.352 317.072 543.419 313.382 540.147C312.871 539.723 312.323 539.344 311.746 539.015Z" fill="white" stroke="#263238" stroke-linecap="round" stroke-linejoin="round"/>
<path d="M151.355 258.309C151.355 258.309 146.89 293.662 147.271 300.353C147.652 307.045 152.474 364.712 153.593 377.369C154.713 390.027 159.916 401.171 169.216 403.41C178.515 405.649 202.699 408.982 213.117 406.387C223.536 403.792 234.693 380.346 238.408 371.416C242.123 362.485 244.743 356.901 243.624 355.043C242.504 353.186 237.67 349.089 237.67 349.089C237.67 349.089 228.371 281.435 226.132 263.894C223.893 246.352 225.025 244.926 216.832 238.222C208.64 231.518 166.239 225.97 151.355 258.309Z" fill="#65B47B" stroke="#263238" stroke-linecap="round" stroke-linejoin="round"/>
<path d="M210.891 381.699C209.55 382.72 208.148 383.692 206.721 384.602" stroke="#263238" stroke-linecap="round" stroke-linejoin="round"/>
<path d="M235.419 351.796C235.419 351.796 227.522 367.295 214.446 378.784" stroke="#263238" stroke-linecap="round" stroke-linejoin="round"/>
<path d="M229.674 352.62C229.674 352.62 216.968 364.502 204.261 371.883" stroke="#263238" stroke-linecap="round" stroke-linejoin="round"/>
<path d="M239.896 147.097C241.943 151.394 243.566 155.881 244.743 160.492C245.85 166.077 246.231 171.28 248.827 172.4C251.422 173.519 256.207 173.888 255.531 176.865C254.854 179.842 249.946 184.676 249.946 184.676C249.946 184.676 251.066 202.537 250.684 205.883C250.303 209.228 230.597 209.228 229.49 209.228C228.383 209.228 217.189 235.651 217.189 235.651L185.945 220.016L191.898 200.679C191.898 200.679 182.23 182.068 181.48 173.888C180.729 165.708 199.746 150.824 210.51 147.478C221.273 144.132 239.896 147.097 239.896 147.097Z" fill="white" stroke="#263238" stroke-linecap="round" stroke-linejoin="round"/>
<path d="M229.49 209.228L219.563 206.399L223.278 220.927L229.49 209.228Z" fill="#263238" stroke="#263238" stroke-linecap="round" stroke-linejoin="round"/>
<path d="M243.587 168.143C244.079 170.247 243.845 172.104 243.045 172.289C242.246 172.473 241.188 170.936 240.684 168.845C240.179 166.753 240.425 164.884 241.225 164.699C242.024 164.515 243.082 166.052 243.587 168.143Z" fill="#263238"/>
<path d="M237.301 188.022C237.301 188.022 241.766 191.38 245.85 189.891" stroke="#263238" stroke-linecap="round" stroke-linejoin="round"/>
<path d="M238.039 140.036C238.039 140.036 243.255 149.335 239.527 155.289C235.8 161.243 226.882 163.838 222.048 169.423C217.214 175.007 214.667 184.676 212.748 185.414C210.829 186.152 205.368 174.995 201.948 175.733C198.529 176.471 193.03 184.344 197.864 192.475C199.196 194.803 201.163 196.705 203.535 197.957C205.907 199.21 208.586 199.761 211.26 199.548C211.26 199.548 197.864 206.621 195.269 206.621C192.673 206.621 184.85 202.155 181.135 198.01C177.42 193.865 164.074 181.699 163.262 171.662C162.45 161.624 175.907 148.966 175.907 148.966C175.907 148.966 159.916 147.847 164.012 141.893C168.109 135.94 182.611 132.225 182.611 132.225C182.611 132.225 180.003 122.925 183.731 121.056C187.458 119.186 210.141 126.69 210.141 126.69C210.141 126.69 203.818 118.509 212.748 118.079C221.679 117.648 236.92 128.867 238.039 140.036Z" fill="#263238" stroke="#263238" stroke-linecap="round" stroke-linejoin="round"/>
<path d="M208.431 180.432L255.9 161.243" stroke="#263238" stroke-linecap="round" stroke-linejoin="round"/>
<path d="M243.525 158.549C245.5 157.692 247.729 157.629 249.749 158.372C251.77 159.116 253.426 160.608 254.376 162.54C255.325 164.472 255.494 166.695 254.848 168.749C254.202 170.802 252.79 172.528 250.906 173.568" stroke="#263238" stroke-linecap="round" stroke-linejoin="round"/>
<path d="M226.132 246.008C226.132 246.008 225.763 235.22 222.786 232.243C219.809 229.267 197.864 216.99 187.815 214.395C177.765 211.799 167.358 215.502 160.654 217.741C153.95 219.979 149.497 226.327 146.853 240.116C144.208 253.905 143.876 262.43 149.46 263.18C155.045 263.931 162.856 247.189 180.336 243.831C197.815 240.473 213.819 243.462 217.546 245.319C221.273 247.177 226.132 246.008 226.132 246.008Z" fill="#65B47B" stroke="#263238" stroke-linecap="round" stroke-linejoin="round"/>
<path d="M169.634 234.642C166.276 235.872 164.012 236.758 164.012 236.758" stroke="#263238" stroke-linecap="round" stroke-linejoin="round"/>
<path d="M226.132 246.008C226.132 246.008 202.76 232.994 194.15 230.386C189.684 229.033 181.664 230.817 175.022 232.846" stroke="#263238" stroke-linecap="round" stroke-linejoin="round"/>
<path d="M336.606 306.528C336.606 306.528 335.376 314.266 333.961 315.139C332.547 316.012 332.633 307.955 332.633 307.955C332.633 307.955 330.861 312.593 329.767 313.7C328.672 314.807 329.324 308.952 329.324 308.952L330.554 303.429L336.606 306.528Z" fill="white" stroke="#263238" stroke-linecap="round" stroke-linejoin="round"/>
<path d="M320.861 298.902L332.276 299.086C332.276 299.086 335.29 299.517 335.72 301.239C336.331 303.144 337.05 305.013 337.873 306.836L320.209 301.67L320.861 298.902Z" fill="white" stroke="#263238" stroke-linecap="round" stroke-linejoin="round"/>
<path d="M324.945 302.506C324.945 302.506 340.936 300.353 341.317 301.645C341.637 302.617 342.867 311.375 343.138 314.204C343.143 314.301 343.118 314.397 343.065 314.478C343.012 314.559 342.935 314.621 342.845 314.656C342.754 314.69 342.655 314.694 342.562 314.669C342.468 314.643 342.386 314.588 342.326 314.512L337.873 306.811L325.806 307.672C325.806 307.672 322.362 304.659 324.945 302.506Z" fill="white" stroke="#263238" stroke-linecap="round" stroke-linejoin="round"/>
<path d="M192.747 254.274C192.747 254.274 182.833 261.593 186.277 279.688C189.721 297.783 213.843 347.343 215.996 351.599C218.149 355.855 227.62 356.335 231.926 355.043C236.231 353.752 312.915 323.184 312.915 323.184C312.915 323.184 321.095 321.019 322.386 319.297C323.678 317.575 331.87 308.533 331.87 308.533C331.87 308.533 344.786 310.256 347.8 309.395C350.814 308.534 344.786 307.672 341.772 306.811C339.448 306.147 326.63 301.141 320.861 298.877C320.03 298.542 319.118 298.463 318.241 298.649C317.365 298.835 316.564 299.279 315.941 299.923C311.906 304.056 303.308 312.827 301.672 314.13C299.519 315.853 238.802 326.198 238.802 326.198C238.802 326.198 224.582 259.441 218.985 253.844C213.388 248.247 203.486 249.538 203.486 249.538" fill="#65B47B"/>
<path d="M192.747 254.274C192.747 254.274 182.833 261.593 186.277 279.688C189.721 297.783 213.843 347.343 215.996 351.599C218.149 355.855 227.62 356.335 231.926 355.043C236.231 353.752 312.915 323.184 312.915 323.184C312.915 323.184 321.095 321.019 322.386 319.297C323.678 317.575 331.87 308.533 331.87 308.533C331.87 308.533 344.786 310.256 347.8 309.395C350.814 308.534 344.786 307.672 341.772 306.811C339.448 306.147 326.63 301.141 320.861 298.877C320.03 298.542 319.118 298.463 318.241 298.649C317.365 298.835 316.563 299.279 315.941 299.923C311.906 304.056 303.308 312.827 301.672 314.13C299.519 315.853 238.802 326.198 238.802 326.198C238.802 326.198 224.582 259.441 218.985 253.844C213.388 248.247 203.486 249.538 203.486 249.538" stroke="#263238" stroke-linecap="round" stroke-linejoin="round"/>
<path d="M272.838 339.101C292.95 331.13 312.915 323.184 312.915 323.184C312.915 323.184 321.095 321.019 322.386 319.297C323.678 317.575 331.858 308.534 331.858 308.534C331.858 308.534 344.786 310.256 347.849 309.395C350.912 308.534 344.835 307.672 341.822 306.811C339.497 306.147 326.679 301.141 320.91 298.877C320.079 298.542 319.167 298.463 318.29 298.649C317.414 298.835 316.613 299.279 315.99 299.923C311.955 304.056 303.357 312.827 301.721 314.13C300.601 315.028 283.638 318.251 267.61 321.142L272.838 339.101Z" fill="white" stroke="#263238" stroke-linecap="round" stroke-linejoin="round"/>
<path d="M138.242 423.854L119.483 548.511C119.416 548.774 119.456 549.052 119.595 549.285C119.733 549.518 119.959 549.687 120.221 549.754C120.484 549.821 120.762 549.78 120.995 549.642C121.228 549.504 121.397 549.278 121.464 549.016L149.756 425.909L138.242 423.854Z" fill="#9C9C9C" stroke="#263238" stroke-linecap="round" stroke-linejoin="round"/>
<path d="M166.239 424.678L174.394 548.278C174.394 548.549 174.502 548.808 174.693 549C174.885 549.191 175.144 549.299 175.415 549.299C175.686 549.299 175.946 549.191 176.137 549C176.329 548.808 176.436 548.549 176.436 548.278L177.851 423.682L166.239 424.678Z" fill="#9C9C9C" stroke="#263238" stroke-linecap="round" stroke-linejoin="round"/>
<path d="M193.756 426.536L216.143 547.995C216.209 548.238 216.363 548.448 216.575 548.585C216.786 548.722 217.041 548.776 217.29 548.736C217.539 548.696 217.764 548.566 217.923 548.37C218.081 548.174 218.162 547.927 218.149 547.675L205.11 423.891L193.756 426.536Z" fill="#9C9C9C" stroke="#263238" stroke-linecap="round" stroke-linejoin="round"/>
<path d="M237.03 425.515L255.346 547.786C255.401 548.032 255.546 548.249 255.751 548.395C255.957 548.541 256.21 548.606 256.46 548.577C256.711 548.548 256.942 548.427 257.109 548.238C257.276 548.049 257.367 547.804 257.364 547.552L248.483 423.313L237.03 425.515Z" fill="#9C9C9C" stroke="#263238" stroke-linecap="round" stroke-linejoin="round"/>
<path d="M219.526 400.63C219.526 400.63 197.987 393.446 187.938 367.615C177.888 341.783 161.392 297.278 149.903 291.521C138.414 285.765 116.174 296.54 114.735 338.166C113.296 379.793 116.666 410.742 125.941 420.976C134.146 429.992 148.083 441.481 196.462 442.293C239.675 443.031 257.315 426.56 263.305 420.976C269.296 415.391 279.087 403.459 271.202 403.459C263.317 403.459 229.576 403.459 219.526 400.63Z" fill="white" stroke="#263238" stroke-linecap="round" stroke-linejoin="round"/>
<path d="M318.979 145.141C318.979 145.141 310.577 135.3 298.904 133.467C287.23 131.634 286.443 148.659 301.364 156.125C305.549 158.051 310.187 158.775 314.76 158.217C314.76 158.217 302.84 172.301 310.553 174.552C327.774 179.62 324.084 153.075 324.084 153.075L318.979 145.141Z" fill="white" stroke="#263238" stroke-linecap="round" stroke-linejoin="round"/>
<path d="M321.808 144.464C321.808 144.464 316.888 132.52 320.578 121.277C324.268 110.034 338.894 117.673 338.746 134.365C338.69 138.684 337.534 142.918 335.388 146.666C335.388 146.666 354.159 142.668 351.847 150.356C346.594 167.836 326.556 152.632 326.556 152.632L321.808 144.464Z" fill="white" stroke="#263238" stroke-linecap="round" stroke-linejoin="round"/>
<path d="M328.328 159.385C328.114 159.385 327.904 159.33 327.719 159.224C327.533 159.118 327.379 158.966 327.27 158.782L315.596 139.175C315.429 138.896 315.379 138.562 315.457 138.246C315.536 137.93 315.736 137.658 316.014 137.49C316.154 137.405 316.309 137.35 316.47 137.326C316.631 137.302 316.795 137.31 316.953 137.35C317.111 137.39 317.259 137.461 317.39 137.559C317.52 137.657 317.629 137.78 317.712 137.92L329.373 157.528C329.54 157.807 329.59 158.141 329.512 158.457C329.434 158.773 329.233 159.045 328.955 159.213C328.764 159.323 328.548 159.382 328.328 159.385Z" fill="#263238"/>
<path d="M317.589 140.885C317.589 140.885 313.382 132.016 305.915 131.044" stroke="#263238" stroke-linecap="round" stroke-linejoin="round"/>
<path d="M317.712 137.92C317.712 137.92 315.252 130.613 317.121 125.939" stroke="#263238" stroke-linecap="round" stroke-linejoin="round"/>
<path d="M310.27 146.211C309.827 148.376 306.58 149.557 303.061 148.843C299.543 148.13 296.997 145.78 297.44 143.616C297.883 141.451 301.13 140.257 304.648 140.983C308.166 141.709 310.713 144.034 310.27 146.211Z" fill="#65B47B" stroke="#263238" stroke-linecap="round" stroke-linejoin="round"/>
<path d="M319.065 161.464C320.295 162.288 320.295 164.601 318.905 166.655C317.515 168.709 315.375 169.743 314.145 168.857C312.915 167.971 312.915 165.72 314.305 163.666C315.695 161.612 317.749 160.64 319.065 161.464Z" fill="#65B47B" stroke="#263238" stroke-linecap="round" stroke-linejoin="round"/>
<path d="M344.638 151.168C344.638 152.669 342.695 153.911 340.247 153.948C337.799 153.985 335.806 152.792 335.782 151.291C335.757 149.79 337.725 148.548 340.173 148.511C342.621 148.474 344.614 149.68 344.638 151.168Z" fill="#65B47B" stroke="#263238" stroke-linecap="round" stroke-linejoin="round"/>
<path d="M329.484 138.326C327.282 138.572 325.166 135.866 324.773 132.262C324.379 128.658 325.843 125.57 328.045 125.324C330.246 125.078 332.35 127.784 332.744 131.388C333.137 134.993 331.686 138.08 329.484 138.326Z" fill="#65B47B" stroke="#263238" stroke-linecap="round" stroke-linejoin="round"/>
<path d="M8.03714 549.754H581" stroke="#263238" stroke-linecap="round" stroke-linejoin="round"/>
</svg>
