<svg width="159" height="160" viewBox="0 0 159 160" fill="none" xmlns="http://www.w3.org/2000/svg">
<path d="M158.888 159.516H154.735C154.705 159.516 154.677 159.497 154.656 159.463C154.635 159.428 154.623 159.381 154.623 159.332C154.623 159.283 154.635 159.237 154.656 159.202C154.677 159.167 154.705 159.148 154.735 159.148H158.888C158.918 159.148 158.946 159.167 158.967 159.202C158.988 159.237 159 159.283 159 159.332C159 159.381 158.988 159.428 158.967 159.463C158.946 159.497 158.918 159.516 158.888 159.516Z" fill="black"/>
<path d="M152.954 159.516H0.807052C0.777425 159.516 0.749011 159.497 0.728062 159.463C0.707112 159.428 0.695343 159.381 0.695343 159.332C0.695343 159.283 0.707112 159.237 0.728062 159.202C0.749011 159.168 0.777425 159.148 0.807052 159.148H152.954C152.984 159.148 153.012 159.168 153.033 159.202C153.054 159.237 153.066 159.283 153.066 159.332C153.065 159.381 153.053 159.427 153.033 159.461C153.012 159.496 152.984 159.516 152.954 159.516Z" fill="black"/>
<path d="M129.764 112.472C130.373 112.911 131.868 112.841 131.87 112.841C131.873 112.841 131.549 111.227 131.52 111.132C131.191 110.001 130.155 108.13 129.31 108.321C129.17 108.359 129.037 108.444 128.919 108.572C128.801 108.7 128.7 108.868 128.624 109.064C128.548 109.261 128.498 109.481 128.476 109.712C128.455 109.942 128.464 110.177 128.501 110.402C128.642 111.382 129.243 112.097 129.764 112.472Z" fill="#65B47B"/>
<path d="M130.277 119.611C130.912 119.762 132.246 119.124 132.353 119.073C132.572 120.329 132.842 121.56 133.162 122.756C133.345 123.46 133.544 124.156 133.747 124.848C133.626 124.554 133.524 124.292 133.497 124.259C133.001 123.312 131.709 121.961 130.916 122.509C130.788 122.606 130.673 122.747 130.579 122.922C130.486 123.097 130.415 123.303 130.373 123.526C130.331 123.748 130.318 123.983 130.335 124.215C130.351 124.447 130.397 124.67 130.47 124.871C130.76 125.74 131.453 126.171 132.016 126.303C132.579 126.436 133.729 125.935 134.026 125.795L134.265 126.591C134.652 127.858 135.041 129.121 135.398 130.377C135.525 130.823 135.639 131.265 135.756 131.711C135.646 131.449 135.555 131.232 135.532 131.199C135.034 130.252 133.745 128.9 132.952 129.449C132.823 129.546 132.708 129.687 132.615 129.862C132.521 130.037 132.451 130.242 132.409 130.465C132.366 130.688 132.353 130.923 132.37 131.154C132.386 131.386 132.432 131.61 132.505 131.81C132.793 132.679 133.488 133.11 134.049 133.243C134.609 133.375 135.653 132.922 136.01 132.76C136.122 133.221 136.234 133.681 136.325 134.134C136.386 134.447 136.457 134.742 136.506 135.059C136.555 135.376 136.614 135.685 136.665 135.994C136.752 136.595 136.844 137.214 136.92 137.799C136.975 138.208 137.022 138.602 137.072 138.996C136.949 138.551 136.698 137.692 136.672 137.622C136.267 136.562 135.108 134.904 134.281 135.25C134.146 135.315 134.021 135.425 133.913 135.574C133.805 135.723 133.717 135.907 133.656 136.115C133.594 136.324 133.559 136.551 133.554 136.782C133.548 137.014 133.572 137.245 133.624 137.46C133.83 138.392 134.475 138.989 135.018 139.262C135.617 139.564 136.94 139.291 137.105 139.262C137.185 139.913 137.259 140.547 137.328 141.151C137.364 141.468 137.393 141.766 137.422 142.068H137.95C137.909 141.722 137.869 141.368 137.824 140.996C137.746 140.333 137.655 139.63 137.554 138.904C137.954 138.643 138.343 138.341 138.72 138.002C139.167 138.779 140.284 139.692 140.416 139.807C140.264 140.425 140.114 141.022 139.969 141.582C139.925 141.752 139.882 141.906 139.837 142.068H140.394C140.407 142.013 140.421 141.961 140.434 141.903C140.59 141.28 140.749 140.606 140.91 139.913C141.068 139.969 142.38 140.407 142.99 140.179C143.544 139.972 144.216 139.442 144.464 138.554C144.527 138.345 144.562 138.116 144.568 137.883C144.573 137.65 144.549 137.418 144.497 137.201C144.444 136.984 144.365 136.788 144.263 136.625C144.162 136.462 144.041 136.337 143.908 136.256C143.102 135.81 141.868 137.32 141.417 138.33C141.39 138.389 141.144 139.088 140.995 139.534C141.06 139.25 141.122 138.978 141.187 138.683C141.316 138.105 141.435 137.519 141.562 136.893C141.618 136.584 141.674 136.274 141.732 135.961C141.79 135.648 141.83 135.317 141.884 134.989C141.993 134.23 142.081 133.449 142.161 132.665C142.467 132.849 143.566 133.479 144.136 133.401C144.706 133.324 145.414 132.992 145.742 132.16C145.824 131.969 145.879 131.752 145.906 131.523C145.933 131.294 145.931 131.058 145.899 130.831C145.867 130.603 145.806 130.39 145.72 130.204C145.635 130.018 145.527 129.863 145.403 129.751C144.645 129.11 143.289 130.296 142.751 131.18C142.717 131.235 142.373 131.943 142.188 132.333C142.235 131.862 142.279 131.386 142.317 130.904C142.422 129.512 142.501 128.097 142.585 126.686C142.61 126.255 142.639 125.825 142.666 125.394C142.775 125.464 144.071 126.259 144.708 126.186C145.275 126.119 145.986 125.777 146.314 124.944C146.396 124.753 146.452 124.536 146.479 124.307C146.506 124.078 146.504 123.842 146.472 123.614C146.44 123.387 146.379 123.173 146.293 122.987C146.207 122.801 146.099 122.647 145.975 122.535C145.22 121.891 143.861 123.08 143.323 123.964C143.283 124.031 142.789 125.047 142.67 125.316C142.731 124.366 142.798 123.423 142.894 122.498C143.009 121.246 143.173 120.007 143.385 118.789C143.437 118.822 144.786 119.662 145.441 119.585C146.006 119.519 146.716 119.176 147.045 118.347C147.126 118.156 147.182 117.939 147.209 117.711C147.236 117.482 147.234 117.246 147.202 117.019C147.17 116.791 147.11 116.578 147.025 116.392C146.939 116.206 146.831 116.051 146.708 115.938C145.95 115.294 144.592 116.48 144.053 117.364C144.011 117.434 143.481 118.528 143.394 118.738C143.394 118.668 143.414 118.594 143.428 118.524C143.661 117.312 143.96 116.137 144.321 115.014C144.514 114.388 144.721 113.809 144.929 113.253C145.17 113.452 146.283 114.358 146.875 114.38C147.467 114.402 148.171 114.207 148.553 113.441C148.647 113.266 148.717 113.06 148.759 112.837C148.801 112.614 148.814 112.379 148.797 112.148C148.781 111.916 148.735 111.692 148.662 111.492C148.59 111.291 148.492 111.118 148.376 110.984C147.666 110.207 146.238 111.143 145.644 111.923C145.613 111.964 145.313 112.458 145.097 112.822C145.193 112.572 145.291 112.314 145.385 112.085C145.742 111.201 146.102 110.424 146.424 109.747C146.607 109.378 146.779 109.01 146.942 108.7C147.241 108.7 148.446 108.63 148.973 108.225C149.5 107.82 150.074 107.083 150.2 106.115C150.233 105.888 150.238 105.652 150.213 105.423C150.188 105.193 150.134 104.975 150.055 104.782C149.975 104.589 149.872 104.425 149.752 104.302C149.632 104.179 149.497 104.099 149.357 104.067C148.51 103.916 147.503 105.831 147.195 106.977C147.168 107.076 146.857 108.704 146.873 108.7H146.891C146.73 109.003 146.56 109.327 146.379 109.688C146.048 110.358 145.678 111.12 145.309 111.997C144.902 112.933 144.529 113.907 144.192 114.914C143.812 116.039 143.494 117.217 143.242 118.436V118.48C143.242 118.067 143.242 116.918 143.229 116.83C143.131 115.585 142.498 113.279 141.665 113.021C141.525 112.985 141.382 112.998 141.246 113.059C141.109 113.121 140.982 113.229 140.872 113.376C140.763 113.524 140.673 113.708 140.609 113.917C140.546 114.125 140.51 114.353 140.503 114.587C140.454 115.574 140.887 116.561 141.312 117.187C141.79 117.891 143.115 118.572 143.222 118.624C142.983 119.873 142.796 121.148 142.661 122.44C142.579 123.176 142.512 123.95 142.449 124.716C142.449 124.347 142.449 124.042 142.438 123.979C142.342 122.734 141.71 120.428 140.874 120.171C140.734 120.135 140.591 120.148 140.455 120.209C140.318 120.27 140.191 120.378 140.081 120.526C139.972 120.673 139.882 120.857 139.819 121.066C139.755 121.275 139.719 121.503 139.712 121.736C139.663 122.723 140.097 123.71 140.521 124.336C140.946 124.963 142.074 125.585 142.373 125.744C142.351 126.038 142.326 126.329 142.306 126.624C142.203 128.035 142.105 129.442 141.982 130.816C141.94 131.298 141.886 131.773 141.835 132.248C141.835 131.935 141.835 131.666 141.835 131.626C141.736 130.385 141.104 128.075 140.271 127.821C140.131 127.784 139.988 127.797 139.852 127.858C139.715 127.918 139.588 128.026 139.478 128.173C139.368 128.321 139.279 128.505 139.215 128.713C139.152 128.921 139.116 129.15 139.109 129.383C139.06 130.37 139.493 131.361 139.918 131.983C140.342 132.606 141.361 133.173 141.705 133.364C141.643 133.847 141.58 134.333 141.506 134.797C141.453 135.11 141.415 135.423 141.348 135.733C141.281 136.042 141.227 136.352 141.167 136.657C141.039 137.236 140.91 137.836 140.776 138.396C140.686 138.786 140.595 139.158 140.503 139.53C140.55 139.048 140.628 138.101 140.628 138.024C140.619 136.92 140.438 135.838 140.103 134.882C140.106 134.759 140.101 134.635 140.09 134.514C140.072 134.282 140.025 134.059 139.952 133.859C139.879 133.659 139.781 133.487 139.664 133.354C139.548 133.221 139.416 133.13 139.277 133.087C139.138 133.043 138.994 133.049 138.857 133.103C138.034 133.471 137.516 135.847 137.474 137.099C137.474 137.173 137.5 137.976 137.523 138.484C137.483 138.19 137.445 137.902 137.4 137.6C137.313 137 137.217 136.407 137.114 135.759C137.058 135.449 137 135.144 136.944 134.83C136.888 134.517 136.81 134.197 136.745 133.88C136.582 133.143 136.395 132.407 136.198 131.67C136.515 131.545 137.643 131.073 138.095 130.499C138.546 129.924 139.024 128.996 139.02 128.005C139.023 127.772 138.997 127.54 138.943 127.325C138.889 127.11 138.808 126.916 138.705 126.755C138.603 126.595 138.481 126.472 138.348 126.394C138.214 126.316 138.073 126.285 137.932 126.303C137.085 126.454 136.35 128.679 136.196 129.906C136.196 129.983 136.135 130.886 136.115 131.379C135.995 130.941 135.874 130.506 135.742 130.068C135.365 128.812 134.958 127.559 134.556 126.307C134.433 125.939 134.312 125.541 134.192 125.154C134.303 125.114 135.653 124.598 136.16 123.957C136.607 123.386 137.087 122.454 137.083 121.463C137.087 121.23 137.061 120.998 137.007 120.783C136.953 120.567 136.872 120.373 136.769 120.212C136.666 120.052 136.544 119.929 136.411 119.851C136.277 119.773 136.136 119.743 135.995 119.762C135.148 119.913 134.413 122.137 134.259 123.364C134.259 123.456 134.176 124.753 134.169 125.084C133.901 124.241 133.64 123.39 133.403 122.539C133.081 121.389 132.804 120.207 132.572 118.999C132.626 118.999 134.033 118.45 134.554 117.795C135 117.224 135.481 116.292 135.476 115.301C135.48 115.068 135.454 114.836 135.4 114.62C135.346 114.405 135.265 114.211 135.163 114.05C135.06 113.89 134.938 113.766 134.805 113.689C134.671 113.611 134.529 113.581 134.388 113.599C133.542 113.75 132.806 115.975 132.652 117.202C132.641 117.301 132.565 118.697 132.563 118.951C132.55 118.881 132.532 118.811 132.518 118.741C132.308 117.518 132.164 116.267 132.087 115.003C132.04 114.307 132.018 113.633 132.007 112.981C132.275 112.925 133.499 112.656 134.006 112.152C134.513 111.647 135.029 110.826 135.09 109.842C135.103 109.614 135.088 109.384 135.044 109.166C135.001 108.948 134.93 108.748 134.838 108.577C134.745 108.407 134.632 108.27 134.505 108.175C134.378 108.08 134.241 108.029 134.102 108.026C133.251 108.026 132.373 110.1 132.138 111.294C132.125 111.36 132.04 112.03 131.982 112.539C131.982 112.244 131.982 111.942 131.982 111.658C131.982 110.597 132.025 109.625 132.065 108.763C132.089 108.273 132.118 107.831 132.147 107.419C132.395 107.142 133.378 105.993 133.682 105.175C133.986 104.358 134.221 103.223 134 102.299C133.952 102.079 133.877 101.878 133.78 101.709C133.682 101.54 133.564 101.407 133.433 101.319C133.302 101.23 133.161 101.188 133.02 101.195C132.878 101.202 132.74 101.258 132.612 101.359C131.855 102.004 131.656 104.516 131.781 105.754C131.781 105.861 132.078 107.5 132.092 107.485L132.105 107.467C132.071 107.864 132.04 108.288 132.009 108.756C131.957 109.614 131.904 110.597 131.888 111.655C131.865 112.803 131.882 113.953 131.937 115.099C131.999 116.381 132.129 117.652 132.326 118.896V118.94C132.192 118.594 131.799 117.644 131.763 117.577C131.265 116.627 129.976 115.279 129.183 115.828C129.054 115.925 128.939 116.065 128.845 116.241C128.752 116.416 128.682 116.621 128.64 116.844C128.597 117.067 128.584 117.302 128.601 117.533C128.617 117.765 128.663 117.988 128.736 118.189C129.024 119.047 129.717 119.474 130.277 119.611Z" fill="#65B47B"/>
<path d="M144.884 113.014C144.896 113.014 145.155 111.375 145.164 111.268C145.269 110.026 145.03 107.525 144.27 106.914C144.141 106.818 144.001 106.768 143.86 106.768C143.718 106.767 143.578 106.816 143.448 106.91C143.319 107.005 143.203 107.143 143.108 107.316C143.014 107.49 142.942 107.694 142.898 107.916C142.693 108.848 142.952 109.99 143.262 110.778C143.618 111.71 144.882 113.014 144.884 113.014Z" fill="#65B47B"/>
<path d="M133.51 141.273H144.605V153.06C144.605 154.72 144.205 156.313 143.493 157.487C142.78 158.662 141.814 159.321 140.807 159.321H137.313C136.305 159.321 135.339 158.662 134.627 157.487C133.915 156.313 133.515 154.72 133.515 153.06V141.273H133.51Z" fill="white"/>
<path d="M140.803 159.517H137.313C136.275 159.515 135.28 158.834 134.546 157.624C133.813 156.414 133.4 154.774 133.399 153.063V141.089H144.717V153.063C144.716 154.774 144.303 156.414 143.569 157.624C142.835 158.834 141.84 159.515 140.803 159.517ZM133.622 141.468V153.074C133.623 154.687 134.012 156.234 134.704 157.375C135.396 158.516 136.334 159.157 137.313 159.159H140.803C141.781 159.157 142.719 158.516 143.411 157.375C144.103 156.234 144.492 154.687 144.493 153.074V141.457L133.622 141.468Z" fill="#263238"/>
<path d="M144.605 150.466V148.256C143.723 149.402 142.577 149.148 141.739 148.275C140.217 146.691 138.441 147.929 138.367 147.984C138.294 148.031 138.227 148.102 138.17 148.192C138.113 148.283 138.068 148.392 138.038 148.512C138.008 148.632 137.992 148.761 137.993 148.891C137.993 149.021 138.01 149.15 138.041 149.269C138.073 149.389 138.119 149.496 138.176 149.586C138.234 149.675 138.301 149.744 138.375 149.79C138.449 149.835 138.528 149.855 138.607 149.848C138.686 149.842 138.763 149.809 138.834 149.752C138.834 149.752 140.126 148.875 141.113 149.907C141.744 150.581 142.477 150.946 143.229 150.96C143.703 150.955 144.172 150.787 144.605 150.466Z" fill="white"/>
<path d="M143.229 151.122C142.457 151.107 141.703 150.732 141.055 150.039C140.126 149.07 138.89 149.892 138.879 149.899C138.795 149.963 138.704 149.999 138.611 150.004C138.518 150.01 138.425 149.984 138.339 149.93C138.252 149.875 138.173 149.793 138.105 149.687C138.038 149.582 137.985 149.455 137.948 149.315C137.911 149.174 137.891 149.023 137.89 148.87C137.889 148.717 137.906 148.565 137.941 148.423C137.976 148.282 138.028 148.153 138.093 148.044C138.159 147.936 138.237 147.85 138.323 147.792C138.399 147.737 140.231 146.466 141.799 148.098C142.498 148.835 143.633 149.258 144.536 148.098L144.717 147.862V150.584L144.65 150.632C144.202 150.956 143.718 151.123 143.229 151.122ZM139.969 149.196C140.393 149.18 140.811 149.365 141.174 149.73C141.656 150.264 142.21 150.598 142.789 150.703C143.367 150.808 143.952 150.682 144.493 150.334V148.592C143.533 149.612 142.393 149.151 141.678 148.407C140.211 146.879 138.484 148.08 138.412 148.131C138.351 148.168 138.296 148.224 138.249 148.298C138.202 148.371 138.165 148.459 138.139 148.557C138.114 148.655 138.101 148.76 138.101 148.867C138.101 148.974 138.114 149.079 138.14 149.177C138.166 149.274 138.204 149.362 138.251 149.435C138.298 149.508 138.354 149.564 138.415 149.6C138.475 149.636 138.54 149.651 138.605 149.644C138.669 149.637 138.732 149.609 138.79 149.56C139.167 149.328 139.566 149.209 139.969 149.207V149.196Z" fill="#263238"/>
<path d="M133.51 150.179C134.366 149.938 135.194 149.486 135.968 148.838C137.912 147.299 141.287 145.092 142.056 147.623C142.09 147.736 142.138 147.837 142.196 147.921C142.254 148.004 142.321 148.067 142.394 148.107C142.467 148.148 142.544 148.164 142.621 148.155C142.698 148.146 142.772 148.112 142.841 148.056C142.91 147.999 142.971 147.921 143.022 147.825C143.072 147.729 143.111 147.618 143.135 147.498C143.16 147.378 143.169 147.251 143.164 147.124C143.159 146.998 143.138 146.874 143.104 146.761C142.174 143.704 139.605 143.814 135.463 147.1C134.848 147.609 134.194 147.981 133.519 148.205L133.51 150.179Z" fill="white"/>
<path d="M133.399 150.385V148.065L133.49 148.039C134.155 147.809 134.798 147.438 135.405 146.934C139.612 143.597 142.232 143.512 143.193 146.68C143.271 146.952 143.282 147.263 143.222 147.547C143.163 147.831 143.038 148.066 142.875 148.2C142.712 148.335 142.523 148.358 142.35 148.266C142.176 148.174 142.031 147.974 141.947 147.708C141.196 145.225 137.543 147.789 136.008 149.004C135.226 149.657 134.39 150.114 133.526 150.36L133.399 150.385ZM133.622 148.363V149.954C134.417 149.699 135.188 149.265 135.912 148.665C137.892 147.096 141.337 144.86 142.148 147.534C142.174 147.628 142.212 147.711 142.259 147.78C142.305 147.849 142.359 147.902 142.418 147.937C142.477 147.971 142.54 147.985 142.602 147.98C142.665 147.974 142.726 147.948 142.782 147.903C142.838 147.857 142.888 147.794 142.928 147.716C142.969 147.638 143 147.548 143.019 147.45C143.039 147.352 143.047 147.25 143.043 147.147C143.038 147.045 143.022 146.945 142.994 146.853C142.101 143.906 139.578 144.046 135.501 147.277C134.904 147.767 134.273 148.134 133.622 148.371V148.363Z" fill="#263238"/>
<path d="M135.376 145.693C135.376 145.828 135.352 145.96 135.306 146.072C135.26 146.184 135.196 146.271 135.12 146.323C135.044 146.374 134.961 146.387 134.881 146.361C134.801 146.334 134.727 146.269 134.669 146.173C134.612 146.078 134.573 145.956 134.557 145.823C134.541 145.691 134.55 145.554 134.581 145.429C134.613 145.305 134.666 145.199 134.734 145.124C134.803 145.05 134.883 145.011 134.965 145.011C135.019 145.011 135.073 145.029 135.123 145.063C135.173 145.098 135.218 145.148 135.256 145.211C135.294 145.274 135.325 145.35 135.345 145.432C135.366 145.515 135.376 145.603 135.376 145.693Z" fill="white"/>
<path d="M134.967 146.555C134.864 146.555 134.762 146.504 134.677 146.409C134.591 146.315 134.524 146.18 134.484 146.023C134.444 145.865 134.434 145.692 134.454 145.525C134.474 145.357 134.524 145.204 134.597 145.083C134.67 144.963 134.764 144.881 134.865 144.847C134.966 144.814 135.071 144.831 135.167 144.896C135.263 144.962 135.344 145.072 135.402 145.214C135.459 145.356 135.49 145.522 135.49 145.693C135.489 145.921 135.434 146.14 135.336 146.301C135.238 146.463 135.105 146.554 134.967 146.555ZM134.967 145.199C134.908 145.199 134.85 145.228 134.801 145.282C134.751 145.337 134.713 145.414 134.69 145.504C134.668 145.594 134.662 145.693 134.673 145.789C134.685 145.885 134.713 145.973 134.755 146.042C134.797 146.111 134.85 146.158 134.909 146.177C134.967 146.196 135.027 146.186 135.082 146.149C135.136 146.111 135.183 146.048 135.216 145.967C135.249 145.886 135.266 145.79 135.266 145.693C135.266 145.562 135.234 145.437 135.178 145.345C135.122 145.252 135.046 145.2 134.967 145.199Z" fill="#263238"/>
<path d="M137.749 144.334C137.749 144.469 137.725 144.601 137.68 144.713C137.635 144.826 137.57 144.914 137.495 144.966C137.419 145.018 137.336 145.032 137.256 145.006C137.176 144.98 137.102 144.916 137.044 144.82C136.986 144.725 136.946 144.604 136.93 144.472C136.914 144.339 136.922 144.202 136.953 144.077C136.984 143.953 137.037 143.846 137.105 143.771C137.173 143.696 137.253 143.656 137.335 143.656C137.389 143.655 137.443 143.673 137.493 143.706C137.543 143.74 137.589 143.79 137.627 143.853C137.666 143.916 137.696 143.991 137.717 144.073C137.738 144.156 137.749 144.244 137.749 144.334Z" fill="white"/>
<path d="M137.335 145.199C137.231 145.199 137.13 145.148 137.043 145.053C136.957 144.958 136.89 144.823 136.85 144.665C136.81 144.507 136.8 144.333 136.82 144.165C136.84 143.997 136.89 143.843 136.964 143.721C137.037 143.6 137.131 143.518 137.233 143.485C137.335 143.451 137.44 143.468 137.536 143.534C137.632 143.599 137.714 143.71 137.772 143.853C137.829 143.995 137.86 144.162 137.86 144.334C137.86 144.563 137.805 144.783 137.706 144.946C137.608 145.108 137.474 145.199 137.335 145.199ZM137.335 143.84C137.275 143.84 137.217 143.869 137.167 143.924C137.118 143.979 137.079 144.057 137.056 144.148C137.034 144.239 137.028 144.339 137.04 144.436C137.051 144.532 137.08 144.621 137.123 144.69C137.165 144.76 137.219 144.807 137.278 144.825C137.336 144.844 137.397 144.834 137.452 144.796C137.507 144.757 137.554 144.693 137.587 144.611C137.62 144.529 137.637 144.432 137.637 144.334C137.637 144.268 137.629 144.204 137.614 144.144C137.599 144.084 137.576 144.029 137.548 143.983C137.52 143.937 137.487 143.901 137.45 143.876C137.414 143.852 137.375 143.839 137.335 143.84Z" fill="#263238"/>
<path d="M140.53 143.313C140.53 143.448 140.507 143.581 140.461 143.693C140.416 143.806 140.352 143.894 140.276 143.946C140.2 143.998 140.117 144.012 140.037 143.985C139.956 143.959 139.882 143.894 139.824 143.799C139.767 143.703 139.727 143.582 139.711 143.449C139.695 143.316 139.704 143.179 139.735 143.054C139.767 142.93 139.82 142.823 139.888 142.749C139.957 142.674 140.037 142.635 140.119 142.636C140.228 142.636 140.333 142.707 140.41 142.834C140.487 142.961 140.53 143.134 140.53 143.313Z" fill="white"/>
<path d="M140.119 144.179C140.015 144.18 139.913 144.129 139.827 144.035C139.74 143.94 139.672 143.805 139.632 143.647C139.592 143.489 139.581 143.315 139.601 143.147C139.621 142.979 139.671 142.824 139.745 142.703C139.818 142.581 139.912 142.498 140.013 142.465C140.115 142.431 140.221 142.448 140.317 142.513C140.413 142.579 140.495 142.69 140.553 142.832C140.611 142.974 140.642 143.142 140.642 143.313C140.642 143.542 140.587 143.762 140.489 143.924C140.391 144.086 140.258 144.178 140.119 144.179ZM140.119 142.82C140.059 142.819 140 142.848 139.951 142.902C139.901 142.956 139.862 143.034 139.838 143.125C139.815 143.216 139.809 143.316 139.821 143.413C139.832 143.51 139.861 143.599 139.903 143.669C139.946 143.738 140 143.786 140.058 143.805C140.117 143.824 140.178 143.814 140.233 143.776C140.288 143.738 140.335 143.673 140.368 143.591C140.401 143.509 140.419 143.412 140.418 143.313C140.418 143.183 140.386 143.058 140.33 142.965C140.274 142.873 140.198 142.821 140.119 142.82Z" fill="#263238"/>
<path d="M143.26 143.91C143.26 144.045 143.236 144.177 143.19 144.289C143.145 144.401 143.08 144.488 143.005 144.54C142.929 144.591 142.846 144.605 142.765 144.578C142.685 144.551 142.612 144.486 142.554 144.391C142.496 144.295 142.457 144.173 142.441 144.041C142.426 143.908 142.434 143.771 142.466 143.647C142.497 143.522 142.551 143.416 142.619 143.342C142.687 143.267 142.767 143.228 142.849 143.229C142.903 143.229 142.957 143.246 143.007 143.28C143.057 143.315 143.102 143.365 143.141 143.428C143.179 143.492 143.209 143.567 143.23 143.649C143.25 143.732 143.26 143.821 143.26 143.91Z" fill="white"/>
<path d="M142.849 144.772C142.745 144.773 142.643 144.722 142.557 144.628C142.47 144.533 142.402 144.398 142.362 144.239C142.322 144.081 142.312 143.907 142.332 143.738C142.352 143.57 142.402 143.416 142.476 143.294C142.549 143.173 142.643 143.09 142.745 143.057C142.847 143.024 142.953 143.041 143.049 143.107C143.145 143.173 143.227 143.285 143.284 143.428C143.342 143.571 143.372 143.738 143.372 143.91C143.371 144.138 143.316 144.357 143.218 144.518C143.12 144.68 142.988 144.771 142.849 144.772ZM142.849 143.413C142.807 143.407 142.766 143.415 142.726 143.437C142.686 143.46 142.65 143.495 142.619 143.542C142.588 143.588 142.564 143.645 142.547 143.708C142.53 143.771 142.522 143.839 142.522 143.908C142.522 143.977 142.53 144.045 142.547 144.108C142.564 144.171 142.588 144.228 142.619 144.275C142.65 144.321 142.686 144.357 142.726 144.379C142.766 144.401 142.807 144.409 142.849 144.404C142.924 144.393 142.994 144.336 143.045 144.244C143.096 144.153 143.125 144.033 143.125 143.908C143.125 143.784 143.096 143.664 143.045 143.572C142.994 143.48 142.924 143.423 142.849 143.413Z" fill="#263238"/>
<path d="M139.86 151.045C139.86 151.18 139.835 151.312 139.79 151.424C139.744 151.536 139.68 151.623 139.604 151.675C139.528 151.726 139.445 151.739 139.365 151.713C139.285 151.686 139.211 151.621 139.153 151.525C139.096 151.43 139.057 151.308 139.041 151.175C139.025 151.043 139.034 150.906 139.065 150.781C139.097 150.657 139.15 150.551 139.218 150.476C139.287 150.402 139.367 150.363 139.449 150.363C139.503 150.363 139.557 150.381 139.607 150.415C139.657 150.45 139.702 150.5 139.74 150.563C139.778 150.626 139.809 150.702 139.829 150.784C139.85 150.867 139.86 150.955 139.86 151.045Z" fill="white"/>
<path d="M139.449 151.907C139.345 151.907 139.243 151.857 139.156 151.762C139.069 151.667 139.002 151.532 138.962 151.374C138.922 151.216 138.911 151.041 138.931 150.873C138.952 150.705 139.002 150.55 139.075 150.429C139.149 150.308 139.243 150.225 139.345 150.192C139.447 150.159 139.552 150.176 139.648 150.242C139.744 150.308 139.826 150.419 139.884 150.562C139.941 150.705 139.972 150.873 139.972 151.045C139.971 151.273 139.916 151.492 139.818 151.653C139.72 151.814 139.587 151.906 139.449 151.907ZM139.449 150.547C139.407 150.541 139.365 150.55 139.326 150.572C139.286 150.594 139.25 150.63 139.219 150.676C139.188 150.723 139.163 150.78 139.147 150.843C139.13 150.906 139.121 150.974 139.121 151.043C139.121 151.112 139.13 151.18 139.147 151.243C139.163 151.306 139.188 151.363 139.219 151.409C139.25 151.456 139.286 151.491 139.326 151.514C139.365 151.536 139.407 151.544 139.449 151.538C139.524 151.528 139.594 151.471 139.645 151.379C139.696 151.287 139.724 151.167 139.724 151.043C139.724 150.918 139.696 150.798 139.645 150.707C139.594 150.615 139.524 150.558 139.449 150.547Z" fill="#263238"/>
<path d="M141.922 152.404C141.922 152.539 141.898 152.67 141.852 152.782C141.807 152.894 141.742 152.982 141.667 153.033C141.591 153.085 141.508 153.098 141.428 153.072C141.348 153.046 141.274 152.981 141.216 152.886C141.159 152.79 141.119 152.669 141.103 152.537C141.087 152.405 141.095 152.268 141.127 152.143C141.158 152.019 141.211 151.912 141.279 151.837C141.347 151.762 141.427 151.722 141.509 151.722C141.563 151.722 141.617 151.739 141.667 151.773C141.717 151.807 141.763 151.858 141.802 151.921C141.84 151.984 141.87 152.06 141.891 152.143C141.912 152.225 141.922 152.314 141.922 152.404Z" fill="white"/>
<path d="M141.509 153.266C141.405 153.266 141.303 153.215 141.217 153.12C141.13 153.024 141.063 152.889 141.023 152.731C140.984 152.572 140.973 152.398 140.994 152.23C141.014 152.062 141.064 151.908 141.138 151.787C141.212 151.666 141.306 151.584 141.408 151.551C141.51 151.518 141.615 151.535 141.711 151.602C141.807 151.668 141.889 151.779 141.946 151.922C142.004 152.065 142.034 152.233 142.034 152.404C142.034 152.517 142.02 152.63 141.994 152.735C141.967 152.839 141.928 152.935 141.88 153.015C141.831 153.095 141.773 153.158 141.709 153.201C141.646 153.244 141.577 153.266 141.509 153.266ZM141.509 151.907C141.449 151.907 141.391 151.936 141.341 151.99C141.291 152.045 141.253 152.123 141.23 152.214C141.207 152.304 141.201 152.404 141.213 152.501C141.224 152.597 141.253 152.686 141.295 152.755C141.338 152.825 141.391 152.872 141.45 152.892C141.508 152.911 141.569 152.901 141.624 152.863C141.679 152.826 141.726 152.762 141.759 152.68C141.793 152.598 141.81 152.502 141.81 152.404C141.81 152.339 141.802 152.274 141.787 152.214C141.772 152.153 141.75 152.098 141.722 152.052C141.694 152.006 141.661 151.969 141.624 151.944C141.587 151.919 141.548 151.907 141.509 151.907Z" fill="#263238"/>
<path d="M143.982 152.404C143.982 152.539 143.958 152.671 143.912 152.783C143.867 152.895 143.802 152.982 143.726 153.034C143.651 153.085 143.567 153.098 143.487 153.072C143.407 153.045 143.333 152.98 143.275 152.884C143.218 152.789 143.179 152.667 143.163 152.535C143.147 152.402 143.156 152.265 143.187 152.141C143.219 152.016 143.272 151.91 143.341 151.835C143.409 151.761 143.489 151.722 143.571 151.722C143.625 151.722 143.679 151.74 143.729 151.774C143.779 151.809 143.824 151.859 143.862 151.922C143.9 151.986 143.931 152.061 143.951 152.143C143.972 152.226 143.982 152.315 143.982 152.404Z" fill="white"/>
<path d="M143.571 153.266C143.467 153.266 143.365 153.216 143.278 153.121C143.192 153.027 143.124 152.891 143.084 152.733C143.044 152.575 143.033 152.4 143.053 152.232C143.074 152.064 143.124 151.909 143.197 151.788C143.271 151.667 143.365 151.584 143.467 151.551C143.569 151.518 143.674 151.535 143.77 151.601C143.867 151.667 143.948 151.779 144.006 151.922C144.064 152.064 144.094 152.232 144.094 152.404C144.093 152.632 144.038 152.851 143.94 153.012C143.842 153.174 143.709 153.265 143.571 153.266ZM143.571 151.907C143.529 151.901 143.487 151.909 143.448 151.931C143.408 151.953 143.372 151.989 143.341 152.036C143.31 152.082 143.286 152.139 143.269 152.202C143.252 152.265 143.243 152.333 143.243 152.402C143.243 152.471 143.252 152.539 143.269 152.602C143.286 152.665 143.31 152.722 143.341 152.768C143.372 152.815 143.408 152.851 143.448 152.873C143.487 152.895 143.529 152.903 143.571 152.897C143.646 152.887 143.716 152.83 143.767 152.738C143.818 152.646 143.846 152.526 143.846 152.402C143.846 152.278 143.818 152.158 143.767 152.066C143.716 151.974 143.646 151.917 143.571 151.907Z" fill="#263238"/>
<path d="M137.795 40.311C137.601 40.311 137.427 40.311 137.277 40.2852C137.127 40.2594 136.982 40.2447 136.846 40.2152C136.707 40.1876 136.569 40.1482 136.433 40.0974L135.986 39.9095C135.762 39.8027 135.539 39.6775 135.286 39.5412C135.079 39.4129 134.86 39.3408 134.639 39.3275C134.579 39.3166 134.519 39.3253 134.462 39.3531C134.405 39.3809 134.352 39.4273 134.306 39.4896C134.238 39.6239 134.186 39.7775 134.152 39.9427H133.901V34.1855H134.08C134.2 35.3064 134.439 36.3836 134.786 37.368C135.032 38.0438 135.36 38.6273 135.751 39.0808C136.068 39.4373 136.428 39.6784 136.806 39.788C137.133 39.8824 137.464 39.9317 137.795 39.9353V31.2462L136.855 30.7894C135.961 30.3622 135.296 29.774 134.86 29.0251C134.634 28.6334 134.458 28.1706 134.343 27.6643C134.227 27.158 134.175 26.6186 134.189 26.0784C134.186 25.3135 134.274 24.5549 134.449 23.8463C134.615 23.1805 134.864 22.5795 135.179 22.0819C135.507 21.5783 135.89 21.1831 136.307 20.918C136.765 20.6278 137.252 20.4828 137.742 20.4907H137.791V18.8626H138.014V20.4944C138.291 20.5178 138.565 20.5894 138.832 20.708C139.031 20.8033 139.227 20.9189 139.417 21.0542C139.583 21.1795 139.735 21.2937 139.864 21.3894C139.994 21.4866 140.135 21.5369 140.278 21.5368C140.376 21.5532 140.474 21.5212 140.561 21.4447C140.644 21.3079 140.713 21.1499 140.765 20.9769H140.988V25.7911H140.794C140.729 25.1854 140.626 24.5927 140.485 24.0231C140.351 23.4719 140.166 22.9586 139.936 22.5018C139.705 22.0546 139.427 21.6802 139.116 21.3968C138.771 21.0898 138.39 20.9124 137.999 20.8774V28.4431L139.339 29.0877C139.488 29.1565 139.718 29.2793 140.03 29.4561C140.371 29.6619 140.692 29.9486 140.984 30.3069C141.305 30.707 141.58 31.2 141.795 31.7619C142.041 32.4445 142.162 33.2299 142.143 34.0235C142.143 34.8347 142.047 35.6382 141.859 36.3882C141.673 37.1396 141.397 37.822 141.048 38.3956C140.678 38.9945 140.239 39.4664 139.757 39.7843C139.206 40.1467 138.617 40.3245 138.023 40.3073V42.1785H137.8L137.795 40.311ZM137.795 20.8701H137.746C137.457 20.8749 137.168 20.933 136.886 21.0432C136.576 21.1565 136.28 21.3558 136.01 21.6325C135.738 21.9109 135.509 22.2891 135.34 22.7375C135.152 23.2686 135.059 23.8764 135.072 24.4908C135.061 25.0027 135.131 25.5106 135.275 25.9642C135.409 26.3645 135.591 26.7146 135.811 26.9919C136.039 27.2858 136.293 27.5206 136.564 27.688C136.841 27.8639 137.123 28.0151 137.409 28.1411L137.798 28.3289L137.795 20.8701ZM138.019 39.9353C138.502 39.965 138.983 39.8191 139.429 39.508C139.765 39.2628 140.064 38.8981 140.304 38.4398C140.512 38.0296 140.664 37.5512 140.751 37.0365C140.834 36.5796 140.878 36.1062 140.883 35.6294C140.893 35.0679 140.826 34.5099 140.686 33.9977C140.568 33.5791 140.4 33.2035 140.193 32.8927C139.997 32.6035 139.775 32.365 139.536 32.1854C139.319 32.0179 139.095 31.8751 138.866 31.7582L138.023 31.3567L138.019 39.9353Z" fill="#263238"/>
<path d="M137.795 44.6721C136.186 44.6721 134.613 43.8853 133.275 42.4111C131.936 40.9369 130.894 38.8415 130.278 36.39C129.662 33.9386 129.501 31.2411 129.815 28.6388C130.129 26.0364 130.904 23.6461 132.043 21.7702C133.181 19.8942 134.631 18.6169 136.209 18.0997C137.788 17.5825 139.424 17.8486 140.911 18.8645C142.398 19.8805 143.668 21.6004 144.562 23.807C145.456 26.0136 145.933 28.6075 145.932 31.2609C145.929 34.8169 145.071 38.2259 143.546 40.74C142.02 43.2541 139.952 44.6682 137.795 44.6721ZM137.795 18.2144C136.23 18.2144 134.7 18.9795 133.399 20.4131C132.098 21.8467 131.083 23.8843 130.484 26.2682C129.885 28.6522 129.729 31.2754 130.034 33.8062C130.339 36.337 131.093 38.6616 132.2 40.4862C133.307 42.3108 134.717 43.5534 136.252 44.0568C137.787 44.5602 139.378 44.3018 140.824 43.3144C142.27 42.3269 143.506 40.6547 144.375 38.5092C145.245 36.3637 145.709 33.8413 145.709 31.2609C145.709 27.7994 144.875 24.4794 143.392 22.0304C141.908 19.5814 139.895 18.2035 137.795 18.1996V18.2144Z" fill="#263238"/>
<path d="M20.5683 130.956C20.4432 131.154 20.327 131.324 20.222 131.468C20.117 131.611 20.0165 131.74 19.9204 131.862C19.8204 131.986 19.7159 132.1 19.6076 132.204C19.4959 132.315 19.3842 132.429 19.2435 132.547C19.0647 132.701 18.8681 132.856 18.6536 133.018C18.4705 133.146 18.3014 133.323 18.1532 133.541C18.1107 133.594 18.0751 133.66 18.0486 133.736C18.0221 133.812 18.0053 133.896 17.999 133.983C18.0046 134.139 18.0289 134.292 18.0705 134.433L17.9119 134.683L15.7559 130.967L15.8721 130.786C16.3692 131.39 16.9275 131.842 17.5209 132.123C17.9326 132.309 18.3634 132.35 18.7855 132.245C19.1242 132.151 19.4471 131.941 19.7327 131.626C19.9795 131.354 20.2119 131.049 20.4276 130.712L17.1679 125.099L16.3904 125.766C15.797 126.332 15.1256 126.639 14.44 126.657C14.1478 126.634 13.8614 126.513 13.5981 126.303C13.3348 126.093 13.0998 125.797 12.9073 125.434C12.6168 124.946 12.3889 124.366 12.2371 123.729C12.0933 123.131 12.0286 122.489 12.0472 121.847C12.069 121.188 12.1676 120.543 12.3376 119.946C12.5239 119.289 12.7848 118.698 13.1062 118.204L13.1375 118.156L12.5253 117.102L12.6705 116.87L13.2827 117.924C13.47 117.658 13.6746 117.427 13.8926 117.235C14.0564 117.093 14.2259 116.97 14.3998 116.867L14.8198 116.62C14.9397 116.549 15.0493 116.437 15.1415 116.292C15.2137 116.199 15.2655 116.07 15.289 115.924C15.2912 115.751 15.2761 115.58 15.2443 115.415L15.3917 115.183L17.188 118.303L17.0629 118.498C16.7938 118.174 16.5048 117.898 16.2005 117.673C15.91 117.45 15.6002 117.302 15.2823 117.235C14.9654 117.18 14.6451 117.221 14.3372 117.356C14.0005 117.506 13.6883 117.778 13.4234 118.152L16.2608 123.04L17.3779 122.082C17.503 121.972 17.6996 121.821 17.97 121.629C18.2619 121.427 18.5695 121.294 18.8838 121.231C19.2417 121.161 19.6045 121.2 19.9539 121.346C20.3685 121.536 20.7409 121.92 21.0263 122.451C21.3317 122.973 21.571 123.59 21.7301 124.267C21.8907 124.943 21.9667 125.666 21.9535 126.392C21.9396 127.155 21.8341 127.906 21.643 128.602C21.422 129.398 21.1077 130.114 20.718 130.709L21.4195 131.917L21.2721 132.149L20.5683 130.956ZM13.276 118.395L13.2447 118.447C13.0598 118.749 12.8957 119.084 12.7554 119.445C12.5978 119.835 12.4808 120.266 12.4091 120.719C12.3398 121.182 12.3352 121.664 12.3957 122.13C12.4739 122.664 12.6419 123.15 12.8805 123.534C13.0627 123.868 13.2933 124.122 13.5508 124.27C13.7876 124.392 14.037 124.432 14.2836 124.388C14.5414 124.344 14.7938 124.236 15.032 124.068C15.2764 123.901 15.5151 123.713 15.747 123.504L16.0687 123.228L13.276 118.395ZM20.575 130.495C20.8975 130.02 21.1536 129.436 21.3257 128.782C21.4499 128.28 21.5063 127.74 21.491 127.198C21.4719 126.72 21.3919 126.253 21.2565 125.828C21.1373 125.45 20.987 125.1 20.8096 124.79C20.606 124.417 20.354 124.125 20.0723 123.935C19.8387 123.782 19.5886 123.709 19.3373 123.721C19.1021 123.734 18.8694 123.805 18.6469 123.931C18.4412 124.049 18.2404 124.189 18.0459 124.351L17.3511 124.952L20.575 130.495Z" fill="#263238"/>
<path d="M17.1701 137.125C15.478 137.121 13.8396 136.145 12.5363 134.366C11.233 132.587 10.3461 130.115 10.0278 127.375C9.70964 124.636 9.98001 121.798 10.7925 119.351C11.605 116.904 12.909 115 14.4805 113.966C16.0519 112.931 17.7928 112.831 19.4042 113.682C21.0156 114.534 22.3968 116.284 23.3108 118.631C24.2248 120.979 24.6144 123.778 24.4128 126.548C24.2112 129.318 23.4309 131.886 22.206 133.81C20.8499 135.945 19.0454 137.133 17.1701 137.125ZM17.1701 113.474C15.3497 113.509 13.6116 114.73 12.3355 116.87C11.0593 119.011 10.3489 121.897 10.3594 124.898C10.3699 127.9 11.1004 130.772 12.3914 132.888C13.6824 135.005 15.4289 136.193 17.2495 136.193C19.07 136.193 20.8165 135.005 22.1075 132.888C23.3985 130.772 24.1291 127.9 24.1395 124.898C24.15 121.897 23.4396 119.011 22.1634 116.87C20.8873 114.73 19.1492 113.509 17.3288 113.474H17.1701Z" fill="#263238"/>
<path d="M142.932 77.8447C142.858 77.9295 142.791 77.9994 142.731 78.0584C142.67 78.1173 142.612 78.1726 142.556 78.2205C142.499 78.2698 142.44 78.314 142.38 78.3531C142.317 78.3973 142.25 78.4378 142.177 78.482C142.103 78.5262 141.971 78.5888 141.853 78.6404C141.753 78.683 141.658 78.7514 141.571 78.8429C141.523 78.8888 141.487 78.9623 141.471 79.0492C141.467 79.1299 141.472 79.2111 141.486 79.2886L141.392 79.3918L140.474 77.2075L140.541 77.1302C140.765 77.5056 141.029 77.8113 141.319 78.0326C141.52 78.183 141.739 78.2621 141.96 78.2647C142.137 78.262 142.312 78.198 142.474 78.0768C142.612 77.9724 142.745 77.8492 142.871 77.7085L141.482 74.3934L141.053 74.6328C140.721 74.8419 140.363 74.909 140.012 74.828C139.864 74.7776 139.723 74.6781 139.599 74.5357C139.475 74.3932 139.37 74.2107 139.29 73.9993C139.166 73.7104 139.078 73.3836 139.031 73.0379C138.989 72.7126 138.989 72.3761 139.031 72.0508C139.074 71.7162 139.156 71.3986 139.272 71.1152C139.4 70.806 139.562 70.5398 139.75 70.3306L139.768 70.3085L139.507 69.6897L139.594 69.5903L139.855 70.2091C139.964 70.0992 140.079 70.0079 140.199 69.9365C140.291 69.8859 140.384 69.8453 140.479 69.815L140.702 69.745C140.767 69.7248 140.829 69.6821 140.883 69.6197C140.923 69.5835 140.955 69.5282 140.975 69.4614C140.983 69.3735 140.983 69.284 140.975 69.1961L141.062 69.0967L141.83 70.9384L141.757 71.0231C141.636 70.821 141.503 70.6407 141.359 70.4853C141.221 70.3355 141.071 70.2212 140.912 70.1465C140.753 70.0749 140.587 70.0524 140.423 70.0802C140.244 70.1124 140.072 70.2092 139.918 70.3638L141.127 73.2405L141.741 72.898C141.81 72.8611 141.917 72.8096 142.065 72.7469C142.224 72.6828 142.388 72.6555 142.552 72.6659C142.738 72.6766 142.921 72.744 143.093 72.8648C143.294 73.0191 143.466 73.2643 143.586 73.572C143.848 74.1958 143.95 74.9649 143.87 75.7121C143.824 76.0994 143.733 76.4684 143.602 76.7987C143.449 77.1754 143.254 77.4994 143.026 77.7527L143.325 78.4636L143.238 78.563L142.932 77.8447ZM139.824 70.4559L139.806 70.478C139.696 70.6039 139.596 70.7511 139.507 70.9163C139.407 71.0942 139.326 71.2984 139.268 71.5204C139.207 71.7523 139.181 72.005 139.192 72.257C139.205 72.5414 139.267 72.8136 139.371 73.0416C139.448 73.2373 139.554 73.3971 139.679 73.5057C139.794 73.6003 139.919 73.6543 140.047 73.6641C140.181 73.6761 140.315 73.655 140.445 73.6015C140.578 73.5486 140.71 73.4834 140.838 73.4063L141.017 73.3105L139.824 70.4559ZM142.952 77.6016C143.141 77.4046 143.3 77.1403 143.419 76.8281C143.509 76.589 143.564 76.3196 143.582 76.0399C143.596 75.7911 143.579 75.5401 143.531 75.3032C143.488 75.0934 143.429 74.8939 143.354 74.7102C143.268 74.4935 143.153 74.3111 143.019 74.1761C142.907 74.0673 142.783 73.9972 142.655 73.9698C142.534 73.9403 142.411 73.9403 142.291 73.9698C142.18 74.0026 142.071 74.0481 141.964 74.1061L141.58 74.3197L142.952 77.6016Z" fill="#263238"/>
<path d="M141.489 80.6994C140.83 80.7032 140.183 80.4267 139.608 79.8968C139.034 79.3669 138.552 78.6015 138.21 77.6747C137.868 76.7478 137.676 75.691 137.655 74.6064C137.633 73.5219 137.781 72.4464 138.085 71.4842C138.389 70.5219 138.839 69.7055 139.391 69.1138C139.943 68.5222 140.578 68.1755 141.235 68.1073C141.892 68.0391 142.548 68.2516 143.14 68.7244C143.733 69.1971 144.241 69.9141 144.616 70.8058C145.013 71.7497 145.246 72.8545 145.29 74.0008C145.334 75.1472 145.187 76.2915 144.865 77.3101C144.543 78.3286 144.058 79.1828 143.463 79.7801C142.868 80.3775 142.185 80.6953 141.489 80.6994ZM141.475 68.4631C140.818 68.4653 140.175 68.7635 139.613 69.3257C139.052 69.8878 138.595 70.6924 138.291 71.6522C137.987 72.6121 137.849 73.6907 137.89 74.7712C137.931 75.8517 138.151 76.8929 138.526 77.7821C138.862 78.5867 139.314 79.2419 139.841 79.6896C140.368 80.1372 140.953 80.3635 141.546 80.3482C142.139 80.333 142.72 80.0767 143.238 79.6021C143.756 79.1275 144.195 78.4494 144.516 77.6279C144.837 76.8063 145.03 75.8669 145.077 74.8929C145.125 73.919 145.026 72.9407 144.789 72.0449C144.553 71.1491 144.185 70.3635 143.72 69.7579C143.255 69.1524 142.706 68.7456 142.123 68.5736C141.909 68.5059 141.693 68.469 141.475 68.4631Z" fill="#263238"/>
<path d="M14.402 70.4559C14.3126 70.4559 14.2322 70.4559 14.1629 70.4559C14.0937 70.4559 14.0266 70.4374 13.9641 70.4227C13.8994 70.4111 13.8352 70.3927 13.7719 70.3675L13.5619 70.2827L13.2402 70.0875C13.1436 70.0274 13.0417 69.9938 12.9386 69.9881C12.9116 69.9823 12.8841 69.9859 12.8579 69.9986C12.8318 70.0113 12.8075 70.0328 12.7867 70.0617C12.7539 70.1223 12.7295 70.194 12.7152 70.2717H12.6012V67.6123H12.6839C12.7403 68.1307 12.8507 68.6292 13.0101 69.0856C13.1239 69.3971 13.2761 69.6656 13.4569 69.8739C13.6034 70.0385 13.7694 70.1502 13.944 70.2017C14.0914 70.2459 14.2409 70.2693 14.3908 70.2717V66.2531L13.944 66.0432C13.5995 65.9032 13.2821 65.6219 13.0213 65.2254C12.918 65.0439 12.8377 64.8301 12.7851 64.5967C12.7326 64.3633 12.7088 64.115 12.7152 63.8663C12.7134 63.5119 12.7537 63.1603 12.8336 62.8312C12.9105 62.5232 13.0262 62.2457 13.1732 62.0172C13.3232 61.7817 13.5002 61.5976 13.6937 61.4758C13.9078 61.3423 14.1351 61.2761 14.364 61.2805H14.3863V60.5107H14.507V61.2658C14.6355 61.2747 14.7629 61.3081 14.8868 61.3653C14.9789 61.4083 15.0692 61.4612 15.1571 61.5236L15.3671 61.6783C15.4265 61.7244 15.4914 61.7483 15.557 61.7483C15.6027 61.7563 15.6487 61.7408 15.6889 61.7041C15.7271 61.6406 15.7588 61.5672 15.7827 61.4868H15.8877V63.7153H15.7983C15.7678 63.4353 15.7198 63.1613 15.6553 62.8975C15.5929 62.6473 15.5069 62.4149 15.4006 62.2088C15.2941 62.0002 15.1654 61.8255 15.0208 61.6931C14.8625 61.5512 14.6869 61.4694 14.507 61.4537V64.9529L15.1303 65.2512C15.1996 65.2844 15.3068 65.3433 15.4498 65.428C15.602 65.5259 15.7456 65.6573 15.8765 65.8185C16.0259 66.0029 16.1531 66.2315 16.2519 66.4925C16.3654 66.8084 16.4213 67.1717 16.4127 67.5386C16.4137 67.9177 16.3689 68.2934 16.2809 68.6436C16.1947 68.9913 16.067 69.3069 15.9056 69.5718C15.7355 69.8507 15.5325 70.0689 15.309 70.2128C15.0542 70.3814 14.7815 70.4641 14.507 70.4559V71.3215H14.402V70.4559ZM14.402 61.4647H14.3796C14.2456 61.4668 14.1122 61.494 13.9819 61.5457C13.8389 61.5973 13.7022 61.6882 13.5776 61.8146C13.4506 61.9461 13.3436 62.1237 13.2648 62.334C13.1795 62.5804 13.137 62.8608 13.1419 63.1443C13.1375 63.3786 13.1698 63.6107 13.2357 63.8184C13.2976 64.0043 13.382 64.1673 13.4837 64.2972C13.5894 64.4325 13.7069 64.5405 13.8323 64.6177C13.9618 64.6987 14.0914 64.7687 14.2232 64.8276L14.402 64.916V61.4647ZM14.507 70.2717C14.7307 70.2851 14.9534 70.2172 15.1594 70.0728C15.3151 69.9591 15.4539 69.7906 15.566 69.5792C15.662 69.389 15.7335 69.1684 15.776 68.9309C15.814 68.7192 15.8343 68.4998 15.8363 68.279C15.8405 68.0191 15.8092 67.7611 15.7447 67.5239C15.6906 67.3314 15.6147 67.1577 15.5213 67.0119C15.43 66.8792 15.3277 66.7688 15.2174 66.6841C15.1149 66.6074 15.0098 66.541 14.9024 66.4852L14.5114 66.301L14.507 70.2717Z" fill="#263238"/>
<path d="M14.402 72.5554C13.6453 72.5561 12.9055 72.1868 12.2762 71.4942C11.6468 70.8015 11.1562 69.8167 10.8665 68.6643C10.5767 67.5119 10.5008 66.2437 10.6483 65.0201C10.7958 63.7965 11.1601 62.6726 11.6952 61.7904C12.2302 60.9083 12.912 60.3077 13.6541 60.0645C14.3963 59.8213 15.1656 59.9464 15.8646 60.4242C16.5636 60.9019 17.1609 61.7107 17.581 62.7483C18.0011 63.7859 18.2251 65.0056 18.2247 66.2531C18.2229 67.9237 17.8196 69.525 17.1031 70.7063C16.3866 71.8875 15.4153 72.5525 14.402 72.5554ZM14.402 60.3155C13.6896 60.3148 12.9931 60.6624 12.4005 61.3144C11.808 61.9664 11.346 62.8934 11.0731 63.9783C10.8002 65.0632 10.7285 66.2572 10.8672 67.4092C11.006 68.5613 11.3488 69.6196 11.8524 70.4503C12.356 71.2811 12.9977 71.847 13.6964 72.0764C14.395 72.3058 15.1193 72.1884 15.7775 71.7391C16.4357 71.2898 16.9983 70.5288 17.3942 69.5523C17.79 68.5757 18.0013 67.4276 18.0013 66.2531C18.0007 64.6793 17.6214 63.1702 16.9466 62.057C16.2718 60.9438 15.3566 60.3174 14.402 60.3155Z" fill="#263238"/>
<path d="M85.051 14.1368C84.9393 14.03 84.8433 13.9269 84.7606 13.8348C84.6779 13.7427 84.5997 13.6506 84.5372 13.5585C84.4594 13.4672 84.3849 13.3689 84.3138 13.2639L84.0903 12.8955C83.9876 12.7151 83.8803 12.5272 83.7664 12.2951C83.6736 12.1069 83.5626 11.9451 83.438 11.8163C83.4068 11.7759 83.3707 11.7467 83.3322 11.7309C83.2937 11.715 83.2536 11.7127 83.2145 11.7242C83.1477 11.761 83.0861 11.8199 83.0336 11.8973L82.8928 11.7647L84.0613 8.47547L84.1618 8.57124C84.0035 9.27895 83.9219 10.027 83.9205 10.7813C83.9231 11.3042 83.9932 11.8203 84.1261 12.2951C84.2352 12.6734 84.3912 13.0097 84.5841 13.2823C84.7532 13.5137 84.9324 13.7242 85.1203 13.9122L86.8942 8.94326L86.4474 8.16239C86.0816 7.58059 85.8124 6.85394 85.6654 6.0518C85.6169 5.70326 85.6116 5.34211 85.65 4.99013C85.6884 4.63815 85.7697 4.30265 85.8889 4.00384C86.0406 3.56255 86.245 3.1766 86.4898 2.86936C86.7187 2.57713 86.9832 2.36982 87.2651 2.2616C87.5541 2.15421 87.8529 2.13921 88.1454 2.2174C88.4668 2.3041 88.7753 2.49032 89.0547 2.76622L89.0815 2.792L89.4144 1.86011L89.544 1.98534L89.2133 2.91724C89.3667 3.08356 89.509 3.27617 89.6378 3.49185C89.7328 3.65615 89.8208 3.8309 89.9014 4.01489C89.9707 4.17696 90.0355 4.32429 90.0936 4.45321C90.1472 4.58133 90.2174 4.68826 90.2991 4.7663C90.3468 4.83508 90.406 4.8787 90.4689 4.89154C90.5446 4.86071 90.6164 4.80836 90.6812 4.73683L90.8107 4.86207L89.8344 7.61724L89.7227 7.50674C89.8078 7.12534 89.8685 6.73029 89.9037 6.32806C89.9406 5.93875 89.9406 5.54236 89.9037 5.15306C89.8645 4.76313 89.7819 4.3885 89.6601 4.04804C89.5252 3.68452 89.3437 3.37402 89.1284 3.13824L87.5913 7.46991L88.2347 8.57492C88.3085 8.70016 88.4135 8.89906 88.552 9.179C88.6989 9.47987 88.8192 9.81344 88.9095 10.1698C89.0131 10.5763 89.0699 11.0109 89.077 11.4517C89.0792 11.9738 88.9892 12.4858 88.8179 12.925C88.6543 13.3934 88.4361 13.8035 88.1756 14.1317C87.9152 14.4599 87.6179 14.6995 87.3009 14.8367C86.9672 14.9749 86.6203 15.0037 86.2798 14.9214C85.8907 14.823 85.5171 14.599 85.1806 14.2621L84.8008 15.3339L84.6712 15.2087L85.051 14.1368ZM88.9966 3.01301L88.9698 2.98722C88.8027 2.83319 88.6259 2.70968 88.4425 2.61889C88.2419 2.51313 88.032 2.46333 87.8214 2.47155C87.6073 2.48288 87.3977 2.5762 87.2092 2.74412C86.9939 2.94385 86.8172 3.24015 86.6999 3.59867C86.592 3.88374 86.5305 4.20971 86.5211 4.5453C86.5161 4.8477 86.5488 5.14859 86.6172 5.42931C86.6893 5.72262 86.7872 5.99689 86.9076 6.24334C87.0301 6.4999 87.1606 6.74579 87.2986 6.98002L87.4841 7.30047L88.9966 3.01301ZM85.2566 14.0632C85.5275 14.3457 85.8324 14.5279 86.1503 14.5973C86.3922 14.6403 86.6368 14.5963 86.8674 14.4683C87.071 14.3505 87.2569 14.1621 87.4126 13.9158C87.5523 13.6984 87.6733 13.4506 87.7723 13.1792C87.8928 12.8647 87.9691 12.5098 87.9957 12.1404C88.0134 11.8338 87.9937 11.5245 87.9376 11.2306C87.888 10.9575 87.8126 10.699 87.7142 10.4645C87.6226 10.2456 87.5218 10.0376 87.4126 9.84201L87.0104 9.14953L85.2566 14.0632Z" fill="#263238"/>
<path d="M86.8943 17.9013C85.6979 17.8978 84.5357 17.2429 83.5884 16.0384C82.641 14.8338 81.9615 13.1471 81.6554 11.2404C81.3494 9.33358 81.4339 7.31354 81.8959 5.49415C82.358 3.67475 83.1715 2.15791 84.2103 1.17932C85.249 0.200736 86.4547 -0.184778 87.64 0.0826903C88.8254 0.350158 89.9239 1.25563 90.7649 2.65839C91.606 4.06115 92.1424 5.88263 92.2909 7.83978C92.4394 9.79693 92.1916 11.7801 91.586 13.4812C91.1058 14.8287 90.4201 15.9456 89.5971 16.721C88.774 17.4964 87.8422 17.9033 86.8943 17.9013ZM86.9121 0.368338C85.9987 0.362238 85.1003 0.752527 84.3073 1.5C83.5143 2.24748 82.8546 3.32582 82.3944 4.62672C81.9341 5.92761 81.6897 7.40526 81.6855 8.91123C81.6813 10.4172 81.9175 11.8985 82.3705 13.2063C82.8235 14.5141 83.4772 15.6023 84.266 16.3618C85.0548 17.1212 85.951 17.525 86.8644 17.5327C87.7779 17.5404 88.6765 17.1517 89.47 16.4057C90.2635 15.6596 90.9239 14.5824 91.3849 13.2823C91.848 11.9789 92.094 10.4971 92.0982 8.98662C92.1025 7.47617 91.8648 5.99065 91.4091 4.68025C90.9534 3.36986 90.2959 2.28105 89.5032 1.52391C88.7104 0.766772 87.8104 0.368146 86.8943 0.368338H86.9121Z" fill="#263238"/>
<path d="M124.994 49.6889V28.0968H85.1293V49.7036L85.8152 51.4164C86.2873 52.5219 86.9686 53.338 87.7522 53.7369C88.9318 54.3778 90.2098 53.8842 91.2397 52.7498C92.0078 51.8863 92.9151 51.4219 93.8448 51.4164C96.6263 51.4164 98.8627 55.5381 98.8627 60.6764C98.8627 65.8147 96.6286 69.907 93.8448 69.907C92.9151 69.9015 92.0078 69.4371 91.2397 68.5736C90.2009 67.4097 88.914 66.9161 87.7343 67.5865C86.9552 67.9682 86.2783 68.7763 85.8152 69.8775L85.1293 71.5608V93.4807H98.4226L99.4615 92.3462C100.132 91.5856 100.623 90.4686 100.853 89.1822C101.258 87.2373 100.958 85.1304 100.255 83.4066C99.7299 82.1409 99.4474 80.6449 99.4436 79.1118C99.4436 74.5223 101.946 70.8352 105.045 70.8352C108.143 70.8352 110.661 74.5186 110.661 79.1118C110.658 80.6449 110.375 82.1409 109.85 83.4066C109.165 85.0899 108.865 87.2079 109.252 89.1564C109.495 90.4475 109.99 91.5693 110.661 92.3462L111.7 93.4807H124.994V71.5608L125.02 71.4982L125.007 49.7036L124.994 49.6889Z" fill="white"/>
<path d="M124.994 93.6796H111.694C111.672 93.6789 111.65 93.6687 111.631 93.6501L110.592 92.5156C109.901 91.7138 109.39 90.5572 109.14 89.2264C108.765 87.3442 108.988 85.1746 109.752 83.333C110.264 82.0979 110.54 80.6376 110.543 79.1413C110.543 74.6807 108.074 71.0378 105.038 71.0378C102.002 71.0378 99.5486 74.6696 99.5486 79.1413C99.5526 80.6373 99.8281 82.0972 100.34 83.333C101.119 85.2299 101.343 87.3847 100.952 89.2743C100.716 90.5998 100.209 91.75 99.5174 92.5304L98.4852 93.6612C98.4664 93.6803 98.4447 93.6904 98.4226 93.6906H85.1293C85.0997 93.6906 85.0712 93.6712 85.0503 93.6367C85.0293 93.6022 85.0176 93.5553 85.0176 93.5065V71.5608C85.0176 71.5256 85.0238 71.491 85.0354 71.4614L85.7213 69.7486C86.1962 68.6072 86.8954 67.7707 87.7008 67.3802C88.838 66.7356 90.1584 67.1039 91.3023 68.3894C92.0497 69.2432 92.9356 69.7065 93.8448 69.7192C96.5504 69.7192 98.76 65.6674 98.76 60.6727C98.76 55.6781 96.5593 51.5969 93.8448 51.5969C92.9372 51.6019 92.0515 52.0561 91.3023 52.9008C90.1651 54.1605 88.8581 54.5252 87.7276 53.91C86.9203 53.4978 86.2186 52.6558 85.7325 51.5158L85.0444 49.7994C85.0331 49.7695 85.0269 49.7351 85.0265 49.6999V28.0969C85.0265 28.048 85.0383 28.0012 85.0592 27.9666C85.0802 27.9321 85.1086 27.9127 85.1382 27.9127H124.994C125.023 27.9127 125.052 27.9321 125.073 27.9666C125.094 28.0012 125.105 28.048 125.105 28.0969V49.6484C125.114 49.6742 125.119 49.7034 125.119 49.7331L125.132 71.5277C125.132 71.564 125.126 71.5996 125.114 71.6308V93.4954C125.114 93.5209 125.111 93.5461 125.105 93.5695C125.099 93.5928 125.09 93.6138 125.078 93.6311C125.067 93.6485 125.054 93.6617 125.039 93.67C125.025 93.6784 125.009 93.6816 124.994 93.6796ZM111.734 93.3112H124.875V71.5608C124.875 71.5249 124.882 71.49 124.895 71.4614V71.443L124.882 49.7589C124.873 49.733 124.868 49.7038 124.869 49.6741V28.2663H85.241V49.6299L85.9112 51.2948C86.3688 52.367 87.0287 53.1596 87.788 53.5491C88.8626 54.1311 90.0981 53.7774 91.1772 52.584C91.9635 51.6988 92.8927 51.2228 93.8448 51.2175C96.6733 51.2175 98.9834 55.4534 98.9834 60.6617C98.9834 65.87 96.6822 70.0764 93.8448 70.0764C92.8927 70.0711 91.9635 69.5951 91.1772 68.7099C90.0847 67.4907 88.8425 67.1371 87.7701 67.7449C87.0141 68.107 86.3569 68.8875 85.909 69.9549L85.2388 71.6198V93.3002H98.3869L99.399 92.1952C100.047 91.4575 100.52 90.3737 100.739 89.1269C101.108 87.3552 100.896 85.3109 100.154 83.5098C99.6182 82.2127 99.3295 80.6812 99.3252 79.1118C99.3252 74.4449 101.888 70.64 105.038 70.64C108.188 70.64 110.766 74.4339 110.766 79.1118C110.763 80.6815 110.474 82.2135 109.938 83.5098C109.211 85.2888 108.999 87.3221 109.352 89.0975C109.586 90.351 110.067 91.4407 110.717 92.1952L111.734 93.3112Z" fill="black"/>
<path d="M97.8707 44.4622C97.6093 44.801 97.0999 44.9668 96.347 44.9668C95.5812 44.9641 94.8243 44.6942 94.1263 44.1749C93.4009 43.6518 92.5884 43.0539 91.6888 42.381C90.673 41.6434 89.628 41.0207 88.5609 40.5173C87.4429 40.0065 86.2986 39.6674 85.1426 39.5043V41.5486C86.8908 41.8951 88.5831 42.7863 90.1293 44.1749C91.8024 45.7044 93.2924 47.724 94.5262 50.1346C94.7987 50.6687 95.0579 51.2396 95.3059 51.7921C95.4265 51.8584 95.5449 51.9358 95.6611 52.0205L95.6991 52.0463C95.9379 52.219 96.1673 52.4248 96.385 52.6614H96.4006C96.5079 52.7793 96.6129 52.902 96.7157 53.0297L96.7447 53.0666C96.9432 53.3273 97.1306 53.6104 97.3055 53.9137L97.3591 54.0095C97.4351 54.1495 97.511 54.2931 97.5825 54.4405L97.6562 54.5952C97.7054 54.7032 97.7523 54.81 97.797 54.9156C97.8439 55.0224 97.8864 55.1293 97.9288 55.2398C97.9713 55.3503 97.9958 55.4092 98.0271 55.4976C98.0584 55.586 98.1008 55.7039 98.1366 55.8107L98.1545 55.8733C98.6292 57.3383 98.8756 58.9749 98.8716 60.6359C98.8721 61.6807 98.7749 62.7193 98.5834 63.7152C98.8024 65.0486 98.9856 66.3992 99.133 67.767H100.179V41.9501H98.9588C98.4941 43.2933 98.1314 44.1307 97.8707 44.4622Z" fill="#263238"/>
<path d="M85.1293 93.4954H98.4226L99.4615 92.3609C99.6067 92.2066 99.7428 92.0302 99.8681 91.8342C98.4002 90.0451 96.7909 88.5952 95.0848 87.5246C93.4315 86.5203 92.1982 85.8266 91.385 85.4435L85.1293 82.4637V93.5138V93.4954Z" fill="#263238"/>
<path d="M111.738 93.5102L110.699 92.3794C110.031 91.6164 109.54 90.5003 109.308 89.2153C108.903 87.2705 109.202 85.1636 109.906 83.4361C110.431 82.1704 110.714 80.6744 110.717 79.1413C110.717 74.5518 108.217 70.8389 105.118 70.8389C102.02 70.8389 99.4995 74.5518 99.4995 79.1413C99.5058 80.6737 99.7881 82.1685 100.31 83.4361C100.996 85.1194 101.296 87.241 100.909 89.1859C100.667 90.4787 100.171 91.6021 99.4995 92.3794L98.4606 93.5102H85.1672V115.43L84.4791 117.143C84.0021 118.24 83.3226 119.054 82.5421 119.463C81.3624 120.104 80.0845 119.611 79.0568 118.476C78.2915 117.6 77.3811 117.135 76.4495 117.143C73.668 117.143 71.4315 121.264 71.4315 126.373C71.4315 131.482 73.668 135.652 76.4495 135.652C77.3798 135.646 78.2877 135.181 79.0568 134.318C80.0957 133.154 81.3803 132.631 82.56 133.302C83.338 133.703 84.0131 134.519 84.4791 135.622L85.1672 137.335V159.225H125.045V93.5102H111.738Z" fill="#92E3A9"/>
<path d="M85.156 159.432C85.134 159.432 85.1125 159.421 85.0942 159.4C85.0759 159.38 85.0617 159.351 85.0533 159.318C85.0472 159.295 85.044 159.27 85.044 159.246C85.044 159.221 85.0472 159.197 85.0533 159.174V137.372L84.383 135.707C83.931 134.636 83.2753 133.844 82.5197 133.456C81.4585 132.856 80.2185 133.217 79.1148 134.451C78.3279 135.337 77.3978 135.813 76.445 135.818C73.6165 135.818 71.3064 131.582 71.3064 126.373C71.3064 121.165 73.6076 116.959 76.445 116.959C77.4027 116.948 78.3391 117.425 79.126 118.325C80.2029 119.519 81.4361 119.872 82.513 119.29C83.27 118.893 83.929 118.104 84.392 117.04L85.0622 115.375V93.5101C85.0622 93.4613 85.074 93.4145 85.0949 93.3799C85.1159 93.3454 85.1443 93.326 85.1739 93.326H98.4337L99.4458 92.221C100.095 91.465 100.574 90.3757 100.809 89.1232C101.164 87.3515 100.949 85.3146 100.223 83.5355C99.6882 82.2378 99.3997 80.7067 99.3944 79.1376C99.3944 74.456 101.966 70.6658 105.125 70.6658C108.284 70.6658 110.836 74.4707 110.836 79.1376C110.832 80.7072 110.544 82.2392 110.007 83.5355C109.265 85.3367 109.053 87.381 109.421 89.149C109.64 90.3971 110.114 91.4823 110.762 92.221L111.774 93.326H125.036C125.066 93.326 125.094 93.3454 125.115 93.3799C125.136 93.4145 125.148 93.4613 125.148 93.5101V159.225C125.147 159.274 125.135 159.32 125.114 159.355C125.094 159.389 125.065 159.409 125.036 159.41L85.156 159.432ZM81.4719 132.805C81.8517 132.804 82.2291 132.906 82.589 133.107C83.3911 133.52 84.0864 134.364 84.564 135.504L85.2521 137.217C85.2637 137.247 85.2699 137.281 85.27 137.317V159.049H124.913V93.6943H111.732C111.709 93.6936 111.688 93.6834 111.669 93.6649L110.63 92.5304C109.939 91.7484 109.432 90.597 109.196 89.2706C108.805 87.3957 109.028 85.2188 109.808 83.3329C110.319 82.0971 110.595 80.6373 110.599 79.1412C110.599 74.6622 108.141 71.0378 105.112 71.0378C102.082 71.0378 99.6045 74.677 99.6045 79.1412C99.6109 80.6434 99.8895 82.1082 100.404 83.3477C101.166 85.2188 101.39 87.3699 101.014 89.2411C100.764 90.5724 100.254 91.7294 99.562 92.5304L98.5231 93.6612C98.5043 93.6802 98.4826 93.6904 98.4605 93.6906H85.2789V115.423C85.2785 115.458 85.2723 115.492 85.261 115.522L84.5729 117.235C84.0841 118.369 83.3845 119.209 82.58 119.629C81.4361 120.248 80.1224 119.883 78.9942 118.623C78.2476 117.767 77.3589 117.312 76.4495 117.32C73.7461 117.32 71.5343 121.371 71.5343 126.366C71.5343 131.361 73.7372 135.442 76.4495 135.442C77.3577 135.437 78.2442 134.983 78.9942 134.138C79.7209 133.296 80.5838 132.831 81.4719 132.805Z" fill="black"/>
<path d="M84.1596 117.795C83.8127 118.39 83.3982 118.867 82.9398 119.198V133.534C83.3987 133.862 83.8134 134.338 84.1596 134.934V117.795Z" fill="#263238"/>
<path d="M80.5894 119.581C80.1476 119.411 79.7236 119.133 79.3316 118.756V134.013C79.7233 133.63 80.1471 133.344 80.5894 133.166V119.581Z" fill="#263238"/>
<path d="M100.395 135.464C102.267 132.389 103.747 128.729 104.748 124.697C105.759 120.671 106.277 116.355 106.271 111.997C106.271 107.118 105.647 103.075 104.399 99.8677C103.251 96.8427 101.776 94.191 100.047 92.0441L99.8904 91.86C99.7683 92.0492 99.6376 92.2228 99.4995 92.3793L98.4606 93.5101H85.1672V98.1217L88.6816 99.794C89.9299 100.424 91.1511 101.192 92.3367 102.092C93.622 103.06 94.8113 104.341 95.8645 105.894C96.9799 107.571 97.8821 109.597 98.5187 111.853C99.2157 114.245 99.5643 117.164 99.5643 120.609C99.5412 123.16 99.3067 125.695 98.8672 128.141C98.3893 130.911 97.5583 133.48 96.4297 135.678C95.2679 137.976 93.704 139.89 91.7379 141.42C89.9834 142.78 87.7946 143.535 85.1717 143.685V145.696C88.2459 145.532 91.0148 144.609 93.4784 142.926C96.0598 141.215 98.4106 138.679 100.395 135.464Z" fill="#263238"/>
<path d="M76.4406 117.124C77.3706 117.129 78.2782 117.595 79.0456 118.461C80.0689 119.622 81.3535 120.115 82.551 119.478C83.3243 119.059 83.9966 118.245 84.4702 117.154L85.1561 115.441V93.5249H71.8628L70.8239 92.3904C70.1536 91.6235 69.6575 90.5102 69.4141 89.2264C69.0097 87.2816 69.327 85.1747 70.0307 83.4508C70.5558 82.184 70.8383 80.6866 70.8417 79.1523C70.8417 74.5665 68.3238 70.8794 65.2228 70.8794C62.1218 70.8794 59.6239 74.5628 59.6239 79.1523C59.6189 80.6888 59.9021 82.1902 60.435 83.4508C61.1208 85.1341 61.4202 87.2521 61.0337 89.1969C60.7851 90.4843 60.2905 91.6045 59.6239 92.3904L58.5851 93.5249H45.2917V159.248H85.1561V137.331L84.4702 135.619C83.9992 134.51 83.3176 133.693 82.5332 133.294C81.3357 132.657 80.0756 133.151 79.03 134.282C78.2682 135.147 77.3657 135.613 76.4406 135.619C73.659 135.619 71.4047 131.497 71.4047 126.384C71.4047 121.272 73.659 117.124 76.4406 117.124Z" fill="white"/>
<path d="M85.1561 159.432H45.2917C45.2621 159.432 45.2337 159.412 45.2127 159.378C45.1918 159.343 45.18 159.296 45.18 159.248V93.5212C45.18 93.4724 45.1918 93.4255 45.2127 93.391C45.2337 93.3564 45.2621 93.337 45.2917 93.337H58.5515L59.5636 92.232C60.2094 91.47 60.6877 90.3829 60.9265 89.1343C61.2795 87.3626 61.0672 85.3257 60.3411 83.5503C59.7979 82.2577 59.5085 80.7212 59.5122 79.1486C59.5122 74.4855 62.0748 70.6768 65.2228 70.6768C68.3707 70.6768 70.9534 74.4707 70.9534 79.1486C70.9496 80.7193 70.6609 82.2522 70.1246 83.5503C69.3761 85.3662 69.1572 87.4141 69.5213 89.1638C69.755 90.4087 70.2348 91.4889 70.8842 92.232L71.8963 93.337H85.1561C85.1857 93.337 85.2141 93.3564 85.2351 93.391C85.256 93.4255 85.2678 93.4724 85.2678 93.5212V115.441C85.2677 115.477 85.2615 115.513 85.2499 115.544L84.564 117.257C84.0777 118.382 83.3856 119.221 82.589 119.651C81.4228 120.274 80.1091 119.894 78.9831 118.612C78.2335 117.769 77.348 117.315 76.4406 117.309C73.726 117.309 71.5254 121.382 71.5254 126.384C71.5254 131.386 73.735 135.434 76.4406 135.434C77.3428 135.424 78.2227 134.97 78.9674 134.131C80.1135 132.878 81.425 132.51 82.5667 133.121C83.3748 133.531 84.0769 134.374 84.5618 135.516L85.2499 137.228C85.2615 137.259 85.2677 137.295 85.2678 137.331V159.248C85.2678 159.272 85.2649 159.296 85.2593 159.318C85.2537 159.34 85.2454 159.361 85.2351 159.378C85.2247 159.395 85.2124 159.408 85.1988 159.418C85.1853 159.427 85.1707 159.432 85.1561 159.432ZM45.4034 159.063H85.0444V137.387L84.3741 135.718C83.9164 134.648 83.2565 133.858 82.4974 133.471C81.4205 132.897 80.1783 133.247 79.0881 134.436C78.3073 135.318 77.3845 135.793 76.4383 135.803C73.6009 135.803 71.2997 131.578 71.2997 126.384C71.2997 121.191 73.6099 116.94 76.4383 116.94C77.3903 116.947 78.3194 117.423 79.1059 118.307C80.1761 119.522 81.4183 119.887 82.5131 119.301C83.2641 118.899 83.9171 118.11 84.3764 117.051L85.0466 115.386V93.7054H71.865C71.8427 93.707 71.8208 93.6966 71.8024 93.6759L70.7613 92.5562C70.0709 91.7659 69.5599 90.6189 69.3091 89.2964C68.9226 87.4362 69.1504 85.2704 69.9391 83.3587C70.4505 82.1215 70.7259 80.6605 70.73 79.1634C70.73 74.7028 68.259 71.0599 65.2228 71.0599C62.1865 71.0599 59.7356 74.688 59.7356 79.1634C59.7333 80.6598 60.011 82.1211 60.531 83.3477C61.2951 85.2225 61.5185 87.3773 61.1432 89.2595C60.8869 90.5854 60.3775 91.7392 59.691 92.5488L58.6476 93.6612C58.6292 93.6819 58.6073 93.6922 58.585 93.6906H45.4034V159.063Z" fill="black"/>
<path d="M85.1561 143.685C84.8299 143.704 84.4992 143.715 84.1596 143.715V134.978C83.8149 134.375 83.4 133.893 82.9398 133.56V143.715C82.1869 143.715 81.4027 143.656 80.5894 143.545V133.173C80.148 133.336 79.724 133.608 79.3316 133.98V143.332C78.7775 143.218 78.2145 143.085 77.6291 142.927C75.6016 142.328 73.6733 141.031 71.97 139.122C70.1111 137.113 68.3841 134.051 66.7889 129.935C65.1937 125.82 63.9314 120.126 63.002 112.855H62.0458V143.715H63.3505C63.5281 142.822 63.8088 141.994 64.1772 141.276C64.4967 140.702 65.0932 140.414 65.9645 140.414C67.156 140.479 68.3328 140.868 69.4476 141.564C70.7881 142.33 72.0363 142.999 73.1921 143.571C74.0604 143.954 74.8729 144.289 75.6296 144.577C76.3607 144.86 77.1005 145.077 77.8459 145.229C78.321 145.322 78.8162 145.404 79.3316 145.475V155.91H80.5894V145.597C81.2932 145.66 82.0751 145.696 82.9398 145.696V155.745H84.1596V145.726C84.4948 145.726 84.8299 145.726 85.1561 145.696V143.685Z" fill="#263238"/>
<path d="M67.1821 85.1562C67.8171 86.22 68.5054 87.1934 69.2398 88.0661C69.153 86.4159 69.4264 84.7688 70.0106 83.4213C70.5354 82.1557 70.8179 80.6596 70.8216 79.1265C70.8123 77.9512 70.6438 76.7942 70.3284 75.7401C70.0129 74.686 69.5586 73.7615 68.9985 73.0342C67.9249 71.6315 66.5926 70.8764 65.2228 70.8941C64.6951 70.8954 64.1696 71.0068 63.6588 71.2256C63.8584 76.8809 65.0329 81.5244 67.1821 85.1562Z" fill="#263238"/>
<path d="M77.8905 94.6262L79.3316 95.3261V118.76C79.7227 119.141 80.1469 119.422 80.5894 119.592V95.9302L82.9397 97.0683V119.213C83.3978 118.872 83.8119 118.389 84.1596 117.791V97.6429L85.1561 98.1181V93.5249H75.815C76.4808 93.9117 77.1689 94.28 77.8905 94.6262Z" fill="#263238"/>
<path d="M29.9943 66.01C29.4425 65.9879 27.6574 67.4833 27.6574 67.4833L29.3799 76.5261L40.8368 74.3418C40.9551 74.3144 41.064 74.2207 41.1454 74.0765C41.2267 73.9323 41.2755 73.7464 41.2836 73.5499C41.3618 72.9053 43.5803 55.7039 43.5803 55.7039L41.0155 54.7867L38.4127 67.3912C38.4127 67.3912 30.5439 66.0358 29.9943 66.01Z" fill="#263238"/>
<path d="M29.2995 76.7176L27.5122 67.3839L27.5948 67.3139C27.6686 67.2513 29.3822 65.8184 29.972 65.8184H29.9854C30.5082 65.8405 37.4051 67.0303 38.3166 67.185L40.9284 54.5657L43.6988 55.5565L43.6764 55.7333C43.6541 55.9064 41.4557 72.9421 41.3819 73.5757C41.37 73.8103 41.31 74.0311 41.2117 74.2019C41.1134 74.3727 40.9827 74.4831 40.8413 74.5149L29.3911 76.7176H29.2995ZM27.7914 67.5717L29.4581 76.3161L40.8234 74.1503C41.0088 74.1098 41.1272 73.8924 41.1719 73.5057C41.2434 72.9053 43.2095 57.6671 43.4463 55.8254L41.0937 54.9856L38.4887 67.5754H38.4015C38.3211 67.5754 30.5372 66.2162 29.9966 66.1941C29.5833 66.1647 28.3388 67.1408 27.7914 67.5791V67.5717Z" fill="#263238"/>
<path d="M46.105 47.372L45.2113 47.5599L44.0138 48.1198L44.9365 46.7459C44.9365 46.7459 45.8592 46.0718 46.0067 45.9097C46.1541 45.7477 46.0625 45.2873 45.9843 45.3057C45.5917 45.3582 45.2028 45.4704 44.8226 45.6409C44.5723 45.825 43.2587 47.2358 43.2587 47.2358L44.1702 45.3941C44.1702 45.3941 45.1733 44.0496 45.2538 43.7255C45.3342 43.4014 45.2538 43.0293 44.9991 43.173C44.5174 43.6065 44.0714 44.14 43.672 44.7605C43.4865 45.1031 42.4745 46.6685 42.4745 46.6685L42.5929 46.1639C42.5929 46.1639 43.558 44.0017 43.6608 43.6297C43.7636 43.2577 43.7323 42.8341 43.6206 42.7678C43.5089 42.7015 43.2698 43.0183 43.0956 43.5045C42.9213 43.9907 41.5741 46.6575 41.5138 46.8895C41.4534 47.1216 41.3529 52.9303 41.3529 52.9303L41.0021 54.8088L43.3346 55.6413L43.5245 53.6854C43.5245 53.6854 43.7658 53.0703 43.8731 52.7424C43.9803 52.4146 44.2752 50.1309 44.2752 50.1309L45.2716 48.7018C45.6042 48.5116 45.9258 48.2725 46.2323 47.9872C46.4558 47.733 46.2078 47.3499 46.105 47.372Z" fill="#263238"/>
<path d="M43.4374 55.8402L40.8703 54.923L41.2523 52.8787C41.2836 51.107 41.3596 47.0295 41.4221 46.7938C41.6526 46.2381 41.9009 45.7033 42.1661 45.1915C42.5236 44.4548 42.928 43.6187 43.0129 43.3866C43.1894 42.9041 43.4731 42.4768 43.6697 42.5873C43.7019 42.6081 43.7311 42.6398 43.7554 42.6804C43.7796 42.7211 43.7984 42.7697 43.8105 42.8231C43.8671 43.112 43.8543 43.4258 43.7747 43.6997C43.701 43.9612 43.2564 44.9926 42.957 45.6703C43.2274 45.2467 43.5111 44.7937 43.5982 44.6316C44.0108 43.9859 44.4736 43.4334 44.9745 42.9888C45.0317 42.9457 45.0955 42.9325 45.1574 42.9509C45.2193 42.9694 45.2763 43.0186 45.3208 43.092C45.3677 43.1888 45.397 43.3056 45.4053 43.4288C45.4137 43.5521 45.4006 43.6766 45.3677 43.7881C45.285 44.1233 44.5098 45.1804 44.2506 45.5193L43.7881 46.4549C44.1769 46.0497 44.6371 45.5782 44.7801 45.4714C45.1505 45.2846 45.5329 45.1708 45.9195 45.1325H45.9732C46.0558 45.1325 46.1295 45.2136 46.1698 45.3904C46.2015 45.5068 46.2089 45.6373 46.1907 45.7613C46.1725 45.8854 46.1298 45.9959 46.0692 46.0755C45.9262 46.2339 45.151 46.8122 44.9991 46.9153L44.4472 47.7367L45.1823 47.3941L46.0759 47.1989C46.1451 47.2028 46.2121 47.2396 46.2688 47.305C46.3255 47.3704 46.3695 47.4615 46.3954 47.5673C46.4211 47.6699 46.4239 47.7842 46.4035 47.89C46.3831 47.9958 46.3406 48.0863 46.2837 48.1456C45.9781 48.4266 45.6573 48.6597 45.3252 48.8417L44.3869 50.1972C44.282 51.0747 44.147 51.9417 43.9825 52.794C43.8864 53.085 43.6943 53.5859 43.6407 53.7185L43.4374 55.8402ZM41.1563 54.6504L43.2542 55.3871L43.4418 53.5454C43.4418 53.5454 43.6831 52.9303 43.7859 52.6135C43.9443 51.7663 44.0748 50.9056 44.1769 50.0351V49.9725L45.2381 48.466C45.5565 48.2946 45.8646 48.0751 46.1586 47.8104C46.2077 47.7514 46.201 47.7072 46.1988 47.6888C46.1916 47.651 46.1794 47.6163 46.1632 47.587C46.147 47.5578 46.1271 47.5347 46.105 47.5194L45.2269 47.7036L43.5848 48.4734L44.894 46.5433C45.2605 46.2744 45.8436 45.8324 45.9463 45.7219C45.9544 45.7104 45.9609 45.6962 45.9655 45.6804C45.9701 45.6646 45.9727 45.6474 45.9732 45.6298C45.9771 45.572 45.9718 45.5136 45.9575 45.4604H45.9441C45.5806 45.4953 45.2208 45.5991 44.8717 45.7698C44.6796 45.9097 43.7747 46.8748 43.3212 47.3536L42.7247 47.9945L44.1009 45.2062C44.4823 44.7322 44.8347 44.198 45.1532 43.6113C45.1689 43.5652 45.1771 43.5132 45.1771 43.4603C45.1771 43.4074 45.1689 43.3554 45.1532 43.3093C45.1286 43.2651 45.0728 43.2835 45.0415 43.3093C44.5781 43.7325 44.1481 44.2483 43.7613 44.8452C43.5759 45.1915 42.5996 46.6869 42.5571 46.768L42.1974 47.3205L42.5102 46.0202C42.8945 45.1547 43.4955 43.7771 43.567 43.5155C43.597 43.4215 43.6144 43.3178 43.6179 43.2116C43.6213 43.1054 43.6108 42.9993 43.5871 42.9004C43.4208 43.047 43.2853 43.273 43.1983 43.5487C43.1067 43.7992 42.7157 44.6095 42.3359 45.3904C42.0343 46.0166 41.6657 46.7974 41.621 46.9116C41.583 47.1621 41.507 50.7092 41.4713 52.8824V52.9303L41.1563 54.6504Z" fill="#263238"/>
<path d="M72.1487 13.8863C71.3709 14.7266 70.7632 15.9311 70.4038 17.345C69.919 19.2125 69.003 20.778 67.8032 21.301C67.012 21.6859 66.1648 21.6144 65.4015 21.0984L64.2598 20.277L57.1306 2.14001L23.6783 37.8947L45.2805 92.7772L56.4045 80.8872L56.9184 78.9902C57.2168 77.732 57.2614 76.3487 57.0457 75.0453C56.7284 73.0673 55.7789 71.5572 54.6328 70.7763C53.7744 70.1857 53.0435 69.1834 52.5349 67.8996C51.0201 64.0504 51.916 58.6911 54.5166 55.9175C57.1172 53.1439 60.4483 53.9727 61.9609 57.8218C62.4647 59.111 62.7216 60.6203 62.6982 62.1535C62.6736 64.2235 63.107 66.2862 64.0878 67.5533C64.7129 68.4058 65.4893 68.8997 66.2997 68.9604H67.5597L78.715 57.0372L71.4785 38.635L71.4896 36.5797C71.5142 35.2395 71.8153 33.9532 72.3431 32.9331C73.1116 31.3161 74.3539 30.5758 75.6072 30.62C76.5372 30.6593 77.4528 30.2357 78.2346 29.4045C80.5559 26.9255 81.0854 21.4447 79.4008 17.1572C77.7163 12.8697 74.4566 11.4074 72.1487 13.8863Z" fill="#92E3A9"/>
<path d="M45.2806 92.9466C45.2619 92.9462 45.2436 92.9383 45.2272 92.9235C45.2109 92.9087 45.197 92.8876 45.1867 92.8619L23.5867 37.9794C23.5782 37.96 23.5723 37.9377 23.5696 37.9141C23.5669 37.8906 23.5674 37.8663 23.5711 37.8431C23.5735 37.8191 23.5789 37.7962 23.5869 37.7759C23.595 37.7556 23.6056 37.7384 23.618 37.7252L57.0681 1.98532C57.0927 1.95867 57.1227 1.94913 57.1516 1.95879C57.1805 1.96845 57.2058 1.99652 57.2222 2.03689L64.3291 20.1223L65.4462 20.9216C66.1824 21.4195 66.9995 21.4897 67.7631 21.1205C68.8578 20.6454 69.7738 19.242 70.2899 17.2714C70.6575 15.8232 71.2801 14.5902 72.0772 13.7316C74.4499 11.1938 77.7789 12.6856 79.4992 17.0467C81.2195 21.4078 80.6743 27.0139 78.3017 29.5702C77.5045 30.4212 76.57 30.8551 75.6206 30.8152C74.3002 30.7673 73.1429 31.5887 72.4436 33.0584C71.9292 34.0437 71.6365 35.2912 71.6148 36.5908L71.6036 38.5908L78.8177 56.9341C78.8337 56.9757 78.8393 57.0258 78.8334 57.0741C78.8262 57.1219 78.8088 57.1638 78.7842 57.1919L67.629 69.1151C67.611 69.1342 67.5901 69.1444 67.5687 69.1445H66.3086C65.4731 69.0863 64.672 68.5792 64.0275 67.7006C63.0892 66.4851 62.5664 64.4629 62.5954 62.1498C62.6179 60.6476 62.3657 59.1691 61.8715 57.9065C60.3992 54.1642 57.1306 53.3354 54.5837 56.0648C52.0367 58.7942 51.1609 64.0467 52.6332 67.789C53.1293 69.0426 53.8423 70.0217 54.6797 70.5995C55.9465 71.4614 56.8491 73.0637 57.1574 74.9938C57.3805 76.3323 57.3342 77.754 57.0256 79.0455L56.5118 80.9461C56.5027 80.9793 56.4879 81.0075 56.4693 81.0271L45.3386 92.9245C45.3206 92.9393 45.3007 92.9469 45.2806 92.9466ZM23.8325 37.9499L45.3118 92.5083L56.3129 80.7472L56.8134 78.9055C57.1037 77.685 57.146 76.3421 56.934 75.0785C56.6458 73.2663 55.7879 71.7634 54.5859 70.9347C53.7076 70.3285 52.9597 69.302 52.4389 67.988C50.8995 64.0725 51.8043 58.5843 54.4496 55.7517C57.0949 52.9192 60.5087 53.7959 62.0458 57.7113C62.5591 59.0276 62.8221 60.5668 62.801 62.1314C62.7741 64.3414 63.2657 66.242 64.1415 67.3839C64.7466 68.2135 65.5 68.6935 66.2863 68.7504H67.5106L78.5452 56.9636L71.3735 38.7271C71.3609 38.6968 71.3546 38.6606 71.3556 38.624L71.3668 36.5723C71.3883 35.1895 71.6984 33.8613 72.2448 32.8116C72.9865 31.2498 74.2109 30.3769 75.5961 30.4284C76.5106 30.4812 77.4129 30.0698 78.181 29.2498C80.4509 26.8224 80.9603 21.441 79.3137 17.2566C77.6671 13.0723 74.47 11.6137 72.2001 14.0411C71.4398 14.8589 70.8459 16.0343 70.4954 17.415C69.957 19.4888 68.9829 20.9695 67.8144 21.4668C67.0036 21.8532 66.1373 21.7753 65.3568 21.2458L64.2174 20.4244C64.1974 20.4108 64.1803 20.3877 64.1683 20.3581L57.0993 2.38313L23.8325 37.9499Z" fill="black"/>
<path d="M48.3213 52.8271L46.7104 54.8199L45.5732 59.914C45.5732 59.914 42.356 78.2204 41.9784 79.156C41.6009 80.0916 40.591 80.8209 40.591 80.8209L38.9511 76.8686L45.3856 53.6633L46.8355 53.0408L48.3213 52.8271Z" fill="#263238"/>
<path d="M40.5508 81.0493L38.8216 76.8871L45.3007 53.5196L46.802 52.8714L48.7011 52.5877L46.7976 54.9341L45.6805 59.9766C45.5531 60.7133 42.4566 78.3088 42.0745 79.2591C41.6925 80.2095 40.6804 80.9572 40.6379 80.9867L40.5508 81.0493ZM39.083 76.8502L40.6335 80.5852C40.8792 80.3936 41.5964 79.7822 41.8891 79.0529C42.1818 78.3236 44.5701 64.9455 45.4638 59.8624L46.6144 54.7057L47.937 53.0739L46.8445 53.236L45.4615 53.8327L39.083 76.8502Z" fill="#263238"/>
<path d="M75.0755 47.7698L74.0992 48.256L60.6941 14.17C60.9868 13.9085 61.2795 13.669 61.5722 13.4333L60.9019 11.7168C60.6182 11.9563 60.33 12.2067 60.0351 12.4793L57.144 5.13831L56.1208 6.24332L59.0096 13.6101L58.7862 13.8422C58.1896 14.4794 57.6222 15.1498 57.0837 15.8422L54.1435 8.3318L53.0912 9.45892L56.1163 17.1535C54.981 18.7872 53.9637 20.6313 53.0845 22.6491C51.6702 25.8552 50.6459 29.4826 50.0684 33.331C49.5224 37.0898 49.4676 40.9972 49.9075 44.7937C50.3714 48.8272 51.3185 52.6678 52.6936 56.0906C52.8946 56.6063 53.1046 57.0999 53.3191 57.564C53.6751 56.9285 54.0773 56.3681 54.5166 55.8954C57.1172 53.1144 60.4484 53.9506 61.9609 57.7997C62.4647 59.0889 62.7216 60.5982 62.6982 62.1314C62.6551 63.7878 62.972 65.4153 63.5919 66.7209C65.7635 66.9124 68.1853 66.4802 70.8574 65.4243L78.7217 57.0188L75.0755 47.7698ZM69.289 50.6466C68.2792 51.1217 67.2514 51.5453 66.1991 51.91C64.6804 52.4538 63.1209 52.6214 61.5722 52.4072C60.0869 52.2017 58.6426 51.4999 57.3272 50.3445C56.0091 49.1929 54.8443 47.3303 53.833 44.7568C52.6027 41.6259 51.9704 38.5675 51.9362 35.5815C51.8888 32.7193 52.246 29.8782 52.9795 27.2828C53.7062 24.7409 54.6882 22.4196 55.884 20.417C56.1945 19.894 56.5028 19.4004 56.8111 18.9436L69.289 50.6466ZM72.8883 48.8675L70.8038 49.8988L70.5446 50.0278L57.7718 17.555C58.3075 16.8157 58.8693 16.1294 59.4542 15.4997L59.6776 15.2639L72.8883 48.8675Z" fill="#263238"/>
<path d="M73.4892 12.9176C74.896 13.824 76.2319 15.0049 77.4683 16.4353C78.4195 17.5281 79.329 18.7164 80.1917 19.9934C80.0223 18.9874 79.7609 18.0298 79.4165 17.1535C78.0179 13.6285 75.5894 12.0263 73.4892 12.9176Z" fill="#263238"/>
<path d="M33.359 65.2365L34.3979 65.7816L34.4895 68.6178L33.7076 67.5128V68.6178C34.6109 72.4925 35.3748 76.4516 35.9953 80.4746C37.1124 87.5541 37.2778 92.0589 37.1661 96.3795C37.0543 100.7 36.8309 103.643 36.8309 103.643L35.5485 96.5637L32.6039 68.5257L32.4363 66.3157L33.359 65.2365Z" fill="#BFBFBF"/>
<path d="M36.8756 104.535L35.4412 96.6079L32.4832 68.5442L32.3067 66.2199L33.3411 65.0228L34.5051 65.6343L34.6146 69.0267L33.8192 67.9033V68.5699C34.7172 72.4445 35.4796 76.4008 36.1026 80.4194C37.3001 88.0219 37.376 92.5746 37.2777 96.3795C37.166 100.656 36.9448 103.625 36.9426 103.654L36.8756 104.535ZM32.5458 66.4041L32.7044 68.5L35.658 96.5342L36.775 102.722C36.851 101.533 36.9761 99.2526 37.0499 96.3722C37.1459 92.6077 37.0722 88.0809 35.8814 80.5336C35.2603 76.5181 34.4987 72.5654 33.6003 68.6952V68.6289V67.1224L34.3688 68.2274L34.2951 65.9474L33.3836 65.4685L32.5458 66.4041Z" fill="#263238"/>
<path d="M36.1071 96.0149C36.1071 96.0149 37.0544 104.196 37.2778 107.688C37.5012 111.179 39.5343 122.532 39.2595 127.6C39.1411 129.81 38.9467 149.958 38.9467 149.958L39.7443 150.916L39.5209 154.072C39.5209 154.072 42.5661 156.702 43.2184 157.06C43.8708 157.417 43.5804 156.341 43.8708 157.428C44.1613 158.515 43.0017 159.104 41.3328 159.343C40.3181 159.484 39.297 159.444 38.2876 159.222L37.5571 158.489L37.3448 159.192C37.3448 159.192 36.3305 159.137 36.0266 159.137C35.8348 159.136 35.6431 159.118 35.4525 159.082C35.4525 159.082 35.1821 156.853 35.1129 155.907C35.0436 154.96 35.0123 153.955 35.0123 153.955C35.0123 153.955 34.4717 152.897 34.4717 152.341C34.4717 151.785 34.8783 149.608 34.8783 149.608L34.3912 136.646L34.1835 128.429L32.6039 117.235C32.6039 117.235 31.279 129.475 31.1226 130.035C30.9662 130.595 26.0511 151.671 26.0511 151.671L26.4554 152.227L26.0086 154.735L27.2933 157.13C27.2933 157.13 29.3889 158.802 29.3889 159.082C29.3889 159.362 29.1186 159.819 29.1186 159.819C28.1381 159.879 27.1562 159.842 26.1784 159.708C25.4245 159.578 24.6777 159.354 23.9442 159.038C23.5376 158.872 22.9634 157.815 22.9634 157.815L22.559 158.205L20.8343 156.588C20.8343 156.588 21.2811 152.853 21.4777 151.962C21.5978 151.429 21.8088 150.965 22.0854 150.625L22.9634 148.286L26.3907 126.731L26.5403 107.117L26.1762 103.518L26.8777 96.5195L36.1071 96.0149Z" fill="#263238"/>
<path d="M28.1042 159.999C27.4598 160.007 26.8155 159.961 26.1739 159.859C25.4362 159.729 24.7052 159.511 23.9867 159.207L23.9308 159.185C23.5733 159.038 23.1198 158.297 22.9567 158.014L22.5724 158.382L20.7225 156.651L20.7382 156.518C20.756 156.367 21.185 152.761 21.3861 151.866C21.5123 151.31 21.7306 150.824 22.0161 150.463L22.874 148.179L26.2923 126.672L26.442 107.083L26.0756 103.485L26.795 96.3206H26.8866L36.1987 95.8307L36.2165 95.9854C36.2165 96.0664 37.1683 104.214 37.3895 107.676C37.4632 108.848 37.7469 110.933 38.0754 113.349C38.7344 118.2 39.5544 124.241 39.3712 127.626C39.2572 129.714 39.074 148.363 39.0584 149.873L39.8627 150.835L39.6393 153.973C40.0861 154.363 42.6688 156.573 43.2519 156.894C43.5044 157.034 43.5603 156.923 43.5915 156.861C43.6067 156.825 43.6272 156.796 43.651 156.776C43.6748 156.757 43.7013 156.748 43.7278 156.75C43.815 156.772 43.8328 156.835 43.9714 157.351C44.0089 157.479 44.0269 157.621 44.0238 157.763C44.0207 157.906 43.9966 158.045 43.9535 158.168C43.7077 158.853 42.8364 159.307 41.3417 159.52C40.3181 159.661 39.2883 159.622 38.2697 159.402L38.2295 159.377L37.6084 158.761L37.4163 159.391H37.3448C37.3448 159.391 36.3305 159.336 36.0311 159.336C35.8348 159.334 35.6387 159.315 35.4435 159.281L35.3631 159.262L35.3474 159.133C35.3474 159.041 35.0749 156.887 35.0078 155.944C34.9498 155.133 34.9162 154.275 34.9073 154.043C34.7911 153.807 34.3644 152.909 34.3644 152.356C34.3644 151.803 34.7062 149.94 34.7688 149.601L34.2929 136.668L34.0851 128.447L32.624 118.134C32.3045 121.08 31.3684 129.607 31.2299 130.101C31.0913 130.595 26.5939 149.87 26.1896 151.601L26.5895 152.153L26.1426 154.677L27.3714 156.971C29.5095 158.677 29.5095 158.942 29.5095 159.071C29.5095 159.406 29.2571 159.841 29.2079 159.925L29.1767 159.973H29.132C29.132 159.973 28.6874 159.999 28.1042 159.999ZM22.9969 157.546L23.0572 157.656C23.2114 157.94 23.6761 158.702 23.9822 158.828L24.038 158.85C24.7475 159.152 25.4696 159.366 26.1985 159.491C27.1554 159.624 28.1164 159.662 29.0761 159.605C29.1641 159.461 29.234 159.289 29.2817 159.1C29.132 158.853 28.1512 157.995 27.253 157.259L27.2173 157.214L25.9014 154.761L26.337 152.271L25.9259 151.708L25.955 151.586C26.156 150.724 30.8702 130.495 31.0288 129.939C31.1405 129.541 31.9716 122.093 32.5033 117.183L32.5972 116.303L34.3063 128.388L34.5186 136.639L34.99 149.649V149.682C34.8155 150.556 34.6818 151.452 34.5901 152.36C34.5901 152.728 34.9051 153.465 35.1039 153.855L35.1285 153.903V153.962C35.1285 153.962 35.162 154.971 35.229 155.903C35.2871 156.699 35.4904 158.437 35.5507 158.931C35.7103 158.958 35.8707 158.971 36.0311 158.971C36.2903 158.971 37.0432 159.012 37.28 159.023L37.5146 158.249L38.3256 159.049C39.3189 159.263 40.3233 159.301 41.3216 159.163C43.1738 158.898 43.6452 158.312 43.7591 157.992C43.7846 157.918 43.798 157.835 43.798 157.75C43.798 157.666 43.7846 157.583 43.7591 157.509L43.6809 157.222C43.6045 157.296 43.518 157.337 43.4293 157.342C43.3407 157.346 43.2528 157.314 43.1737 157.248C42.5214 156.879 39.5857 154.356 39.4606 154.249L39.3913 154.19L39.6147 151.015L38.8216 150.065V149.969C38.8216 149.148 39.016 129.777 39.1344 127.6C39.3153 124.285 38.4999 118.263 37.843 113.437C37.5146 111.01 37.2286 108.914 37.1527 107.724C36.9493 104.542 36.1316 97.363 35.9998 96.2175L26.9738 96.6926L26.2879 103.5L26.6498 107.069L26.5001 126.756L23.0684 148.341L22.1613 150.754C21.9043 151.073 21.7075 151.506 21.5939 152.002C21.4196 152.776 21.0532 155.8 20.9728 156.467L22.5702 157.966L22.9969 157.546Z" fill="#263238"/>
<path d="M33.12 48.5139C33.12 48.5139 34.1365 50.2782 34.1901 51.0739C34.2437 51.8695 34.0025 52.6614 34.1365 53.015C34.2706 53.3686 35.5284 55.3945 35.477 55.6597C35.4256 55.9249 34.7799 56.6763 34.7799 56.6763L32.7468 65.1923L27.9814 62.3524L28.5153 59.704L26.375 56.2195C26.375 56.2195 26.2409 52.4257 27.8741 49.7773C29.5073 47.1289 33.12 48.5139 33.12 48.5139Z" fill="white"/>
<path d="M32.8094 65.4243L27.8406 62.4776L28.388 59.7666L26.2655 56.3116V56.2416C26.2655 56.0832 26.1471 52.3336 27.7981 49.6557C29.4492 46.9779 32.9971 48.2745 33.1468 48.3297H33.178L33.2026 48.3702C33.3099 48.5581 34.246 50.2119 34.3018 51.037C34.3195 51.4173 34.3022 51.7998 34.2504 52.1715C34.2044 52.4099 34.1983 52.6644 34.2326 52.9082C34.275 53.0223 34.4873 53.3981 34.6906 53.759C35.4703 55.1403 35.6267 55.4865 35.5842 55.7112C35.5418 55.9359 35.0883 56.5326 34.8738 56.7868L32.8094 65.4243ZM28.1176 62.2566L32.6776 64.9565L34.6883 56.5584L34.7151 56.5252C34.9503 56.2683 35.1669 55.968 35.3608 55.6302C35.1095 55.0568 34.8308 54.5173 34.5275 54.0169C34.3552 53.7309 34.1933 53.4283 34.0427 53.1108C33.9702 52.7936 33.9662 52.445 34.0315 52.1236C34.0772 51.7853 34.0938 51.4381 34.0806 51.0923C34.0404 50.5066 33.3545 49.1916 33.0641 48.6796C32.7022 48.5544 29.4425 47.5083 27.9545 49.9246C26.4979 52.2857 26.48 55.6339 26.4867 56.1532L28.6449 59.6709L28.1176 62.2566Z" fill="#263238"/>
<path d="M30.7093 50.3666C30.7093 50.3666 33.5735 48.8675 33.7076 47.2321C33.8416 45.5967 31.5136 44.6758 29.4783 45.3904C27.443 46.105 25.0904 49.8105 25.0099 52.8935C24.9295 55.9764 27.6329 59.0705 27.7937 59.2031C27.9546 59.3357 27.9278 59.995 28.2406 60.1718C28.5533 60.3486 28.6695 60.4812 29.0985 59.9066C29.5274 59.332 29.418 57.6966 29.418 57.6966C29.418 57.6966 28.2137 57.3909 28.0529 56.0206C27.892 54.6504 28.6159 53.9469 29.0985 54.3889C29.5811 54.8309 29.981 56.4627 30.0882 56.9489C30.1955 57.4351 30.1955 60.6543 30.8903 61.45C31.5851 62.2456 33.9422 62.9049 34.6638 62.8607C35.3854 62.8165 35.4681 62.3745 35.3073 61.3873C35.1464 60.4002 34.8783 58.518 34.8604 58.0723C34.8425 57.6266 35.0838 56.8384 34.78 56.6616C34.4761 56.4848 33.7902 57.4977 33.0686 58.4701C32.7797 58.8832 32.4752 59.2658 32.1571 59.6156C32.1571 59.6156 32.1571 59.4867 31.2634 57.1036C30.3697 54.7204 30.0056 53.6154 30.0056 53.4828C30.0056 53.3502 31.5851 53.0445 31.4243 51.9394C31.3212 51.2801 31.0642 50.7147 30.7093 50.3666Z" fill="#263238"/>
<path d="M34.5945 63.0412C33.7567 63.0412 31.5314 62.3892 30.8344 61.5936C30.2736 60.9527 30.1373 58.9637 30.0569 57.7739C30.0453 57.5151 30.0229 57.2578 29.9899 57.0041C29.9452 56.7978 29.543 54.9856 29.0493 54.5436C28.9526 54.4612 28.8438 54.4258 28.7354 54.4414C28.627 54.4571 28.5236 54.5232 28.4371 54.632C28.317 54.7884 28.2277 54.9998 28.1804 55.2397C28.1331 55.4796 28.1299 55.7372 28.1712 55.9801C28.3142 57.203 29.4313 57.505 29.4425 57.5087L29.5274 57.5308V57.6708C29.5274 57.7408 29.6369 59.4093 29.1654 60.0392C28.7432 60.6065 28.5779 60.5475 28.2718 60.3781L28.2003 60.3376C28.106 60.2716 28.0221 60.1709 27.9551 60.0432C27.8881 59.9155 27.8398 59.7642 27.8138 59.6009C27.7974 59.5057 27.7684 59.4176 27.7289 59.343C27.6998 59.3209 24.7999 56.1643 24.8848 52.864C24.9697 49.5637 27.463 45.8655 29.4425 45.1878C31.0064 44.6463 32.8362 45.0589 33.5221 46.1086C33.6229 46.2448 33.7015 46.42 33.7511 46.6187C33.8006 46.8173 33.8194 47.0332 33.8058 47.2468C33.6829 48.7202 31.6543 50.0093 30.9461 50.4108C31.2328 50.7831 31.437 51.301 31.527 51.8842C31.6744 52.8861 30.7294 53.306 30.2758 53.5086L30.1395 53.5712C30.2088 53.8143 30.4635 54.5952 31.3549 56.9967C31.8777 58.4038 32.0967 59.041 32.1883 59.3357C32.3067 59.1957 32.5435 58.9047 32.9814 58.3154L33.2182 57.9949C34.0024 56.9341 34.4962 56.2932 34.8023 56.4774C35.1083 56.6615 35.0257 57.1883 34.9877 57.5824C34.9657 57.7344 34.9552 57.8903 34.9564 58.0465C34.981 58.4664 35.2424 60.3302 35.4033 61.3247C35.4792 61.7888 35.5306 62.2603 35.3831 62.5918C35.2625 62.8607 35.0391 62.9933 34.657 63.0154L34.5945 63.0412ZM28.7856 54.0684C28.9129 54.0664 29.0383 54.1185 29.1498 54.2195C29.6927 54.7167 30.1127 56.5216 30.1909 56.8789C30.2327 57.1593 30.2596 57.4453 30.2714 57.7334C30.3428 58.7869 30.4747 60.7427 30.9528 61.2879C31.6029 62.0246 33.9309 62.706 34.657 62.6691C34.9564 62.6507 35.1374 62.5623 35.2111 62.3966C35.2848 62.2308 35.2804 61.9472 35.1977 61.4463C35.0436 60.5254 34.7665 58.5843 34.7375 58.1054C34.7348 57.916 34.7461 57.7268 34.771 57.5419C34.8179 57.1072 34.8246 56.9046 34.7308 56.8494C34.5275 56.7278 33.884 57.5861 33.3657 58.3043L33.1266 58.6285C32.8332 59.0475 32.5243 59.4362 32.2017 59.7924L32.0341 59.9508V59.6635C32.0118 59.5751 31.88 59.1368 31.1673 57.2141C29.8938 53.7738 29.8938 53.5896 29.8938 53.4975C29.8938 53.3244 29.9764 53.2876 30.2222 53.1771C30.6087 53.0076 31.4108 52.6503 31.3147 51.9984C31.2183 51.3805 30.9773 50.8507 30.6445 50.525L30.421 50.3187L30.6735 50.1861C31.451 49.781 33.493 48.4476 33.5936 47.2063C33.6027 47.051 33.5881 46.8945 33.551 46.751C33.5139 46.6074 33.4556 46.4816 33.3813 46.3849C32.7424 45.4088 31.0019 45.0368 29.5006 45.5561C27.4049 46.2928 25.1953 49.9762 25.1194 52.8861C25.0434 55.7959 27.6015 58.8237 27.8406 59.0226C27.9355 59.129 28.0038 59.2887 28.0327 59.472C28.0863 59.693 28.1377 59.9066 28.2807 59.984L28.3567 60.0245C28.6091 60.1681 28.6851 60.2123 29.0269 59.7519C29.3107 59.3836 29.333 58.3448 29.3151 57.8402C29.0202 57.7371 28.093 57.3135 27.9433 56.0464C27.8956 55.7343 27.9037 55.4061 27.9668 55.1014C28.0298 54.7968 28.1451 54.5288 28.2986 54.33C28.4458 54.1539 28.6239 54.062 28.8057 54.0684H28.7856Z" fill="#263238"/>
<path d="M32.977 52.9192L32.7781 52.7535C32.825 52.5532 32.8985 52.3729 32.9933 52.2256C33.088 52.0784 33.2015 51.968 33.3255 51.9026C33.4081 51.8743 33.4934 51.8751 33.5758 51.9049C33.6582 51.9348 33.7358 51.993 33.8036 52.0757L33.6673 52.3667C33.6249 52.3176 33.577 52.2832 33.5263 52.2655C33.4756 52.2478 33.4233 52.2471 33.3724 52.2636C33.225 52.3188 33.0932 52.5398 32.977 52.9192Z" fill="#263238"/>
<path d="M34.3465 58.9747C34.0668 58.9735 33.7914 58.8597 33.5444 58.6432L33.6561 58.3264C33.9456 58.5723 34.2755 58.6575 34.5967 58.5695L34.6392 58.9379C34.5426 58.9657 34.4446 58.978 34.3465 58.9747Z" fill="white"/>
<path d="M33.7031 54.0832C33.7545 54.4515 33.7232 54.7756 33.636 54.8198C33.5489 54.864 33.4394 54.5804 33.3903 54.2121C33.3411 53.8437 33.3702 53.5159 33.4573 53.4754C33.5445 53.4349 33.6539 53.7111 33.7031 54.0832Z" fill="#263238"/>
<path d="M27.9277 61.4426L33.359 65.2365L32.9591 67.9696L27.4452 63.2069L27.9277 61.4426Z" fill="white"/>
<path d="M33.0328 68.2458L27.2999 63.288L27.8696 61.1995L33.4975 65.126L33.0328 68.2458ZM27.5904 63.1222L32.8831 67.697L33.2294 65.3433L27.9836 61.682L27.5904 63.1222Z" fill="#263238"/>
<path d="M32.9591 67.9696C32.9591 67.9696 34.8805 73.1263 35.3251 81.948C35.7697 90.7697 36.107 96.0149 36.107 96.0149L33.7634 96.4716L32.9591 67.9696Z" fill="white"/>
<path d="M33.6584 96.6779L32.8273 67.266L33.0507 67.8738C33.0708 67.9254 34.9922 73.1631 35.4346 81.9333C35.8769 90.7034 36.2121 95.9302 36.2143 95.9928L36.2277 96.1733L33.6584 96.6779ZM33.0932 68.7615L33.8707 96.2654L35.9842 95.8528C35.9216 94.8546 35.6111 89.79 35.2134 81.9628C34.8671 75.1117 33.6137 70.4559 33.0932 68.7615Z" fill="#263238"/>
<path d="M27.4452 63.2069L26.8285 65.4575C26.8285 65.4575 25.0054 72.2718 25.0568 73.7819C25.1082 75.2921 26.0734 90.5561 26.0734 90.5561L23.9375 106.921C23.9375 106.921 26.9894 110.306 29.8893 110.726C32.7893 111.146 34.6146 110.141 34.6146 110.141C34.6146 110.141 34.9207 99.6135 34.6146 92.9024C34.3085 86.1913 33.9019 74.2019 33.5467 71.7708C33.1914 69.3398 32.9546 67.9696 32.9546 67.9696L27.4452 63.2069Z" fill="#BFBFBF"/>
<path d="M31.2768 111.01C30.8434 111.01 30.3831 110.98 29.8782 110.91C26.9738 110.491 23.9062 107.109 23.875 107.076L23.8124 107.006L25.9594 90.545C25.8991 89.5947 24.9943 75.27 24.9451 73.793C24.8937 72.257 26.652 65.66 26.7325 65.3838L27.4027 62.9528L33.0507 67.8443L33.0641 67.9216C33.0641 67.9216 33.3054 69.3177 33.6562 71.7266C33.9265 73.5683 34.2192 80.7214 34.4806 87.0384C34.5677 89.1674 34.6504 91.197 34.7286 92.8913C35.0302 99.5214 34.7286 110.041 34.7286 110.148V110.273L34.6571 110.314C33.5564 110.812 32.418 111.047 31.2768 111.01ZM24.0626 106.837C24.5095 107.315 27.2888 110.152 29.8983 110.542C32.4207 110.91 34.1432 110.174 34.5119 110.001C34.5454 108.77 34.7911 99.1384 34.5119 92.9171C34.4359 91.2228 34.351 89.1932 34.2639 87.0642C34.0047 80.7583 33.7098 73.6162 33.4462 71.815C33.1423 69.7302 32.9234 68.4152 32.8675 68.0985L27.5055 63.4611L26.938 65.5311C26.9201 65.5974 25.1261 72.3233 25.1753 73.7709C25.2244 75.2184 26.1806 90.3829 26.1918 90.5376V90.5634V90.5929L24.0626 106.837Z" fill="#263238"/>
<path d="M33.6584 87.3036L31.2991 68.8904L26.7838 65.6232L26.8754 65.288L31.4935 68.6289L33.8773 87.23L33.6584 87.3036Z" fill="#263238"/>
<path d="M28.3857 68.2458C28.3857 68.2458 30.2714 67.1408 30.8165 67.2771C31.3617 67.4134 39.0539 70.4227 39.0539 70.4227L42.6174 58.4701L45.0907 59.9213C45.0907 59.9213 41.554 76.4966 41.4289 77.1375C41.4057 77.3306 41.3428 77.5047 41.2508 77.6302C41.1588 77.7557 41.0433 77.8249 40.9239 77.8263L29.3911 77.5758" fill="#BFBFBF"/>
<path d="M40.9239 77.9994L29.3911 77.7489V77.3806L40.9217 77.6311C41.1094 77.6311 41.2434 77.4432 41.3194 77.0675C41.4378 76.4855 44.5679 61.7962 44.9454 60.0245L42.671 58.6874L39.112 70.6253L39.0249 70.5921C38.9489 70.5626 31.3326 67.5865 30.7986 67.4502C30.3764 67.3397 28.9376 68.1058 28.4215 68.4079L28.3455 68.0616C28.4237 68.0174 30.2647 66.9566 30.8322 67.0855C31.3505 67.2181 38.0977 69.8517 38.9891 70.198L42.5638 58.2307L45.2448 59.7998L45.2068 59.9729C45.1711 60.1386 41.6701 76.5702 41.545 77.1817C41.5146 77.4152 41.4362 77.6242 41.323 77.7732C41.2098 77.9223 41.0688 78.0022 40.9239 77.9994Z" fill="#263238"/>
<path d="M42.6174 58.459L43.1112 56.6689L45.2068 57.8807L44.865 59.7777L42.6174 58.459Z" fill="white"/>
<path d="M44.9387 60.0171L42.4655 58.5658L43.0509 56.4405L45.3387 57.7629L44.9387 60.0171ZM42.7694 58.3522L44.7913 59.5383L45.0683 57.9949L43.1715 56.8899L42.7694 58.3522Z" fill="#263238"/>
<path d="M43.1045 56.6689C43.1045 56.6689 43.6541 50.9302 43.7323 50.7129C43.8105 50.4956 45.3565 48.1345 45.5665 47.6925C45.7765 47.2505 46.0379 47 46.1429 47.0884C46.2479 47.1768 46.2457 47.6041 46.1161 47.9503C45.9865 48.2966 44.8583 50.2377 44.8583 50.2377L44.7019 50.7129C44.7019 50.7129 45.819 49.3758 46.0424 49.0738C46.4866 48.5425 46.9701 48.1068 47.4812 47.7772C47.7426 47.6925 47.7962 48.0793 47.6912 48.3813C47.5862 48.6833 46.487 49.8068 46.487 49.8068L45.4392 51.4459C45.4392 51.4459 46.8534 50.3409 47.1148 50.1935C47.5057 50.1067 47.9005 50.0784 48.2944 50.1088C48.3726 50.1088 48.424 50.584 48.2676 50.7129C48.1112 50.8418 47.1506 51.317 47.1506 51.317L46.1295 52.4846L47.3606 52.1826H48.2542C48.3592 52.1826 48.5693 52.6135 48.3324 52.8272C48.0106 53.0355 47.6778 53.1946 47.3382 53.3023L46.2323 54.5105C46.0571 55.3617 45.8558 56.1977 45.6291 57.0152C45.4995 57.3172 45.2113 57.8808 45.2113 57.8808L43.1045 56.6689Z" fill="white"/>
<path d="M45.2426 58.0944L42.9861 56.7941L43.0017 56.6431C43.1671 54.9046 43.5625 50.8418 43.6429 50.6171C43.9156 50.117 44.2034 49.64 44.5053 49.1879C44.9164 48.5323 45.3834 47.7883 45.4861 47.5746C45.7095 47.1363 46.0134 46.7716 46.1988 46.9227C46.2293 46.95 46.2559 46.9878 46.2767 47.0336C46.2975 47.0793 46.3121 47.132 46.3195 47.1879C46.3551 47.4863 46.3181 47.7958 46.2167 48.0498C46.1251 48.2929 45.6023 49.2211 45.2538 49.8289C45.5531 49.4605 45.8704 49.0922 45.9709 48.9338C46.4296 48.3793 46.9316 47.9296 47.4634 47.5967C47.5235 47.5652 47.588 47.5653 47.648 47.597C47.7081 47.6287 47.7607 47.6904 47.7985 47.7735C47.8388 47.8781 47.8603 47.9995 47.8603 48.1234C47.8603 48.2474 47.8388 48.3688 47.7985 48.4734C47.6913 48.7865 46.8423 49.6742 46.5675 49.9467L46.0357 50.7792C46.4513 50.4587 46.945 50.0867 47.0947 50.013C47.4768 49.9053 47.8653 49.8731 48.252 49.9173H48.3057C48.3883 49.9173 48.4531 50.0278 48.4799 50.2119C48.5026 50.334 48.5 50.4651 48.4725 50.5845C48.445 50.7039 48.3942 50.8048 48.328 50.8713C48.1738 50.9965 47.3584 51.4017 47.2109 51.479L46.5987 52.1789L47.3539 51.991H48.2431C48.312 52.0089 48.3762 52.0601 48.4275 52.1381C48.4788 52.2161 48.5149 52.3175 48.5313 52.4293C48.5488 52.5366 48.543 52.6506 48.5149 52.7516C48.4867 52.8525 48.438 52.934 48.3771 52.9818C48.0525 53.1979 47.7158 53.3607 47.3718 53.468L46.3195 54.6173C46.1477 55.4657 45.9463 56.2971 45.7162 57.1072C45.5844 57.4129 45.3029 57.9618 45.2918 57.9839L45.2426 58.0944ZM43.2318 56.5474L45.1666 57.6524C45.2538 57.4793 45.4347 57.1146 45.5308 56.8973C45.7528 56.096 45.9489 55.2759 46.1184 54.4405L46.1296 54.3815L47.3003 53.1108C47.6291 53.0096 47.9515 52.8579 48.2632 52.6577C48.3168 52.6061 48.3146 52.5619 48.3124 52.5435C48.308 52.5035 48.2983 52.4656 48.284 52.4325C48.2697 52.3994 48.2512 52.3719 48.2297 52.352H47.3494L45.6649 52.7756L47.1126 51.1328C47.4969 50.9449 48.1113 50.6318 48.2297 50.5397C48.2388 50.5308 48.2466 50.5185 48.2524 50.5038C48.2583 50.4892 48.2619 50.4724 48.2632 50.455C48.2712 50.3993 48.2712 50.3413 48.2632 50.2856H48.2431C47.8798 50.2411 47.5147 50.2671 47.1551 50.3629C46.954 50.4624 45.9821 51.2212 45.4951 51.6043L44.8516 52.1162L46.4356 49.641C46.85 49.2509 47.2406 48.7957 47.6019 48.2818C47.6201 48.2382 47.6315 48.1877 47.635 48.135C47.6385 48.0823 47.6341 48.0289 47.622 47.9798C47.5997 47.9282 47.5416 47.9393 47.5103 47.9503C47.0185 48.2728 46.5526 48.6934 46.1229 49.2027C45.8994 49.5084 44.8248 50.8013 44.7824 50.8565L44.3847 51.328L44.7935 50.1051C45.2404 49.3279 45.9441 48.0866 46.0357 47.8435C46.0745 47.7582 46.1007 47.6593 46.1123 47.5545C46.124 47.4496 46.1207 47.3418 46.1028 47.2394C45.9261 47.3462 45.7745 47.5421 45.6693 47.7993C45.5576 48.0277 45.1063 48.7496 44.6706 49.4458C44.3221 50.002 43.8887 50.6945 43.844 50.8013C43.7747 51.0444 43.4441 54.3889 43.2363 56.5474H43.2318Z" fill="#263238"/>
</svg>
