<svg width="97" height="109" viewBox="0 0 97 109" fill="none" xmlns="http://www.w3.org/2000/svg">
<g id="Group">
<path id="Vector" d="M60.081 88.0843H36.9205C36.3219 88.0843 35.8364 87.6401 35.8364 87.0926V86.8963C35.8364 80.5998 32.5107 74.5254 26.9491 70.6569C22.6015 67.63 19.0669 63.7303 16.6164 59.2623C11.7549 50.3521 11.6139 39.893 16.2325 30.8735C20.8512 21.855 29.7271 15.2636 40.3196 12.976C50.9176 10.6929 62.0809 12.9657 70.6119 19.1486C79.1491 25.3315 84.1293 34.7426 84.1293 44.7063C84.1462 49.8354 82.825 54.8973 80.2728 59.4633C77.811 63.8744 74.2877 67.7226 69.9683 70.7184C64.4575 74.5304 61.1658 80.5222 61.1658 86.7356V87.0868C61.1658 87.3503 61.0528 87.6085 60.8496 87.7945C60.6463 87.9805 60.3689 88.0843 60.081 88.0843ZM37.9872 86.1008H59.0084C59.1157 82.9035 59.9909 79.763 61.5605 76.9015C63.2545 73.854 65.6824 71.1938 68.658 69.1329C77.1106 63.2858 81.955 54.3864 81.955 44.7058C81.955 27.9137 67.0264 14.1841 48.6763 14.0969H48.5013C30.2409 14.0969 15.2559 27.6347 15.0419 44.3501C14.9177 54.1331 19.7397 63.1521 28.2599 69.0813C31.2637 71.1732 33.7142 73.8644 35.4194 76.9532C36.9777 79.7992 37.8518 82.9189 37.9872 86.1008Z" fill="#070D0D"/>
<path id="Vector_2" d="M60.081 94.721H36.9205C36.322 94.721 35.8364 94.2768 35.8364 93.7292V87.0919C35.8364 86.5444 36.322 86.1002 36.9205 86.1002C37.519 86.1002 38.0045 86.5444 38.0045 87.0919V92.7375H58.9969V87.0919C58.9969 86.5444 59.4825 86.1002 60.081 86.1002C60.6795 86.1002 61.1651 86.5444 61.1651 87.0919V93.7292C61.1651 93.9927 61.0521 94.2458 60.8489 94.4317C60.6456 94.6177 60.3689 94.721 60.081 94.721Z" fill="#070D0D"/>
<path id="Vector_3" d="M57.8781 101.359H39.1205C37.3024 101.354 35.8344 100.011 35.8344 98.3528V93.7247C35.8344 93.1772 36.3199 92.733 36.9184 92.733C37.5169 92.733 38.0025 93.1772 38.0025 93.7247V98.3528C38.0025 98.9158 38.4994 99.3704 39.1205 99.3756H57.8782C58.4936 99.3704 58.9961 98.9158 58.9961 98.3528V93.7247C58.9961 93.1772 59.4817 92.733 60.0802 92.733C60.6787 92.733 61.1643 93.1772 61.1643 93.7247V98.3528C61.1643 100.011 59.6906 101.354 57.8781 101.359Z" fill="#070D0D"/>
<path id="Vector_4" d="M48.5 108.223C43.7572 108.218 39.9176 104.7 39.912 100.367C39.912 99.8192 40.3976 99.375 40.9961 99.375C41.5946 99.375 42.0802 99.8192 42.0802 100.367C42.0802 103.61 44.9542 106.24 48.5 106.24C52.0459 106.24 54.9198 103.61 54.9198 100.367C54.9198 99.8192 55.4054 99.375 56.0039 99.375C56.6024 99.375 57.088 99.8192 57.088 100.367C57.0824 104.7 53.2428 108.218 48.5 108.223Z" fill="#070D0D"/>
<path id="Vector_5" d="M36.5635 48.0578C35.965 48.0578 35.4794 47.6136 35.4794 47.0661V43.1457C35.4794 42.5982 35.965 42.154 36.5635 42.154C37.1676 42.154 37.6476 42.5982 37.6476 43.1457V47.0661C37.6532 47.3295 37.5346 47.5826 37.3314 47.7686C37.1281 47.9545 36.8514 48.0578 36.5635 48.0578Z" fill="#070D0D"/>
<path id="Vector_6" d="M44.6204 88.0843C44.0219 88.0843 43.5363 87.6401 43.5363 87.0926V62.4697C43.5137 60.7703 42.4635 59.226 40.8092 58.4563L39.375 57.7796C37.0036 56.6691 35.5073 54.4532 35.4791 52.0151V51.7775C35.4791 51.23 35.9647 50.7858 36.5632 50.7858C37.1673 50.7858 37.6472 51.23 37.6472 51.7775V52.0099C37.6698 53.7041 38.72 55.2486 40.3744 56.0181L41.8085 56.7V56.6948C44.18 57.8002 45.6819 60.0212 45.7045 62.4541V87.0928C45.7045 87.3562 45.5859 87.6093 45.3826 87.7953C45.1794 87.9812 44.9084 88.0843 44.6204 88.0843Z" fill="#070D0D"/>
<path id="Vector_7" d="M60.4308 48.0578C60.1428 48.063 59.8662 47.9545 59.6629 47.7686C59.454 47.5826 59.3411 47.3295 59.3411 47.0661V43.1457C59.3411 42.5982 59.8267 42.154 60.4252 42.154C61.0237 42.154 61.5092 42.5982 61.5092 43.1457V47.0661C61.5092 47.6136 61.0293 48.0578 60.4308 48.0578Z" fill="#070D0D"/>
<path id="Vector_8" d="M52.3796 88.0843C51.7811 88.0843 51.2955 87.6401 51.2955 87.0926V62.4539C51.3181 60.0211 52.8201 57.8 55.1915 56.6945L56.6256 56.0127C58.2743 55.2431 59.3246 53.6987 59.3415 52.0045V51.7773C59.3415 51.2297 59.8271 50.7855 60.4256 50.7855C61.0241 50.7855 61.5097 51.2297 61.5097 51.7773V52.0097C61.4927 54.4478 59.9908 56.6687 57.625 57.7793L56.1909 58.4612L56.1852 58.456C54.5309 59.2256 53.4863 60.7701 53.4637 62.4695V87.0923C53.4637 87.3557 53.3508 87.6088 53.1475 87.7948C52.9442 87.9807 52.6676 88.0843 52.3796 88.0843Z" fill="#070D0D"/>
<path id="Vector_9" d="M62.5368 52.7679H34.4574C33.4749 52.7834 32.5264 52.4425 31.8262 51.8123C31.1261 51.1822 30.7308 50.3196 30.7308 49.4208C30.7308 48.522 31.1261 47.6595 31.8262 47.0293C32.5264 46.4043 33.4749 46.0582 34.4574 46.0737H62.5368C63.5192 46.0582 64.4678 46.4043 65.1679 47.0293C65.8737 47.6594 66.269 48.522 66.269 49.4208C66.269 50.3196 65.8737 51.1821 65.1679 51.8123C64.4678 52.4425 63.5192 52.7834 62.5368 52.7679ZM34.4574 48.0572C34.0565 48.0468 33.6669 48.1863 33.3789 48.4446C33.0853 48.6977 32.9216 49.0541 32.9216 49.4208C32.9216 49.7875 33.0853 50.144 33.3789 50.4022C33.6669 50.6553 34.0565 50.7948 34.4574 50.7844H62.5368C62.9377 50.7948 63.3329 50.6553 63.6209 50.4022C63.9088 50.144 64.0726 49.7876 64.0726 49.4208C64.0726 49.0541 63.9088 48.6977 63.6209 48.4446C63.3329 48.1863 62.9377 48.0468 62.5368 48.0572H34.4574Z" fill="#070D0D"/>
<path id="Vector_10" d="M48.5 8.14512C47.9015 8.14512 47.4159 7.7009 47.4159 7.15338V1.44575C47.4159 0.898228 47.9015 0.45401 48.5 0.45401C49.0985 0.45401 49.5841 0.898228 49.5841 1.44575V7.15338C49.5841 7.7009 49.0985 8.14512 48.5 8.14512Z" fill="#070D0D"/>
<path id="Vector_11" d="M19.4782 19.1428C19.1902 19.1428 18.9135 19.0395 18.7103 18.8535L14.3005 14.8194C14.0972 14.6335 13.9786 14.3804 13.9786 14.1169C13.9786 13.8535 14.0972 13.6004 14.3005 13.4145C14.724 13.0271 15.4072 13.0271 15.8306 13.4145L20.2404 17.4486C20.551 17.7327 20.647 18.1562 20.4776 18.5281C20.3082 18.9 19.913 19.1376 19.4782 19.1376V19.1428Z" fill="#070D0D"/>
<path id="Vector_12" d="M7.45197 45.6975H1.21281C0.614309 45.6975 0.128723 45.2533 0.128723 44.7058C0.128723 44.1583 0.614309 43.7141 1.21281 43.7141H7.45197C8.05048 43.7141 8.53606 44.1583 8.53606 44.7058C8.53606 45.2533 8.05048 45.6975 7.45197 45.6975Z" fill="#070D0D"/>
<path id="Vector_13" d="M15.0623 76.2919C14.6275 76.2867 14.2323 76.0491 14.0629 75.6772C13.8935 75.3053 13.9895 74.8818 14.3 74.5977L18.7098 70.5636V70.5584C19.1333 70.171 19.8165 70.171 20.24 70.5584C20.6634 70.9458 20.6634 71.576 20.24 71.9634L15.8302 75.9923C15.6325 76.1834 15.3502 76.2919 15.0623 76.2919Z" fill="#070D0D"/>
<path id="Vector_14" d="M81.9377 76.2919C81.6497 76.2919 81.3731 76.1834 81.1698 75.9975L76.7543 71.9634H76.76C76.3365 71.576 76.3365 70.9458 76.76 70.5584C77.1835 70.171 77.8667 70.171 78.2901 70.5584L82.6999 74.5925V74.5977C83.0105 74.8818 83.1065 75.3053 82.9371 75.6772C82.7677 76.0491 82.3725 76.2867 81.9377 76.2919Z" fill="#070D0D"/>
<path id="Vector_15" d="M95.788 45.6975H89.5489C88.9504 45.6975 88.4648 45.2533 88.4648 44.7058C88.4648 44.1583 88.9504 43.7141 89.5489 43.7141H95.7937C96.3922 43.7141 96.8778 44.1583 96.8778 44.7058C96.8778 45.2533 96.3922 45.6975 95.7937 45.6975H95.788Z" fill="#070D0D"/>
<path id="Vector_16" d="M77.5219 19.1428C77.0871 19.1428 76.6919 18.9052 76.5225 18.5333C76.3531 18.1614 76.4491 17.7379 76.7596 17.4538L81.1694 13.4145C81.5929 13.0374 82.2704 13.0426 82.6883 13.43C83.1061 13.8122 83.1118 14.4269 82.6996 14.8195L78.2898 18.8536C78.0865 19.0395 77.8098 19.1428 77.5219 19.1428Z" fill="#070D0D"/>
</g>
</svg>
