<svg width="1512" height="657" viewBox="0 0 1512 657" fill="none" xmlns="http://www.w3.org/2000/svg" preserveAspectRatio="none">
<path fill-rule="evenodd" clip-rule="evenodd" d="M962.408 46.0762C1037.52 65.7203 1108.42 84.265 1184.4 84.2649C1385.21 84.2649 1512 17.7214 1512 17.7214V175.219H0V0C38.0005 0 73.3722 7.92574 113.298 16.872C200.793 36.4769 310.159 60.9827 516.994 17.7214C704.245 -21.444 839.001 13.8002 962.408 46.0762ZM1512 175.219V602.831C1512 602.831 1253.7 548.888 964.688 602.831C761.911 640.679 733.582 637.047 626.749 623.35C581.316 617.526 521.685 609.88 428.4 602.831C115.763 579.206 0.000242615 656.775 0.000242615 656.775V175.219H1512Z" fill="#77B9F3"/>
</svg>
