<svg xmlns="http://www.w3.org/2000/svg" width="35" height="36" viewBox="0 0 35 36" fill="none">
  <path fill-rule="evenodd" clip-rule="evenodd" d="M26.3904 17.4008C26.1803 17.4008 26.0115 17.2214 26.0115 16.9981V3.60731C26.0115 3.38557 26.1803 3.20459 26.3904 3.20459C26.5991 3.20459 26.7694 3.38557 26.7694 3.60731V16.9981C26.7694 17.2198 26.5991 17.4008 26.3904 17.4008ZM15.828 24.6596H2.7129C2.50427 24.6596 2.33398 24.4786 2.33398 24.2569V3.60731C2.33398 3.38557 2.50274 3.20459 2.7129 3.20459C2.92154 3.20459 3.09182 3.38557 3.09182 3.60731V23.8541H15.828C16.0366 23.8541 16.2069 24.0351 16.2069 24.2568C16.2069 24.4786 16.0382 24.6596 15.828 24.6596Z" fill="black"/>
  <path fill-rule="evenodd" clip-rule="evenodd" d="M1.02098 3.20459H28.0807V1.18776H1.02098V3.20459ZM28.4597 4.0084H0.643567C0.434931 4.0084 0.264648 3.82743 0.264648 3.60569V0.78504C0.264648 0.563301 0.433399 0.382324 0.643567 0.382324H28.4597C28.6683 0.382324 28.8386 0.563301 28.8386 0.78504V3.60569C28.8386 3.82743 28.6683 4.0084 28.4597 4.0084Z" fill="black"/>
  <path fill-rule="evenodd" clip-rule="evenodd" d="M18.3465 8.86076H20.798C21.0067 8.86076 21.1769 9.04173 21.1769 9.26347V11.8689C22.3659 11.6749 23.2787 10.5809 23.2787 9.26347C23.2787 7.80911 22.1665 6.62869 20.7996 6.62869C19.5616 6.62869 18.5307 7.59879 18.3481 8.8624L18.3465 8.86076ZM20.798 12.7037C20.5894 12.7037 20.4191 12.5243 20.4191 12.301V9.66618H17.9385C17.7299 9.66618 17.5596 9.48683 17.5596 9.26347C17.5596 7.36563 19.0108 5.82324 20.7965 5.82324C22.5822 5.82324 24.0334 7.36726 24.0334 9.26347C24.0334 11.1597 22.5822 12.7037 20.7965 12.7037L20.798 12.7037Z" fill="black"/>
  <path fill-rule="evenodd" clip-rule="evenodd" d="M17.0013 11.0945C17.1654 12.226 18.0092 13.1228 19.0738 13.2972V11.0945H17.0013ZM19.4528 14.132C17.6671 14.132 16.2158 12.5896 16.2158 10.6918C16.2158 10.47 16.3846 10.2891 16.5947 10.2891H19.4527C19.6614 10.2891 19.8317 10.47 19.8317 10.6918V13.7293C19.8317 13.951 19.6614 14.132 19.4528 14.132Z" fill="black"/>
  <path fill-rule="evenodd" clip-rule="evenodd" d="M13.2849 14.3274H5.44728C5.23864 14.3274 5.06836 14.1464 5.06836 13.9247V6.03016C5.06836 5.80842 5.23711 5.62744 5.44728 5.62744C5.65591 5.62744 5.8262 5.80842 5.8262 6.03016V13.5219H13.2849C13.495 13.5219 13.6638 13.7029 13.6638 13.9246C13.6638 14.1464 13.4951 14.3274 13.2849 14.3274Z" fill="black"/>
  <path fill-rule="evenodd" clip-rule="evenodd" d="M7.17872 14.3278C6.97009 14.3278 6.7998 14.1468 6.7998 13.9251V11.3392C6.7998 11.1159 6.96856 10.9365 7.17872 10.9365C7.38736 10.9365 7.55764 11.1159 7.55764 11.3392V13.9251C7.55764 14.1468 7.38736 14.3278 7.17872 14.3278Z" fill="black"/>
  <path fill-rule="evenodd" clip-rule="evenodd" d="M8.82814 14.3277C8.6195 14.3277 8.44922 14.1467 8.44922 13.925V10.2011C8.44922 9.97932 8.61797 9.79834 8.82814 9.79834C9.03677 9.79834 9.20706 9.97769 9.20706 10.2011V13.925C9.20706 14.1467 9.03677 14.3277 8.82814 14.3277Z" fill="black"/>
  <path fill-rule="evenodd" clip-rule="evenodd" d="M10.4766 14.3278C10.2679 14.3278 10.0977 14.1468 10.0977 13.9251V8.5658C10.0977 8.34406 10.2664 8.16309 10.4766 8.16309C10.6852 8.16309 10.8555 8.34406 10.8555 8.5658V13.9251C10.8555 14.1468 10.6852 14.3278 10.4766 14.3278Z" fill="black"/>
  <path fill-rule="evenodd" clip-rule="evenodd" d="M12.126 14.3276C11.9174 14.3276 11.7471 14.1466 11.7471 13.9249V6.20984C11.7471 5.98811 11.9158 5.80713 12.126 5.80713C12.3346 5.80713 12.5049 5.98811 12.5049 6.20984V13.9249C12.5049 14.1466 12.3346 14.3276 12.126 14.3276Z" fill="black"/>
  <path fill-rule="evenodd" clip-rule="evenodd" d="M6.67608 16.4353H5.44728C5.23864 16.4353 5.06836 16.256 5.06836 16.0326C5.06836 15.8109 5.23864 15.6299 5.44728 15.6299H6.67608C6.88472 15.6299 7.055 15.8109 7.055 16.0326C7.055 16.2543 6.88472 16.4353 6.67608 16.4353Z" fill="black"/>
  <path fill-rule="evenodd" clip-rule="evenodd" d="M6.67608 18.3674H5.44728C5.23864 18.3674 5.06836 18.1881 5.06836 17.9647C5.06836 17.743 5.23864 17.562 5.44728 17.562H6.67608C6.88472 17.562 7.055 17.743 7.055 17.9647C7.055 18.1865 6.88472 18.3674 6.67608 18.3674Z" fill="black"/>
  <path fill-rule="evenodd" clip-rule="evenodd" d="M6.67608 20.3015H5.44728C5.23864 20.3015 5.06836 20.1222 5.06836 19.8988C5.06836 19.6771 5.23864 19.4961 5.44728 19.4961H6.67608C6.88472 19.4961 7.055 19.6771 7.055 19.8988C7.055 20.1205 6.88472 20.3015 6.67608 20.3015Z" fill="black"/>
  <path fill-rule="evenodd" clip-rule="evenodd" d="M6.67608 22.2351H5.44728C5.23864 22.2351 5.06836 22.0558 5.06836 21.8324C5.06836 21.609 5.23864 21.4297 5.44728 21.4297H6.67608C6.88472 21.4297 7.055 21.609 7.055 21.8324C7.055 22.0541 6.88472 22.2351 6.67608 22.2351Z" fill="black"/>
  <path fill-rule="evenodd" clip-rule="evenodd" d="M19.8502 16.4353H8.62208C8.41345 16.4353 8.24316 16.256 8.24316 16.0326C8.24316 15.8109 8.41192 15.6299 8.62208 15.6299H19.8502C20.0588 15.6299 20.2291 15.8109 20.2291 16.0326C20.2291 16.2543 20.0588 16.4353 19.8502 16.4353Z" fill="black"/>
  <path fill-rule="evenodd" clip-rule="evenodd" d="M17.3606 18.3674H8.62404C8.4154 18.3674 8.24512 18.1881 8.24512 17.9647C8.24512 17.743 8.41387 17.562 8.62404 17.562H17.3606C17.5693 17.562 17.7396 17.743 17.7396 17.9647C17.7396 18.1865 17.5693 18.3674 17.3606 18.3674Z" fill="black"/>
  <path fill-rule="evenodd" clip-rule="evenodd" d="M15.1272 20.3015H8.62404C8.4154 20.3015 8.24512 20.1222 8.24512 19.8988C8.24512 19.6771 8.41387 19.4961 8.62404 19.4961H15.1272C15.3358 19.4961 15.5061 19.6771 15.5061 19.8988C15.5061 20.1205 15.3358 20.3015 15.1272 20.3015Z" fill="black"/>
  <path fill-rule="evenodd" clip-rule="evenodd" d="M13.8921 22.2351H8.62404C8.4154 22.2351 8.24512 22.0558 8.24512 21.8324C8.24512 21.609 8.41387 21.4297 8.62404 21.4297H13.8921C14.1007 21.4297 14.271 21.609 14.271 21.8324C14.271 22.0541 14.1022 22.2351 13.8921 22.2351Z" fill="black"/>
  <path fill-rule="evenodd" clip-rule="evenodd" d="M24.3925 17.1564C19.7901 17.1564 16.0455 21.1363 16.0455 26.0277C16.0455 30.919 19.7886 34.8989 24.3925 34.8989C28.9949 34.8989 32.7395 30.9207 32.7395 26.0277C32.7395 21.1363 28.9948 17.1564 24.3925 17.1564ZM24.3925 35.7028C19.373 35.7028 15.2891 31.3628 15.2891 26.0277C15.2891 20.6913 19.3726 16.3525 24.3925 16.3525C29.4135 16.3525 33.4959 20.6926 33.4959 26.0277C33.4959 31.3628 29.4123 35.7028 24.3925 35.7028Z" fill="black"/>
  <path fill-rule="evenodd" clip-rule="evenodd" d="M24.3925 19.7519C21.1371 19.7519 18.4878 22.5676 18.4878 26.0273C18.4878 29.4871 21.1357 32.3028 24.3925 32.3028C27.6493 32.3028 30.2971 29.4887 30.2971 26.0273C30.2971 22.5659 27.6493 19.7519 24.3925 19.7519ZM24.3925 33.1067C20.7199 33.1067 17.7314 29.9306 17.7314 26.0273C17.7314 22.1224 20.7199 18.9463 24.3925 18.9463C28.0667 18.9463 31.0551 22.1224 31.0551 26.0273C31.0551 29.9306 28.0667 33.1067 24.3925 33.1067Z" fill="black"/>
  <path fill-rule="evenodd" clip-rule="evenodd" d="M24.3926 22.1652C22.3891 22.1652 20.7599 23.8967 20.7599 26.0277C20.7599 28.1571 22.3891 29.8902 24.3926 29.8902C26.3977 29.8902 28.0269 28.1571 28.0269 26.0277C28.0269 23.8967 26.3977 22.1652 24.3926 22.1652ZM24.3926 30.6942C21.9718 30.6942 20.002 28.6007 20.002 26.0278C20.002 23.4549 21.9717 21.3613 24.3926 21.3613C26.8136 21.3613 28.7833 23.4548 28.7833 26.0278C28.7833 28.6006 26.8136 30.6942 24.3926 30.6942Z" fill="black"/>
  <path fill-rule="evenodd" clip-rule="evenodd" d="M24.393 24.6838C23.6965 24.6838 23.1289 25.2871 23.1289 26.0273C23.1289 26.7675 23.6965 27.3708 24.393 27.3708C25.091 27.3708 25.6571 26.7676 25.6571 26.0273C25.6571 25.2855 25.0895 24.6838 24.393 24.6838ZM24.393 28.1762C23.2793 28.1762 22.3711 27.211 22.3711 26.0273C22.3711 24.842 23.2793 23.8784 24.393 23.8784C25.5083 23.8784 26.4149 24.842 26.4149 26.0273C26.4149 27.211 25.5083 28.1762 24.393 28.1762Z" fill="black"/>
  <path fill-rule="evenodd" clip-rule="evenodd" d="M24.3932 26.4302C24.2965 26.4302 24.1999 26.3911 24.1263 26.3129C23.9774 26.1563 23.9774 25.902 24.1263 25.7438L32.8476 16.4748C32.9948 16.3183 33.2341 16.3183 33.383 16.4748C33.5302 16.633 33.5302 16.8873 33.383 17.0438L24.6617 26.3129C24.588 26.3911 24.4898 26.4302 24.3932 26.4302Z" fill="black"/>
  <path fill-rule="evenodd" clip-rule="evenodd" d="M34.5574 17.4659C34.5328 17.4659 34.5083 17.4626 34.4837 17.4577L33.0417 17.1545C32.8913 17.1219 32.7732 16.9979 32.7441 16.8382L32.4587 15.3055C32.4173 15.0871 32.5508 14.8751 32.7563 14.8327C32.9619 14.7887 33.1613 14.9305 33.2012 15.149L33.439 16.4175L34.6325 16.6702C34.8381 16.7126 34.97 16.9246 34.9301 17.1431C34.8949 17.3354 34.7368 17.4675 34.5589 17.4675L34.5574 17.4659Z" fill="black"/>
  <path fill-rule="evenodd" clip-rule="evenodd" d="M33.2504 18.8553C33.2259 18.8553 33.2013 18.852 33.1768 18.8471L31.7332 18.5423C31.5829 18.5096 31.4663 18.3857 31.4356 18.226L31.1487 16.6917C31.1088 16.4732 31.2408 16.2629 31.4463 16.2189C31.6504 16.1749 31.8498 16.3183 31.8912 16.5352L32.1275 17.8037L33.321 18.0548C33.5266 18.0988 33.6585 18.3091 33.6186 18.5276C33.5818 18.72 33.4253 18.852 33.2474 18.852L33.2504 18.8553Z" fill="black"/>
</svg>