<svg width="159" height="160" viewBox="0 0 159 160" fill="none" xmlns="http://www.w3.org/2000/svg">
<path d="M112.333 20.8613H141.712C141.712 20.8613 139.116 17.0045 131.551 17.5804C124.33 18.1163 123.955 15.6812 120.291 15.3932C116.627 15.1052 113.557 17.3654 112.333 20.8613Z" fill="#E0E0E0"/>
<path d="M35.54 84.2261C35.54 84.2261 32.5954 85.5239 36.8805 90.54C41.1656 95.5561 43.9539 97.9621 43.9539 97.9621C43.9539 97.9621 44.7671 99.1469 43.507 99.4859C42.2469 99.8249 39.3381 99.7775 38.9806 101.13C38.6097 102.537 40.0173 103.682 42.6178 104.502C45.2184 105.322 50.8396 107.338 51.3445 107.52C51.8494 107.703 52.4035 108.231 51.5902 108.574C50.777 108.917 44.4722 110.182 45.3837 112.584C46.2953 114.986 54.0165 116.346 54.8566 116.506C55.6966 116.667 55.9334 116.922 55.929 117.287C55.9245 117.651 53.7574 117.914 51.979 118.333C50.2006 118.752 48.2345 119.496 48.9048 120.848C49.575 122.201 54.4276 124.654 65.1427 124.308L70.0936 123.885L72.2026 120.185C76.1214 112.044 74.8836 107.499 73.5431 106.536C72.2026 105.574 70.6923 106.85 69.6244 108.082C68.5565 109.314 67.5377 110.896 67.1132 110.779C66.6887 110.663 66.4742 110.397 66.5636 109.686C66.653 108.975 67.6226 102.592 65.1382 101.097C62.6538 99.6026 59.1149 104.043 58.4357 104.557C57.7565 105.071 57.341 104.466 57.2963 104.021C57.2516 103.576 56.7824 98.5855 56.6707 96.3034C56.559 94.0214 55.7145 92.5705 53.9674 92.3955C52.2203 92.2206 51.3847 94.4807 50.5759 95.3411C49.7672 96.2014 48.6635 95.1843 48.6635 95.1843C48.6635 95.1843 46.7912 92.2461 42.4078 87.2956C38.0244 82.3451 35.4819 84.2626 35.4819 84.2626" fill="#EBEBEB"/>
<path d="M70.5091 124.807C67.2964 121.162 61.7244 114.6 56.903 108.99C52.0817 103.379 47.7161 98.3048 44.5258 94.6448C42.9306 92.8221 41.6437 91.342 40.7456 90.3176L39.7178 89.1365L39.4542 88.8303C39.3961 88.761 39.3693 88.7209 39.3693 88.7209C39.3693 88.7209 39.4051 88.7538 39.4676 88.823L39.7446 89.1219L40.7947 90.2885C41.6884 91.2983 43.0289 92.771 44.6151 94.5937C47.8279 98.2392 52.2113 103.306 57.0282 108.917C61.845 114.527 67.4081 121.096 70.5985 124.752" fill="#E0E0E0"/>
<path d="M43.0467 101.334C43.1672 101.338 43.2869 101.352 43.4042 101.374C43.6321 101.407 43.9583 101.462 44.3649 101.535C45.1737 101.677 46.2818 101.899 47.4927 102.162L50.6205 102.843L51.5678 103.047C51.6863 103.064 51.8018 103.092 51.9119 103.131C51.7915 103.13 51.6716 103.118 51.5544 103.095C51.3265 103.062 51.0004 103.007 50.5937 102.931C49.7894 102.781 48.6813 102.566 47.4659 102.286L44.3381 101.622L43.3908 101.422C43.2718 101.405 43.1561 101.376 43.0467 101.334Z" fill="#E0E0E0"/>
<path d="M52.2068 102.854C52.1621 102.854 52.6224 100.959 53.2301 98.6401C53.8378 96.3217 54.3695 94.4443 54.4097 94.4516C54.4499 94.4588 53.9942 96.3435 53.382 98.6657C52.7698 100.988 52.247 102.854 52.2068 102.854Z" fill="#E0E0E0"/>
<path d="M59.1327 111.724C59.1712 111.629 59.2237 111.538 59.2891 111.454L59.7628 110.725C60.1605 110.12 60.7101 109.267 61.2686 108.333C61.8271 107.4 62.3097 106.511 62.6448 105.895L63.047 105.147C63.0856 105.051 63.1413 104.96 63.2123 104.877C63.1875 104.976 63.1516 105.072 63.1051 105.165C63.0247 105.348 62.904 105.607 62.7476 105.927C62.4348 106.569 61.9746 107.444 61.4071 108.392C60.8396 109.339 60.2766 110.171 59.8566 110.769C59.6421 111.064 59.4634 111.304 59.3383 111.465C59.28 111.556 59.2112 111.643 59.1327 111.724Z" fill="#E0E0E0"/>
<path d="M50.482 111.855C50.5911 111.83 50.7041 111.819 50.8171 111.822L51.7421 111.778C52.5196 111.745 53.5965 111.713 54.785 111.68C55.9736 111.647 57.0505 111.629 57.8324 111.622H58.7574C58.8704 111.614 58.984 111.614 59.097 111.622C58.9863 111.646 58.8721 111.658 58.7574 111.658L57.8369 111.702C57.0549 111.731 55.9781 111.767 54.7895 111.797C53.6009 111.826 52.5241 111.848 51.7421 111.855H50.8216C50.7088 111.866 50.5948 111.866 50.482 111.855Z" fill="#E0E0E0"/>
<path d="M55.3748 120.352C55.5215 120.326 55.6714 120.312 55.8217 120.312L57.0058 120.254C58.0022 120.21 59.3829 120.155 60.9066 120.104C62.4303 120.053 63.8111 120.017 64.8075 119.995L65.9916 119.973C66.1403 119.963 66.2897 119.963 66.4384 119.973C66.2911 119.996 66.1416 120.01 65.9916 120.013L64.8075 120.072C63.8111 120.115 62.4303 120.17 60.9066 120.221C59.3829 120.272 58.0022 120.309 57.0058 120.33L55.8217 120.352C55.673 120.362 55.5235 120.362 55.3748 120.352Z" fill="#E0E0E0"/>
<path d="M66.1436 119.915C66.1941 119.795 66.2569 119.679 66.3313 119.569L66.8943 118.639C67.3679 117.855 68.0113 116.773 68.6816 115.559C69.3518 114.345 69.9327 113.236 70.3438 112.427L70.8309 111.472C70.8843 111.354 70.9486 111.24 71.023 111.129C70.992 111.254 70.9456 111.377 70.8845 111.494C70.7862 111.727 70.6387 112.059 70.4376 112.464C70.0534 113.28 69.4904 114.399 68.8156 115.613C68.1409 116.827 67.4751 117.91 66.9792 118.683C66.7289 119.069 66.5323 119.383 66.3715 119.594C66.3054 119.705 66.2293 119.813 66.1436 119.915Z" fill="#E0E0E0"/>
<path d="M107.695 66.1157C102.377 61.249 102.887 54.2243 104.902 48.213C105.237 47.2068 105.411 46.1132 106.242 45.3404C107.073 44.5675 108.646 44.2249 109.634 44.8665C110.452 45.3987 110.599 46.3501 110.903 47.174C111.307 48.2696 112.081 49.25 113.137 50.0029C113.83 50.4914 114.746 50.8814 115.63 50.6846C116.841 50.4075 117.315 49.2264 117.601 48.2166C118.128 46.338 118.658 44.4594 119.192 42.5808C119.412 41.5614 119.83 40.577 120.429 39.6644C121.091 38.7822 122.217 38.0604 123.45 38.0203C124.683 37.9802 125.992 38.8114 125.952 39.8431C125.878 40.269 125.769 40.6904 125.626 41.1044C125.559 41.3112 125.567 41.5295 125.651 41.7323C125.734 41.9351 125.889 42.1135 126.095 42.2454C126.542 42.4605 127.127 42.2709 127.583 42.0449C129.151 41.2757 130.398 40.1347 131.582 38.9864C132.766 37.8381 133.937 36.6606 135.416 35.7748C136.895 34.8889 138.745 34.3166 140.537 34.5791C142.329 34.8415 143.951 36.0956 143.986 37.5938C144.022 39.0921 142.592 40.3461 141.153 41.2794C139.027 42.6649 136.668 43.7932 134.147 44.6295C133.671 44.7379 133.25 44.9678 132.945 45.2857C132.498 45.9054 133.066 46.722 133.812 47.1084C134.661 47.5349 135.68 47.6516 136.618 47.9286C137.556 48.2057 138.495 48.7561 138.642 49.5654C138.848 50.6919 137.48 51.5668 136.238 52.0735C133.751 53.0821 131.07 53.7356 128.311 54.0055C127.324 54.1003 126.301 54.155 125.416 54.5305C124.531 54.906 123.83 55.7298 124.075 56.5245C124.321 57.3192 125.38 57.7676 126.372 57.8041C127.364 57.8405 128.338 57.589 129.326 57.4869C131.171 57.2901 133.347 57.8077 134.071 59.2149C134.286 59.6931 134.362 60.2056 134.292 60.7118C134.222 61.218 134.009 61.7039 133.669 62.1312C132.989 62.9743 132.107 63.6971 131.077 64.2565C127.626 66.3695 123.549 67.6978 119.263 68.1061C115.009 68.4706 111.274 68.055 107.703 66.1339" fill="#F5F5F5"/>
<path d="M108.776 66.6989C109.741 64.3513 108.731 65.5288 110.72 62.689C112.912 59.6236 115.318 56.6635 117.927 53.8233C118.612 53.065 119.29 52.3177 119.96 51.5813C120.63 50.8523 121.301 50.1232 121.998 49.4342C123.354 48.1314 124.796 46.8901 126.319 45.7159C127.762 44.5858 129.183 43.5578 130.523 42.6027C131.864 41.6476 133.133 40.7799 134.33 40.0326C136.216 38.8405 138.213 37.7715 140.304 36.8356C141.042 36.5039 141.645 36.2633 142.025 36.1065L142.472 35.9279L142.628 35.8732C142.582 35.9015 142.532 35.9259 142.48 35.9461L142.034 36.143C141.64 36.3143 141.064 36.5658 140.336 36.9049C138.269 37.8649 136.295 38.9506 134.429 40.1529C133.24 40.9075 131.98 41.7788 130.648 42.7339C129.317 43.689 127.905 44.7243 126.466 45.8544C124.955 47.0282 123.521 48.267 122.172 49.5654C121.475 50.2435 120.831 50.9689 120.148 51.7053L118.115 53.9472C115.515 56.7779 113.11 59.7243 110.912 62.7728C108.919 65.6053 109.92 64.4096 108.937 66.7427" fill="#E0E0E0"/>
<path d="M122.083 49.4415C122.064 49.2912 122.064 49.1397 122.083 48.9894C122.083 48.6978 122.141 48.2603 122.199 47.7609C122.315 46.722 122.538 45.2966 122.789 43.7254C123.039 42.1543 123.235 40.7289 123.329 39.6936C123.378 39.1759 123.414 38.7604 123.436 38.4687C123.435 38.3179 123.454 38.1675 123.495 38.0203C123.524 38.1698 123.534 38.3212 123.526 38.4724C123.526 38.7604 123.526 39.2015 123.495 39.7009C123.441 40.7435 123.271 42.1761 123.016 43.751C122.762 45.3258 122.538 46.7037 122.364 47.7609C122.288 48.2458 122.226 48.6541 122.176 48.9821C122.166 49.1376 122.135 49.2917 122.083 49.4415Z" fill="#E0E0E0"/>
<path d="M138.615 50.0867C138.398 50.0855 138.18 50.066 137.967 50.0284C137.552 49.9773 136.949 49.9044 136.202 49.8315C134.715 49.6784 132.628 49.529 130.358 49.4415C128.088 49.354 125.992 49.354 124.487 49.3868C123.736 49.3868 123.146 49.4232 122.699 49.4378C122.481 49.4528 122.261 49.4528 122.042 49.4378C122.256 49.3946 122.475 49.3678 122.695 49.3576C123.115 49.3212 123.722 49.2774 124.482 49.2483C125.988 49.179 128.057 49.1608 130.371 49.2483C132.332 49.3175 134.287 49.4672 136.229 49.6966C136.971 49.7878 137.57 49.8826 137.985 49.9518C138.2 49.9802 138.411 50.0254 138.615 50.0867Z" fill="#E0E0E0"/>
<path d="M110.983 62.4848C110.951 62.4285 110.929 62.3681 110.921 62.3062C110.885 62.164 110.84 61.9927 110.782 61.7849C110.67 61.3329 110.523 60.6913 110.358 59.8601C110.023 58.2306 109.647 55.9668 109.272 53.4624C108.897 50.958 108.548 48.6942 108.258 47.061C108.115 46.2663 107.994 45.6028 107.905 45.1289C107.869 44.9175 107.838 44.7425 107.811 44.6004C107.804 44.5385 107.804 44.4763 107.811 44.4144C107.843 44.4712 107.866 44.5313 107.878 44.5931L108.012 45.1144C108.128 45.5664 108.271 46.208 108.436 47.0391C108.771 48.6687 109.147 50.9325 109.522 53.4369C109.897 55.9413 110.246 58.2051 110.536 59.8382C110.684 60.6329 110.8 61.2964 110.889 61.774C110.93 61.9818 110.956 62.1567 110.983 62.2989C110.993 62.3606 110.993 62.4231 110.983 62.4848Z" fill="#E0E0E0"/>
<path d="M133.669 61.0157C133.595 61.0349 133.518 61.0448 133.441 61.0449L132.78 61.0959L130.349 61.2563C128.298 61.3912 125.465 61.6208 122.337 61.8469C119.209 62.0729 116.368 62.2807 114.294 62.3827C113.267 62.4338 112.435 62.4666 111.859 62.4812H111.198C111.121 62.4905 111.042 62.4905 110.965 62.4812C111.04 62.4636 111.116 62.4538 111.193 62.452L111.855 62.401L114.285 62.2406C116.336 62.1057 119.169 61.876 122.297 61.65C125.425 61.424 128.262 61.2162 130.34 61.1178C131.372 61.0667 132.203 61.0303 132.78 61.0157H133.441C133.517 61.0081 133.593 61.0081 133.669 61.0157Z" fill="#E0E0E0"/>
<path d="M151.265 98.1152C151.25 98.1744 151.226 98.2319 151.194 98.2865L150.948 98.7714C150.72 99.2088 150.398 99.8249 149.996 100.594L146.551 107.094L146.529 107.13H146.48L135.657 108.589L132.029 109.073L131.864 109.095L131.904 108.964C132.798 106.124 133.597 103.496 134.29 101.29L134.339 101.374L127.981 99.0557L126.225 98.4032L125.778 98.2282C125.724 98.2097 125.673 98.1865 125.626 98.159L125.787 98.2063L126.256 98.3631L128.043 98.9792L134.433 101.239L134.504 101.265V101.323C133.825 103.547 133.025 106.164 132.159 109.008L132.033 108.898L135.662 108.41L146.489 106.974L146.413 107.021L149.929 100.55C150.354 99.7775 150.693 99.1651 150.935 98.7276L151.203 98.2501C151.22 98.2042 151.241 98.1591 151.265 98.1152Z" fill="#E0E0E0"/>
<path d="M133.298 108.049L132.999 108.683L133.472 109.245L132.641 109.212L132.136 109.751L131.917 109.095L131.131 108.869L131.828 108.497L131.85 107.819L132.498 108.246L133.298 108.049Z" fill="#E0E0E0"/>
<path d="M125.867 97.7507L125.72 98.0678L125.952 98.3449L125.541 98.3267L125.291 98.5964L125.179 98.272L124.79 98.159L125.134 97.9731L125.148 97.634L125.47 97.8455L125.867 97.7507Z" fill="#E0E0E0"/>
<path d="M146.855 106.704L146.708 107.021L146.94 107.298L146.529 107.283L146.279 107.553L146.167 107.225L145.778 107.116L146.122 106.93L146.131 106.591L146.457 106.802L146.855 106.704Z" fill="#E0E0E0"/>
<path d="M134.741 101.021L134.594 101.334L134.831 101.615L134.415 101.597L134.165 101.866L134.058 101.538L133.664 101.429L134.013 101.243L134.022 100.904L134.344 101.115L134.741 101.021Z" fill="#E0E0E0"/>
<path d="M151.77 97.7981L151.623 98.1152L151.86 98.3923L151.444 98.3777L151.194 98.6475L151.086 98.3194L150.693 98.2064L151.042 98.0241L151.051 97.6851L151.372 97.8965L151.77 97.7981Z" fill="#E0E0E0"/>
<path d="M16.3351 124.329H39.7313C39.7313 124.329 37.6624 121.256 31.6391 121.705C25.8884 122.131 25.5979 120.192 22.6712 119.955C19.7444 119.718 17.3137 121.544 16.3351 124.329Z" fill="#E0E0E0"/>
<path d="M20.9821 49.1899H44.3738C44.3738 49.1899 42.305 46.1205 36.2817 46.5652C30.5354 46.9954 30.2405 45.056 27.3182 44.8191C24.3959 44.5821 21.9562 46.4085 20.9821 49.1899Z" fill="#F5F5F5"/>
<path d="M139.786 62.4629H159C159 62.4629 157.302 59.9403 152.355 60.3048C147.628 60.6694 147.387 59.0654 144.987 58.8685C142.588 58.6717 140.586 60.1773 139.786 62.4629Z" fill="#F5F5F5"/>
<path d="M101.408 93.409C102.364 87.5362 97.3012 82.6878 90.974 79.7751C84.6469 76.8624 77.3054 75.8781 70.3169 74.2668C63.7262 72.7394 57.1711 70.5084 52.2917 66.5859C47.4123 62.6634 44.4811 56.7688 46.2326 51.3663C46.6795 50.0102 47.4614 48.6468 48.8913 47.863C50.3212 47.0792 52.4972 47.1011 53.5652 48.202C55.8351 50.5497 51.4114 54.7638 54.1818 56.7105C54.8163 57.1625 55.6921 57.3265 56.3489 57.753C58.0961 58.8941 57.533 61.1068 57.7788 62.9223C58.2659 66.513 62.3946 69.0065 66.4474 70.461C71.8764 72.4077 77.7567 73.3227 83.5119 74.471C89.2671 75.6193 95.0804 77.0811 99.8749 79.9391C104.669 82.7971 108.838 87.23 108.812 92.0747C108.812 93.4272 108.593 95.0895 107.552 96.1394C106.51 97.1893 105.188 97.4116 103.686 96.8357C102.185 96.2597 101.139 95.3775 101.417 93.4163" fill="#FF725E"/>
<g opacity="0.8">
<path d="M101.408 93.409C102.364 87.5362 97.3012 82.6878 90.974 79.7751C84.6469 76.8624 77.3054 75.8781 70.3169 74.2668C63.7262 72.7394 57.1711 70.5084 52.2917 66.5859C47.4123 62.6634 44.4811 56.7688 46.2326 51.3663C46.6795 50.0102 47.4614 48.6468 48.8913 47.863C50.3212 47.0792 52.4972 47.1011 53.5652 48.202C55.8351 50.5497 51.4114 54.7638 54.1818 56.7105C54.8163 57.1625 55.6921 57.3265 56.3489 57.753C58.0961 58.8941 57.533 61.1068 57.7788 62.9223C58.2659 66.513 62.3946 69.0065 66.4474 70.461C71.8764 72.4077 77.7567 73.3227 83.5119 74.471C89.2671 75.6193 95.0804 77.0811 99.8749 79.9391C104.669 82.7971 108.838 87.23 108.812 92.0747C108.812 93.4272 108.593 95.0895 107.552 96.1394C106.51 97.1893 105.188 97.4116 103.686 96.8357C102.185 96.2597 101.139 95.3775 101.417 93.4163" fill="white"/>
</g>
<path d="M70.7995 46.7147C70.5716 44.5274 72.56 42.6428 74.821 41.6293C77.082 40.6159 79.6736 40.2003 82.0016 39.2999C87.7881 37.0616 91.4655 31.794 91.7381 26.3951C92.0107 20.9962 89.1375 15.5937 84.6513 11.6275C82.8238 10.0162 80.5807 8.32471 80.5539 6.12652C80.527 3.8299 83.2349 2.02177 85.9784 2.05093C88.722 2.08009 91.2153 3.57107 92.8462 5.44118C94.4772 7.31128 95.3753 9.53135 96.2556 11.7186C95.63 10.8 96.9124 9.66623 98.1546 9.76465C99.3968 9.86308 100.389 10.7052 101.135 11.5436C104.441 15.2054 106.026 19.7133 105.603 24.2479C105.156 28.698 102.685 32.8509 98.6774 35.8914C94.2672 39.1723 88.436 40.707 82.7791 42.1652L70.9782 45.2019" fill="#FF725E"/>
<g opacity="0.8">
<path d="M70.7995 46.7147C70.5716 44.5274 72.56 42.6428 74.821 41.6293C77.082 40.6159 79.6736 40.2003 82.0016 39.2999C87.7881 37.0616 91.4655 31.794 91.7381 26.3951C92.0107 20.9962 89.1375 15.5937 84.6513 11.6275C82.8238 10.0162 80.5807 8.32471 80.5539 6.12652C80.527 3.8299 83.2349 2.02177 85.9784 2.05093C88.722 2.08009 91.2153 3.57107 92.8462 5.44118C94.4772 7.31128 95.3753 9.53135 96.2556 11.7186C95.63 10.8 96.9124 9.66623 98.1546 9.76465C99.3968 9.86308 100.389 10.7052 101.135 11.5436C104.441 15.2054 106.026 19.7133 105.603 24.2479C105.156 28.698 102.685 32.8509 98.6774 35.8914C94.2672 39.1723 88.436 40.707 82.7791 42.1652L70.9782 45.2019" fill="white"/>
</g>
<path d="M67.5153 0.971882C66.9168 1.1733 66.4369 1.55546 66.1755 2.03863C65.9142 2.52179 65.8916 3.06863 66.1126 3.56504C66.3335 4.06145 66.7809 4.46907 67.3614 4.70285C67.9418 4.93662 68.6105 4.97849 69.2279 4.81972C69.8453 4.66095 70.3637 4.3138 70.6749 3.85072C70.9861 3.38763 71.0661 2.84438 70.8982 2.33434C70.7303 1.82429 70.3274 1.38685 69.7737 1.1133C69.22 0.83974 68.5582 0.751205 67.9263 0.866164" fill="#FF725E"/>
<g opacity="0.8">
<path d="M67.5153 0.971882C66.9168 1.1733 66.4369 1.55546 66.1755 2.03863C65.9142 2.52179 65.8916 3.06863 66.1126 3.56504C66.3335 4.06145 66.7809 4.46907 67.3614 4.70285C67.9418 4.93662 68.6105 4.97849 69.2279 4.81972C69.8453 4.66095 70.3637 4.3138 70.6749 3.85072C70.9861 3.38763 71.0661 2.84438 70.8982 2.33434C70.7303 1.82429 70.3274 1.38685 69.7737 1.1133C69.22 0.83974 68.5582 0.751205 67.9263 0.866164" fill="white"/>
</g>
<path d="M82.0686 141.437C80.6209 138.991 81.8854 135.94 84.1911 133.979C86.4967 132.018 89.6424 130.899 92.6809 129.805C99.4102 127.384 106.533 124.504 109.951 119.197C111.104 117.407 111.761 115.438 112.409 113.484C113.664 109.708 114.844 105.417 112.319 102.089C111.591 101.13 110.501 100.266 109.142 100.084C107.592 99.8577 106.014 100.554 105.049 101.571C104.154 102.634 103.617 103.869 103.49 105.155C103.114 107.571 103.427 110.032 103.114 112.445C102.802 114.859 101.725 117.436 99.294 118.814C96.3136 120.509 92.0643 120.13 89.1733 121.92C86.8363 123.378 85.9471 125.871 84.124 127.753C82.5869 129.324 80.4377 130.395 78.4716 131.606C76.5055 132.816 74.602 134.289 73.9318 136.225C73.5801 137.236 73.5936 138.309 73.9706 139.315C74.3476 140.321 75.0721 141.217 76.0572 141.895C77.0424 142.573 78.2465 143.005 79.5251 143.14C80.8037 143.274 82.1026 143.104 83.2661 142.651" fill="#FF725E"/>
<g opacity="0.8">
<path d="M82.0686 141.437C80.6209 138.991 81.8854 135.94 84.1911 133.979C86.4967 132.018 89.6424 130.899 92.6809 129.805C99.4102 127.384 106.533 124.504 109.951 119.197C111.104 117.407 111.761 115.438 112.409 113.484C113.664 109.708 114.844 105.417 112.319 102.089C111.591 101.13 110.501 100.266 109.142 100.084C107.592 99.8577 106.014 100.554 105.049 101.571C104.154 102.634 103.617 103.869 103.49 105.155C103.114 107.571 103.427 110.032 103.114 112.445C102.802 114.859 101.725 117.436 99.294 118.814C96.3136 120.509 92.0643 120.13 89.1733 121.92C86.8363 123.378 85.9471 125.871 84.124 127.753C82.5869 129.324 80.4377 130.395 78.4716 131.606C76.5055 132.816 74.602 134.289 73.9318 136.225C73.5801 137.236 73.5936 138.309 73.9706 139.315C74.3476 140.321 75.0721 141.217 76.0572 141.895C77.0424 142.573 78.2465 143.005 79.5251 143.14C80.8037 143.274 82.1026 143.104 83.2661 142.651" fill="white"/>
</g>
<path d="M37.3318 17.8648C36.1421 17.1441 35.1802 16.2023 34.526 15.1176C33.8719 14.0329 33.5443 12.8365 33.5705 11.6277C33.5967 10.419 33.976 9.23282 34.6768 8.16764C35.3776 7.10246 36.3797 6.18902 37.5999 5.50315C38.9762 4.73397 40.6026 4.26006 41.827 3.3159C42.9128 2.49203 43.6143 1.35101 44.8341 0.65838C45.5954 0.217938 46.5093 -0.0125518 47.4424 0.000527399C48.3756 0.0136066 49.2792 0.26957 50.0215 0.731087C50.7638 1.1926 51.3059 1.83553 51.5688 2.56609C51.8317 3.29666 51.8017 4.07665 51.483 4.79229C50.9245 6.07184 49.517 7.00871 48.9271 8.27732C48.2926 9.648 48.7037 11.1937 48.4803 12.63C48.3341 13.5242 47.943 14.3801 47.3361 15.1342C46.7292 15.8884 45.922 16.5214 44.9744 16.9864C44.0268 17.4514 42.9631 17.7364 41.8621 17.8203C40.761 17.9042 39.651 17.7848 38.6142 17.4711" fill="#FF725E"/>
<g opacity="0.8">
<path d="M37.3318 17.8648C36.1421 17.1441 35.1802 16.2023 34.526 15.1176C33.8719 14.0329 33.5443 12.8365 33.5705 11.6277C33.5967 10.419 33.976 9.23282 34.6768 8.16764C35.3776 7.10246 36.3797 6.18902 37.5999 5.50315C38.9762 4.73397 40.6026 4.26006 41.827 3.3159C42.9128 2.49203 43.6143 1.35101 44.8341 0.65838C45.5954 0.217938 46.5093 -0.0125518 47.4424 0.000527399C48.3756 0.0136066 49.2792 0.26957 50.0215 0.731087C50.7638 1.1926 51.3059 1.83553 51.5688 2.56609C51.8317 3.29666 51.8017 4.07665 51.483 4.79229C50.9245 6.07184 49.517 7.00871 48.9271 8.27732C48.2926 9.648 48.7037 11.1937 48.4803 12.63C48.3341 13.5242 47.943 14.3801 47.3361 15.1342C46.7292 15.8884 45.922 16.5214 44.9744 16.9864C44.0268 17.4514 42.9631 17.7364 41.8621 17.8203C40.761 17.9042 39.651 17.7848 38.6142 17.4711" fill="white"/>
</g>
<path d="M37.5015 10.049H42.9931V19.2829C42.9931 19.5419 42.9305 19.7983 42.8091 20.0376C42.6876 20.2769 42.5095 20.4943 42.285 20.6774C42.0606 20.8605 41.7941 21.0058 41.5008 21.1049C41.2075 21.204 40.8932 21.255 40.5757 21.255H39.9233C39.2822 21.255 38.6673 21.0473 38.214 20.6774C37.7606 20.3075 37.506 19.8059 37.506 19.2829V10.049H37.5015Z" fill="#FF725E"/>
<path d="M37.5015 10.049L40.245 5.94061L42.9931 10.049H37.5015Z" fill="#FFBE9D"/>
<path d="M39.1593 7.56647C39.1593 7.56647 39.9948 8.59084 41.3353 7.56647L40.2495 5.94061L39.1593 7.56647Z" fill="#FF725E"/>
<path d="M43.0691 18.8345C42.1427 18.9258 41.2088 18.9563 40.2764 18.9256C39.3455 18.9563 38.413 18.9258 37.4881 18.8345C38.413 18.7431 39.3455 18.7126 40.2764 18.7433C41.2088 18.7127 42.1427 18.7431 43.0691 18.8345Z" fill="#263238"/>
<path d="M42.9931 18.1455C42.0861 18.2368 41.1715 18.2673 40.2585 18.2366C39.3454 18.2673 38.4308 18.2368 37.5239 18.1455C38.4313 18.0588 39.3455 18.0295 40.2585 18.058C41.1714 18.0295 42.0857 18.0588 42.9931 18.1455Z" fill="#263238"/>
<path d="M39.1146 10.1146C39.1727 10.1146 39.2263 11.9009 39.2263 14.1064C39.2263 16.3118 39.1727 18.1163 39.1146 18.1163C39.0565 18.1163 39.0029 16.3264 39.0029 14.1064C39.0029 11.8863 39.052 10.1146 39.1146 10.1146Z" fill="#FAFAFA"/>
<path d="M41.3353 10.1146C41.3979 10.1146 41.4471 11.9009 41.4471 14.1064C41.4471 16.3118 41.3979 18.1163 41.3353 18.1163C41.2728 18.1163 41.2236 16.3264 41.2236 14.1064C41.2236 11.8863 41.2728 10.1146 41.3353 10.1146Z" fill="#FAFAFA"/>
<path d="M85.2146 136.29L110.161 137.161L110.765 138.346L94.4104 160L64.8926 159.296L85.2146 136.29Z" fill="#263238"/>
<path d="M63.7755 157.186L93.4676 158.571L108.982 138.933L98.0878 139.655L70.5227 147.573L63.7755 157.186Z" fill="#E0E0E0"/>
<path d="M59.6021 155.731L86.8589 156.096C85.7284 153.249 88.396 149.242 92.0645 147.894C94.4953 147 99.0664 145.841 101.426 144.853C105.894 142.976 109.96 139.425 109.607 136.374L98.4006 136.071L84.102 135.619C82.9044 138.514 80.3486 140.406 76.4611 141.547C72.9847 142.568 69.0258 142.564 65.6299 143.734C60.1696 145.601 57.5467 151.648 59.5798 155.742" fill="#EBEBEB"/>
<path d="M59.6021 155.731C59.6021 155.731 59.5753 155.684 59.5351 155.585L59.3474 155.159C59.2484 154.921 59.1707 154.677 59.1151 154.43C59.0239 154.096 58.9612 153.757 58.9274 153.416C58.8405 152.47 58.9127 151.518 59.1419 150.587C59.4592 149.334 60.0527 148.139 60.8935 147.059C61.1303 146.746 61.3915 146.447 61.6754 146.162C61.8229 146.02 61.9659 145.863 62.1223 145.724L62.6272 145.305C62.796 145.161 62.9783 145.029 63.1723 144.908C63.3645 144.78 63.5521 144.645 63.7577 144.525C64.1832 144.281 64.6314 144.064 65.0982 143.876C66.9883 143.1 69.2448 142.783 71.5951 142.418C72.7748 142.243 73.9901 142.054 75.2055 141.787C76.4561 141.508 77.6631 141.111 78.8025 140.606C79.391 140.346 79.9516 140.046 80.4782 139.71C81.0207 139.369 81.5193 138.984 81.9661 138.561C82.8915 137.689 83.5961 136.675 84.0394 135.579L84.0662 135.517H84.1422L96.0503 135.882C100.183 136.013 104.46 136.104 108.839 136.224L109.634 136.246H109.732V136.327C109.792 137.025 109.67 137.725 109.375 138.383C109.234 138.707 109.067 139.024 108.874 139.33C108.677 139.632 108.459 139.924 108.222 140.205C107.28 141.309 106.141 142.292 104.844 143.122C103.59 143.936 102.22 144.625 100.764 145.174C99.3256 145.703 97.8689 146.133 96.4435 146.563C95.0181 146.993 93.6061 147.401 92.2701 147.875C91.6123 148.113 90.995 148.419 90.4336 148.787C90.1432 148.954 89.9019 149.169 89.6382 149.355C89.3746 149.541 89.1467 149.767 88.9367 149.997C88.0664 150.854 87.4174 151.846 87.0287 152.913C86.6345 153.923 86.6112 155.006 86.9617 156.026L87.0019 156.125H86.8768L67.0419 155.841L61.5414 155.749L60.1026 155.717H59.6066C59.6066 155.717 59.7764 155.717 60.1026 155.717H61.5458L67.0464 155.768L86.8768 155.994L86.7919 156.088C86.4249 155.04 86.4451 153.927 86.85 152.888C87.2388 151.796 87.8973 150.782 88.7848 149.906C88.9948 149.672 89.2584 149.472 89.4952 149.253C89.7321 149.035 90.0136 148.841 90.3085 148.666C90.8805 148.29 91.5117 147.977 92.1852 147.737C93.5257 147.256 94.9466 146.844 96.372 146.413C97.7974 145.983 99.2496 145.549 100.675 145.025C102.111 144.481 103.462 143.798 104.696 142.99C105.977 142.174 107.1 141.205 108.03 140.118C108.263 139.845 108.48 139.563 108.678 139.272C108.865 138.974 109.027 138.666 109.165 138.35C109.45 137.717 109.568 137.043 109.513 136.37L109.621 136.451L108.821 136.432C104.442 136.312 100.166 136.217 96.0369 136.068L84.1243 135.703L84.2271 135.645C83.7711 136.76 83.0515 137.792 82.1091 138.682C81.653 139.112 81.1439 139.503 80.5899 139.848C80.0546 140.191 79.4834 140.495 78.883 140.756C77.7316 141.266 76.5109 141.665 75.2457 141.944C74.0169 142.218 72.7971 142.4 71.6175 142.571C69.2671 142.914 67.0195 143.235 65.1563 143.993C64.7002 144.176 64.2624 144.388 63.847 144.627C63.6415 144.744 63.4583 144.879 63.2661 144.992C63.0736 145.111 62.8928 145.243 62.7255 145.385L62.2072 145.805C62.0463 145.943 61.9078 146.096 61.7603 146.238C61.4756 146.518 61.2143 146.813 60.9784 147.121C60.1374 148.188 59.5423 149.371 59.2223 150.613C58.9823 151.535 58.8996 152.48 58.9766 153.42C59.0032 153.759 59.0599 154.097 59.1463 154.43C59.1962 154.677 59.2679 154.92 59.3608 155.159C59.4368 155.348 59.4904 155.491 59.5306 155.593C59.5708 155.695 59.6021 155.731 59.6021 155.731Z" fill="#263238"/>
<path d="M91.7831 135.98C91.7831 135.98 91.8188 135.838 91.8456 135.583C91.8785 135.224 91.8049 134.864 91.6311 134.533C91.3878 134.04 90.9295 133.637 90.3443 133.403C89.9856 133.267 89.597 133.191 89.2015 133.179C88.8061 133.168 88.412 133.222 88.0426 133.338C87.6732 133.453 87.3361 133.628 87.0514 133.853C86.7667 134.077 86.5401 134.345 86.3853 134.642C86.1115 135.126 86.0198 135.665 86.1217 136.192C86.1865 136.546 86.3385 136.886 86.5685 137.191C86.7383 137.409 86.8634 137.511 86.85 137.522C86.7116 137.445 86.5932 137.345 86.5015 137.231C86.2248 136.931 86.0367 136.583 85.9519 136.214C85.8191 135.661 85.8987 135.088 86.1798 134.573C86.3431 134.254 86.5843 133.965 86.8887 133.724C87.1931 133.483 87.5544 133.295 87.9507 133.172C88.3469 133.048 88.7697 132.992 89.1935 133.006C89.6173 133.02 90.0331 133.104 90.4157 133.253C91.0378 133.511 91.5169 133.951 91.7562 134.486C91.9233 134.833 91.9757 135.21 91.9082 135.579C91.8902 135.68 91.8603 135.779 91.8188 135.875C91.8099 135.951 91.792 135.98 91.7831 135.98Z" fill="#263238"/>
<path d="M96.0593 135.98C96.0369 135.98 96.095 135.838 96.1218 135.583C96.1524 135.224 96.079 134.864 95.9074 134.533C95.6619 134.04 95.2021 133.637 94.616 133.403C94.2572 133.267 93.8687 133.192 93.4734 133.181C93.0782 133.17 92.6843 133.224 92.3151 133.339C91.9458 133.455 91.6088 133.63 91.324 133.854C91.0392 134.077 90.8124 134.346 90.6571 134.642C90.3846 135.126 90.2944 135.666 90.3979 136.192C90.4608 136.546 90.6129 136.886 90.8447 137.191C91.0145 137.409 91.1396 137.511 91.1262 137.522C90.9845 137.447 90.8642 137.347 90.7732 137.231C90.4983 136.93 90.3104 136.582 90.2236 136.214C90.0949 135.66 90.1759 135.088 90.456 134.573C90.6193 134.254 90.8604 133.966 91.1645 133.725C91.4686 133.485 91.8294 133.297 92.2251 133.173C92.6208 133.05 93.0431 132.994 93.4664 133.007C93.8896 133.021 94.3051 133.105 94.6875 133.253C95.3095 133.511 95.7886 133.951 96.028 134.486C96.1936 134.833 96.2474 135.21 96.1844 135.579C96.1675 135.68 96.136 135.779 96.0905 135.875C96.0894 135.911 96.0788 135.947 96.0593 135.98Z" fill="#263238"/>
<path d="M99.2943 136.163C99.2943 136.163 99.3211 136.017 99.3301 135.762C99.337 135.402 99.239 135.046 99.0441 134.723C98.7646 134.243 98.2777 133.863 97.6768 133.658C97.3101 133.54 96.9182 133.482 96.524 133.488C96.1297 133.495 95.7409 133.565 95.3801 133.695C94.654 133.966 94.0899 134.462 93.8117 135.073C93.5725 135.569 93.5181 136.111 93.6553 136.633C93.7495 136.985 93.9321 137.318 94.1915 137.61C94.3747 137.818 94.5088 137.916 94.4954 137.927C94.3495 137.858 94.2232 137.765 94.1245 137.654C93.8274 137.366 93.615 137.027 93.5034 136.662C93.3357 136.116 93.3763 135.541 93.6196 135.014C93.7605 134.688 93.9813 134.388 94.2685 134.134C94.5558 133.879 94.9035 133.675 95.2905 133.533C95.6775 133.392 96.0958 133.316 96.5198 133.311C96.9439 133.305 97.3649 133.37 97.7572 133.501C98.3963 133.729 98.9058 134.146 99.1826 134.668C99.3768 135.009 99.457 135.387 99.415 135.762C99.4056 135.863 99.3816 135.963 99.3435 136.06C99.3301 136.13 99.2943 136.163 99.2943 136.163Z" fill="#263238"/>
<path d="M102.784 136.323C102.784 136.323 102.784 136.177 102.784 135.922C102.769 135.562 102.648 135.211 102.431 134.898C102.122 134.429 101.611 134.071 100.997 133.891C100.622 133.788 100.226 133.747 99.8323 133.771C99.4382 133.796 99.054 133.884 98.7026 134.032C98.3513 134.179 98.0398 134.383 97.7869 134.631C97.5339 134.878 97.3445 135.165 97.23 135.474C97.0221 135.979 97.0034 136.523 97.1764 137.037C97.294 137.386 97.4978 137.711 97.7751 137.993C97.9717 138.189 98.1102 138.281 98.0968 138.295C97.9472 138.231 97.8149 138.143 97.7081 138.036C97.3939 137.762 97.1602 137.433 97.0244 137.074C96.8184 136.536 96.8184 135.96 97.0244 135.423C97.1451 135.091 97.3461 134.783 97.6155 134.516C97.8849 134.249 98.2172 134.03 98.5928 133.87C98.9711 133.712 99.385 133.618 99.809 133.595C100.233 133.572 100.659 133.619 101.059 133.735C101.71 133.933 102.246 134.323 102.561 134.828C102.777 135.165 102.88 135.542 102.86 135.922C102.856 136.023 102.839 136.123 102.811 136.221C102.806 136.29 102.793 136.323 102.784 136.323Z" fill="#263238"/>
<path d="M106.269 136.257C106.269 136.257 106.269 136.111 106.269 135.856C106.242 135.497 106.109 135.148 105.881 134.839C105.555 134.379 105.034 134.032 104.415 133.866C104.037 133.77 103.639 133.738 103.245 133.771C102.852 133.804 102.47 133.901 102.124 134.057C101.777 134.213 101.472 134.424 101.228 134.678C100.984 134.932 100.805 135.224 100.702 135.536C100.541 135.963 100.515 136.416 100.625 136.853C100.735 137.291 100.978 137.699 101.332 138.04C101.537 138.233 101.68 138.321 101.667 138.332C101.514 138.275 101.378 138.192 101.269 138.087C100.947 137.819 100.703 137.495 100.554 137.139C100.332 136.606 100.315 136.03 100.505 135.488C100.615 135.154 100.806 134.841 101.066 134.569C101.326 134.296 101.65 134.068 102.02 133.899C102.392 133.733 102.802 133.63 103.225 133.598C103.647 133.565 104.074 133.603 104.478 133.709C105.137 133.894 105.687 134.274 106.019 134.774C106.247 135.108 106.363 135.485 106.354 135.867C106.354 135.969 106.341 136.07 106.314 136.17C106.292 136.221 106.278 136.257 106.269 136.257Z" fill="#263238"/>
<path d="M109.21 136.574C109.21 136.574 109.21 136.429 109.21 136.173C109.2 135.813 109.083 135.461 108.87 135.145C108.567 134.676 108.063 134.314 107.453 134.128C107.081 134.021 106.685 133.976 106.291 133.996C105.896 134.016 105.51 134.101 105.157 134.245C104.803 134.389 104.489 134.59 104.232 134.836C103.976 135.081 103.783 135.366 103.664 135.674C103.484 136.096 103.436 136.547 103.524 136.988C103.613 137.428 103.834 137.844 104.169 138.197C104.366 138.397 104.5 138.488 104.491 138.503C104.342 138.438 104.211 138.349 104.107 138.24C103.794 137.964 103.565 137.632 103.436 137.271C103.239 136.731 103.25 136.154 103.468 135.619C103.593 135.289 103.798 134.983 104.072 134.718C104.345 134.454 104.681 134.237 105.058 134.081C105.439 133.927 105.854 133.838 106.278 133.819C106.702 133.8 107.126 133.852 107.525 133.972C108.175 134.176 108.706 134.575 109.008 135.087C109.221 135.425 109.32 135.802 109.294 136.181C109.289 136.282 109.271 136.382 109.241 136.48C109.232 136.542 109.218 136.578 109.21 136.574Z" fill="#263238"/>
<path d="M122.083 61.8979C120.849 61.8677 119.613 61.914 118.388 62.0365C114.668 62.4269 111.253 63.9133 108.784 66.2157C106.315 68.5181 104.963 71.4775 104.983 74.5366C104.969 76.5493 105.289 78.5542 105.934 80.4969C108.084 86.716 108.745 92.1951 108.499 94.8672L115.693 98.0205C115.693 98.0205 119.022 94.1162 122.239 92.432C125.456 90.7478 136.163 86.2348 140.403 81.6233C143.133 78.6414 143.66 72.5098 137.146 67.1656C133.138 63.8987 127.746 62.0129 122.083 61.8979Z" fill="#FF725E"/>
<path d="M105.058 101.655L111.555 104.52L107.328 108.902L102.994 107.298L105.058 101.655Z" fill="#455A64"/>
<path d="M105.376 101.834C105.318 101.815 105.961 100.241 106.815 98.3194C107.668 96.3983 108.405 94.849 108.463 94.8672C108.521 94.8854 107.878 96.4566 107.025 98.3814C106.171 100.306 105.434 101.848 105.376 101.834Z" fill="#263238"/>
<path d="M111.149 104.312C111.095 104.287 112.114 102.8 113.419 100.992C114.723 99.1834 115.827 97.7507 115.885 97.7507C115.943 97.7507 114.92 99.2636 113.611 101.072C112.302 102.88 111.198 104.331 111.149 104.312Z" fill="#263238"/>
<g opacity="0.4">
<path d="M124.228 62.0656C123.937 62.0656 120.362 65.4923 118.781 67.8035C113.459 75.5792 113.218 83.1435 111.743 91.9654C111.533 93.2267 110.765 95.9426 110.778 95.8806C111.564 96.3837 114.21 97.3862 114.21 97.3862C114.21 97.3862 116.707 94.9291 117.699 93.6933C121.667 88.7465 125.979 84.886 129.38 79.6621C132.78 74.4382 136.051 69.8195 132.905 64.4753C132.905 64.4753 127.445 61.9162 124.228 62.0656Z" fill="black"/>
</g>
<path d="M140.403 82.4035C140.365 82.3501 140.334 82.294 140.309 82.2358C140.251 82.1264 140.18 81.9551 140.059 81.7436C139.722 81.1318 139.301 80.5533 138.803 80.0194C138.039 79.1951 137.107 78.4847 136.046 77.9196C134.687 77.1848 133.138 76.7169 131.52 76.5526H131.466L131.439 76.5234C130.571 75.5502 129.601 74.6403 128.54 73.8039C127.378 72.8893 126.039 72.1379 124.576 71.5802C123.107 71.0377 121.5 70.7878 119.889 70.8511C118.421 70.8979 117 71.2849 115.791 71.9666L115.724 72.0031L115.666 71.9593C114.438 71.0801 112.911 70.527 111.287 70.3736C110.027 70.2565 108.75 70.389 107.565 70.76C106.798 70.9994 106.078 71.3298 105.429 71.7406C105.206 71.8864 105.036 72.0031 104.929 72.0833C104.876 72.1268 104.817 72.1659 104.755 72.1999C104.802 72.1526 104.853 72.1076 104.907 72.065C105.009 71.9775 105.17 71.8536 105.389 71.7005C106.029 71.2663 106.75 70.918 107.525 70.6688C108.725 70.2762 110.024 70.1286 111.31 70.2387C112.972 70.3848 114.539 70.9434 115.8 71.839H115.675C116.913 71.1346 118.372 70.7336 119.88 70.6834C121.523 70.6148 123.163 70.8646 124.665 71.4125C126.151 71.9794 127.51 72.7445 128.687 73.6763C129.757 74.5209 130.732 75.4421 131.6 76.4286L131.533 76.3958C133.179 76.5663 134.753 77.0508 136.127 77.8102C137.195 78.3915 138.131 79.1206 138.893 79.9647C139.385 80.5101 139.793 81.1026 140.108 81.7291C140.22 81.9441 140.282 82.1191 140.331 82.2321C140.36 82.2879 140.384 82.3452 140.403 82.4035Z" fill="#263238"/>
<path d="M127.025 90.15C126.914 89.6986 126.704 89.2675 126.404 88.8777C126.052 88.4318 125.58 88.0576 125.023 87.7841C124.311 87.4246 123.475 87.2634 122.641 87.3248H122.552V87.2519C122.377 86.3792 121.932 85.5574 121.259 84.8645C120.586 84.1716 119.706 83.6306 118.705 83.293C117.817 83.0097 116.863 82.8914 115.912 82.9466C115.038 82.9984 114.188 83.1983 113.414 83.5336L113.347 83.5627L113.294 83.5153C112.625 82.9434 111.75 82.5604 110.796 82.4217C110.055 82.3043 109.292 82.3243 108.562 82.48C107.914 82.6273 107.307 82.8748 106.774 83.2091C106.774 83.2091 106.801 83.1763 106.868 83.1289C106.935 83.0815 107.033 83.005 107.172 82.9211C107.58 82.6855 108.033 82.5069 108.512 82.3925C109.26 82.2167 110.048 82.1842 110.814 82.2977C111.812 82.4321 112.729 82.8274 113.428 83.4242L113.307 83.406C114.101 83.0617 114.975 82.8556 115.872 82.8008C116.855 82.7445 117.842 82.8691 118.758 83.1654C119.861 83.5287 120.816 84.1376 121.515 84.9225C122.144 85.6118 122.555 86.4168 122.713 87.2665L122.61 87.2008C123.482 87.1452 124.353 87.3231 125.09 87.7076C125.657 87.9947 126.134 88.3853 126.484 88.8486C126.708 89.145 126.868 89.4705 126.958 89.811C126.98 89.9001 126.997 89.9901 127.007 90.0807C127.015 90.1034 127.021 90.1265 127.025 90.15Z" fill="#263238"/>
<path d="M110.3 105.902C110.3 105.902 110.228 105.829 110.063 105.771C109.814 105.709 109.547 105.717 109.303 105.793C109.116 105.84 108.923 105.869 108.727 105.876C108.606 105.876 108.487 105.855 108.376 105.815C108.266 105.776 108.166 105.718 108.084 105.647C107.739 105.351 107.61 104.918 107.284 104.637C107.209 104.568 107.117 104.513 107.013 104.477C106.91 104.441 106.797 104.425 106.685 104.429C106.455 104.45 106.227 104.487 106.006 104.542C105.785 104.593 105.553 104.603 105.327 104.571C105.089 104.523 104.873 104.422 104.703 104.278C104.533 104.134 104.416 103.954 104.366 103.758C104.336 103.678 104.336 103.591 104.366 103.51C104.366 103.51 104.366 103.598 104.442 103.744C104.526 103.945 104.681 104.122 104.889 104.251C105.025 104.339 105.186 104.398 105.358 104.422C105.557 104.444 105.761 104.429 105.952 104.378C106.186 104.317 106.427 104.275 106.672 104.254C106.815 104.247 106.959 104.267 107.092 104.312C107.225 104.357 107.344 104.425 107.44 104.513C107.82 104.878 107.936 105.279 108.227 105.53C108.355 105.647 108.535 105.718 108.727 105.727C108.907 105.725 109.086 105.704 109.259 105.665C109.534 105.595 109.832 105.611 110.094 105.709C110.282 105.796 110.309 105.902 110.3 105.902Z" fill="#263238"/>
<path d="M111.046 105.042C109.958 104.672 108.899 104.246 107.878 103.766C106.82 103.338 105.795 102.859 104.808 102.329C105.897 102.701 106.956 103.127 107.981 103.605C109.037 104.033 110.061 104.513 111.046 105.042Z" fill="#263238"/>
<path d="M109.755 106.387C109.755 106.387 109.665 106.423 109.509 106.482C109.428 106.511 109.339 106.554 109.214 106.598C109.071 106.639 108.919 106.655 108.767 106.646C108.375 106.628 107.999 106.509 107.695 106.307C107.517 106.183 107.377 106.027 107.288 105.851C107.215 105.679 107.108 105.517 106.971 105.373C106.81 105.263 106.622 105.181 106.419 105.133C106.217 105.085 106.004 105.073 105.796 105.096C105.416 105.133 105.03 105.103 104.665 105.009C104.415 104.931 104.211 104.778 104.093 104.582C104.022 104.44 104.049 104.349 104.058 104.353C104.067 104.356 104.084 104.433 104.174 104.549C104.303 104.711 104.497 104.831 104.723 104.888C105.071 104.96 105.433 104.973 105.787 104.929C106.025 104.9 106.269 104.914 106.5 104.969C106.732 105.025 106.945 105.12 107.127 105.249C107.278 105.409 107.396 105.587 107.476 105.778C107.551 105.932 107.669 106.071 107.82 106.183C108.09 106.368 108.421 106.484 108.772 106.518C109.011 106.536 109.252 106.5 109.469 106.416C109.652 106.376 109.755 106.376 109.755 106.387Z" fill="#263238"/>
<path d="M60.6969 72.342L71.9347 70.9823L66.5728 64.7851L63.6951 64.9236C62.7442 64.9683 61.8273 65.2279 61.0468 65.6734C60.2664 66.1189 59.6532 66.7327 59.276 67.4462C58.8679 68.2201 58.7543 69.0761 58.9498 69.9033L60.6969 72.342Z" fill="#FF725E"/>
<path opacity="0.4" d="M60.6969 72.342L71.9347 70.9823L66.5728 64.7851L63.6951 64.9236C62.7442 64.9683 61.8273 65.2279 61.0468 65.6734C60.2664 66.1189 59.6532 66.7327 59.276 67.4462C58.8679 68.2201 58.7543 69.0761 58.9498 69.9033L60.6969 72.342Z" fill="black"/>
<path d="M108.964 82.4982C109.08 82.7607 109.205 83.0705 109.335 83.4424C109.442 83.7627 109.482 84.0954 109.455 84.4266C109.438 84.8376 109.352 85.2447 109.201 85.6369C109.017 86.0015 109.446 86.3368 109.808 86.1619C110.17 85.9869 110.702 85.0391 110.702 83.8215C110.702 82.6039 112.194 84.0621 112.762 84.587C113.329 85.112 115.179 86.6686 115.514 86.654C116.006 86.6321 116.068 86.1983 115.488 85.6843C114.907 85.1703 113.294 83.5335 113.647 83.3002C114 83.0669 116.841 85.7754 116.841 85.7754C116.841 85.7754 117.333 86.4353 117.735 86.1801C118.495 85.7171 115.211 83.0232 114.889 82.7753C114.67 82.6003 115.041 82.3378 115.269 82.5347C115.497 82.7315 118.03 85.287 118.808 84.8203C119.402 84.4558 116.127 82.5857 115.966 81.8202C115.805 81.0546 118.271 83.4497 118.821 83.0924C119.031 82.9575 119.161 82.8336 117.48 81.6342C116.676 81.0437 113.611 79.2939 113.611 79.2939L104.388 57.7531L97.2657 61.0813L108.964 82.4982Z" fill="#FFBE9D"/>
<path d="M54.0614 41.7569L43.7575 31.7247C43.6275 31.3785 43.4585 31.0429 43.2525 30.7222C43.0135 30.322 42.6734 29.9676 42.2544 29.6823C41.8354 29.3971 41.3472 29.1874 40.8218 29.0672C40.1694 28.9505 39.4187 29.0089 38.9049 28.6589C38.677 28.5021 38.5251 28.2944 38.2838 28.134C38.0425 27.9736 37.6448 27.959 37.4884 28.1668C37.4483 28.2478 37.4314 28.3353 37.4392 28.4225C37.4469 28.5097 37.479 28.5943 37.5331 28.6698C37.9201 29.4121 38.5358 30.0601 39.3204 30.5509C38.3553 30.7915 36.9745 31.156 36.9745 31.156C36.9745 31.156 34.7985 29.2276 33.6814 29.2312C32.5643 29.2349 34.5751 30.9555 34.5751 30.9555C34.5751 30.9555 32.7877 29.6067 32.2336 29.9858C31.6796 30.365 33.1005 31.3675 33.1005 31.3675C32.6737 31.1307 32.1637 31.0142 31.6483 31.0357C31.1434 31.105 30.7099 31.5898 30.9825 31.9434C31.0988 32.0708 31.2524 32.1724 31.4293 32.2387L34.1729 33.4854C34.6119 33.7242 35.1143 33.8742 35.6385 33.9229C37.0326 33.9594 38.0916 33.2558 39.4813 33.2849C39.4813 33.2849 47.2517 46.6309 48.0381 47.3198C48.8246 48.0088 65.9114 48.9457 65.9114 48.9457L75.7909 42.0012L54.0614 41.7569Z" fill="#FFBE9D"/>
<path d="M85.0181 114.458L95.541 118.194L89.9109 128.901C88.6866 128.401 89.0887 121.975 89.0887 121.975L82.2254 119.806L85.0181 114.458Z" fill="#FF725E"/>
<g opacity="0.6">
<path d="M90.2549 118.471C90.3474 118.381 90.4774 118.322 90.62 118.305C90.7627 118.288 90.9079 118.315 91.0279 118.38C91.1404 118.453 91.2146 118.558 91.2354 118.674C91.2562 118.79 91.2219 118.908 91.1396 119.004C91.042 119.098 90.9047 119.16 90.7545 119.177C90.6043 119.194 90.4517 119.164 90.3264 119.095C90.217 119.01 90.1525 118.893 90.1467 118.77C90.1409 118.647 90.1941 118.527 90.2951 118.435" fill="white"/>
</g>
<path opacity="0.6" d="M95.5409 118.194L94.4596 117.852L89.464 128.245C89.464 128.245 89.464 128.813 89.9108 128.901L95.5409 118.194Z" fill="white"/>
<path d="M88.9234 122.131C88.9904 122.15 89.1557 121.898 89.4998 121.716C89.8438 121.533 90.179 121.486 90.179 121.431C90.179 121.377 89.7679 121.322 89.3613 121.552C88.9546 121.781 88.8608 122.12 88.9234 122.131Z" fill="#263238"/>
<path d="M88.901 123.451C88.9591 123.487 89.187 123.298 89.5534 123.214C89.9198 123.13 90.2281 123.181 90.2549 123.13C90.2817 123.079 89.9332 122.915 89.4819 123.024C89.0306 123.134 88.8429 123.429 88.901 123.451Z" fill="#263238"/>
<path d="M90.2147 124.669C90.2549 124.625 89.9689 124.439 89.5489 124.45C89.1289 124.461 88.8608 124.658 88.901 124.698C88.9412 124.738 89.2093 124.654 89.5579 124.65C89.9064 124.647 90.179 124.727 90.2147 124.669Z" fill="#263238"/>
<path d="M87.4265 121.493C87.4979 121.493 87.5337 121.22 87.7169 120.936C87.9001 120.651 88.1325 120.458 88.0922 120.411C88.052 120.363 87.7035 120.505 87.4979 120.844C87.2924 121.183 87.3639 121.501 87.4265 121.493Z" fill="#263238"/>
<path d="M86.0056 120.691C86.0324 120.691 86.1798 120.509 86.2826 120.155C86.344 119.948 86.3725 119.735 86.3675 119.521C86.3654 119.399 86.3535 119.277 86.3318 119.157C86.322 119.082 86.2979 119.01 86.2603 118.942C86.2333 118.891 86.1864 118.85 86.1273 118.824C86.0682 118.799 86.0001 118.79 85.9341 118.799C85.8754 118.809 85.8204 118.83 85.7737 118.86C85.727 118.89 85.6901 118.93 85.666 118.974C85.6299 119.043 85.6058 119.115 85.5945 119.189C85.5229 119.53 85.5582 119.88 85.6973 120.206C85.8447 120.553 86.0413 120.721 86.0637 120.706C86.086 120.691 85.9609 120.498 85.8581 120.166C85.8028 119.972 85.7773 119.772 85.7822 119.572C85.7855 119.45 85.8005 119.328 85.8268 119.208C85.8492 119.084 85.8983 118.985 85.9788 118.978C86.0592 118.971 86.0145 118.978 86.0458 119.014C86.0696 119.066 86.0861 119.12 86.0949 119.175C86.1204 119.295 86.1368 119.417 86.1441 119.539C86.1575 119.74 86.147 119.942 86.1128 120.141C86.0619 120.322 86.026 120.506 86.0056 120.691Z" fill="#263238"/>
<path d="M86.1306 120.659C86.1306 120.659 85.9787 120.458 85.5721 120.294C85.3336 120.199 85.0765 120.138 84.8125 120.115C84.664 120.102 84.5141 120.102 84.3656 120.115C84.2635 120.114 84.1628 120.135 84.073 120.174C83.9831 120.214 83.907 120.271 83.8518 120.341C83.8288 120.39 83.8229 120.442 83.8348 120.493C83.8466 120.544 83.8757 120.591 83.9188 120.629C83.9823 120.683 84.0545 120.73 84.1333 120.768C84.2716 120.838 84.4223 120.891 84.5801 120.925C84.8413 120.977 85.1143 120.977 85.3755 120.925C85.8223 120.834 86.0189 120.644 86.0011 120.633C85.7858 120.694 85.5665 120.745 85.3442 120.786C85.1078 120.814 84.8668 120.799 84.6382 120.742C84.5055 120.708 84.3792 120.659 84.2629 120.597C84.1333 120.531 84.0439 120.451 84.0797 120.414C84.1182 120.378 84.1663 120.349 84.2204 120.329C84.2745 120.309 84.3333 120.3 84.3925 120.301C84.541 120.29 84.6907 120.29 84.8393 120.301C85.0821 120.315 85.3213 120.357 85.5497 120.425C85.8893 120.542 86.1083 120.68 86.1306 120.659Z" fill="#263238"/>
<path d="M76.9125 129.163L81.2646 136.604L82.6275 143.319C82.6506 143.433 82.7022 143.542 82.7793 143.639C82.8564 143.736 82.9572 143.819 83.0755 143.883C83.1937 143.947 83.3268 143.991 83.4666 144.011C83.6063 144.031 83.7496 144.027 83.8875 144C84.0483 143.97 84.1976 143.908 84.3229 143.821C84.4482 143.733 84.5456 143.622 84.6069 143.497C85.4068 141.882 88.3157 135.922 87.9582 135.393C87.5471 134.781 84.0037 127.297 84.0037 127.297L76.9125 129.163Z" fill="#FF725E"/>
<path opacity="0.6" d="M83.8876 143.982L87.6767 134.868L87.8555 135.186C88.0071 135.461 88.034 135.771 87.9314 136.06C87.6544 136.837 86.8367 138.977 84.6338 143.468C84.5714 143.597 84.4706 143.712 84.3403 143.802C84.21 143.892 84.0545 143.954 83.8876 143.982Z" fill="white"/>
<g opacity="0.6">
<path d="M84.4506 133.137C84.3744 133.246 84.3504 133.374 84.3835 133.497C84.4165 133.619 84.5041 133.727 84.6293 133.8C84.7608 133.867 84.9185 133.889 85.0698 133.863C85.2211 133.838 85.3546 133.766 85.4425 133.662C85.521 133.545 85.5444 133.409 85.5081 133.28C85.4719 133.15 85.3786 133.036 85.2459 132.958C85.1004 132.901 84.933 132.892 84.7795 132.933C84.6259 132.975 84.4983 133.063 84.4237 133.181" fill="white"/>
</g>
<path d="M84.1825 139.925C83.8443 139.747 83.4537 139.647 83.0519 139.636C82.65 139.624 82.2517 139.701 81.8991 139.859C81.8991 139.859 81.9662 139.742 82.1672 139.64C82.4363 139.508 82.7471 139.443 83.0609 139.454C83.3728 139.462 83.6753 139.543 83.9322 139.688C84.1288 139.804 84.2003 139.91 84.1825 139.925Z" fill="#263238"/>
<path d="M84.102 141.171C83.7723 141.147 83.4409 141.139 83.1101 141.149C82.7875 141.212 82.4697 141.29 82.1583 141.383C82.1091 141.354 82.4666 141.018 83.0788 140.967C83.2569 140.932 83.4428 140.932 83.6209 140.967C83.799 141.003 83.964 141.073 84.102 141.171Z" fill="#263238"/>
<path d="M84.6918 138.186C84.1869 138.114 83.6761 138.074 83.1637 138.065C82.6531 138.112 82.148 138.193 81.6534 138.306C82.0927 138.051 82.6125 137.904 83.151 137.883C83.6895 137.862 84.2243 137.967 84.6918 138.186Z" fill="#263238"/>
<path d="M83.6015 135.834C83.6015 135.889 82.9983 135.9 82.3236 136.126C81.6489 136.352 81.1976 136.669 81.1529 136.629C81.4085 136.307 81.7943 136.069 82.2432 135.955C82.6643 135.785 83.1456 135.742 83.6015 135.834Z" fill="#263238"/>
<path d="M82.3907 133.622C81.9306 133.664 81.4797 133.758 81.0502 133.899C80.6518 134.089 80.2878 134.323 79.9689 134.595C79.9465 134.595 79.9912 134.453 80.1521 134.278C80.3623 134.046 80.6383 133.86 80.9564 133.735C81.2711 133.606 81.6189 133.541 81.9707 133.545C82.2388 133.552 82.3952 133.603 82.3907 133.622Z" fill="#263238"/>
<path d="M80.8357 133.476C80.7583 133.392 80.7007 133.297 80.6659 133.195C80.5557 132.923 80.5117 132.636 80.5363 132.349C80.5311 132.139 80.6112 131.932 80.7642 131.763C80.8194 131.713 80.8912 131.678 80.9707 131.662C81.0502 131.646 81.1338 131.649 81.211 131.671C81.3615 131.731 81.4805 131.834 81.5461 131.959C81.6647 132.22 81.6679 132.506 81.5553 132.768C81.4427 133.031 81.2214 133.252 80.9295 133.396C80.638 133.533 80.3033 133.596 79.9678 133.578C79.6322 133.56 79.3107 133.461 79.0439 133.294C78.976 133.25 78.9207 133.195 78.8821 133.132C78.8435 133.069 78.8224 133 78.8205 132.929C78.825 132.859 78.8564 132.793 78.9101 132.738C78.9639 132.684 79.0373 132.645 79.1198 132.626C79.3697 132.585 79.6284 132.598 79.8705 132.663C80.2125 132.736 80.5351 132.859 80.8223 133.027C81.0234 133.14 81.1127 133.224 81.1038 133.235C80.711 133.037 80.283 132.889 79.8348 132.798C79.6213 132.746 79.3952 132.74 79.1779 132.78C79.1325 132.789 79.0919 132.81 79.0621 132.839C79.0324 132.869 79.015 132.905 79.0126 132.944C79.0205 132.988 79.0392 133.031 79.0676 133.07C79.096 133.109 79.1335 133.143 79.1779 133.17C79.4129 133.309 79.6919 133.39 79.9819 133.404C80.2718 133.417 80.5604 133.363 80.8133 133.246C81.0666 133.126 81.2611 132.938 81.3637 132.714C81.4663 132.49 81.4708 132.244 81.3763 132.018C81.3362 131.928 81.2565 131.854 81.1529 131.81C81.1103 131.794 81.0626 131.79 81.0168 131.798C80.9709 131.805 80.9294 131.825 80.8982 131.854C80.7672 131.997 80.6952 132.171 80.6927 132.349C80.6588 132.729 80.7072 133.11 80.8357 133.476Z" fill="#263238"/>
<path d="M91.5775 115.365L79.6426 108.804L83.5926 77.165L72.2878 71.7807L61.9525 69.8267C61.9525 69.8267 57.6361 77.154 55.6968 81.8566C51.6128 91.8341 48.7486 95.4103 49.4054 102.636C49.611 104.925 59.9686 110.655 66.5102 113.831C66.5836 114.466 66.7 115.098 66.8587 115.723C69.0929 123.969 75.9205 134.934 75.9205 134.934L86.287 131.001L82.9447 121.65L86.43 123.309L91.5775 115.365ZM65.9249 94.951L67.319 89.8802C67.0241 93.1064 66.756 96.4711 66.5638 99.6973C65.8899 98.1832 65.6708 96.5594 65.9249 94.9619V94.951Z" fill="#263238"/>
<path d="M75.9384 134.934C75.9065 134.891 75.8796 134.846 75.8579 134.799L75.639 134.402L74.8392 132.86C74.151 131.515 73.1635 129.579 71.9794 127.155C70.7953 124.73 69.3923 121.858 67.9579 118.613C67.6049 117.801 67.2609 116.966 66.9347 116.102C66.7917 115.664 66.6085 115.234 66.5147 114.771C66.4879 114.658 66.4566 114.541 66.4342 114.428L66.3851 114.082L66.2913 113.39C66.1661 112.456 66.0663 111.506 65.9919 110.539C65.9561 110.058 65.9248 109.569 65.898 109.081C65.8712 108.592 65.8534 108.093 65.898 107.593C66.0768 103.62 66.4834 99.8504 66.823 96.4201C67.1626 92.9897 67.4888 89.9057 67.7569 87.3065C68.025 84.7073 68.2037 82.6148 68.2931 81.1603C68.3511 80.4312 68.3824 79.8698 68.4003 79.4907L68.4316 79.0533C68.4237 79.0049 68.4237 78.9558 68.4316 78.9074C68.4366 78.956 68.4366 79.0047 68.4316 79.0533C68.4316 79.1626 68.4316 79.3048 68.4316 79.4907C68.4316 79.8735 68.4092 80.4385 68.369 81.164C68.2931 82.6221 68.1367 84.7219 67.8999 87.3175C67.663 89.913 67.3458 93.0007 67.0062 96.431C66.6666 99.8614 66.2778 103.631 66.1125 107.593C66.0768 108.089 66.1125 108.578 66.1125 109.07C66.1125 109.562 66.1661 110.043 66.2064 110.528C66.2778 111.5 66.3747 112.447 66.4968 113.368L66.5906 114.064L66.6398 114.407C66.6621 114.52 66.6934 114.629 66.7202 114.742C66.8096 115.187 66.9883 115.621 67.1313 116.054C67.4485 116.911 67.7926 117.746 68.1411 118.559C69.5442 121.8 70.9338 124.683 72.0956 127.107C73.2574 129.531 74.227 131.482 74.8928 132.831C75.219 133.501 75.4781 134.023 75.6569 134.387C75.7373 134.559 75.8043 134.693 75.849 134.792C75.8937 134.89 75.9384 134.934 75.9384 134.934Z" fill="#455A64"/>
<path d="M67.958 77.8357C67.958 77.8357 67.8552 77.7847 67.6899 77.6571C67.4764 77.461 67.3057 77.2366 67.1849 76.9936C66.8312 76.1895 66.6587 75.3398 66.6756 74.4855C66.6619 73.6333 66.7111 72.7812 66.823 71.9337C66.844 71.5837 66.9038 71.236 67.0017 70.8948C67.0383 71.2441 67.0383 71.5954 67.0017 71.9447C66.9615 72.5899 66.899 73.4831 66.9168 74.4673C66.9098 75.3038 67.0605 76.1362 67.3637 76.9353C67.4687 77.1696 67.6115 77.3915 67.7882 77.5951C67.8954 77.7446 67.9714 77.8284 67.958 77.8357Z" fill="#455A64"/>
<path d="M63.4985 70.3079C63.604 70.5936 63.6345 70.8942 63.5879 71.1901C63.5285 71.9159 63.2325 72.6156 62.7305 73.2167C62.2285 73.8179 61.5388 74.2987 60.7326 74.6095C60.411 74.7526 60.0565 74.8395 59.6915 74.8647C59.6915 74.8355 60.0803 74.748 60.6611 74.5002C61.4172 74.172 62.0643 73.699 62.5468 73.1218C63.0294 72.5446 63.333 71.8805 63.4315 71.1865C63.5075 70.6469 63.4583 70.3079 63.4985 70.3079Z" fill="#455A64"/>
<path d="M82.0421 88.7027C82.0421 88.7027 82.0421 88.7355 82.0421 88.7975C82.0421 88.8595 82.0421 88.9652 82.0153 89.0782C81.9796 89.3407 81.9349 89.7052 81.8813 90.1718C81.7517 91.1233 81.573 92.4757 81.3495 94.1381C80.9027 97.5028 80.2414 102.122 79.5354 107.229C79.2837 109.633 79.4811 112.054 80.1207 114.41C80.4007 115.436 80.7604 116.447 81.1976 117.436C81.5998 118.369 81.9706 119.24 82.3147 120.039C82.9894 121.621 83.5346 122.908 83.9188 123.812C84.0976 124.249 84.2405 124.592 84.3657 124.84L84.4729 125.11C84.4878 125.139 84.4969 125.169 84.4997 125.201C84.4997 125.201 84.4997 125.175 84.4506 125.113C84.4014 125.051 84.3746 124.96 84.3254 124.851C84.2093 124.607 84.0573 124.268 83.8786 123.834L82.2075 120.083C81.8589 119.288 81.4747 118.417 81.0636 117.487C80.6158 116.493 80.2472 115.476 79.9599 114.443C79.3019 112.072 79.0954 109.633 79.3477 107.211C80.0448 102.089 80.7419 97.4736 81.2289 94.1235C81.4836 92.4612 81.6757 91.1087 81.8321 90.1609C81.9036 89.7016 81.9617 89.3443 82.0064 89.0673C82.0064 88.9543 82.0421 88.8631 82.0555 88.7902C82.046 88.7617 82.0415 88.7323 82.0421 88.7027Z" fill="#455A64"/>
<path d="M61.9525 69.772L63.7845 65.9553L67.9624 71.037L62.3904 69.9033" fill="#FFBE9D"/>
<path d="M105.662 58.2999L100.706 49.2337C100.112 47.7755 98.9994 47.5495 98.07 46.7038L85.6525 40.9914C76.5997 37.9657 71.6711 48.1072 71.6711 48.1072L63.4449 63.418C53.771 66.0318 60.6209 72.0942 60.6209 72.0942C60.6209 72.0942 57.9891 68.3612 60.5807 67.0161C63.2885 65.6053 66.2913 69.32 69.1778 72.8488C72.5871 77.0118 83.6597 79.7167 83.6597 79.7167C84.9555 78.6012 84.5935 74.7043 85.6078 72.6118C85.9296 71.952 93.5972 57.4614 93.5972 57.4614L96.5687 63.3342C96.5687 63.3342 100.376 59.6888 102.226 59.1128C103.341 58.7628 104.49 58.4908 105.662 58.2999Z" fill="#FF725E"/>
<path d="M83.6552 64.745C83.5415 64.8291 83.4154 64.9013 83.2799 64.9601C82.919 65.1309 82.5408 65.276 82.1494 65.3939C80.8478 65.7938 79.4418 65.913 78.0673 65.74C76.6927 65.5669 75.3962 65.1074 74.303 64.406C73.9728 64.198 73.6662 63.9661 73.387 63.7133C73.2762 63.6274 73.1827 63.5277 73.1099 63.4181C73.1412 63.3925 73.5568 63.8045 74.3968 64.3039C75.4886 64.961 76.7593 65.3924 78.1001 65.5613C79.4409 65.7302 80.8119 65.6314 82.0958 65.2736C83.0877 65.0038 83.6552 64.7158 83.6552 64.745Z" fill="#263238"/>
<path d="M63.1009 50.3601L70.7641 50.9507L83.0252 40.3789L75.8133 40.1748L62.9758 41.2101C63.6512 44.2324 63.6935 47.3263 63.1009 50.3601Z" fill="#FF725E"/>
<path d="M73.7221 44.7972C73.7035 44.8653 73.6719 44.9305 73.6283 44.9904L73.32 45.5299C73.0429 46.0184 72.6542 46.6928 72.185 47.5094C71.2332 49.1863 69.9508 51.5194 68.6103 54.1076C67.2698 56.6959 65.9919 59.0399 65.0357 60.7204C64.5665 61.5625 64.1777 62.2369 63.9007 62.7035L63.5745 63.2358C63.5403 63.3005 63.4968 63.3617 63.4449 63.4181C63.4677 63.3504 63.4976 63.2846 63.5343 63.2212L63.8203 62.6744L64.8927 60.6694C65.7863 58.9524 67.033 56.6157 68.3914 54.0347C69.7498 51.4538 71.0724 49.1207 72.042 47.4547C72.538 46.6236 72.9357 45.9565 73.244 45.4971C73.387 45.2857 73.4987 45.1107 73.5881 44.9722C73.625 44.9101 73.6699 44.8515 73.7221 44.7972Z" fill="#263238"/>
<path d="M97.1138 47.8703C97.1361 47.9031 96.667 48.1036 96.0101 48.5556C95.6334 48.8191 95.2878 49.1108 94.9779 49.4269C94.6004 49.8173 94.274 50.2388 94.0038 50.6846C93.7445 51.1335 93.5409 51.6024 93.3961 52.0844C93.2835 52.4806 93.2177 52.8846 93.1995 53.291C93.1683 53.9837 93.2666 54.4138 93.2219 54.4175C93.1748 54.3231 93.1447 54.2236 93.1325 54.1222C93.0989 54.0024 93.078 53.8804 93.07 53.7577C93.047 53.598 93.0366 53.4372 93.0387 53.2765C93.0353 52.8599 93.0877 52.4443 93.1951 52.037C93.3291 51.5342 93.5315 51.0451 93.7983 50.5789C94.0781 50.1222 94.4182 49.692 94.8126 49.2957C95.1392 48.977 95.5062 48.6874 95.9074 48.4317C96.0586 48.3304 96.2184 48.2378 96.3855 48.1546C96.5057 48.0844 96.6327 48.0222 96.7653 47.9687C96.8743 47.9211 96.992 47.8879 97.1138 47.8703Z" fill="#263238"/>
<path d="M99.2541 33.3506L92.0646 44.316C91.498 45.1784 90.5521 45.8338 89.4172 46.1503C88.2823 46.4668 87.0426 46.421 85.9475 46.0221C85.3573 45.8043 84.828 45.4901 84.3924 45.099C83.9568 44.7079 83.6241 44.2481 83.4148 43.748C83.2054 43.248 83.1239 42.7182 83.1752 42.1914C83.2266 41.6646 83.4097 41.152 83.7133 40.6852L84.951 38.7822C84.951 38.7822 81.8232 37.1309 83.2888 34.3749C84.5935 31.9179 89.3836 24.977 90.3979 23.5116L96.457 25.7243C97.2635 26.0675 97.9776 26.5391 98.5569 27.1112C99.1362 27.6834 99.569 28.3445 99.8298 29.0555C100.091 29.7664 100.174 30.5129 100.075 31.2506C99.9762 31.9883 99.6971 32.7024 99.2541 33.3506Z" fill="#FFBE9D"/>
<path d="M84.951 38.7422C86.4896 39.3315 88.2082 39.5345 89.8885 39.3254C89.8885 39.3254 87.7705 40.9185 84.5533 39.4494L84.951 38.7422Z" fill="#EB996E"/>
<path d="M87.2611 29.9749C87.2039 30.0767 87.1976 30.1926 87.2435 30.2981C87.2893 30.4036 87.3838 30.4904 87.5069 30.54C87.5657 30.566 87.6304 30.5822 87.697 30.5877C87.7636 30.5931 87.8309 30.5877 87.8949 30.5718C87.9589 30.5559 88.0185 30.5297 88.07 30.4948C88.1215 30.4599 88.164 30.417 88.195 30.3686C88.2522 30.2669 88.2586 30.1509 88.2127 30.0454C88.1668 29.9399 88.0723 29.8531 87.9492 29.8036C87.8904 29.7775 87.8258 29.7613 87.7592 29.7559C87.6925 29.7504 87.6253 29.7558 87.5612 29.7717C87.4972 29.7877 87.4377 29.8138 87.3862 29.8487C87.3346 29.8836 87.2921 29.9265 87.2611 29.9749Z" fill="#263238"/>
<path d="M87.288 29.6286C87.3193 29.7015 87.8018 29.6286 88.3202 29.8036C88.8385 29.9785 89.0976 30.3394 89.1825 30.3103C89.2674 30.2811 89.2094 30.1827 89.1021 30.0259C88.9469 29.8183 88.7177 29.6543 88.4453 29.5557C88.1763 29.4573 87.8761 29.4305 87.5874 29.4791C87.3773 29.5192 87.2701 29.5812 87.288 29.6286Z" fill="#263238"/>
<path d="M92.0914 31.9143C92.033 32.0159 92.0261 32.1322 92.0721 32.238C92.1181 32.3437 92.2133 32.4305 92.3372 32.4793C92.3963 32.5052 92.4612 32.5212 92.528 32.5264C92.5948 32.5317 92.6622 32.5259 92.7262 32.5096C92.7903 32.4934 92.8498 32.4668 92.9011 32.4316C92.9524 32.3963 92.9947 32.3531 93.0253 32.3043C93.0811 32.203 93.0867 32.0879 93.0409 31.9833C92.9951 31.8786 92.9014 31.7925 92.7795 31.7429C92.7208 31.7164 92.6561 31.6998 92.5894 31.694C92.5226 31.6883 92.4551 31.6936 92.3909 31.7096C92.3267 31.7256 92.2671 31.7519 92.2157 31.7871C92.1642 31.8223 92.122 31.8655 92.0914 31.9143Z" fill="#263238"/>
<path d="M92.3193 31.557C92.3506 31.6299 92.8332 31.557 93.3515 31.732C93.8698 31.907 94.129 32.2715 94.2139 32.2423C94.2988 32.2132 94.2452 32.1148 94.1334 31.9544C93.9777 31.748 93.7486 31.5852 93.4766 31.4877C93.2082 31.3876 92.9073 31.3607 92.6187 31.4112C92.4087 31.4513 92.3014 31.5242 92.3193 31.557Z" fill="#263238"/>
<path d="M88.7312 33.9958C88.4968 33.8291 88.2388 33.6859 87.9626 33.5693C87.8375 33.5073 87.7214 33.4417 87.7392 33.3615C87.7571 33.2813 87.8733 33.1756 88.0029 33.0735L88.8429 32.3955C89.5847 31.8332 90.2705 31.2237 90.8939 30.5728C90.0942 31.0823 89.347 31.6443 88.6597 32.2533L87.8331 32.9423C87.6791 33.0419 87.5731 33.1826 87.5337 33.3396C87.533 33.3844 87.5442 33.4288 87.5666 33.4697C87.589 33.5106 87.622 33.5471 87.6633 33.5766C87.7278 33.6186 87.7983 33.654 87.8733 33.6823C88.1402 33.8185 88.4289 33.924 88.7312 33.9958Z" fill="#263238"/>
<path d="M90.0896 34.8415C90.0092 34.8087 89.759 35.2644 89.1021 35.4139C88.4453 35.5633 87.8733 35.2972 87.8331 35.3592C87.7929 35.4212 87.918 35.4941 88.1682 35.5925C88.4937 35.7168 88.8627 35.7426 89.2094 35.6654C89.5435 35.5931 89.8293 35.4163 90.0047 35.1733C90.1298 34.991 90.1298 34.8561 90.0896 34.8415Z" fill="#263238"/>
<path d="M93.0923 29.8582C93.0923 29.9931 93.624 30.1244 94.196 30.4051C94.7679 30.6858 95.188 30.9993 95.322 30.9264C95.3846 30.8899 95.3578 30.7514 95.2237 30.5618C95.0332 30.3306 94.7812 30.1373 94.4864 29.9966C94.1916 29.8558 93.8617 29.7712 93.5213 29.7489C93.2621 29.7489 93.0968 29.7963 93.0923 29.8582Z" fill="#263238"/>
<path d="M88.1458 28.4876C88.1861 28.6188 88.5927 28.648 89.0395 28.7974C89.4863 28.9469 89.7947 29.162 89.9332 29.0818C90.0717 29.0016 89.9957 28.9287 89.884 28.7828C89.7369 28.5936 89.5192 28.4479 89.2629 28.3673C89.0095 28.2779 88.728 28.2563 88.4586 28.3053C88.2352 28.3345 88.1235 28.4147 88.1458 28.4876Z" fill="#263238"/>
<path d="M96.9932 34.9947C97.0647 34.9947 99.6072 35.279 98.5079 37.1272C97.4087 38.9755 95.3801 37.6923 95.3801 37.6376C95.3801 37.5829 96.9932 34.9947 96.9932 34.9947Z" fill="#FFBE9D"/>
<path d="M96.4971 37.2111C96.4971 37.2111 96.524 37.2475 96.5731 37.3022C96.649 37.3715 96.7545 37.4145 96.868 37.4225C97.0621 37.4066 97.2474 37.3484 97.4046 37.2542C97.5618 37.1599 97.6851 37.033 97.7617 36.8866C97.8614 36.7309 97.9179 36.5591 97.927 36.3835C97.9396 36.3173 97.9324 36.2495 97.9059 36.1861C97.8795 36.1226 97.8346 36.0653 97.7751 36.019C97.735 35.9917 97.6844 35.9768 97.6321 35.9768C97.5799 35.9768 97.5293 35.9917 97.4891 36.019C97.431 36.0591 97.4221 36.0992 97.4087 36.0992C97.3953 36.0992 97.3774 36.0482 97.44 35.9789C97.4809 35.9381 97.5376 35.9098 97.6008 35.8987C97.686 35.8856 97.7741 35.9 97.8466 35.9388C97.93 35.9908 97.9958 36.0592 98.038 36.1376C98.0802 36.2161 98.0974 36.3019 98.0879 36.3872C98.0886 36.5852 98.0304 36.7803 97.9181 36.9559C97.8312 37.1248 97.6854 37.2692 97.4986 37.371C97.3119 37.4728 97.0926 37.5274 96.868 37.5282C96.7987 37.5169 96.733 37.4939 96.6753 37.4606C96.6176 37.4274 96.5691 37.3846 96.5329 37.335C96.4748 37.2585 96.4882 37.2111 96.4971 37.2111Z" fill="#EB996E"/>
<path d="M98.3069 35.4139C98.0965 35.3271 97.8618 35.2872 97.6265 35.2981C97.3911 35.309 97.1634 35.3703 96.9664 35.4759C96.6715 35.6873 96.4704 35.9789 96.1755 36.2049C96.0396 36.3226 95.8596 36.4 95.6639 36.4251C95.4681 36.4501 95.2677 36.4214 95.0942 36.3435C94.9926 36.2695 94.9167 36.1748 94.8743 36.0692C94.832 35.9636 94.8246 35.8507 94.8529 35.742C94.9127 35.5239 95.0235 35.3172 95.1791 35.1332C95.7912 34.3093 96.4928 33.5219 97.02 32.6579C97.5937 31.8046 97.8441 30.8315 97.7394 29.8619C97.6788 29.3797 97.4602 28.9197 97.1063 28.5304C96.7525 28.141 96.2766 27.8366 95.7287 27.6491C94.9914 27.4377 94.1692 27.4997 93.4141 27.3247C92.9671 27.2152 92.5564 27.0245 92.2128 26.7669C91.8691 26.5093 91.6016 26.1915 91.4301 25.8374C91.3412 25.6945 91.2428 25.5558 91.1352 25.4218C91.162 25.378 91.4301 25.0062 91.6938 24.9333C93.6866 24.3828 96.3811 25.0135 98.0299 26.0743C98.8715 26.6079 99.5603 27.2849 100.048 28.0581C100.536 28.8313 100.811 29.682 100.854 30.5509C100.876 32.2642 99.5536 34.1526 98.3248 35.4285" fill="#263238"/>
<path d="M98.3292 35.2134C98.9592 34.3385 99.978 33.7078 100.755 32.9204C101.533 32.133 102.096 31.0211 101.515 30.1171C101.327 29.8072 101.024 29.5484 100.867 29.2276C100.743 28.8945 100.668 28.5507 100.644 28.2032C100.543 27.6723 100.296 27.1668 99.9213 26.7249C99.5468 26.2829 99.0544 25.9159 98.4811 25.6514C97.6858 25.2869 96.7698 25.1411 95.961 24.7948C94.6875 24.2479 93.7536 23.2345 92.3863 22.8007C92.171 22.715 91.9358 22.6674 91.6963 22.6611C91.4568 22.6548 91.2183 22.69 90.9967 22.7643C90.8906 22.8063 90.7966 22.8662 90.7208 22.9399C90.6449 23.0136 90.589 23.0994 90.5565 23.1919C90.5241 23.2844 90.5158 23.3815 90.5324 23.4768C90.5489 23.572 90.5899 23.6634 90.6526 23.7449C90.6262 23.6609 90.5775 23.5827 90.5101 23.5157C90.4427 23.4486 90.3581 23.3945 90.2623 23.357C90.1665 23.3194 90.0618 23.2995 89.9556 23.2985C89.8493 23.2975 89.7441 23.3155 89.6472 23.3512C89.4571 23.4357 89.3018 23.5642 89.2008 23.7205C89.0999 23.8768 89.0578 24.054 89.0798 24.2297C89.1322 24.5806 89.3006 24.9132 89.5668 25.1921C90.3954 26.1503 91.6151 26.8365 93.0074 27.1278L96.095 26.931L98.6241 28.4584L100.492 30.8899L97.1004 34.4843L98.3292 35.2134Z" fill="#263238"/>
<path d="M79.0303 20.8686C78.9048 19.2803 78.2587 17.7486 77.1596 16.4335C76.0605 15.1185 74.5488 14.0684 72.7822 13.3929C71.0157 12.7174 69.0592 12.4414 67.1172 12.5936C65.1752 12.7458 63.3189 13.3207 61.7424 14.2582C60.1658 15.1958 58.9267 16.4615 58.1546 17.9232C57.3825 19.3849 57.1058 20.989 57.3533 22.5677C57.6007 24.1465 58.3633 25.6422 59.5614 26.8983C60.7595 28.1545 62.3491 29.1251 64.1641 29.7088C64.249 30.7587 64.3429 31.9471 64.3429 31.9471L73.8694 31.444C73.8694 31.444 73.8291 30.1863 73.7576 29.0636C75.475 28.2251 76.8758 27.0166 77.806 25.5708C78.7362 24.125 79.1598 22.498 79.0303 20.8686Z" fill="#FF725E"/>
<path d="M70.4199 31.5898C70.4199 31.5898 70.4199 31.5497 70.4199 31.4805C70.4199 31.4112 70.4199 31.2945 70.4199 31.156C70.4199 30.8753 70.4691 30.4561 70.5227 29.9202C70.5763 29.3843 70.6523 28.7245 70.7997 27.9699C70.9628 27.1101 71.2276 26.2653 71.5906 25.4473C71.8042 24.9711 72.0688 24.5112 72.3815 24.0729C72.5518 23.8336 72.793 23.6331 73.083 23.4897C73.24 23.4183 73.4157 23.3787 73.5953 23.3742C73.7749 23.3698 73.9532 23.4006 74.1152 23.4642C74.2867 23.5315 74.4196 23.6504 74.4861 23.7959C74.5596 23.9431 74.5596 24.108 74.4861 24.2552C74.3266 24.5386 74.0452 24.7643 73.6952 24.8895C73.3263 25.0073 72.9325 25.0643 72.5365 25.057C72.1404 25.0498 71.7501 24.9785 71.3881 24.8472C71.0261 24.716 70.6996 24.5275 70.4276 24.2926C70.1555 24.0577 69.9433 23.781 69.8033 23.4787C69.638 23.1565 69.5869 22.8028 69.6558 22.458C69.6932 22.2747 69.8079 22.1077 69.98 21.9859C70.1521 21.8641 70.3709 21.7952 70.5986 21.7909C70.7165 21.794 70.8315 21.8218 70.9324 21.8716C71.0334 21.9214 71.1169 21.9915 71.1751 22.0753C71.2952 22.2369 71.3411 22.4281 71.3046 22.6148C71.1995 22.9744 70.957 23.2974 70.612 23.5371C70.2835 23.7948 69.892 23.9929 69.4631 24.1186C69.0342 24.2442 68.5776 24.2945 68.1232 24.2662C67.6679 24.2312 67.2297 24.1069 66.846 23.9037C66.4624 23.7006 66.1448 23.4247 65.9203 23.0996C65.8049 22.9395 65.7315 22.7616 65.7046 22.5771C65.6777 22.3926 65.6979 22.2056 65.7639 22.0279C65.7963 21.9367 65.8528 21.8524 65.9294 21.7809C66.0061 21.7095 66.101 21.6526 66.2076 21.6144C66.3141 21.5761 66.4296 21.5574 66.546 21.5596C66.6623 21.5617 66.7767 21.5847 66.881 21.6269C67.0867 21.7045 67.2582 21.8317 67.3725 21.9914C67.4793 22.147 67.549 22.3177 67.5781 22.4945C67.6354 22.8359 67.6065 23.1832 67.4932 23.5152C67.2832 24.1659 66.7765 24.7266 66.0767 25.0827C65.4087 25.4169 64.6167 25.5462 63.8425 25.4473C63.4663 25.4185 63.1118 25.2906 62.8327 25.0827C62.6961 24.9742 62.6089 24.8309 62.5854 24.6766C62.5618 24.5222 62.6033 24.3659 62.7031 24.2333C62.819 24.1113 62.9892 24.0314 63.1767 24.011C63.3553 23.9923 63.5368 24.0112 63.704 24.0657C64.0122 24.1885 64.262 24.391 64.4145 24.6416C64.7273 25.1082 64.982 25.5639 65.2411 25.9977C66.251 27.7402 66.9838 29.1802 67.4753 30.179C67.721 30.6785 67.9221 31.0685 68.0294 31.331C68.0874 31.4622 68.1321 31.5643 68.1679 31.6336C68.1843 31.668 68.1977 31.7033 68.2081 31.7393L68.1545 31.6372L68.0025 31.3419L67.4261 30.1936C66.9167 29.2021 66.1705 27.7658 65.1517 26.0305C64.8926 25.6004 64.629 25.1374 64.3206 24.6817C64.1773 24.4493 63.9452 24.2612 63.6593 24.1459C63.5149 24.0904 63.3526 24.0739 63.1959 24.0988C63.0392 24.1237 62.8963 24.1887 62.788 24.2844C62.7069 24.4 62.6752 24.5344 62.6979 24.6664C62.7205 24.7983 62.7962 24.9204 62.9131 25.0135C63.1737 25.2073 63.5048 25.3263 63.8559 25.3525C64.6027 25.4432 65.3646 25.3139 66.0052 24.9879C66.6693 24.6408 67.1481 24.1017 67.3457 23.4787C67.4549 23.1599 67.4823 22.826 67.4261 22.4981C67.413 22.3351 67.3491 22.1776 67.2404 22.0404C67.1317 21.9033 66.9818 21.791 66.805 21.7144C66.716 21.681 66.6192 21.6637 66.5213 21.6637C66.4233 21.6637 66.3266 21.681 66.2376 21.7144C66.1471 21.7496 66.0671 21.8004 66.003 21.8634C65.939 21.9263 65.8925 21.9999 65.8667 22.0789C65.8066 22.2424 65.7887 22.4142 65.8141 22.5836C65.8395 22.753 65.9076 22.9163 66.0141 23.0632C66.2316 23.3691 66.5358 23.6281 66.9012 23.8183C67.2666 24.0086 67.6826 24.1247 68.1143 24.1568C68.5496 24.1831 68.9868 24.134 69.3973 24.0128C69.8077 23.8915 70.1821 23.7008 70.4959 23.4532C70.8155 23.2309 71.0421 22.9327 71.1438 22.6002C71.1751 22.4376 71.1356 22.2712 71.0321 22.1299C70.9842 22.062 70.9161 22.0051 70.8341 21.9643C70.7521 21.9235 70.6588 21.9003 70.5629 21.8966C70.3657 21.8976 70.176 21.9588 70.0312 22.068C69.8856 22.1766 69.7882 22.3214 69.7541 22.4799C69.6881 22.8049 69.7361 23.1386 69.8926 23.4423C70.0262 23.7347 70.23 24.0024 70.4921 24.2298C70.7542 24.4571 71.0693 24.6394 71.4189 24.766C71.7685 24.8927 72.1456 24.9611 72.528 24.9673C72.9105 24.9735 73.2906 24.9173 73.646 24.802C73.9692 24.6869 74.2298 24.4795 74.3789 24.2188C74.4428 24.0959 74.447 23.9578 74.3905 23.8325C74.3341 23.7072 74.2213 23.6042 74.075 23.5444C73.9286 23.4867 73.7673 23.4585 73.6048 23.4624C73.4423 23.4662 73.2832 23.5018 73.1411 23.5662C72.8706 23.7019 72.6451 23.8897 72.4843 24.113C72.1743 24.5456 71.9112 24.9993 71.6979 25.4691C71.3308 26.2794 71.0614 27.117 70.8936 27.9699C70.7372 28.7245 70.6523 29.3807 70.5897 29.9166C70.5271 30.4524 70.4959 30.8644 70.4646 31.1524C70.4646 31.2872 70.4378 31.3966 70.4333 31.4732C70.4288 31.5497 70.4199 31.5898 70.4199 31.5898Z" fill="#263238"/>
<path d="M73.2484 32.9204L65.0714 33.3542C64.908 33.3622 64.7474 33.3173 64.6244 33.2293C64.5014 33.1412 64.426 33.0171 64.4145 32.884C64.4047 32.7511 64.4599 32.6205 64.568 32.5207C64.676 32.4209 64.8281 32.3602 64.9909 32.3517L73.1725 31.9216C73.2529 31.9171 73.3336 31.9257 73.41 31.9467C73.4863 31.9678 73.5568 32.001 73.6175 32.0443C73.6781 32.0877 73.7276 32.1404 73.7632 32.1994C73.7988 32.2584 73.8197 32.3226 73.8248 32.3882C73.8346 32.5211 73.7795 32.6517 73.6714 32.7515C73.5634 32.8512 73.4113 32.912 73.2484 32.9204Z" fill="#263238"/>
<path d="M73.2841 33.3579L65.1026 33.7917C64.9403 33.8004 64.7888 33.8613 64.6815 33.9611C64.5743 34.061 64.52 34.1914 64.5307 34.3239C64.5413 34.4564 64.6161 34.5799 64.7384 34.6674C64.8608 34.7549 65.0207 34.7992 65.1831 34.7905L66.0767 34.7431L67.4172 36.533C67.4935 36.6329 67.6015 36.7141 67.7297 36.768C67.8579 36.8219 68.0016 36.8465 68.1456 36.8392L71.0678 36.6861C71.2124 36.677 71.3514 36.6363 71.4701 36.5683C71.5888 36.5003 71.6829 36.4076 71.7426 36.2997L72.7524 34.3932L73.3646 34.3604C73.5211 34.345 73.6645 34.2812 73.7653 34.1822C73.866 34.0832 73.9164 33.9564 73.9061 33.828C73.8958 33.6997 73.8256 33.5794 73.7099 33.4919C73.5942 33.4044 73.4418 33.3565 73.2841 33.3579Z" fill="#263238"/>
<g opacity="0.2">
<path d="M60.7281 16.1587C61.3307 15.6358 62.0359 15.1984 62.8148 14.8646C63.3244 14.6372 63.8725 14.4726 64.4413 14.3761C64.8524 14.3214 65.0892 14.3397 65.116 14.4089C65.1741 14.5693 64.3698 14.85 63.3287 15.5026C61.9379 16.3282 60.8677 17.4629 60.2457 18.7712C59.6238 20.0795 59.4763 21.5061 59.821 22.8809C60.0579 23.9563 60.4198 24.6052 60.2679 24.7036C60.1874 24.7437 59.9998 24.6271 59.7451 24.3609C59.3951 23.9763 59.1207 23.5495 58.9318 23.096C58.6424 22.4209 58.4914 21.7114 58.485 20.9962C58.4641 20.1062 58.6538 19.2212 59.0435 18.3897" fill="white"/>
</g>
<g opacity="0.2">
<path d="M67.7702 14.6568C67.082 14.686 66.461 14.5657 66.3671 14.2704C66.3269 14.1246 66.4431 13.9606 66.6799 13.8257C66.9865 13.6736 67.334 13.5849 67.6921 13.5671C68.0503 13.5493 68.4084 13.603 68.7353 13.7236C68.9945 13.8366 69.1285 13.9897 69.1107 14.1392" fill="white"/>
</g>
<path d="M71.5906 36.4638C71.3958 36.4359 71.2033 36.3982 71.0142 36.3508C70.5547 36.2716 70.0835 36.2482 69.6156 36.2815C69.1546 36.322 68.7031 36.4166 68.2751 36.5622C67.9445 36.6788 67.7479 36.7736 67.7389 36.7591C67.8833 36.6467 68.0513 36.5566 68.2349 36.4929C68.6695 36.3201 69.1387 36.2127 69.6201 36.1758C70.1018 36.1378 70.588 36.1724 71.0544 36.2779C71.2448 36.3146 71.4261 36.3775 71.5906 36.4638Z" fill="#455A64"/>
<path d="M72.7747 34.415C72.7747 34.4442 71.3002 34.5463 69.4726 34.6447C67.6451 34.7431 66.1706 34.7942 66.1661 34.7614C66.1616 34.7285 67.6406 34.6301 69.4637 34.5353C71.2868 34.4406 72.7703 34.3859 72.7747 34.415Z" fill="#455A64"/>
<path d="M72.3235 35.2352C72.0609 35.2884 71.7934 35.3237 71.5237 35.341C71.0277 35.3956 70.3395 35.454 69.5755 35.505C68.8114 35.556 68.1232 35.5816 67.6228 35.5925C67.3538 35.6125 67.0831 35.6125 66.814 35.5925C67.0789 35.5486 67.3481 35.5242 67.6183 35.5196L69.5665 35.3993L71.5147 35.2681C71.7827 35.2384 72.0532 35.2275 72.3235 35.2352Z" fill="#455A64"/>
<path d="M13.4129 79.8881L15.2002 82.2102C15.2002 82.2102 22.7964 76.5197 30.2987 78.1273C30.2853 78.1201 23.5292 73.4466 13.4129 79.8881Z" fill="#FF725E"/>
<path d="M30.2853 78.1201C30.2853 78.1201 35.8484 73.1915 44.0076 74.3142L46.2417 74.5877L45.5357 73.5414C45.5357 73.5414 31.3309 69.5752 30.2853 78.1201Z" fill="#FF725E"/>
<path d="M18.5426 61.5006C18.5426 61.5006 7.39856 59.9367 0.0973053 63.1629L11.715 80.9817C11.715 80.9817 21.2146 73.5122 30.3032 78.1128L18.5426 61.5006Z" fill="#F5F5F5"/>
<path d="M18.5425 61.5006C18.5655 61.5236 18.5864 61.548 18.6051 61.5735L18.7704 61.7995L19.4139 62.6853L21.8268 66.061L30.3702 78.0909C30.3808 78.1062 30.3851 78.1239 30.3822 78.1413C30.3793 78.1587 30.3695 78.1748 30.3543 78.1873C30.339 78.1997 30.3192 78.2077 30.2979 78.21C30.2766 78.2124 30.2549 78.2089 30.2361 78.2002C28.9263 77.5394 27.4756 77.0855 25.96 76.8624C25.1639 76.7572 24.3578 76.7108 23.5515 76.7239C22.7222 76.7536 21.8972 76.839 21.085 76.979C17.6517 77.6674 14.4842 79.0459 11.8713 80.989L11.773 81.0619C11.763 81.0706 11.7509 81.0776 11.7374 81.0823C11.724 81.0871 11.7095 81.0895 11.6948 81.0895C11.6802 81.0895 11.6657 81.0871 11.6522 81.0823C11.6388 81.0776 11.6266 81.0706 11.6166 81.0619V81.0437L0.0123676 63.1993C0.00620663 63.1911 0.00223654 63.1818 0.000708582 63.1722C-0.000819373 63.1627 0.000129884 63.1529 0.0034972 63.1436C0.00686451 63.1344 0.012575 63.1258 0.0202596 63.1184C0.0279442 63.1111 0.0374322 63.1051 0.048115 63.1009C2.37682 62.1531 4.88962 61.5425 7.47448 61.2964C9.44702 61.0984 11.4356 61.0277 13.4218 61.085C15.0662 61.1324 16.3486 61.2381 17.2154 61.3256C17.6623 61.3693 17.984 61.4094 18.2074 61.4422L18.4621 61.4787H18.5425H18.4576L18.2029 61.4532C17.9795 61.4313 17.6489 61.3948 17.211 61.3584C16.3173 61.2855 15.0572 61.1943 13.4174 61.1615C11.4391 61.1168 9.4595 61.1985 7.49682 61.4058C4.93332 61.6629 2.44357 62.2796 0.13748 63.2285L0.173228 63.1301L11.7909 80.9489L11.6166 80.9234L11.7149 80.8505C13.0697 79.8628 14.5601 79.0065 16.1564 78.2987C17.6876 77.6105 19.3303 77.1024 21.0359 76.7895C21.8608 76.6456 22.6996 76.5602 23.5426 76.5343C24.3625 76.5189 25.1823 76.5665 25.9912 76.6765C27.5307 76.9075 29.0037 77.3712 30.3345 78.0435L30.1959 78.1529L21.7463 66.123L19.3692 62.7181L18.7481 61.8141C18.681 61.712 18.6274 61.6354 18.5917 61.5771C18.5731 61.5526 18.5567 61.527 18.5425 61.5006Z" fill="#263238"/>
<path d="M36.0584 57.8442C36.0584 57.8442 27.6311 53.4697 18.6855 61.4896L30.4283 78.1091C30.4283 78.1091 32.8233 71.3651 46.8449 73.7091L36.0584 57.8442Z" fill="#F5F5F5"/>
<path d="M36.0584 57.8442C36.0814 57.8651 36.1009 57.8884 36.1165 57.9134C36.1522 57.9681 36.2058 58.0374 36.2684 58.1285L36.8627 58.9743L39.0969 62.1968L46.9298 73.6909C46.9362 73.6997 46.9403 73.7094 46.9419 73.7196C46.9435 73.7297 46.9426 73.74 46.9393 73.7499C46.936 73.7597 46.9303 73.7689 46.9225 73.777C46.9147 73.785 46.9051 73.7916 46.8941 73.7966C46.8725 73.8033 46.8486 73.8033 46.8271 73.7966L44.7404 73.5159C44.384 73.4665 44.0244 73.4336 43.6635 73.4174L42.5643 73.3445C42.1913 73.319 41.8168 73.3117 41.4427 73.3227L40.3122 73.3263C39.928 73.3263 39.5482 73.3883 39.1639 73.4174C38.7761 73.4434 38.3909 73.4909 38.0111 73.5596L36.8627 73.7711L35.7322 74.0955C35.3606 74.2178 34.9967 74.3553 34.6419 74.5074C34.4576 74.5759 34.2812 74.6576 34.1147 74.7517L33.6008 75.0214C33.2612 75.2074 32.9574 75.4334 32.6401 75.6412C32.3408 75.87 32.0588 76.1135 31.7956 76.3702C31.2547 76.8884 30.8311 77.4809 30.5445 78.12C30.5344 78.1428 30.5137 78.1613 30.4869 78.1715C30.46 78.1818 30.4293 78.1829 30.4015 78.1747C30.3768 78.1676 30.3561 78.1533 30.3434 78.1346L29.8698 77.4675C25.7187 71.5802 21.8268 66.0938 18.614 61.5115C18.6033 61.4979 18.5975 61.4821 18.5975 61.4659C18.5975 61.4497 18.6033 61.4339 18.614 61.4203C20.3876 59.782 22.5509 58.455 24.9725 57.5197C26.8514 56.8199 28.9113 56.5046 30.9734 56.6011C32.2905 56.6653 33.5865 56.9016 34.8117 57.301C35.1324 57.4085 35.4457 57.5302 35.7501 57.6656L35.9824 57.7749L36.0539 57.8187L35.9735 57.7859L35.7367 57.6874C35.5267 57.6036 35.2139 57.4796 34.7939 57.3484C33.2263 56.8616 31.5549 56.6363 29.8787 56.6858C28.2025 56.7352 26.5554 57.0585 25.035 57.6364C22.6409 58.5741 20.5039 59.8972 18.7526 61.5261V61.4386L30.0351 77.4055L30.5266 78.0654L30.3211 78.0872C30.6165 77.4223 31.0537 76.8053 31.6124 76.2645C31.885 76.0008 32.1744 75.749 32.4793 75.5099C32.8099 75.2948 33.1182 75.0615 33.4668 74.8756L33.9896 74.5986C34.1606 74.5033 34.3415 74.4204 34.5302 74.3507C34.9056 74.2085 35.2586 74.0372 35.6428 73.9278L36.7912 73.6034L37.9619 73.3883C38.3473 73.3175 38.7386 73.27 39.1326 73.2461C39.5213 73.217 39.9056 73.1586 40.2899 73.155H41.4383C41.8153 73.1403 42.193 73.1476 42.5688 73.1769L43.6769 73.2534C44.041 73.2676 44.4037 73.3005 44.7627 73.3518L46.8628 73.6398L46.76 73.7565C43.5562 69.0174 40.8797 65.0475 38.9941 62.2515C38.0602 60.8626 37.3229 59.7617 36.818 59.0034L36.2461 58.1431C36.188 58.0483 36.1388 57.9754 36.1031 57.9207C36.0673 57.8661 36.0584 57.8442 36.0584 57.8442Z" fill="#263238"/>
<path d="M3.22508 54.5961L15.7945 74.3361C15.7945 74.3361 26.0046 73.9716 30.33 78.0326L18.6855 61.5006C18.6855 61.5006 11.8579 54.5961 3.22508 54.5961Z" fill="#F5F5F5"/>
<path d="M3.22508 54.5961H3.5468L4.51196 54.6289C4.6192 54.6289 4.73538 54.6289 4.85155 54.6289L5.22242 54.68L6.06247 54.793C6.38793 54.837 6.70902 54.9003 7.02316 54.9825C7.3873 55.0538 7.74673 55.1401 8.10003 55.2414C11.1027 56.0579 15.1332 58.0338 18.7525 61.4386L30.4149 77.9597C30.4295 77.9805 30.4335 78.0052 30.426 78.0284C30.4185 78.0516 30.4 78.0714 30.3746 78.0836C30.3556 78.096 30.332 78.1028 30.3076 78.1028C30.2833 78.1028 30.2596 78.096 30.2406 78.0836L29.7491 77.6826C28.8146 76.9507 27.7244 76.3639 26.5319 75.951C25.3768 75.5298 24.1714 75.2072 22.9349 74.9886C20.5886 74.5639 18.1883 74.3705 15.7856 74.4127C15.7666 74.4128 15.7479 74.4088 15.7314 74.4011C15.7149 74.3935 15.7012 74.3823 15.6917 74.3689C12.0277 68.5727 8.89986 63.6186 6.6791 60.1117C5.59777 58.3801 4.73091 56.9948 4.11875 56.0397C3.82831 55.5767 3.60042 55.2158 3.44403 54.9461L3.27423 54.6727L3.22061 54.5815C3.2473 54.6123 3.26978 54.6453 3.28764 54.68L3.47531 54.9607L4.1813 56.0543L6.79974 60.1445L15.8705 74.296L15.7766 74.2523C18.1954 74.2045 20.6125 74.3954 22.9751 74.821C24.2248 75.0424 25.4435 75.3673 26.6123 75.7906C27.8282 76.214 28.9396 76.8144 29.8921 77.5623L30.4015 77.9706L30.2183 78.0763C25.8974 71.9338 21.8982 66.2396 18.6006 61.5407C16.9853 60.0024 15.137 58.6378 13.1001 57.4797C11.5456 56.5838 9.85026 55.8628 8.05981 55.3361C7.7081 55.2327 7.35017 55.1439 6.98741 55.07C6.67658 54.9852 6.35846 54.9195 6.03566 54.8732L5.20008 54.7492L4.83815 54.6946L4.50749 54.6727L3.22508 54.5961Z" fill="#263238"/>
<path d="M42.4569 110.583L42.725 110.947C43.0279 111.358 43.4682 111.689 43.9941 111.902L44.4409 112.092L43.9941 112.311C43.4925 112.559 43.0868 112.918 42.8233 113.346L42.591 113.729L42.3229 113.364C42.02 112.954 41.5798 112.622 41.0539 112.409L40.5847 112.219L41.0315 112.001C41.5358 111.755 41.9423 111.395 42.2022 110.965L42.4569 110.583Z" fill="#FF725E"/>
<path d="M17.6845 35.3883L17.9526 35.7529C18.2558 36.1623 18.6961 36.4924 19.2216 36.7043L19.6685 36.8939L19.2216 37.1163C18.7166 37.3614 18.3098 37.7211 18.0509 38.1516L17.8186 38.5161L17.5505 38.1516C17.2472 37.7401 16.8051 37.4085 16.277 37.1965L15.8078 37.0069L16.2546 36.7882C16.7568 36.5385 17.1626 36.1785 17.4253 35.7492L17.6845 35.3883Z" fill="#FF725E"/>
<path d="M132.333 48.3624L132.601 48.727C132.904 49.1385 133.346 49.47 133.874 49.6821L134.344 49.8716L133.897 50.0904C133.395 50.339 132.99 50.6994 132.731 51.1293L132.498 51.4938L132.226 51.1293C131.924 50.7191 131.483 50.3888 130.957 50.1778L130.483 49.9956L130.93 49.7732C131.435 49.528 131.842 49.1683 132.101 48.7379L132.333 48.3624Z" fill="#FF725E"/>
<path d="M118.794 115.303L119.062 115.668C119.367 116.078 119.809 116.408 120.335 116.619L120.805 116.809L120.358 117.031C119.855 117.279 119.449 117.638 119.187 118.067L118.959 118.449L118.687 118.085C118.385 117.673 117.944 117.342 117.418 117.13L116.948 116.94L117.395 116.721C117.9 116.474 118.306 116.113 118.566 115.683L118.794 115.303Z" fill="#FF725E"/>
<path d="M121.372 129.371L121.502 129.415C121.644 129.46 121.798 129.473 121.948 129.451L122.087 129.429L122.033 129.535C121.978 129.651 121.963 129.777 121.989 129.9L122.016 130.013L121.886 129.969C121.744 129.924 121.589 129.911 121.439 129.932L121.301 129.954L121.354 129.849C121.41 129.733 121.425 129.607 121.399 129.484L121.372 129.371Z" fill="#FF725E"/>
<path d="M129.169 34.251L129.294 34.2947C129.437 34.3394 129.591 34.3519 129.741 34.3312L129.875 34.3093L129.826 34.415C129.769 34.5305 129.753 34.6571 129.781 34.7795L129.808 34.8926L129.679 34.8488C129.536 34.8042 129.382 34.7916 129.232 34.8124L129.098 34.8342L129.147 34.7285C129.204 34.613 129.22 34.4865 129.192 34.364L129.169 34.251Z" fill="#FF725E"/>
<path d="M22.7203 25.5712L22.8499 25.6113C22.9914 25.6582 23.1466 25.6709 23.2967 25.6478H23.4352L23.3816 25.7498C23.3269 25.8659 23.3114 25.9918 23.3369 26.1144L23.3637 26.2237L23.2342 26.1836C23.0926 26.1367 22.9375 26.1241 22.7873 26.1472H22.6488L22.7024 26.0451C22.7572 25.9291 22.7726 25.8031 22.7471 25.6806L22.7203 25.5712Z" fill="#FF725E"/>
<path d="M35.8438 99.6317L35.9734 99.6718C36.1144 99.7204 36.2701 99.7331 36.4202 99.7083L36.5587 99.69L36.5051 99.7957C36.4497 99.9117 36.4342 100.038 36.4604 100.16L36.4872 100.27L36.3576 100.23C36.2161 100.183 36.0609 100.17 35.9108 100.193L35.7723 100.215L35.8259 100.109C35.8806 99.9932 35.8961 99.8673 35.8706 99.7447L35.8438 99.6317Z" fill="#FF725E"/>
<path d="M50.1022 128.259L49.9771 128.365L49.6062 128.667L48.163 129.83L42.801 134.048V134.004C43.0825 138.579 43.4399 144.777 43.8153 151.703V151.856L43.6544 151.772L41.7196 150.715L29.4585 144.018H29.4317V143.997C27.5997 139.538 26.0581 135.776 24.9634 133.122C24.4272 131.803 24.0072 130.76 23.7123 130.038L23.3905 129.218C23.3548 129.13 23.328 129.061 23.3101 129.01C23.3101 128.959 23.2833 128.937 23.2878 128.937L23.3235 129.003L23.4173 129.211C23.4978 129.404 23.614 129.674 23.7659 130.024L25.0617 133.097C26.1698 135.747 27.7427 139.498 29.5926 143.949L29.5568 143.913L41.8313 150.598L43.7661 151.652L43.6142 151.721C43.2523 144.795 42.9261 138.598 42.6848 134.015V133.99H42.7071L48.1049 129.812L49.5749 128.686L49.9592 128.398C50.0531 128.288 50.1022 128.259 50.1022 128.259Z" fill="#FF725E"/>
<path d="M44.3917 149.607L44.3515 150.638L45.3748 151.251L44.1594 151.539L43.7617 152.52L43.0467 151.667L41.7822 151.663L42.5597 150.846L42.171 149.862L43.364 150.212L44.3917 149.607Z" fill="#FF725E"/>
<path d="M29.6194 142.604L29.6462 143.271L30.3344 143.636L29.5613 143.858L29.3513 144.507L28.8509 143.978L28.0332 144.015L28.4934 143.461L28.1985 142.837L28.9849 143.027L29.6194 142.604Z" fill="#FF725E"/>
<path d="M23.2565 127.683L23.8731 128.332L24.8785 128.281L24.3155 128.963L24.6819 129.725L23.7167 129.499L22.9392 130.02L22.9035 129.2L22.059 128.759L23.0018 128.478L23.2565 127.683Z" fill="#FF725E"/>
<path d="M49.4811 127.038L50.1022 127.683L51.1031 127.636L50.5401 128.314L50.9065 129.079L49.9414 128.85L49.1639 129.371L49.1326 128.551L48.2836 128.11L49.2309 127.829L49.4811 127.038Z" fill="#FF725E"/>
<path d="M42.5999 133.286L42.9931 133.702L43.6321 133.669L43.2746 134.103L43.5069 134.591L42.8903 134.446L42.3943 134.777L42.372 134.256L41.8313 133.972L42.4345 133.793L42.5999 133.286Z" fill="#FF725E"/>
<path d="M18.9492 105.716C23.87 105.716 27.8591 102.462 27.8591 98.447C27.8591 94.4324 23.87 91.178 18.9492 91.178C14.0285 91.178 10.0394 94.4324 10.0394 98.447C10.0394 102.462 14.0285 105.716 18.9492 105.716Z" fill="#FF725E"/>
<g opacity="0.3">
<path d="M17.7919 100.714C17.7928 100.95 17.708 101.18 17.5483 101.376C17.3886 101.572 17.1611 101.725 16.8948 101.815C16.6284 101.906 16.3351 101.93 16.0522 101.884C15.7692 101.838 15.5092 101.725 15.3052 101.558C15.1012 101.392 14.9624 101.18 14.9063 100.949C14.8503 100.718 14.8795 100.479 14.9903 100.262C15.1011 100.044 15.2885 99.8587 15.5287 99.7284C15.769 99.5981 16.0512 99.5289 16.3397 99.5296C16.7245 99.5306 17.0932 99.6557 17.3653 99.8777C17.6374 100.1 17.7907 100.4 17.7919 100.714Z" fill="white"/>
</g>
<g opacity="0.3">
<path d="M15.7365 97.295C15.7373 97.4321 15.6883 97.5664 15.5955 97.6808C15.5028 97.7952 15.3705 97.8845 15.2155 97.9375C15.0604 97.9905 14.8896 98.0047 14.7246 97.9784C14.5596 97.9521 14.4079 97.8864 14.2887 97.7897C14.1696 97.693 14.0883 97.5696 14.0551 97.4351C14.022 97.3007 14.0386 97.1612 14.1027 97.0344C14.1668 96.9077 14.2756 96.7993 14.4153 96.723C14.555 96.6467 14.7194 96.606 14.8875 96.606C15.1119 96.606 15.3271 96.6785 15.4862 96.8076C15.6453 96.9367 15.7353 97.1119 15.7365 97.295Z" fill="white"/>
</g>
<path d="M10.303 100.215C10.3432 100.343 2.67555 106.343 4.65502 107.622C6.63449 108.902 14.9322 105.621 22.0324 100.951C29.1325 96.2816 35.5937 90.6093 33.8198 89.1074C32.0459 87.6055 23.1896 92.0492 23.1896 92.0492L24.2486 92.6033C24.2486 92.6033 29.6106 89.8 31.2997 90.8863C32.9887 91.9727 28.1718 96.2232 21.3487 100.284C14.5256 104.345 7.94371 107.189 6.9294 106.077C5.91509 104.965 10.7275 101.258 10.7275 101.258L10.303 100.215Z" fill="#FF725E"/>
<g opacity="0.3">
<path d="M10.303 100.215C10.3432 100.343 2.67555 106.343 4.65502 107.622C6.63449 108.902 14.9322 105.621 22.0324 100.951C29.1325 96.2816 35.5937 90.6093 33.8198 89.1074C32.0459 87.6055 23.1896 92.0492 23.1896 92.0492L24.2486 92.6033C24.2486 92.6033 29.6106 89.8 31.2997 90.8863C32.9887 91.9727 28.1718 96.2232 21.3487 100.284C14.5256 104.345 7.94371 107.189 6.9294 106.077C5.91509 104.965 10.7275 101.258 10.7275 101.258L10.303 100.215Z" fill="black"/>
</g>
<g opacity="0.3">
<path d="M14.0385 93.3251C14.11 93.3944 13.5068 93.8136 12.8231 94.6521C11.9161 95.7294 11.4159 96.9999 11.3841 98.3066C11.3523 99.6134 11.7905 100.899 12.6444 102.005C13.2878 102.869 13.8687 103.306 13.7927 103.372C13.7168 103.438 13.0331 103.088 12.2378 102.227C11.7784 101.724 11.4139 101.167 11.1564 100.576C10.5044 99.1038 10.5442 97.4869 11.2681 96.0373C11.5532 95.4531 11.9449 94.9074 12.4299 94.4188C13.2655 93.5876 13.9983 93.2741 14.0385 93.3251Z" fill="white"/>
</g>
<path d="M122.245 34.6636C125.172 32.3688 125.265 28.5726 122.452 26.1846C119.639 23.7966 114.986 23.7211 112.059 26.0159C109.132 28.3107 109.039 32.1068 111.852 34.4948C114.665 36.8828 119.318 36.9584 122.245 34.6636Z" fill="#FF725E"/>
<g opacity="0.4">
<path d="M119.549 28.0501C119.555 27.857 119.63 27.6694 119.766 27.5112C119.902 27.3531 120.092 27.2313 120.313 27.1614C120.534 27.0915 120.775 27.0766 121.006 27.1185C121.237 27.1605 121.448 27.2574 121.612 27.397C121.776 27.5367 121.885 27.7128 121.926 27.9031C121.967 28.0933 121.938 28.2893 121.842 28.4661C121.747 28.6429 121.589 28.7926 121.389 28.8964C121.19 29.0001 120.957 29.0532 120.72 29.049C120.562 29.0466 120.407 29.0188 120.263 28.9672C120.119 28.9157 119.988 28.8413 119.88 28.7485C119.771 28.6556 119.685 28.5461 119.629 28.4262C119.572 28.3064 119.545 28.1785 119.549 28.0501Z" fill="black"/>
</g>
<g opacity="0.4">
<path d="M121.944 30.3321C121.947 30.2188 121.991 30.1087 122.07 30.0158C122.15 29.9228 122.261 29.8512 122.391 29.81C122.52 29.7689 122.662 29.76 122.797 29.7845C122.933 29.809 123.057 29.8658 123.153 29.9477C123.249 30.0296 123.313 30.133 123.337 30.2446C123.361 30.3562 123.343 30.4712 123.287 30.5748C123.231 30.6785 123.138 30.7662 123.021 30.8268C122.904 30.8874 122.767 30.9183 122.628 30.9154C122.536 30.914 122.445 30.8978 122.361 30.8676C122.277 30.8375 122.201 30.7941 122.137 30.7399C122.074 30.6856 122.024 30.6217 121.991 30.5517C121.958 30.4818 121.942 30.4071 121.944 30.3321Z" fill="black"/>
</g>
<g opacity="0.4">
<path d="M121.01 32.082C121.044 32.0819 121.077 32.0875 121.108 32.0982C121.139 32.1089 121.167 32.1246 121.191 32.1443C121.214 32.164 121.232 32.1874 121.244 32.213C121.256 32.2386 121.262 32.266 121.261 32.2934C121.258 32.3492 121.229 32.402 121.18 32.4408C121.131 32.4796 121.065 32.5012 120.997 32.5012C120.929 32.4993 120.865 32.4757 120.818 32.4354C120.771 32.3952 120.746 32.3416 120.747 32.2861C120.747 32.2585 120.755 32.2313 120.768 32.206C120.782 32.1807 120.801 32.1579 120.826 32.1389C120.851 32.1199 120.88 32.1051 120.911 32.0953C120.943 32.0855 120.977 32.081 121.01 32.082Z" fill="black"/>
</g>
</svg>
