<svg width="119" height="96" viewBox="0 0 119 96" fill="none" xmlns="http://www.w3.org/2000/svg">
<g id="Group">
<path id="Vector" d="M117.318 0H1.68181C0.885686 0 0.236359 0.59896 0.236359 1.33333V94.6667C0.236359 95.4063 0.885686 96 1.68181 96H117.318C118.12 96 118.764 95.4063 118.764 94.6667V1.33333C118.764 0.59896 118.12 0 117.318 0ZM3.12727 2.66667H115.873V20H3.12727V2.66667ZM115.873 93.3333H3.12727V22.6667H115.873V93.3333Z" fill="#070D0D"/>
<path id="Vector_2" d="M13.9682 6.66666C11.1789 6.66666 8.90909 8.76039 8.90909 11.3333C8.90909 13.9063 11.1789 16 13.9682 16C16.7575 16 19.0273 13.9063 19.0273 11.3333C19.0273 8.76039 16.7575 6.66666 13.9682 6.66666ZM13.9682 13.3333C12.7712 13.3333 11.8 12.4375 11.8 11.3333C11.8 10.2292 12.7712 9.33332 13.9682 9.33332C15.1652 9.33332 16.1364 10.2292 16.1364 11.3333C16.1364 12.4375 15.1652 13.3333 13.9682 13.3333Z" fill="#070D0D"/>
<path id="Vector_3" d="M41.3754 69.9267C41.6577 70.1871 42.0304 70.3173 42.3974 70.3173C42.7644 70.3173 43.1371 70.1871 43.4194 69.9267C43.984 69.4058 43.984 68.5621 43.4194 68.0412L32.5334 57.9996L43.4194 47.958C43.984 47.4372 43.984 46.5934 43.4194 46.0725C42.8548 45.5517 41.9401 45.5517 41.3754 46.0725L29.4673 57.0569C28.9027 57.5777 28.9027 58.4214 29.4673 58.9424L41.3754 69.9267Z" fill="#070D0D"/>
<path id="Vector_4" d="M75.3769 69.9267C75.6592 70.1871 76.0319 70.3173 76.3989 70.3173C76.7659 70.3173 77.1385 70.1871 77.4209 69.9267L89.3289 58.9423C89.8936 58.4214 89.8936 57.5777 89.3289 57.0568L77.4209 46.0724C76.8562 45.5516 75.9416 45.5516 75.3768 46.0724C74.8122 46.5932 74.8122 47.4369 75.3768 47.9579L86.2628 57.9995L75.3768 68.0411C74.8122 68.5619 74.8123 69.4057 75.3769 69.9267Z" fill="#070D0D"/>
<path id="Vector_5" d="M49.7547 79.2293C49.9354 79.3022 50.1274 79.3335 50.3137 79.3335C50.8783 79.3335 51.4147 79.0262 51.6462 78.5158L69.8156 38.5158C70.1261 37.8387 69.7761 37.0574 69.0421 36.771C68.3024 36.4897 67.461 36.8074 67.1505 37.4845L48.9812 77.4845C48.6706 78.1616 49.0207 78.9429 49.7547 79.2293Z" fill="#070D0D"/>
<path id="Vector_6" d="M109.667 7.05734C109.103 6.53651 108.188 6.53651 107.623 7.05734L105.032 9.44801L102.44 7.05734C101.875 6.53651 100.961 6.53651 100.396 7.05734C99.8312 7.57816 99.8313 8.42187 100.396 8.9428L102.988 11.3335L100.396 13.7241C99.8313 14.245 99.8313 15.0887 100.396 15.6096C100.678 15.87 101.051 16.0002 101.418 16.0002C101.785 16.0002 102.158 15.87 102.44 15.6096L105.032 13.2189L107.623 15.6096C107.906 15.87 108.278 16.0002 108.645 16.0002C109.012 16.0002 109.385 15.87 109.667 15.6096C110.232 15.0888 110.232 14.2451 109.667 13.7241L107.076 11.3335L109.667 8.9428C110.232 8.42198 110.232 7.57827 109.667 7.05734Z" fill="#070D0D"/>
</g>
</svg>
