<svg width="159" height="162" viewBox="0 0 159 162" fill="none" xmlns="http://www.w3.org/2000/svg">
<path d="M138.563 1H17.7437V80.063H138.563V1Z" fill="white" stroke="#263238" stroke-linecap="round" stroke-linejoin="round"/>
<path d="M87.3715 11.3884H21.8544V17.5652H87.3715V11.3884Z" stroke="#263238" stroke-linecap="round" stroke-linejoin="round"/>
<path d="M87.3715 21.066H21.8544V56.7508H87.3715V21.066Z" stroke="#263238" stroke-linecap="round" stroke-linejoin="round"/>
<path d="M135.456 46.8642H91.0841V75.2888H135.456V46.8642Z" stroke="#263238" stroke-linecap="round" stroke-linejoin="round"/>
<path d="M91.0841 75.2888L135.456 46.8642" stroke="#263238" stroke-linecap="round" stroke-linejoin="round"/>
<path d="M135.456 75.2888L91.0841 46.8642" stroke="#263238" stroke-linecap="round" stroke-linejoin="round"/>
<path d="M75.8884 62.1712H86.6247" stroke="#263238" stroke-linecap="round" stroke-linejoin="round"/>
<path d="M56.8426 62.1712H73.6587" stroke="#263238" stroke-linecap="round" stroke-linejoin="round"/>
<path d="M30.907 62.1712H53.5985" stroke="#263238" stroke-linecap="round" stroke-linejoin="round"/>
<path d="M22.1961 62.1712H28.2723" stroke="#263238" stroke-linecap="round" stroke-linejoin="round"/>
<path d="M37.9977 65.4478H86.6247" stroke="#263238" stroke-linecap="round" stroke-linejoin="round"/>
<path d="M22.1961 65.4478H35.5672" stroke="#263238" stroke-linecap="round" stroke-linejoin="round"/>
<path d="M63.7289 68.7281H86.6247" stroke="#263238" stroke-linecap="round" stroke-linejoin="round"/>
<path d="M41.0375 68.7281H60.4883" stroke="#263238" stroke-linecap="round" stroke-linejoin="round"/>
<path d="M22.1961 68.7281H38.8078" stroke="#263238" stroke-linecap="round" stroke-linejoin="round"/>
<path d="M60.0833 72.0085H86.6247" stroke="#263238" stroke-linecap="round" stroke-linejoin="round"/>
<path d="M38.4027 72.0085H57.4485" stroke="#263238" stroke-linecap="round" stroke-linejoin="round"/>
<path d="M22.1961 72.0085H36.1766" stroke="#263238" stroke-linecap="round" stroke-linejoin="round"/>
<path d="M74.8738 75.2888H86.6246" stroke="#263238" stroke-linecap="round" stroke-linejoin="round"/>
<path d="M47.1172 75.2888H72.6442" stroke="#263238" stroke-linecap="round" stroke-linejoin="round"/>
<path d="M35.5672 75.2888H44.8875" stroke="#263238" stroke-linecap="round" stroke-linejoin="round"/>
<path d="M26.4512 75.2888H31.9215" stroke="#263238" stroke-linecap="round" stroke-linejoin="round"/>
<path d="M22.1961 75.2888H26.4512" stroke="#263238" stroke-linecap="round" stroke-linejoin="round"/>
<path d="M138.563 1H17.7437V6.70166H138.563V1Z" fill="#407BFF" stroke="#263238" stroke-linecap="round" stroke-linejoin="round"/>
<path d="M135.84 2.71051H35.0987V5.01018H135.84V2.71051Z" fill="white" stroke="#263238" stroke-linecap="round" stroke-linejoin="round"/>
<path d="M32.9993 2.71051H19.6035V5.01018H32.9993V2.71051Z" fill="white" stroke="#263238" stroke-linecap="round" stroke-linejoin="round"/>
<path d="M145.502 14.6688H99.7105V42.797H145.502V14.6688Z" fill="white" stroke="#263238" stroke-linecap="round" stroke-linejoin="round"/>
<path d="M145.502 37.4754H99.7105V42.797H145.502V37.4754Z" fill="white" stroke="#263238" stroke-linecap="round" stroke-linejoin="round"/>
<path d="M128.633 26.5663L116.583 19.0591V34.0735L128.633 26.5663Z" fill="#407BFF" stroke="#263238" stroke-linecap="round" stroke-linejoin="round"/>
<path d="M101.215 13.194H98.5798V16.0372H101.215V13.194Z" fill="white" stroke="#263238" stroke-linecap="round" stroke-linejoin="round"/>
<path d="M146.7 13.194H144.065V16.0372H146.7V13.194Z" fill="white" stroke="#263238" stroke-linecap="round" stroke-linejoin="round"/>
<path d="M101.215 40.8508H98.5798V43.6941H101.215V40.8508Z" fill="white" stroke="#263238" stroke-linecap="round" stroke-linejoin="round"/>
<path d="M146.7 40.8508H144.065V43.6941H146.7V40.8508Z" fill="white" stroke="#263238" stroke-linecap="round" stroke-linejoin="round"/>
<path d="M44.9862 37.8099V42.7514H43.8484V31.7586H44.9862V36.7H47.4906V31.7586H48.6249V42.759H47.4906V37.8175L44.9862 37.8099Z" fill="#263238"/>
<path d="M51.2596 42.759V32.8761H49.3821V31.7586H54.2607V32.8761H52.3832V42.759H51.2596Z" fill="#263238"/>
<path d="M58.787 42.7438H57.695L56.0078 34.0012V42.7704H55.018V31.7586H56.6031L58.2798 40.5315L59.8966 31.7472H61.4816V42.7476H60.4038V33.9138L58.787 42.7438Z" fill="#263238"/>
<path d="M62.6476 42.759V31.7586H63.7818V41.6415H66.7054V42.759H62.6476Z" fill="#263238"/>
<path d="M139.338 41.4818L141.772 53.2652C141.794 53.343 141.838 53.4119 141.896 53.4632C141.955 53.5145 142.027 53.546 142.102 53.5537C142.177 53.5614 142.253 53.545 142.319 53.5065C142.386 53.4681 142.44 53.4093 142.476 53.3375L144.054 49.753C144.085 49.6809 144.135 49.6201 144.198 49.5782C144.26 49.5364 144.333 49.5152 144.407 49.5173L148.077 49.734C148.155 49.7379 148.232 49.7161 148.298 49.6716C148.364 49.627 148.416 49.5619 148.447 49.4848C148.478 49.4077 148.486 49.3222 148.471 49.2398C148.456 49.1574 148.418 49.0818 148.362 49.0232L139.972 41.0751C139.911 41.0137 139.834 40.9753 139.751 40.9656C139.668 40.9559 139.585 40.9755 139.513 41.0213C139.442 41.0672 139.386 41.1369 139.354 41.22C139.323 41.303 139.317 41.3949 139.338 41.4818Z" fill="#263238"/>
<path d="M149.363 51.9348H146.076V55.4812H149.363V51.9348Z" fill="white" stroke="#263238" stroke-width="0.75" stroke-linecap="round" stroke-linejoin="round"/>
<path d="M146.305 51.6535H145.812V52.1857H146.305V51.6535Z" fill="#263238"/>
<path d="M147.975 51.6535H147.482V52.1857H147.975V51.6535Z" fill="#263238"/>
<path d="M149.574 51.6535H149.081V52.1857H149.574V51.6535Z" fill="#263238"/>
<path d="M146.305 53.4477H145.812V53.9798H146.305V53.4477Z" fill="#263238"/>
<path d="M147.975 53.4477H147.482V53.9798H147.975V53.4477Z" fill="#263238"/>
<path d="M149.574 53.4477H149.081V53.9798H149.574V53.4477Z" fill="#263238"/>
<path d="M146.305 55.1734H145.812V55.7055H146.305V55.1734Z" fill="#263238"/>
<path d="M147.975 55.1734H147.482V55.7055H147.975V55.1734Z" fill="#263238"/>
<path d="M149.574 55.1734H149.081V55.7055H149.574V55.1734Z" fill="#263238"/>
<path d="M59.8261 106.61L58.7834 106.83L55.7647 90.7251L56.8073 90.5046L59.8261 106.61Z" fill="white" stroke="#263238" stroke-linecap="round" stroke-linejoin="round"/>
<path d="M78.5513 106.291H58.72V107.055H78.5513V106.291Z" fill="white" stroke="#263238" stroke-linecap="round" stroke-linejoin="round"/>
<path d="M114.681 146.411H84.0392V148.027H114.681V146.411Z" fill="white" stroke="#263238" stroke-linecap="round" stroke-linejoin="round"/>
<path d="M119.306 96.632C119.306 96.632 116.403 121.461 115.6 129.154C114.797 136.848 117.953 161 117.953 161H116.111L112.493 133.632H85.4623L83.7327 160.51H82.352L84.6697 129.28V125.885C84.6697 125.712 84.7014 125.54 84.763 125.379C84.8246 125.219 84.9149 125.073 85.0287 124.95C85.1426 124.827 85.2777 124.73 85.4264 124.663C85.5751 124.597 85.7345 124.563 85.8955 124.563H111.792L115.847 93.9028C115.847 93.9028 116.305 91.0482 118.605 91.9187C120.905 92.7891 119.306 96.632 119.306 96.632Z" fill="#263238" stroke="#263238" stroke-linecap="round" stroke-linejoin="round"/>
<path d="M118.615 91.9187C118.555 91.8937 118.494 91.8721 118.432 91.854C118.608 92.2341 118.714 92.8955 118.503 94.1347C118.041 96.8677 113.184 129.39 113.184 129.39H84.6521L82.3661 160.871H83.7469L86.755 133.609H112.497L116.114 160.977H117.957C117.957 160.977 114.786 136.829 115.604 129.131C116.421 121.434 119.852 97.1756 119.852 97.1756C119.852 97.1756 120.919 92.7853 118.615 91.9187Z" fill="white" stroke="#263238" stroke-linecap="round" stroke-linejoin="round"/>
<path d="M91.0453 98.7987L76.6491 99.6805L70.2278 103.687L68.9597 106.032L69.953 106.226L72.2179 105.15C72.2179 105.15 74.7541 104.664 75.4797 104.371C76.2053 104.078 78.1884 101.729 78.1884 101.729L91.5736 104.075L91.0453 98.7987Z" fill="white" stroke="#263238" stroke-linecap="round" stroke-linejoin="round"/>
<path d="M70.2806 146.81C70.2806 146.81 67.7445 151.6 67.3817 151.6C67.0189 151.6 64.0812 152.303 61.7458 151.033C59.4104 149.764 57.6703 148.787 56.9447 149.958C56.5819 150.505 56.2782 151.096 56.0395 151.718C56.0395 151.718 58.2128 155.04 60.2065 156.211C62.2002 157.381 63.0526 156.777 65.1379 158.047C67.2232 159.316 67.4028 160.293 69.1217 159.905C70.8407 159.518 71.841 153.554 72.2919 152.869C72.7428 152.185 74.4547 148.373 74.4547 148.373L70.2806 146.81Z" fill="white" stroke="#263238" stroke-linecap="round" stroke-linejoin="round"/>
<path d="M67.8184 151.106C67.6106 151.41 67.4662 151.6 67.3817 151.6C67.0294 151.6 64.0811 152.303 61.7458 151.033C59.4104 149.764 57.6703 148.787 56.9447 149.958C56.5819 150.505 56.2782 151.096 56.0395 151.718C56.0395 151.718 58.2128 155.04 60.2065 156.211C62.2002 157.381 63.0526 156.777 65.1379 158.046C67.2232 159.316 67.4028 160.293 69.1217 159.905C70.6469 159.556 71.5874 154.846 72.1158 153.295C70.5518 152.862 68.8752 151.832 67.8184 151.106Z" fill="#263238" stroke="#263238" stroke-linecap="round" stroke-linejoin="round"/>
<path d="M69.1006 159.905C69.1523 159.892 69.2029 159.874 69.2521 159.852C69.2691 159.846 69.2857 159.838 69.3014 159.829L69.4 159.776L69.4564 159.738L69.5445 159.673L69.6008 159.624L69.6854 159.544L69.7382 159.487C69.7693 159.456 69.7987 159.423 69.8263 159.388L69.8756 159.327C69.9038 159.289 69.9355 159.251 69.9636 159.21L70.0059 159.153L70.1081 158.993L70.1327 158.955C70.2032 158.841 70.2701 158.716 70.337 158.575C68.5758 158.575 67.3782 157.378 65.4796 156.674C63.1266 155.796 62.9928 156.503 61.2738 155.23C59.5549 153.957 59.3717 153.181 59.3717 153.181L60.8969 150.581C58.9701 149.555 57.5647 148.924 56.9271 149.954C56.5643 150.502 56.2606 151.092 56.0219 151.714C56.0219 151.714 58.1952 155.036 60.1889 156.207C62.1826 157.378 63.035 156.773 65.1203 158.043C67.2056 159.312 67.3817 160.293 69.1006 159.905Z" fill="white" stroke="#263238" stroke-linecap="round" stroke-linejoin="round"/>
<path d="M72.9964 122.381L64.9441 144.074L74.5427 149.939C74.5427 149.939 84.7577 124.924 84.8634 124.433C84.9691 123.943 86.7655 123.456 86.7655 123.456L94.0921 124.536C94.0921 124.536 83.0458 119.26 79.7876 118.477C76.5293 117.694 74.3525 118.279 72.9964 122.381Z" fill="#407BFF" stroke="#263238" stroke-linecap="round" stroke-linejoin="round"/>
<path d="M81.3551 139.254L85.885 143.846C85.885 143.846 84.3457 147.951 82.5351 150.589C80.7246 153.227 80.5414 154.77 81.3551 155.374C82.1688 155.979 83.7997 155.865 84.8775 155.082C85.9554 154.299 92.1196 147.753 92.8453 146.582C93.0785 146.184 93.1712 145.708 93.1065 145.242C93.0419 144.776 92.8241 144.351 92.493 144.043C92.2218 143.846 86.2478 136.126 86.2478 136.126L81.3551 139.254Z" fill="white" stroke="#263238" stroke-linecap="round" stroke-linejoin="round"/>
<path d="M92.8559 146.582C93.089 146.184 93.1818 145.708 93.1171 145.242C93.0524 144.776 92.8347 144.351 92.5036 144.043C92.3768 143.948 90.9714 142.173 89.5236 140.326C88.1992 142.055 85.8075 143.021 85.2791 143.222L85.8956 143.846C85.8956 143.846 84.3563 147.951 82.5457 150.589C80.7352 153.227 80.552 154.77 81.3657 155.374C82.1794 155.979 83.8103 155.865 84.8881 155.082C85.966 154.299 92.1302 147.753 92.8559 146.582Z" fill="#263238" stroke="#263238" stroke-linecap="round" stroke-linejoin="round"/>
<path d="M92.6093 144.15C92.5632 144.822 92.334 145.465 91.9506 145.997C90.8657 147.46 84.7965 153.519 84.7965 153.519L81.9786 151.421C80.6824 153.557 80.6154 154.842 81.3375 155.374C82.1547 155.964 83.7821 155.865 84.86 155.082C85.9378 154.299 92.102 147.753 92.8277 146.582C93.0505 146.21 93.1502 145.767 93.1106 145.325C93.071 144.884 92.8943 144.469 92.6093 144.15Z" fill="white" stroke="#263238" stroke-linecap="round" stroke-linejoin="round"/>
<path d="M90.0484 143.652C90.0576 143.857 90.0097 144.06 89.9109 144.235C89.8121 144.41 89.667 144.549 89.4942 144.634C89.3214 144.72 89.1289 144.747 88.9415 144.713C88.7541 144.68 88.5804 144.586 88.4428 144.445C88.3052 144.303 88.2099 144.121 88.1694 143.92C88.1288 143.72 88.1448 143.511 88.2152 143.321C88.2856 143.13 88.4073 142.967 88.5646 142.852C88.7218 142.737 88.9074 142.675 89.0974 142.675C89.3434 142.669 89.5817 142.768 89.76 142.951C89.9383 143.134 90.042 143.386 90.0484 143.652Z" fill="white"/>
<path d="M92.9474 108.377L92.493 110.039C92.493 110.039 78.8225 110.232 72.8449 111.992C66.8674 113.752 65.24 114.729 65.6909 118.344C66.1418 121.959 75.3811 142.781 75.3811 142.781C77.2404 142.218 79.0564 141.5 80.8127 140.634C82.8925 139.54 84.8646 138.222 86.6986 136.7L79.8158 122.529C79.8158 122.529 87.6955 124.289 96.4769 125.167C105.258 126.045 108.974 125.068 110.422 122.236C111.87 119.404 109.425 108.07 109.425 108.07L93.039 107.48L92.9474 108.377Z" fill="#407BFF" stroke="#263238" stroke-linecap="round" stroke-linejoin="round"/>
<path d="M73.7502 117.865C73.4418 117.539 73.1709 117.174 72.9436 116.778" stroke="#263238" stroke-linecap="round" stroke-linejoin="round"/>
<path d="M79.8158 122.544C77.9856 121.418 76.2401 120.138 74.5956 118.716" stroke="#263238" stroke-linecap="round" stroke-linejoin="round"/>
<path d="M80.8303 130.705L81.5559 131.085" stroke="#263238" stroke-linecap="round" stroke-linejoin="round"/>
<path d="M68.1531 119.184C71.2549 123.563 75.1378 127.227 79.5728 129.96" stroke="#263238" stroke-linecap="round" stroke-linejoin="round"/>
<path d="M106.09 114.855C106.435 115.144 106.764 115.458 107.072 115.793" stroke="#263238" stroke-linecap="round" stroke-linejoin="round"/>
<path d="M93.3983 110.232C93.3983 110.232 100.035 110.787 104.719 113.836" stroke="#263238" stroke-linecap="round" stroke-linejoin="round"/>
<path d="M102.454 111.893C102.454 111.893 106.801 111.992 108.52 113.946" stroke="#263238" stroke-linecap="round" stroke-linejoin="round"/>
<path d="M94.2155 79.0633C94.2155 79.0633 91.1369 88.9462 90.6931 91.9605C90.2492 94.9748 90.5134 108.18 90.5134 108.18C90.5134 108.18 97.7555 110.525 101.831 110.039C105.906 109.552 110.989 108.67 110.989 108.67C110.989 108.67 110.084 91.1851 109.27 85.1223C108.457 79.0595 106.555 75.5435 104.744 74.0801C103.54 73.1254 102.268 72.2752 100.94 71.5371L94.2155 79.0633Z" fill="#263238" stroke="#263238" stroke-linecap="round" stroke-linejoin="round"/>
<path d="M78.2765 63.8209C78.4733 65.0592 78.8728 66.2498 79.4565 67.3369C80.3618 68.8992 81.6299 69.5834 81.2671 71.138C80.9043 72.6927 80.9148 73.776 81.9716 73.871L83.06 73.9698C83.06 73.9698 85.2333 77.9762 86.8642 77.9762C88.4951 77.9762 93.1235 73.4947 93.1235 73.4947C93.1235 73.4947 90.679 61.0841 90.679 60.6926C90.679 60.3011 77.7306 62.1598 77.7306 62.1598L78.2765 63.8209Z" fill="white" stroke="#263238" stroke-linecap="round" stroke-linejoin="round"/>
<path d="M83.6658 68.8422C83.8384 69.2223 83.7785 69.6518 83.5284 69.781C83.2783 69.9103 82.9402 69.6974 82.7676 69.3059C82.595 68.9144 82.6549 68.4963 82.9049 68.3708C83.155 68.2454 83.4932 68.4544 83.6658 68.8422Z" fill="#263238"/>
<path d="M81.4468 67.7284C81.4468 67.7284 81.3552 66.36 83.2573 66.6527" stroke="#263238" stroke-linecap="round" stroke-linejoin="round"/>
<path d="M84.092 74.2929C84.1484 74.5096 86.3041 74.3804 85.973 72.3202" stroke="#263238" stroke-linecap="round" stroke-linejoin="round"/>
<path d="M96.6459 59.2253C96.3465 55.2684 91.7815 56.785 89.6433 57.9824L89.5835 57.8607L80.9817 60.4987C80.9113 60.8753 80.952 61.2662 81.0979 61.6166C81.2438 61.967 81.4877 62.2593 81.7954 62.4525C83.5961 63.8996 85.7236 64.7988 87.9561 65.0562C88.5972 69.1918 89.4919 75.3724 89.4919 77.6949C89.4919 81.3098 88.2238 82.6782 88.2238 82.6782C88.2238 82.6782 94.0182 80.7244 97.3821 77.3034C99.3365 75.3392 101.042 73.1051 102.454 70.6591C102.454 70.6591 97.0228 64.0147 96.6459 59.2253Z" fill="#407BFF" stroke="#263238" stroke-linecap="round" stroke-linejoin="round"/>
<path d="M87.9702 65.0563L87.7131 63.7639" stroke="#263238" stroke-linecap="round" stroke-linejoin="round"/>
<path d="M92.2676 74.0497C92.3416 74.4944 92.4015 74.9087 92.4437 75.2698" stroke="#263238" stroke-linecap="round" stroke-linejoin="round"/>
<path d="M90.0273 63.7639C90.0273 63.7639 91.306 68.8612 92.0281 72.6889" stroke="#263238" stroke-linecap="round" stroke-linejoin="round"/>
<path d="M94.3035 65.0448L96.0612 70.0585" stroke="#263238" stroke-linecap="round" stroke-linejoin="round"/>
<path d="M93.5497 62.8934L94.0041 64.1896" stroke="#263238" stroke-linecap="round" stroke-linejoin="round"/>
<path d="M95.7618 63.0036L96.5649 65.1741" stroke="#263238" stroke-linecap="round" stroke-linejoin="round"/>
<path d="M77.3889 63.6688C77.3889 63.6688 71.3303 67.1392 73.3487 67.1392C75.367 67.1392 85.4694 62.6349 85.8709 62.6349C86.2725 62.6349 79.1396 63.3761 77.3889 63.6688Z" fill="#757575" stroke="#263238" stroke-linecap="round" stroke-linejoin="round"/>
<path d="M77.3889 63.6688C77.3889 63.6688 73.7643 64.908 75.3811 60.6926C76.9979 56.4771 88.0055 50.3345 92.5846 50.3345C97.1638 50.3345 100.549 57.7087 99.8761 60.035C99.2033 62.3612 97.7203 62.6501 97.0581 62.6501C96.3959 62.6501 77.3889 63.6688 77.3889 63.6688Z" fill="#757575" stroke="#263238" stroke-linecap="round" stroke-linejoin="round"/>
<path d="M79.1395 62.3613C79.1395 62.3613 85.737 62.5057 91.394 61.6352C97.051 60.7648 99.337 59.8905 99.337 59.8905" stroke="#263238" stroke-linecap="round" stroke-linejoin="round"/>
<path d="M98.5304 61.7797L89.6434 61.9241" stroke="#263238" stroke-linecap="round" stroke-linejoin="round"/>
<path d="M92.9474 100.167L91.7709 101.349C91.7709 101.349 77.1 99.2966 76.1031 99.5893C75.1063 99.882 71.5768 100.958 71.5768 100.958L68.7589 101.152L66.4975 105.257H67.2196L68.8505 102.813H69.8755L68.153 104.964L67.4098 106.127L69.9424 106.226L70.3123 105.888L71.7565 104.565L71.3021 106.032H71.8445L73.1126 103.687L74.8351 102.71L76.6456 101.342C76.6456 101.342 95.1172 108.279 95.5681 108.564C96.0189 108.849 97.0193 109.639 97.833 108.856C98.6466 108.073 100.82 101.528 100.82 101.528L92.9474 100.167Z" fill="white" stroke="#263238" stroke-linecap="round" stroke-linejoin="round"/>
<path d="M68.5441 105.994C69.4834 105.198 70.3136 104.263 71.0098 103.216C71.0098 103.216 71.1331 102.185 71.9644 102.022" stroke="#263238" stroke-linecap="round" stroke-linejoin="round"/>
<path d="M71.76 104.565L72.1686 102.866L72.6195 102.474" stroke="#263238" stroke-linecap="round" stroke-linejoin="round"/>
<path d="M69.8756 102.805C70.1143 102.393 70.4033 102.017 70.7351 101.688C71.0415 101.49 71.2282 101.391 71.2282 101.391" stroke="#263238" stroke-linecap="round" stroke-linejoin="round"/>
<path d="M85.1981 104.565C90.1013 106.42 95.3356 108.419 95.5892 108.571C96.0436 108.864 97.0404 109.647 97.8541 108.864C98.6678 108.081 100.841 101.535 100.841 101.535L92.965 100.167L91.7709 101.349C91.7709 101.349 89.0727 100.969 85.9166 100.562L85.1981 104.565Z" fill="#757575" stroke="#263238" stroke-linecap="round" stroke-linejoin="round"/>
<path d="M95.5893 85.3161L91.6794 99.4828C91.6794 99.4828 92.0316 101.44 95.6632 102.524C97.6639 103.155 99.7361 103.484 101.82 103.501L104.719 85.9129" fill="#263238"/>
<path d="M95.5893 85.3161L91.6794 99.4828C91.6794 99.4828 92.0316 101.44 95.6632 102.524C97.6639 103.155 99.7361 103.484 101.82 103.501L104.719 85.9129" stroke="#263238" stroke-linecap="round" stroke-linejoin="round"/>
<path d="M95.3286 86.5933L91.7956 98.4109" stroke="#707070" stroke-linecap="round" stroke-linejoin="round"/>
<path d="M103.955 90.3792L102.218 102.413" stroke="#707070" stroke-linecap="round" stroke-linejoin="round"/>
<path d="M104.335 87.7336L104.145 89.0564" stroke="#707070" stroke-linecap="round" stroke-linejoin="round"/>
<path d="M63.0069 108.001H59.8367V158.86H63.0069V108.001Z" fill="#263238" stroke="#263238" stroke-linecap="round" stroke-linejoin="round"/>
<path d="M84.6169 107.104H37.4305V109.206H84.6169V107.104Z" fill="#757575" stroke="#263238" stroke-linecap="round" stroke-linejoin="round"/>
<path d="M78.4104 160.939H44.4401C44.4411 160.382 44.6466 159.848 45.0117 159.454C45.3768 159.06 45.8717 158.838 46.388 158.837H76.4625C76.9788 158.838 77.4737 159.06 77.8388 159.454C78.2039 159.848 78.4094 160.382 78.4104 160.939Z" fill="#757575" stroke="#263238" stroke-linecap="round" stroke-linejoin="round"/>
<path d="M51.0693 107.477H44.8698L43.9399 94.9634H51.9992L51.0693 107.477Z" fill="#407BFF" stroke="#263238" stroke-linecap="round" stroke-linejoin="round"/>
<path d="M52.3303 93.728H43.3763V96.5788H52.3303V93.728Z" fill="white" stroke="#263238" stroke-linecap="round" stroke-linejoin="round"/>
<path d="M51.3264 104.006L51.6681 99.4259H44.271L44.6126 104.006H51.3264Z" fill="white" stroke="#263238" stroke-linecap="round" stroke-linejoin="round"/>
<path d="M151.712 161H155.939" stroke="#263238" stroke-linecap="round" stroke-linejoin="round"/>
<path d="M144.667 161H149.13" stroke="#263238" stroke-linecap="round" stroke-linejoin="round"/>
<path d="M37.3531 161H142.085" stroke="#263238" stroke-linecap="round" stroke-linejoin="round"/>
<path d="M8.39862 161H34.063" stroke="#263238" stroke-linecap="round" stroke-linejoin="round"/>
</svg>
