<svg width="157" height="312" viewBox="0 0 157 312" fill="none" xmlns="http://www.w3.org/2000/svg">
<path d="M68.3793 141.563C70.2805 147.598 73.3162 153.165 75.6412 159.032C78.1124 165.268 79.2147 171.631 78.5794 178.334C77.934 185.136 75.8756 191.729 73.7134 198.178C71.7662 203.986 69.5956 209.692 69.8337 215.921C70.0838 222.476 72.6644 228.65 75.0593 234.66C75.3838 235.475 76.7178 235.12 76.3886 234.293C74.2116 228.827 71.8103 223.202 71.2973 217.277C70.7448 210.901 72.8317 205.11 74.834 199.167C76.9614 192.855 78.9674 186.455 79.7939 179.823C80.5974 173.38 79.9796 167.038 77.8164 160.914C75.4463 154.203 71.8508 147.994 69.7096 141.195C69.4439 140.352 68.1118 140.712 68.3803 141.562L68.3793 141.563Z" fill="#263238"/>
<path d="M8.18406 114.458C-5.73937 93.4688 -1.01946 71.1398 15.7107 60.0452C32.4409 48.9506 54.8415 53.2973 68.7889 74.2362C82.1074 94.3357 84.027 124.253 69.4784 136.479C71.4669 136.981 73.1999 138.204 74.3399 139.909L66.5411 145.068C65.4112 143.356 64.9626 141.284 65.2834 139.257C48.3161 147.964 21.5026 134.557 8.18406 114.458Z" fill="#02A66A"/>
<path d="M70.1578 136.856C70.2277 136.703 70.2424 136.531 70.201 136.367C70.11 135.949 69.6963 135.683 69.278 135.775H69.2743C68.8643 135.871 65.1318 136.727 64.5011 139.101C64.3908 139.519 64.6344 139.948 65.0509 140.067C65.4646 140.176 65.8893 139.93 65.9987 139.515L66.0006 139.509C66.3343 138.259 68.7724 137.476 69.609 137.293C69.8508 137.243 70.0549 137.082 70.1578 136.856Z" fill="#263238"/>
<path opacity="0.3" d="M8.18406 114.458C-5.73937 93.4688 -1.01946 71.1398 15.7107 60.0452C32.4409 48.9506 54.8415 53.2973 68.7889 74.2362C82.1074 94.3357 84.027 124.253 69.4784 136.479C71.4669 136.981 73.1999 138.204 74.3399 139.909L66.5411 145.068C65.4112 143.356 64.9626 141.284 65.2834 139.257C48.3161 147.964 21.5026 134.557 8.18406 114.458Z" fill="black"/>
<path d="M77.2474 233.067C74.1493 226.73 74.46 219.314 75.5797 212.528C76.2564 208.428 77.2732 204.383 78.1337 200.317C78.7846 197.239 79.4299 194.157 80.2619 191.121C82.3985 183.325 85.7955 175.958 89.4241 168.759C93.3543 160.963 97.5529 153.214 100.18 144.853C103.011 135.841 104.044 125.971 100.894 116.901C100.604 116.068 99.2721 116.426 99.5644 117.268C105.66 134.814 96.1574 152.379 88.4257 167.683C84.8081 174.843 81.3835 182.165 79.1716 189.899C78.301 192.942 77.6326 196.038 76.9762 199.134C76.1148 203.2 75.1109 207.249 74.3892 211.343C73.0801 218.77 72.6553 226.808 76.056 233.764C76.4458 234.561 77.6354 233.863 77.2465 233.068L77.2474 233.067Z" fill="#263238"/>
<path d="M46.2135 57.5264C42.4626 26.2274 60.3042 3.92416 85.2496 0.939061C110.195 -2.04604 132.788 15.4187 136.594 46.6744C140.17 76.6376 125.477 111.16 102.334 116.638C104.274 118.319 105.523 120.66 105.837 123.208L94.2169 124.585C93.9172 122.036 94.5828 119.466 96.0813 117.383C72.2152 117.565 49.7897 87.4895 46.2135 57.5264Z" fill="#02A66A"/>
<path d="M102.884 117.442C103.048 117.309 103.162 117.125 103.207 116.919C103.34 116.4 103.027 115.871 102.509 115.738H102.504C101.992 115.612 97.3385 114.468 95.2985 116.767C94.9399 117.172 94.9712 117.79 95.3692 118.156C95.7701 118.512 96.3833 118.474 96.7391 118.073L96.7446 118.068C97.8211 116.86 100.987 117.355 102.025 117.623C102.324 117.703 102.642 117.636 102.884 117.442Z" fill="#263238"/>
<g opacity="0.3">
<path d="M69.7825 26.8094C67.9438 19.1678 73.7797 10.0636 84.5829 6.33292C89.1631 5.18374 95.866 6.23547 100.251 7.98682C104.637 9.73816 106.095 10.8092 109.837 13.6876C113.632 16.6066 118.02 21.127 120.497 25.2254C123.365 29.9729 124.375 35.8824 122.907 41.2311C121.44 46.5798 117.419 51.2409 112.216 53.1642C107.015 55.0883 100.757 54.0798 96.6318 50.373C93.9722 47.9827 92.3081 44.7145 90.3518 41.7211C88.3954 38.7277 85.8856 35.8052 82.4519 34.8068C79.6672 33.9968 76.5111 34.5328 73.9636 33.1464C71.6735 31.8998 70.3929 29.344 69.7825 26.8094Z" fill="white"/>
</g>
<path d="M43.3813 35.4262C44.3613 22.1142 52.6657 9.81337 64.5877 3.84593C65.3811 3.44877 64.6842 2.25914 63.8918 2.65538C51.5211 8.84714 43.0163 21.6453 42.0022 35.4262C41.937 36.3115 43.316 36.3079 43.3813 35.4262Z" fill="#02A66A"/>
<path d="M68.6306 1.89692C69.298 1.71581 69.9645 1.53562 70.632 1.35451C70.9804 1.25981 71.2277 0.8599 71.1137 0.505953C70.9979 0.149249 70.6384 -0.0769109 70.2651 0.0242166C69.5977 0.205327 68.9312 0.385518 68.2637 0.566628C67.9153 0.66132 67.668 1.06123 67.782 1.41518C67.8978 1.77188 68.2573 1.99804 68.6306 1.89692Z" fill="#02A66A"/>
<path d="M90.287 281.899C90.1914 276.31 89.0128 270.503 85.5147 266.142L67.9452 274.187C64.9306 277.343 62.5468 281.282 62.043 285.617C61.5383 289.951 63.1903 294.677 66.8098 297.116C65.1035 298.774 63.6666 300.773 62.9872 303.055C62.3087 305.335 62.453 307.921 63.6941 309.951C64.3846 311.08 65.5512 312.069 66.8732 311.996C68.3947 311.912 69.4639 310.528 70.3823 309.313C75.1978 302.941 81.6001 297.937 86.685 291.777C87.985 290.201 89.2196 288.509 89.8089 286.553C90.2613 285.054 90.3137 283.464 90.287 281.899Z" fill="#02A66A"/>
<g opacity="0.3">
<path d="M90.287 281.899C90.1914 276.31 89.0128 270.503 85.5147 266.142L67.9452 274.187C64.9306 277.343 62.5468 281.282 62.043 285.617C61.5383 289.951 63.1903 294.677 66.8098 297.116C65.1035 298.774 63.6666 300.773 62.9872 303.055C62.3087 305.335 62.453 307.921 63.6941 309.951C64.3846 311.08 65.5512 312.069 66.8732 311.996C68.3947 311.912 69.4639 310.528 70.3823 309.313C75.1978 302.941 81.6001 297.937 86.685 291.777C87.985 290.201 89.2196 288.509 89.8089 286.553C90.2613 285.054 90.3137 283.464 90.287 281.899Z" fill="black"/>
</g>
<path d="M122.469 276.227C124.176 282.685 129.897 287.581 136.279 289.552C142.661 291.523 149.597 290.909 156.051 289.189C152.692 294.27 146.699 297.501 140.607 297.515C142.783 298.043 145.035 298.253 147.271 298.135C144.595 300.718 140.724 301.658 137.013 301.873C125.357 302.549 115.927 294.954 115.927 280.456" fill="#02A66A"/>
<path d="M105.182 212.806C109.989 243.331 138.067 286.105 114.196 296.198C90.3254 306.292 62.7663 297.072 62.1301 262.235C61.6953 238.449 61.1188 230.74 57.1151 221.972C53.1114 213.205 105.183 212.807 105.183 212.807L105.182 212.806Z" fill="#02A66A"/>
<path d="M83.61 248.97C82.7679 248.504 81.6601 238.63 92.0625 234.36C102.465 230.089 107.836 224.412 107.836 224.412C107.836 224.412 106.777 217.385 106.078 217.617C105.378 217.851 60.1834 228.96 59.2962 229.349C58.4091 229.738 59.721 231.941 59.721 231.941C59.721 231.941 72.5954 233.938 73.3989 240.111C74.2024 246.284 73.3989 248.969 73.3989 248.969H83.61V248.97Z" fill="#263238"/>
<path d="M71.4209 179.537C63.4567 181.152 42.2429 198.81 48.9403 221.356C52.4448 233.173 69.9371 236.278 83.3531 233.302C96.769 230.326 111.3 220.118 109.483 207.926C106.015 184.663 79.3346 177.625 71.4209 179.537Z" fill="#02A66A"/>
<path d="M84.0552 208.686C78.8931 207.303 77.6189 196.327 75.7076 189.058C75.3013 187.929 74.0565 187.345 72.9284 187.751C71.9981 188.086 71.4115 189.008 71.5016 189.992C72.8485 197.385 76.3309 207.868 72.2261 211.307C66.2025 216.376 54.1261 214.472 56.1238 223.116C58.1224 231.761 70.3433 235.229 83.1083 232.405C95.8724 229.581 105.48 221.263 103.627 212.581C101.774 203.9 91.6885 210.706 84.0571 208.686H84.0552Z" fill="white"/>
<path d="M61.6469 186.546C58.671 189.731 30.9556 188.638 24.0633 194.264C17.171 199.889 32.5056 218.822 57.2672 208.404C65.5569 196.595 61.6478 186.546 61.6478 186.546H61.6469Z" fill="#02A66A"/>
<path opacity="0.3" d="M58.3667 194.539C57.7296 190.644 31.0567 190.601 24.9964 196.791C19.5153 202.395 33.6263 210.417 39.238 210.663C48.1363 211.046 49.5695 209.258 53.3995 207.187C57.2295 205.117 58.967 198.166 58.3667 194.539Z" fill="white"/>
<path d="M70.1807 204.35C70.5153 206.455 69.5417 208.534 68.0064 208.993C66.4711 209.452 64.9551 208.117 64.6205 206.012C64.2868 203.911 65.2549 201.836 66.7846 201.371C68.3144 200.9 69.8323 202.219 70.1752 204.316L70.1807 204.349V204.35Z" fill="#263238"/>
<path d="M76.7207 180.595C82.5126 180.595 96.1243 157.064 104.675 154.609C115.158 151.59 120.929 179.226 95.3787 191.31C81.4562 187.465 76.7207 180.595 76.7207 180.595Z" fill="#02A66A"/>
<path opacity="0.3" d="M83.461 186.321C80.5651 183.614 97.731 158.36 106.246 156.796C113.956 155.348 112.762 171.551 109.808 176.345C105.16 183.939 100.585 187.205 96.7253 189.254C92.8659 191.303 86.14 188.849 83.461 186.321Z" fill="white"/>
<path d="M82.3153 202.337C83.1408 204.265 84.928 205.169 86.308 204.357C87.6879 203.544 88.1375 201.324 87.3128 199.396C86.49 197.473 84.7083 196.568 83.3284 197.372C81.9457 198.177 81.4897 200.395 82.3107 202.326L82.3162 202.338L82.3153 202.337Z" fill="#263238"/>
<path d="M78.8493 213.031C75.0552 213.871 70.2194 215.876 72.0075 217.81C73.7957 219.743 78.1763 221.104 80.5289 220.582C82.8815 220.061 86.2702 216.962 87.0452 214.464C87.8202 211.966 82.6434 212.169 78.8493 213.031Z" fill="#263238"/>
<path d="M80.8908 220.482L80.1836 220.639L80.8077 223.452L81.5149 223.295L80.8908 220.482Z" fill="#263238"/>
<path d="M69.5732 222.804C72.505 224.783 79.7209 227.874 83.1951 226.416C86.6693 224.958 89.5367 217.65 90.1821 214.171C87.47 223.481 77.052 226.582 69.5723 222.804H69.5732Z" fill="#263238"/>
<path d="M74.7518 223.801C74.1919 223.667 73.8168 223.652 73.6817 224.212C73.6753 224.239 73.6697 224.268 73.6651 224.296C73.0207 228.033 73.0786 232.724 79.3338 232.102C84.677 231.566 83.7788 226.484 83.07 224.137C82.9091 223.582 82.3318 223.259 81.7737 223.413C80.7312 223.664 79.6602 223.776 78.5882 223.746C77.3646 223.786 75.9516 224.044 74.7518 223.801Z" fill="#02A66A"/>
<path opacity="0.3" d="M78.0241 229.35C77.6481 228.459 77.7345 225.006 78.0241 223.674L78.7485 223.818C78.4663 225.266 78.4516 228.423 78.7485 229.068L78.0241 229.35Z" fill="#263238"/>
<path d="M79.1854 224.2C75.8583 224.715 71.7388 224.319 69.3466 222.733C68.7849 223.02 68.34 223.492 68.0881 224.07L67.4004 223.84C67.7396 223.005 68.3896 222.334 69.2133 221.97L69.4036 221.874L69.5774 222.001C72.4338 224.035 78.2633 224.115 81.5665 222.827C84.8697 221.54 89.107 217.537 89.8286 214.098L89.87 213.894L90.0842 213.861C90.9291 213.576 91.8512 213.625 92.662 213.997L92.3127 214.63C91.7381 214.377 91.0946 214.329 90.4896 214.494C89.5823 218.1 85.242 222.2 81.835 223.526C80.9781 223.846 80.091 224.071 79.1854 224.2Z" fill="#263238"/>
<path d="M66.2506 244.288C66.2506 244.288 100.032 257.082 108.314 226.057L112.615 238.394C112.615 238.394 109.636 252.368 92.7727 256.406C67.557 262.445 56.8936 252.369 56.8936 252.369L66.2497 244.288H66.2506Z" fill="#263238"/>
<path opacity="0.3" d="M62.1552 263.223C62.1552 263.223 66.2932 261.173 66.4945 258.334C66.6959 255.495 66.4945 253.95 66.4945 253.95C66.4945 253.95 71.2392 243.442 70.5681 242.196C70.4173 241.916 62.089 253.663 61.9539 254.067C61.8187 254.47 62.1552 263.224 62.1552 263.224V263.223Z" fill="black"/>
<path d="M59.7205 231.942C54.9638 236.091 50.2145 250.991 51.6772 255.639C47.4197 261.952 49.0414 265.015 54.8122 264.827C60.5829 264.638 64.6519 258.31 63.9201 255.334C63.1892 252.359 72.6078 244.706 70.3858 238.819C68.6988 234.36 63.0586 229.024 59.7214 231.941L59.7205 231.942Z" fill="#02A66A"/>
<path d="M55.2245 265.196C55.1473 265.196 55.0719 265.174 55.0075 265.131C53.9218 264.327 54.4431 261.308 55.2245 259.527C55.2843 259.336 55.4874 259.23 55.6787 259.29C55.869 259.35 55.9756 259.553 55.9149 259.744C55.9067 259.769 55.8966 259.794 55.8828 259.817C55.0287 261.786 54.9055 264.161 55.4415 264.545C55.6014 264.666 55.6336 264.892 55.5141 265.052C55.4461 265.143 55.3385 265.196 55.2245 265.196Z" fill="#263238"/>
<path d="M51.097 264.638C50.9922 264.637 50.892 264.592 50.8222 264.515C49.9681 263.552 50.7422 260.526 51.9585 258.809C52.0743 258.646 52.3014 258.606 52.465 258.722C52.6287 258.838 52.6682 259.065 52.5514 259.229C51.4004 260.843 50.8645 263.471 51.3637 264.036C51.5034 264.173 51.5062 264.398 51.3692 264.538L51.3637 264.542C51.292 264.61 51.1945 264.644 51.0961 264.636L51.097 264.638Z" fill="#263238"/>
<path opacity="0.3" d="M88.9128 240.593C86.0169 246.19 87.9043 255.859 90.9519 259.674C89.2796 267.103 92.6122 271.283 97.9269 269.01C103.241 266.736 106.372 258.423 104.606 255.918C102.839 253.413 101.727 241.156 97.7081 238.587C93.6897 236.016 90.9694 236.661 88.9128 240.592V240.593Z" fill="black"/>
<path d="M89.946 238.001C87.0501 243.598 89.649 255.182 92.6976 258.998C91.0253 266.426 93.6463 268.692 98.9601 266.419C104.274 264.145 105.759 256.775 103.992 254.27C102.225 251.765 105.795 238.414 101.776 235.843C97.7576 233.273 92.0016 234.069 89.946 238.001Z" fill="#02A66A"/>
<path d="M99.3445 266.629H99.2507C97.9471 266.275 97.3394 263.27 97.4121 261.329C97.4332 261.136 97.5941 260.987 97.789 260.982C97.9885 260.989 98.1439 261.158 98.1365 261.358C98.0565 263.53 98.8021 265.761 99.4401 265.934C99.6295 265.983 99.7444 266.176 99.6966 266.366L99.6939 266.376C99.6461 266.527 99.5054 266.63 99.3464 266.629H99.3445Z" fill="#263238"/>
<path d="M95.2973 267.607C95.2393 267.607 95.1814 267.592 95.1309 267.563C93.9799 266.977 93.6029 263.871 94.1168 261.837C94.1628 261.647 94.354 261.529 94.5443 261.575L94.5508 261.577C94.7438 261.624 94.8643 261.818 94.8183 262.011C94.3329 263.937 94.8183 266.579 95.4554 266.92C95.6356 267.007 95.711 267.223 95.6236 267.404C95.563 267.529 95.4361 267.609 95.2963 267.608L95.2973 267.607Z" fill="#263238"/>
<g opacity="0.3">
<path d="M118.339 284.343C118.256 279.52 117.239 274.509 114.221 270.747L99.0603 277.689C96.4595 280.412 94.4029 283.811 93.9671 287.551C93.5323 291.292 94.9573 295.369 98.0803 297.473C97.229 298.301 96.4567 299.226 95.8417 300.239H104.421L115.23 292.866C116.352 291.507 117.417 290.047 117.926 288.359C118.316 287.065 118.362 285.694 118.338 284.342L118.339 284.343Z" fill="black"/>
</g>
<path d="M123.801 281.899C123.705 276.31 122.526 270.503 119.028 266.142L101.459 274.187C98.4443 277.343 96.0605 281.282 95.5567 285.617C95.0519 289.951 96.704 294.677 100.323 297.116C98.6171 298.774 97.1802 300.773 96.5008 303.055C95.8223 305.335 95.9667 307.921 97.2078 309.951C97.8982 311.08 99.0649 312.069 100.387 311.996C101.908 311.912 102.978 310.528 103.896 309.313C108.712 302.941 115.114 297.937 120.199 291.777C121.499 290.201 122.733 288.509 123.323 286.553C123.775 285.054 123.827 283.464 123.801 281.899Z" fill="#02A66A"/>
<path opacity="0.3" d="M119.11 293.099C119.11 293.099 122.625 289.815 123.68 279.391L126.021 282.895C126.021 282.895 127.573 290.692 121.44 296.194C120.461 295.295 119.715 294.243 119.11 293.099Z" fill="black"/>
<path d="M86.6355 199.183C86.8129 199.713 86.7164 200.224 86.4203 200.323C86.1243 200.421 85.7409 200.072 85.5635 199.54C85.3861 199.01 85.4826 198.499 85.7786 198.4C86.0747 198.301 86.458 198.651 86.6355 199.183Z" fill="white"/>
<path d="M69.0203 204.028C69.1545 204.571 69.0176 205.072 68.7142 205.147C68.4117 205.221 68.0569 204.841 67.9226 204.298C67.7884 203.755 67.9254 203.254 68.2288 203.179C68.5312 203.105 68.8861 203.484 69.0203 204.028Z" fill="white"/>
</svg>
